<?xml version="1.0" encoding="UTF-8"?>
<!DOCTYPE svg PUBLIC "-//W3C//DTD SVG 1.1//EN" "http://www.w3.org/Graphics/SVG/1.1/DTD/svg11.dtd">
<svg xmlns="http://www.w3.org/2000/svg" version="1.1" width="800px" height="800px" style="shape-rendering:geometricPrecision; text-rendering:geometricPrecision; image-rendering:optimizeQuality; fill-rule:evenodd; clip-rule:evenodd" xmlns:xlink="http://www.w3.org/1999/xlink">
<g><path style="opacity:0.935" fill="#9f9fa3" d="M 92.5,95.5 C 93.2506,94.4265 94.2506,94.2599 95.5,95C 176.593,148.927 255.593,205.76 332.5,265.5C 332.187,256.413 335.52,249.08 342.5,243.5C 335.997,238.505 329.33,233.672 322.5,229C 311.477,219.662 308.477,208.162 313.5,194.5C 331.218,208.219 349.218,221.552 367.5,234.5C 388.837,227.865 410.17,227.865 431.5,234.5C 449.5,221.167 467.5,207.833 485.5,194.5C 490.39,208.997 486.723,220.83 474.5,230C 468.283,234.268 462.283,238.768 456.5,243.5C 459.188,246.354 461.688,249.354 464,252.5C 464.602,256.883 465.435,261.216 466.5,265.5C 543.706,204.427 623.706,147.594 706.5,95C 700.575,117.536 694.741,140.036 689,162.5C 696.967,158.1 705.134,154.1 713.5,150.5C 713.833,151.167 714.167,151.833 714.5,152.5C 701.445,197.281 683.945,240.281 662,281.5C 645.686,306.798 623.186,324.298 594.5,334C 589.612,345.111 583.945,355.777 577.5,366C 589.495,366.5 601.495,366.667 613.5,366.5C 613.333,383.503 613.5,400.503 614,417.5C 626.101,423.134 637.935,429.134 649.5,435.5C 637.598,441.368 625.764,447.368 614,453.5C 613.833,468.178 613.333,482.845 612.5,497.5C 601.667,503.749 591,510.249 580.5,517C 565.5,516 550.5,515 535.5,514C 500.33,534.753 464.997,555.253 429.5,575.5C 428.066,577.22 427.233,579.22 427,581.5C 418.102,622.492 409.268,663.492 400.5,704.5C 391.195,661.811 381.695,619.144 372,576.5C 336.412,555.288 300.579,534.455 264.5,514C 249.833,515 235.167,516 220.5,517C 209.666,510.082 198.666,503.415 187.5,497C 186.509,482.245 186.176,467.412 186.5,452.5C 174.468,447.651 162.801,441.984 151.5,435.5C 155.471,432.51 159.804,430.01 164.5,428C 171.749,424.54 179.082,421.373 186.5,418.5C 186.5,401.167 186.5,383.833 186.5,366.5C 198.838,366.667 211.171,366.5 223.5,366C 216.598,355.698 210.598,344.865 205.5,333.5C 177.744,324.889 155.911,308.556 140,284.5C 117.683,241.374 99.1831,196.708 84.5,150.5C 93.3154,153.824 101.815,157.824 110,162.5C 104.006,140.19 98.1727,117.857 92.5,95.5 Z"/></g>
<g><path style="opacity:1" fill="#1e1260" d="M 563.5,372.5 C 577.087,373.499 591.421,373.832 606.5,373.5C 606.17,389.675 606.504,405.675 607.5,421.5C 615.948,426.226 624.615,430.726 633.5,435C 625.079,439.627 616.579,444.127 608,448.5C 607.833,463.178 607.333,477.845 606.5,492.5C 597.5,498 588.5,503.5 579.5,509C 564.786,508.513 550.119,507.513 535.5,506C 497.833,527.667 460.167,549.333 422.5,571C 414.832,602.002 407.665,633.169 401,664.5C 394.026,635.266 387.359,605.933 381,576.5C 380.484,573.966 379.317,571.8 377.5,570C 340.337,548.919 303.337,527.586 266.5,506C 251.522,507.165 236.522,508.165 221.5,509C 212.632,503.302 203.632,497.802 194.5,492.5C 193.667,477.845 193.167,463.178 193,448.5C 184.373,444.034 175.873,439.367 167.5,434.5C 176.25,430.125 184.916,425.792 193.5,421.5C 194.496,405.675 194.83,389.675 194.5,373.5C 209.182,373.833 223.848,373.499 238.5,372.5C 238.376,371.893 238.043,371.56 237.5,371.5C 226.893,358.637 218.56,344.304 212.5,328.5C 191.029,321.832 172.529,310.499 157,294.5C 143.349,274.872 132.016,253.872 123,231.5C 112.952,209.132 104.452,186.465 97.5,163.5C 105.47,168.319 113.803,172.319 122.5,175.5C 115.867,153.964 110.034,132.297 105,110.5C 183.018,162.592 259.185,217.259 333.5,274.5C 336.079,273.294 338.579,271.961 341,270.5C 339.846,262.977 342.012,256.81 347.5,252C 350.339,250.08 353.339,248.413 356.5,247C 346.089,239.045 335.589,231.212 325,223.5C 321.14,219.585 319.473,214.918 320,209.5C 335.677,221.181 351.344,232.848 367,244.5C 388.991,237.858 410.991,237.858 433,244.5C 448.962,233.375 464.795,222.042 480.5,210.5C 481.301,214.945 480.134,218.945 477,222.5C 466.167,230.667 455.333,238.833 444.5,247C 450.069,249.035 454.903,252.202 459,256.5C 460.062,261.423 460.895,266.423 461.5,271.5C 463.833,272.833 466.167,274.167 468.5,275.5C 542.811,217.928 618.978,162.928 697,110.5C 691.781,132.337 685.615,154.003 678.5,175.5C 678.833,175.833 679.167,176.167 679.5,176.5C 687.5,172.5 695.5,168.5 703.5,164.5C 691.824,202.297 676.657,238.964 658,274.5C 642.218,301.576 619.218,319.576 589,328.5C 582.774,344.636 574.274,359.302 563.5,372.5 Z"/></g>
<g><path style="opacity:1" fill="#0a768b" d="M 347.5,303.5 C 277.167,258.167 206.833,212.833 136.5,167.5C 133.081,160.408 130.581,153.075 129,145.5C 203.886,192.058 275.72,242.892 344.5,298C 346.607,299.264 347.607,301.097 347.5,303.5 Z"/></g>
<g><path style="opacity:1" fill="#0f758b" d="M 664.5,168.5 C 664.565,168.062 664.399,167.728 664,167.5C 593.681,212.996 523.514,258.663 453.5,304.5C 453.178,302.278 453.845,300.444 455.5,299C 524.25,244.088 595.917,193.254 670.5,146.5C 670.833,146.833 671.167,147.167 671.5,147.5C 668.658,154.73 666.325,161.73 664.5,168.5 Z"/></g>
<g><path style="opacity:1" fill="#fcfcfd" d="M 664.5,168.5 C 658.121,181.576 652.621,194.909 648,208.5C 658.137,202.347 668.637,197.181 679.5,193C 669.836,217.982 659.003,242.482 647,266.5C 634.67,283.814 618.504,296.314 598.5,304C 590.954,306.738 583.287,309.071 575.5,311C 546.134,314.293 516.8,317.293 487.5,320C 532.924,287.624 577.591,255.124 621.5,222.5C 564.167,253.833 506.833,285.167 449.5,316.5C 449.167,316.167 448.833,315.833 448.5,315.5C 450.367,311.888 452.034,308.221 453.5,304.5C 523.514,258.663 593.681,212.996 664,167.5C 664.399,167.728 664.565,168.062 664.5,168.5 Z"/></g>
<g><path style="opacity:1" fill="#fcfcfd" d="M 136.5,167.5 C 206.833,212.833 277.167,258.167 347.5,303.5C 349.663,308.14 351.496,312.806 353,317.5C 295.914,286.04 238.747,254.706 181.5,223.5C 224.779,255.74 268.779,287.907 313.5,320C 285.153,317.932 256.819,315.266 228.5,312C 198.53,306.781 174.363,292.281 156,268.5C 143.092,243.725 132.259,218.392 123.5,192.5C 133.725,198.451 144.059,203.451 154.5,207.5C 148.301,194.226 142.301,180.893 136.5,167.5 Z"/></g>
<g><path style="opacity:1" fill="#01768b" d="M 389.5,249.5 C 400.323,248.964 410.99,249.964 421.5,252.5C 417.614,259.708 415.781,267.375 416,275.5C 419.224,266.279 425.224,259.612 434,255.5C 436.245,256.137 438.412,256.97 440.5,258C 431.434,263.07 425.268,270.57 422,280.5C 420.87,289.023 418.203,297.023 414,304.5C 411.957,306.712 409.791,308.712 407.5,310.5C 408.816,318.834 408.649,327.167 407,335.5C 405.783,339.701 403.45,343.034 400,345.5C 383.201,338.035 371.201,326.035 364,309.5C 373.769,317.231 383.603,317.398 393.5,310C 389.866,307.575 387.032,304.408 385,300.5C 381.82,292.761 379.486,284.761 378,276.5C 374.077,268.457 368.244,262.29 360.5,258C 364.614,254.949 368.614,254.949 372.5,258C 378.519,262.548 382.685,268.381 385,275.5C 385.96,267.205 384.127,259.538 379.5,252.5C 382.953,251.487 386.287,250.487 389.5,249.5 Z"/></g>
<g><path style="opacity:1" fill="#eeedf3" d="M 428.5,292.5 C 431.808,297.112 432.308,302.112 430,307.5C 426.86,310.273 423.36,310.939 419.5,309.5C 424.343,304.814 427.343,299.148 428.5,292.5 Z"/></g>
<g><path style="opacity:1" fill="#f0eff4" d="M 372.5,292.5 C 374.12,299.232 377.453,305.065 382.5,310C 372.277,311.104 368.444,306.604 371,296.5C 371.41,295.099 371.91,293.766 372.5,292.5 Z"/></g>
<g><path style="opacity:1" fill="#01768b" d="M 317.5,347.5 C 313.5,348.167 309.5,348.833 305.5,349.5C 291.112,349.79 276.779,350.79 262.5,352.5C 259.343,350.576 256.843,347.909 255,344.5C 254.592,348.962 255.259,353.295 257,357.5C 259.42,363.64 261.753,369.64 264,375.5C 249.77,363.281 238.604,348.781 230.5,332C 259.123,338.877 288.123,344.044 317.5,347.5 Z"/></g>
<g><path style="opacity:1" fill="#03748a" d="M 565.5,331.5 C 566.833,331.5 568.167,331.5 569.5,331.5C 562.699,347.405 552.699,361.072 539.5,372.5C 539.167,372.167 538.833,371.833 538.5,371.5C 542.417,362.824 544.917,353.824 546,344.5C 544.167,347 542.333,349.5 540.5,352C 520.857,350.737 501.191,349.403 481.5,348C 507.612,343.981 533.612,339.315 559.5,334C 561.852,333.76 563.852,332.927 565.5,331.5 Z"/></g>
<g><path style="opacity:1" fill="#0f4275" d="M 317.5,347.5 C 318.376,347.369 319.043,347.702 319.5,348.5C 314.88,349.493 310.214,349.827 305.5,349.5C 309.5,348.833 313.5,348.167 317.5,347.5 Z"/></g>
<g><path style="opacity:1" fill="#8c86af" d="M 492.5,363.5 C 487.833,363.5 483.167,363.5 478.5,363.5C 478.5,364.833 478.5,366.167 478.5,367.5C 480.099,367.232 481.432,367.566 482.5,368.5C 480.833,368.5 479.167,368.5 477.5,368.5C 477.5,366.5 477.5,364.5 477.5,362.5C 482.695,362.179 487.695,362.513 492.5,363.5 Z"/></g>
<g><path style="opacity:1" fill="#f3f2f6" d="M 286.5,368.5 C 285.517,372.298 285.183,376.298 285.5,380.5C 287.415,380.784 289.081,380.451 290.5,379.5C 292.042,378.699 293.708,378.366 295.5,378.5C 295.5,380.5 295.5,382.5 295.5,384.5C 291.167,384.5 286.833,384.5 282.5,384.5C 281.883,384.389 281.383,384.056 281,383.5C 280.5,376.508 280.334,369.508 280.5,362.5C 285.833,362.5 291.167,362.5 296.5,362.5C 296.5,364.833 296.5,367.167 296.5,369.5C 293.14,369.384 289.807,369.051 286.5,368.5 Z"/></g>
<g><path style="opacity:1" fill="#f7f7f9" d="M 325.5,384.5 C 323.833,384.5 322.167,384.5 320.5,384.5C 320.5,382.167 320.5,379.833 320.5,377.5C 318.167,377.5 315.833,377.5 313.5,377.5C 313.5,379.833 313.5,382.167 313.5,384.5C 311.833,384.5 310.167,384.5 308.5,384.5C 308.5,377.5 308.5,370.5 308.5,363.5C 310.167,363.5 311.833,363.5 313.5,363.5C 313.5,366.833 313.5,370.167 313.5,373.5C 315.833,373.5 318.167,373.5 320.5,373.5C 320.5,370.167 320.5,366.833 320.5,363.5C 321.919,362.549 323.585,362.216 325.5,362.5C 325.5,369.833 325.5,377.167 325.5,384.5 Z"/></g>
<g><path style="opacity:1" fill="#fbfbfc" d="M 349.5,384.5 C 349.5,382.167 349.5,379.833 349.5,377.5C 347.167,377.5 344.833,377.5 342.5,377.5C 342.5,379.833 342.5,382.167 342.5,384.5C 340.833,384.5 339.167,384.5 337.5,384.5C 337.5,377.5 337.5,370.5 337.5,363.5C 343.093,363.193 348.593,363.527 354,364.5C 354.5,371.158 354.666,377.825 354.5,384.5C 352.833,384.5 351.167,384.5 349.5,384.5 Z"/></g>
<g><path style="opacity:1" fill="#8b85ad" d="M 398.5,363.5 C 398.5,370.5 398.5,377.5 398.5,384.5C 402.833,384.5 407.167,384.5 411.5,384.5C 407.03,385.486 402.363,385.819 397.5,385.5C 397.175,377.981 397.508,370.648 398.5,363.5 Z"/></g>
<g><path style="opacity:1" fill="#f8f8fa" d="M 411.5,384.5 C 407.167,384.5 402.833,384.5 398.5,384.5C 398.5,377.5 398.5,370.5 398.5,363.5C 399.919,362.549 401.585,362.216 403.5,362.5C 403.5,368.5 403.5,374.5 403.5,380.5C 406.167,380.5 408.833,380.5 411.5,380.5C 411.5,381.833 411.5,383.167 411.5,384.5 Z"/></g>
<g><path style="opacity:1" fill="#f4f3f7" d="M 422.5,363.5 C 427.897,363.215 433.23,363.549 438.5,364.5C 439.497,371.468 439.83,378.468 439.5,385.5C 434.489,385.666 429.489,385.499 424.5,385C 424,384.5 423.5,384 423,383.5C 422.5,376.842 422.334,370.175 422.5,363.5 Z"/></g>
<g><path style="opacity:1" fill="#efeef4" d="M 462.5,368.5 C 461.512,373.64 461.179,378.974 461.5,384.5C 459.833,384.5 458.167,384.5 456.5,384.5C 456.5,379.167 456.5,373.833 456.5,368.5C 454.833,368.5 453.167,368.5 451.5,368.5C 451.5,366.5 451.5,364.5 451.5,362.5C 456.5,362.5 461.5,362.5 466.5,362.5C 466.5,364.5 466.5,366.5 466.5,368.5C 465.167,368.5 463.833,368.5 462.5,368.5 Z"/></g>
<g><path style="opacity:1" fill="#fefefe" d="M 492.5,363.5 C 492.5,364.833 492.5,366.167 492.5,367.5C 491.167,367.5 489.833,367.5 488.5,367.5C 488.5,373.167 488.5,378.833 488.5,384.5C 486.833,384.5 485.167,384.5 483.5,384.5C 483.821,378.974 483.488,373.64 482.5,368.5C 481.432,367.566 480.099,367.232 478.5,367.5C 478.5,366.167 478.5,364.833 478.5,363.5C 483.167,363.5 487.833,363.5 492.5,363.5 Z"/></g>
<g><path style="opacity:1" fill="#eae9f1" d="M 521.5,376.5 C 517.833,376.5 514.167,376.5 510.5,376.5C 510.5,377.833 510.5,379.167 510.5,380.5C 514.167,380.5 517.833,380.5 521.5,380.5C 521.5,382.167 521.5,383.833 521.5,385.5C 516.167,385.5 510.833,385.5 505.5,385.5C 505.5,377.833 505.5,370.167 505.5,362.5C 510.833,362.5 516.167,362.5 521.5,362.5C 521.5,364.5 521.5,366.5 521.5,368.5C 517.833,368.5 514.167,368.5 510.5,368.5C 510.5,369.5 510.5,370.5 510.5,371.5C 514.167,371.5 517.833,371.5 521.5,371.5C 521.5,373.167 521.5,374.833 521.5,376.5 Z"/></g>
<g><path style="opacity:1" fill="#7f77a5" d="M 308.5,363.5 C 310.265,362.539 312.265,362.205 314.5,362.5C 314.5,365.833 314.5,369.167 314.5,372.5C 316.167,372.5 317.833,372.5 319.5,372.5C 319.19,369.287 319.523,366.287 320.5,363.5C 320.5,366.833 320.5,370.167 320.5,373.5C 318.167,373.5 315.833,373.5 313.5,373.5C 313.5,370.167 313.5,366.833 313.5,363.5C 311.833,363.5 310.167,363.5 308.5,363.5 Z"/></g>
<g><path style="opacity:1" fill="#f7f6f9" d="M 377.5,378.5 C 376.081,377.549 374.415,377.216 372.5,377.5C 372.5,380.167 372.5,382.833 372.5,385.5C 370.833,385.5 369.167,385.5 367.5,385.5C 367.5,378.167 367.5,370.833 367.5,363.5C 372.511,363.334 377.511,363.501 382.5,364C 383,364.5 383.5,365 384,365.5C 385.012,370.075 384.512,374.408 382.5,378.5C 383.877,380.289 384.877,382.289 385.5,384.5C 383.926,385.631 382.259,385.798 380.5,385C 379.207,382.948 378.207,380.781 377.5,378.5 Z"/></g>
<g><path style="opacity:1" fill="#8882ac" d="M 349.5,368.5 C 347.5,368.5 345.5,368.5 343.5,368.5C 343.5,369.833 343.5,371.167 343.5,372.5C 345.5,372.5 347.5,372.5 349.5,372.5C 347.393,373.468 345.059,373.802 342.5,373.5C 342.5,371.5 342.5,369.5 342.5,367.5C 345.059,367.198 347.393,367.532 349.5,368.5 Z"/></g>
<g><path style="opacity:1" fill="#1a0d5d" d="M 349.5,368.5 C 349.5,369.833 349.5,371.167 349.5,372.5C 347.5,372.5 345.5,372.5 343.5,372.5C 343.5,371.167 343.5,369.833 343.5,368.5C 345.5,368.5 347.5,368.5 349.5,368.5 Z"/></g>
<g><path style="opacity:1" fill="#1c0f5e" d="M 433.5,368.5 C 433.5,372.167 433.5,375.833 433.5,379.5C 431.5,379.5 429.5,379.5 427.5,379.5C 427.5,375.833 427.5,372.167 427.5,368.5C 429.5,368.5 431.5,368.5 433.5,368.5 Z"/></g>
<g><path style="opacity:1" fill="#aca8c5" d="M 433.5,368.5 C 434.483,372.298 434.817,376.298 434.5,380.5C 431.941,380.802 429.607,380.468 427.5,379.5C 429.5,379.5 431.5,379.5 433.5,379.5C 433.5,375.833 433.5,372.167 433.5,368.5 Z"/></g>
<g><path style="opacity:1" fill="#b6b2cb" d="M 462.5,368.5 C 462.5,374.167 462.5,379.833 462.5,385.5C 460.265,385.795 458.265,385.461 456.5,384.5C 458.167,384.5 459.833,384.5 461.5,384.5C 461.179,378.974 461.512,373.64 462.5,368.5 Z"/></g>
<g><path style="opacity:1" fill="#827aa7" d="M 492.5,367.5 C 491.791,368.404 490.791,368.737 489.5,368.5C 489.5,374.167 489.5,379.833 489.5,385.5C 487.167,385.5 484.833,385.5 482.5,385.5C 482.5,379.833 482.5,374.167 482.5,368.5C 483.488,373.64 483.821,378.974 483.5,384.5C 485.167,384.5 486.833,384.5 488.5,384.5C 488.5,378.833 488.5,373.167 488.5,367.5C 489.833,367.5 491.167,367.5 492.5,367.5 Z"/></g>
<g><path style="opacity:1" fill="#9690b5" d="M 286.5,368.5 C 286.5,372.167 286.5,375.833 286.5,379.5C 287.833,379.5 289.167,379.5 290.5,379.5C 289.081,380.451 287.415,380.784 285.5,380.5C 285.183,376.298 285.517,372.298 286.5,368.5 Z"/></g>
<g><path style="opacity:1" fill="#60578f" d="M 372.5,367.5 C 374.833,367.5 377.167,367.5 379.5,367.5C 379.5,369.167 379.5,370.833 379.5,372.5C 377.167,372.5 374.833,372.5 372.5,372.5C 372.5,370.833 372.5,369.167 372.5,367.5 Z"/></g>
<g><path style="opacity:1" fill="#0f0456" d="M 373.5,368.5 C 375.167,368.5 376.833,368.5 378.5,368.5C 378.5,369.5 378.5,370.5 378.5,371.5C 376.833,371.5 375.167,371.5 373.5,371.5C 373.5,370.5 373.5,369.5 373.5,368.5 Z"/></g>
<g><path style="opacity:0.929" fill="#5e5981" d="M 237.5,371.5 C 238.043,371.56 238.376,371.893 238.5,372.5C 223.848,373.499 209.182,373.833 194.5,373.5C 194.83,389.675 194.496,405.675 193.5,421.5C 193.5,405.167 193.5,388.833 193.5,372.5C 208.343,372.829 223.01,372.496 237.5,371.5 Z"/></g>
<g><path style="opacity:0.973" fill="#50487a" d="M 563.5,372.5 C 578.167,372.5 592.833,372.5 607.5,372.5C 607.5,388.833 607.5,405.167 607.5,421.5C 606.504,405.675 606.17,389.675 606.5,373.5C 591.421,373.832 577.087,373.499 563.5,372.5 Z"/></g>
<g><path style="opacity:1" fill="#8079a6" d="M 325.5,384.5 C 323.735,385.461 321.735,385.795 319.5,385.5C 319.5,383.167 319.5,380.833 319.5,378.5C 317.833,378.5 316.167,378.5 314.5,378.5C 314.5,380.833 314.5,383.167 314.5,385.5C 312.265,385.795 310.265,385.461 308.5,384.5C 310.167,384.5 311.833,384.5 313.5,384.5C 313.5,382.167 313.5,379.833 313.5,377.5C 315.833,377.5 318.167,377.5 320.5,377.5C 320.5,379.833 320.5,382.167 320.5,384.5C 322.167,384.5 323.833,384.5 325.5,384.5 Z"/></g>
<g><path style="opacity:1" fill="#4e4282" d="M 349.5,384.5 C 348.539,382.735 348.205,380.735 348.5,378.5C 346.833,378.5 345.167,378.5 343.5,378.5C 343.795,380.735 343.461,382.735 342.5,384.5C 342.5,382.167 342.5,379.833 342.5,377.5C 344.833,377.5 347.167,377.5 349.5,377.5C 349.5,379.833 349.5,382.167 349.5,384.5 Z"/></g>
<g><path style="opacity:1" fill="#60578f" d="M 377.5,378.5 C 376.167,378.5 374.833,378.5 373.5,378.5C 373.802,381.059 373.468,383.393 372.5,385.5C 372.5,382.833 372.5,380.167 372.5,377.5C 374.415,377.216 376.081,377.549 377.5,378.5 Z"/></g>
<g><path style="opacity:1" fill="#726b9c" d="M 521.5,376.5 C 518.311,377.166 514.977,377.833 511.5,378.5C 514.977,379.167 518.311,379.834 521.5,380.5C 517.833,380.5 514.167,380.5 510.5,380.5C 510.5,379.167 510.5,377.833 510.5,376.5C 514.167,376.5 517.833,376.5 521.5,376.5 Z"/></g>
<g><path style="opacity:1" fill="#9e98bb" d="M 282.5,384.5 C 286.833,384.5 291.167,384.5 295.5,384.5C 295.5,382.5 295.5,380.5 295.5,378.5C 293.708,378.366 292.042,378.699 290.5,379.5C 291.918,377.692 293.918,377.025 296.5,377.5C 296.5,380.167 296.5,382.833 296.5,385.5C 291.637,385.819 286.97,385.486 282.5,384.5 Z"/></g>
<g><path style="opacity:1" fill="#fbfbfc" d="M 239.5,385.5 C 244.167,385.5 248.833,385.5 253.5,385.5C 253.5,413.833 253.5,442.167 253.5,470.5C 249.046,470.422 244.713,471.089 240.5,472.5C 239.501,459.851 239.168,447.184 239.5,434.5C 233.979,435.924 228.646,437.924 223.5,440.5C 222.501,452.148 222.168,463.814 222.5,475.5C 217.5,476.167 212.5,476.833 207.5,477.5C 207.832,465.482 207.499,453.482 206.5,441.5C 202.835,440.003 199.502,438.003 196.5,435.5C 199.466,433.012 202.799,431.012 206.5,429.5C 207.499,414.515 207.833,399.515 207.5,384.5C 212.5,384.5 217.5,384.5 222.5,384.5C 222.168,397.184 222.501,409.851 223.5,422.5C 228.726,420.26 233.893,417.926 239,415.5C 239.5,405.506 239.666,395.506 239.5,385.5 Z"/></g>
<g><path style="opacity:1" fill="#cdcadc" d="M 239.5,385.5 C 244.305,384.513 249.305,384.179 254.5,384.5C 254.831,413.338 254.498,442.005 253.5,470.5C 253.5,442.167 253.5,413.833 253.5,385.5C 248.833,385.5 244.167,385.5 239.5,385.5 Z"/></g>
<g><path style="opacity:1" fill="#fafafc" d="M 593.5,440.5 C 592.833,452.5 592.167,464.5 591.5,476.5C 576.86,474.282 562.194,472.282 547.5,470.5C 547.5,463.833 547.5,457.167 547.5,450.5C 552.473,451.164 557.473,451.497 562.5,451.5C 562.5,453.833 562.5,456.167 562.5,458.5C 566.135,459.114 569.802,459.448 573.5,459.5C 574.919,460.451 576.585,460.784 578.5,460.5C 578.824,453.646 578.491,446.979 577.5,440.5C 567.741,436.455 558.074,432.122 548.5,427.5C 547.667,415.514 547.167,403.514 547,391.5C 544.81,389.612 542.977,387.445 541.5,385C 558.497,384.5 575.497,384.333 592.5,384.5C 592.5,391.167 592.5,397.833 592.5,404.5C 587.5,404.5 582.5,404.5 577.5,404.5C 577.5,402.5 577.5,400.5 577.5,398.5C 572.167,398.5 566.833,398.5 561.5,398.5C 561.192,404.425 561.525,410.259 562.5,416C 577.237,421.299 591.571,427.466 605.5,434.5C 601.757,437.038 597.757,439.038 593.5,440.5 Z"/></g>
<g><path style="opacity:1" fill="#8983ac" d="M 306.5,398.5 C 291.324,398.171 276.324,398.504 261.5,399.5C 260.957,399.44 260.624,399.107 260.5,398.5C 275.995,397.174 291.328,397.174 306.5,398.5 Z"/></g>
<g><path style="opacity:1" fill="#c6c3d7" d="M 365.5,398.5 C 350.324,398.171 335.324,398.504 320.5,399.5C 319.711,399.217 319.044,398.717 318.5,398C 334.339,397.172 350.005,397.339 365.5,398.5 Z"/></g>
<g><path style="opacity:1" fill="#524985" d="M 423.5,398.5 C 407.991,398.17 392.658,398.504 377.5,399.5C 376.957,399.44 376.624,399.107 376.5,398.5C 392.328,397.173 407.995,397.173 423.5,398.5 Z"/></g>
<g><path style="opacity:1" fill="#918bb2" d="M 538.5,398.5 C 524.5,398.5 510.5,398.5 496.5,398.5C 496.5,402.833 496.5,407.167 496.5,411.5C 500.702,411.183 504.702,411.517 508.5,412.5C 504.167,412.5 499.833,412.5 495.5,412.5C 495.5,407.5 495.5,402.5 495.5,397.5C 510.01,397.171 524.343,397.504 538.5,398.5 Z"/></g>
<g><path style="opacity:1" fill="#f9f8fa" d="M 306.5,398.5 C 308.839,400.173 310.839,402.173 312.5,404.5C 313.666,424.492 313.833,444.492 313,464.5C 298.922,466.172 284.755,467.005 270.5,467C 269.378,464.876 267.878,463.043 266,461.5C 265.667,442.167 265.333,422.833 265,403.5C 263.624,402.295 262.458,400.962 261.5,399.5C 276.324,398.504 291.324,398.171 306.5,398.5 Z"/></g>
<g><path style="opacity:1" fill="#fafafc" d="M 365.5,398.5 C 366.812,400.479 368.479,402.145 370.5,403.5C 371.499,415.482 371.832,427.482 371.5,439.5C 369.396,439.201 367.396,439.534 365.5,440.5C 368.559,447.344 371.226,454.344 373.5,461.5C 368.5,462.833 363.5,462.833 358.5,461.5C 355.957,454.539 353.624,447.539 351.5,440.5C 347.5,440.5 343.5,440.5 339.5,440.5C 339.5,448.167 339.5,455.833 339.5,463.5C 334.5,463.5 329.5,463.5 324.5,463.5C 324.667,443.831 324.5,424.164 324,404.5C 322.824,402.804 321.657,401.138 320.5,399.5C 335.324,398.504 350.324,398.171 365.5,398.5 Z"/></g>
<g><path style="opacity:1" fill="#f9f9fb" d="M 377.5,399.5 C 392.658,398.504 407.991,398.17 423.5,398.5C 425.797,400.294 427.963,402.294 430,404.5C 430.5,423.83 430.667,443.164 430.5,462.5C 425.5,462.5 420.5,462.5 415.5,462.5C 415.5,445.5 415.5,428.5 415.5,411.5C 409.642,411.178 403.975,411.511 398.5,412.5C 398.5,429.167 398.5,445.833 398.5,462.5C 393.167,462.5 387.833,462.5 382.5,462.5C 382.667,443.164 382.5,423.83 382,404.5C 380.483,402.76 378.983,401.094 377.5,399.5 Z"/></g>
<g><path style="opacity:1" fill="#dcdbe7" d="M 486.5,412.5 C 486.5,408.167 486.5,403.833 486.5,399.5C 470.325,399.17 454.325,399.504 438.5,400.5C 437.957,400.44 437.624,400.107 437.5,399.5C 454.153,398.501 470.82,398.167 487.5,398.5C 487.819,403.363 487.486,408.03 486.5,412.5 Z"/></g>
<g><path style="opacity:1" fill="#f9f8fa" d="M 538.5,398.5 C 538.5,403.167 538.5,407.833 538.5,412.5C 534.167,412.5 529.833,412.5 525.5,412.5C 525.5,430.833 525.5,449.167 525.5,467.5C 519.811,467.468 514.145,467.134 508.5,466.5C 508.5,448.5 508.5,430.5 508.5,412.5C 504.702,411.517 500.702,411.183 496.5,411.5C 496.5,407.167 496.5,402.833 496.5,398.5C 510.5,398.5 524.5,398.5 538.5,398.5 Z"/></g>
<g><path style="opacity:1" fill="#fdfdfd" d="M 486.5,412.5 C 477.167,412.5 467.833,412.5 458.5,412.5C 458.5,416.167 458.5,419.833 458.5,423.5C 467.652,424.494 476.985,424.827 486.5,424.5C 486.5,429.167 486.5,433.833 486.5,438.5C 481.833,438.5 477.167,438.5 472.5,438.5C 467.833,438.5 463.167,438.5 458.5,438.5C 458.5,442.167 458.5,445.833 458.5,449.5C 465.167,449.5 471.833,449.5 478.5,449.5C 480.948,450.473 483.615,450.806 486.5,450.5C 486.5,455.167 486.5,459.833 486.5,464.5C 482.5,464.5 478.5,464.5 474.5,464.5C 463.83,464.245 453.164,463.912 442.5,463.5C 442.667,444.164 442.5,424.83 442,405.5C 440.824,403.804 439.657,402.138 438.5,400.5C 454.325,399.504 470.325,399.17 486.5,399.5C 486.5,403.833 486.5,408.167 486.5,412.5 Z"/></g>
<g><path style="opacity:1" fill="#201361" d="M 280.5,412.5 C 286.167,412.5 291.833,412.5 297.5,412.5C 297.5,425.5 297.5,438.5 297.5,451.5C 291.833,451.5 286.167,451.5 280.5,451.5C 280.5,438.5 280.5,425.5 280.5,412.5 Z"/></g>
<g><path style="opacity:1" fill="#1e1160" d="M 339.5,412.5 C 345.167,412.5 350.833,412.5 356.5,412.5C 356.5,416.833 356.5,421.167 356.5,425.5C 350.833,425.5 345.167,425.5 339.5,425.5C 339.5,421.167 339.5,416.833 339.5,412.5 Z"/></g>
<g><path style="opacity:1" fill="#837ca7" d="M 398.5,412.5 C 403.975,411.511 409.642,411.178 415.5,411.5C 415.5,428.5 415.5,445.5 415.5,462.5C 414.503,446.008 414.17,429.342 414.5,412.5C 409.167,412.5 403.833,412.5 398.5,412.5 Z"/></g>
<g><path style="opacity:1" fill="#9690b6" d="M 458.5,423.5 C 468.167,423.5 477.833,423.5 487.5,423.5C 487.5,428.833 487.5,434.167 487.5,439.5C 482.305,439.821 477.305,439.487 472.5,438.5C 477.167,438.5 481.833,438.5 486.5,438.5C 486.5,433.833 486.5,429.167 486.5,424.5C 476.985,424.827 467.652,424.494 458.5,423.5 Z"/></g>
<g><path style="opacity:1" fill="#8f88b0" d="M 577.5,440.5 C 578.491,446.979 578.824,453.646 578.5,460.5C 576.585,460.784 574.919,460.451 573.5,459.5C 574.833,459.5 576.167,459.5 577.5,459.5C 577.5,453.167 577.5,446.833 577.5,440.5 Z"/></g>
<g><path style="opacity:1" fill="#4d4381" d="M 593.5,440.5 C 593.832,452.851 593.499,465.185 592.5,477.5C 591.893,477.376 591.56,477.043 591.5,476.5C 592.167,464.5 592.833,452.5 593.5,440.5 Z"/></g>
<g><path style="opacity:1" fill="#c6c2d7" d="M 478.5,449.5 C 481.5,449.5 484.5,449.5 487.5,449.5C 487.5,454.833 487.5,460.167 487.5,465.5C 482.968,465.818 478.634,465.485 474.5,464.5C 478.5,464.5 482.5,464.5 486.5,464.5C 486.5,459.833 486.5,455.167 486.5,450.5C 483.615,450.806 480.948,450.473 478.5,449.5 Z"/></g>
<g><path style="opacity:1" fill="#02748a" d="M 265.5,480.5 C 269.514,480.334 273.514,480.501 277.5,481C 295.748,491.374 313.915,501.874 332,512.5C 334.783,516.951 337.95,521.117 341.5,525C 319.358,513.254 297.358,500.92 275.5,488C 271.657,485.965 268.324,483.465 265.5,480.5 Z"/></g>
<g><path style="opacity:1" fill="#03748a" d="M 523.5,480.5 C 527.555,480.176 531.555,480.509 535.5,481.5C 510.749,496.293 485.916,510.959 461,525.5C 460.333,524.833 460.333,524.167 461,523.5C 464.443,520.112 467.277,516.278 469.5,512C 487.727,501.726 505.727,491.226 523.5,480.5 Z"/></g>
<g><path style="opacity:1" fill="#01768b" d="M 398.5,525.5 C 398.183,528.572 398.516,531.572 399.5,534.5C 400.452,532.955 400.785,531.288 400.5,529.5C 401.305,513.82 402.305,498.153 403.5,482.5C 415.537,482.396 427.203,484.229 438.5,488C 430.596,495.234 423.429,503.067 417,511.5C 415.932,516.768 416.599,521.768 419,526.5C 422.23,529.531 425.73,532.197 429.5,534.5C 423.666,538.586 417.333,541.919 410.5,544.5C 414.167,545.167 417.833,545.833 421.5,546.5C 419.869,550.121 417.535,553.121 414.5,555.5C 404.686,551.52 394.852,551.52 385,555.5C 381.92,553.239 379.753,550.239 378.5,546.5C 382.021,545.834 385.687,545.167 389.5,544.5C 389.376,543.893 389.043,543.56 388.5,543.5C 382.188,541.895 376.354,539.229 371,535.5C 370.312,534.668 370.479,534.002 371.5,533.5C 383.898,526.806 386.398,517.473 379,505.5C 372.959,499.291 366.792,493.291 360.5,487.5C 372.173,483.864 384.173,482.197 396.5,482.5C 397.167,496.833 397.833,511.167 398.5,525.5 Z"/></g>
<g><path style="opacity:1" fill="#02758a" d="M 352.5,488.5 C 353.873,488.343 355.207,488.51 356.5,489C 363.065,495.728 369.065,502.895 374.5,510.5C 361.781,509.318 350.448,504.484 340.5,496C 344.396,493.225 348.396,490.725 352.5,488.5 Z"/></g>
<g><path style="opacity:1" fill="#01768b" d="M 445.5,488.5 C 451.036,489.935 456.036,492.435 460.5,496C 450.745,504.853 439.412,509.686 426.5,510.5C 432.108,502.557 438.442,495.224 445.5,488.5 Z"/></g>
<g><path style="opacity:1" fill="#02748a" d="M 341.5,505.5 C 341.56,504.957 341.893,504.624 342.5,504.5C 351.728,511.781 362.061,516.947 373.5,520C 374.451,520.718 374.617,521.551 374,522.5C 370.138,526.01 365.638,527.51 360.5,527C 352.64,521.063 346.307,513.896 341.5,505.5 Z"/></g>
<g><path style="opacity:1" fill="#03748a" d="M 458.5,504.5 C 459.525,504.897 459.692,505.563 459,506.5C 454.256,514.579 448.09,521.412 440.5,527C 435.362,527.51 430.862,526.01 427,522.5C 426.517,521.552 426.351,520.552 426.5,519.5C 438.762,517.7 449.429,512.7 458.5,504.5 Z"/></g>
<g><path style="opacity:1" fill="#114174" d="M 398.5,525.5 C 399.167,526.833 399.833,528.167 400.5,529.5C 400.785,531.288 400.452,532.955 399.5,534.5C 398.516,531.572 398.183,528.572 398.5,525.5 Z"/></g>
<g><path style="opacity:1" fill="#133770" d="M 388.5,543.5 C 389.043,543.56 389.376,543.893 389.5,544.5C 385.687,545.167 382.021,545.834 378.5,546.5C 377.957,546.44 377.624,546.107 377.5,545.5C 381.313,544.833 384.979,544.166 388.5,543.5 Z"/></g>
<g><path style="opacity:1" fill="#fafafc" d="M 393.5,567.5 C 397.846,567.334 402.179,567.501 406.5,568C 408.813,568.641 410.48,569.974 411.5,572C 407.627,586.405 404.127,600.905 401,615.5C 396.857,600.931 393.024,586.264 389.5,571.5C 390.437,569.712 391.77,568.379 393.5,567.5 Z"/></g>
</svg>
