<?xml version="1.0" encoding="UTF-8"?>
<!DOCTYPE svg PUBLIC "-//W3C//DTD SVG 1.1//EN" "http://www.w3.org/Graphics/SVG/1.1/DTD/svg11.dtd">
<svg xmlns="http://www.w3.org/2000/svg" version="1.1" width="1200px" height="1200px" style="shape-rendering:geometricPrecision; text-rendering:geometricPrecision; image-rendering:optimizeQuality; fill-rule:evenodd; clip-rule:evenodd" xmlns:xlink="http://www.w3.org/1999/xlink">
<g><path style="opacity:0.967" fill="#fdfdfe" d="M 591.5,205.5 C 721.167,205.333 850.834,205.5 980.5,206C 1013.26,215.092 1028.43,236.592 1026,270.5C 1024.71,278.024 1022.05,285.024 1018,291.5C 1008,307.5 998,323.5 988,339.5C 978.809,350.847 966.976,357.681 952.5,360C 924.465,360.052 896.465,360.718 868.5,362C 862.985,365.687 858.652,370.52 855.5,376.5C 915.725,435.306 943.225,506.973 938,591.5C 937.525,600.281 936.358,608.947 934.5,617.5C 961.096,615.494 987.929,613.827 1015,612.5C 1041.86,613.926 1059.86,627.26 1069,652.5C 1072.01,666.97 1070.68,680.97 1065,694.5C 1006.33,786.5 947.667,878.5 889,970.5C 881.045,980.427 870.878,987.26 858.5,991C 630.534,992.662 402.534,992.995 174.5,992C 141.091,982.368 126.258,960.201 130,925.5C 131.35,919.117 133.683,913.117 137,907.5C 151.725,886.439 166.058,865.106 180,843.5C 189.572,832.962 201.405,826.462 215.5,824C 241.167,823.667 266.833,823.333 292.5,823C 298.038,820.817 302.538,817.317 306,812.5C 327.124,777.083 348.624,741.916 370.5,707C 346.472,635.3 349.639,564.8 380,495.5C 412.505,426.329 462.671,374.162 530.5,339C 517.525,321.665 515.025,302.832 523,282.5C 534.333,263.833 545.667,245.167 557,226.5C 566.49,216.013 577.99,209.013 591.5,205.5 Z"/></g>
<g><path style="opacity:1" fill="#49256c" d="M 594.5,221.5 C 721.167,221.333 847.834,221.5 974.5,222C 1002.64,228.137 1013.81,245.304 1008,273.5C 1006.94,276.618 1005.61,279.618 1004,282.5C 994.603,296.902 985.603,311.569 977,326.5C 969.87,336.818 960.037,342.651 947.5,344C 919.793,344.043 892.126,344.71 864.5,346C 858.876,347.956 854.043,351.123 850,355.5C 844.363,362.473 839.53,369.973 835.5,378C 905.094,440.75 933.594,518.917 921,612.5C 917.787,628.349 914.12,644.016 910,659.5C 915.092,652.404 920.926,645.904 927.5,640C 931.007,637.746 934.673,635.746 938.5,634C 956.442,632.147 974.442,630.814 992.5,630C 1002.83,629.333 1013.17,629.333 1023.5,630C 1046.02,636.859 1056.19,652.026 1054,675.5C 1053.07,679.637 1051.73,683.637 1050,687.5C 991.75,778.331 933.75,869.331 876,960.5C 869.069,968.883 860.236,974.05 849.5,976C 625.5,976.667 401.5,976.667 177.5,976C 154.122,968.752 143.622,952.918 146,928.5C 147.109,924.281 148.775,920.281 151,916.5C 165.333,895.167 179.667,873.833 194,852.5C 200.236,846.13 207.736,841.964 216.5,840C 242.833,839.667 269.167,839.333 295.5,839C 306.863,836.236 315.363,829.736 321,819.5C 343,783.5 365,747.5 387,711.5C 353.52,614.095 367.52,524.095 429,441.5C 464.012,397.091 507.512,363.924 559.5,342C 541.297,332.765 533.13,317.932 535,297.5C 536.449,292.601 538.449,287.935 541,283.5C 551,267.5 561,251.5 571,235.5C 577.601,228.622 585.434,223.955 594.5,221.5 Z"/></g>
<g><path style="opacity:1" fill="#f2b236" d="M 863.5,537.5 C 863.5,538.5 863.5,539.5 863.5,540.5C 859.833,540.5 856.167,540.5 852.5,540.5C 833.28,538.037 815.28,531.871 798.5,522C 779.771,510.635 762.104,497.802 745.5,483.5C 743.043,486.914 740.709,490.414 738.5,494C 767.451,521.316 801.118,540.649 839.5,552C 848.107,553.339 856.774,553.839 865.5,553.5C 865.617,568.513 865.284,583.513 864.5,598.5C 801.166,598.333 737.832,598.5 674.5,599C 672.272,602.388 670.272,605.888 668.5,609.5C 667.957,609.56 667.624,609.893 667.5,610.5C 703.827,611.5 740.161,611.833 776.5,611.5C 805.186,610.842 833.52,611.508 861.5,613.5C 859.857,624.427 857.191,635.093 853.5,645.5C 840.529,645.657 828.529,649.157 817.5,656C 811.658,659.754 805.991,663.754 800.5,668C 763.988,700.247 725.321,729.58 684.5,756C 645.253,781.08 602.253,794.08 555.5,795C 552.784,798.271 550.451,801.771 548.5,805.5C 547.957,805.56 547.624,805.893 547.5,806.5C 552.986,807.815 558.32,807.815 563.5,806.5C 613.802,805.01 659.468,789.844 700.5,761C 739.878,734.297 777.545,705.297 813.5,674C 821.819,668.007 830.819,663.341 840.5,660C 843.146,659.503 845.813,659.336 848.5,659.5C 836.307,691.896 819.473,721.563 798,748.5C 778.167,773.667 755.667,796.167 730.5,816C 667.834,842.403 604.501,844.237 540.5,821.5C 539.558,821.608 538.725,821.941 538,822.5C 530.349,834.165 523.516,846.332 517.5,859C 517.645,859.772 517.978,860.439 518.5,861C 565.5,861.667 612.5,861.667 659.5,861C 685.837,856.665 710.837,848.332 734.5,836C 780.354,811.812 822.02,781.812 859.5,746C 888.674,717.835 916.007,688.168 941.5,657C 946.577,654.905 951.91,653.905 957.5,654C 978.472,652.21 999.472,651.543 1020.5,652C 1031.76,656.704 1035.26,664.87 1031,676.5C 974.084,765.331 917.417,854.331 861,943.5C 858.054,948.445 853.888,951.945 848.5,954C 625.833,954.667 403.167,954.667 180.5,954C 169.968,950.106 165.801,942.606 168,931.5C 181.085,910.996 194.418,890.662 208,870.5C 210.987,866.512 214.82,863.679 219.5,862C 245.5,861.667 271.5,861.333 297.5,861C 316.127,857.038 330.294,846.872 340,830.5C 365.516,788.323 391.016,746.157 416.5,704C 405.523,678.258 399.189,651.425 397.5,623.5C 397.5,618.833 397.5,614.167 397.5,609.5C 429.5,609.5 461.5,609.5 493.5,609.5C 493.5,610.5 493.5,611.5 493.5,612.5C 449.689,684.778 405.856,757.111 362,829.5C 353.305,846.192 341.138,859.692 325.5,870C 319.152,873.45 312.485,876.116 305.5,878C 278.198,879.271 250.864,879.938 223.5,880C 211.278,898.049 199.278,916.215 187.5,934.5C 186.957,934.56 186.624,934.893 186.5,935.5C 406,936.833 625.333,936.833 844.5,935.5C 844.5,935.167 844.5,934.833 844.5,934.5C 900.97,846.507 957.304,758.341 1013.5,670C 992.426,669.823 971.426,670.99 950.5,673.5C 900.423,737.424 841.423,791.257 773.5,835C 746.523,851.662 717.856,864.662 687.5,874C 677.966,876.422 668.299,878.089 658.5,879C 611.5,879.667 564.5,879.667 517.5,879C 497.37,877.903 491.87,868.403 501,850.5C 551.915,765.667 603.082,681.001 654.5,596.5C 568.836,595.5 483.169,595.167 397.5,595.5C 398.283,577.656 401.283,560.323 406.5,543.5C 449.67,543.168 492.67,543.501 535.5,544.5C 527.97,557.056 520.303,569.556 512.5,582C 562.833,582.667 613.167,582.667 663.5,582C 674.15,565.86 684.15,549.36 693.5,532.5C 694.167,532.5 694.5,532.167 694.5,531.5C 695.043,531.44 695.376,531.107 695.5,530.5C 600.668,529.833 506.001,529.167 411.5,528.5C 416.243,512.677 422.91,497.677 431.5,483.5C 478.83,482.333 526.163,482.167 573.5,483C 566.914,493.403 560.58,503.903 554.5,514.5C 553.957,514.56 553.624,514.893 553.5,515.5C 603.998,516.831 654.332,516.831 704.5,515.5C 713.514,500.797 722.514,486.131 731.5,471.5C 732.404,470.791 732.737,469.791 732.5,468.5C 635.494,469.164 538.828,468.498 442.5,466.5C 453.156,450.999 465.156,436.499 478.5,423C 522.17,422.167 565.837,422.333 609.5,423.5C 603.406,434.028 597.073,444.362 590.5,454.5C 589.957,454.56 589.624,454.893 589.5,455.5C 639.998,456.831 690.332,456.831 740.5,455.5C 749.987,441.203 758.987,426.537 767.5,411.5C 768.043,411.44 768.376,411.107 768.5,410.5C 677.001,409.833 585.668,409.167 494.5,408.5C 535.349,375.253 582.016,354.753 634.5,347C 640.019,339.793 644.352,331.96 647.5,323.5C 621.53,322.694 595.53,322.194 569.5,322C 556.786,316.081 553.619,306.914 560,294.5C 569,279.833 578,265.167 587,250.5C 589.99,247.509 593.49,245.343 597.5,244C 722.833,243.333 848.167,243.333 973.5,244C 984.272,247.114 989.106,254.28 988,265.5C 977.709,283.922 966.543,301.756 954.5,319C 952.043,320.562 949.376,321.562 946.5,322C 920.5,322.333 894.5,322.667 868.5,323C 851.839,325.002 838.672,332.835 829,346.5C 820.333,360.5 811.667,374.5 803,388.5C 802.48,390.289 802.813,391.956 804,393.5C 832.533,432.579 851.866,475.912 862,523.5C 862.994,528.118 863.494,532.785 863.5,537.5 Z"/></g>
<g><path style="opacity:1" fill="#8c5d56" d="M 601.5,262.5 C 724.001,261.168 846.667,261.168 969.5,262.5C 969.376,263.107 969.043,263.44 968.5,263.5C 846.334,262.5 724.001,262.167 601.5,262.5 Z"/></g>
<g><path style="opacity:1" fill="#401d6e" d="M 601.5,262.5 C 724.001,262.167 846.334,262.5 968.5,263.5C 968.5,264.167 968.167,264.5 967.5,264.5C 845.402,263.835 723.402,263.168 601.5,262.5 Z"/></g>
<g><path style="opacity:1" fill="#49256b" d="M 601.5,262.5 C 723.402,263.168 845.402,263.835 967.5,264.5C 959.637,277.722 951.637,290.889 943.5,304C 917.167,304.333 890.833,304.667 864.5,305C 843.322,308.507 826.489,319.007 814,336.5C 801.608,356.052 789.442,375.718 777.5,395.5C 727.331,395.832 677.331,395.499 627.5,394.5C 638.774,375.386 650.274,356.386 662,337.5C 666.099,330.663 667.766,323.33 667,315.5C 663.629,310.223 658.796,307.057 652.5,306C 648.168,305.417 643.835,304.917 639.5,304.5C 618.5,303.833 597.5,303.167 576.5,302.5C 584.847,289.131 593.181,275.797 601.5,262.5 Z"/></g>
<g><path style="opacity:1" fill="#73485e" d="M 576.5,302.5 C 597.5,303.167 618.5,303.833 639.5,304.5C 618.156,304.833 596.823,304.5 575.5,303.5C 575.624,302.893 575.957,302.56 576.5,302.5 Z"/></g>
<g><path style="opacity:1" fill="#80535a" d="M 627.5,394.5 C 677.331,395.499 727.331,395.832 777.5,395.5C 727.332,396.831 676.998,396.831 626.5,395.5C 626.624,394.893 626.957,394.56 627.5,394.5 Z"/></g>
<g><path style="opacity:1" fill="#6d4360" d="M 494.5,408.5 C 585.668,409.167 677.001,409.833 768.5,410.5C 768.376,411.107 768.043,411.44 767.5,411.5C 676.332,410.833 584.999,410.167 493.5,409.5C 493.624,408.893 493.957,408.56 494.5,408.5 Z"/></g>
<g><path style="opacity:1" fill="#f0b037" d="M 835.5,417.5 C 864.162,446.8 882.995,481.8 892,522.5C 892.933,527.938 890.766,531.772 885.5,534C 882.691,535.741 879.691,536.908 876.5,537.5C 873.11,507.162 864.943,478.162 852,450.5C 846.473,439.447 840.973,428.447 835.5,417.5 Z"/></g>
<g><path style="opacity:1" fill="#9c6a50" d="M 590.5,454.5 C 640.331,455.499 690.331,455.832 740.5,455.5C 690.332,456.831 639.998,456.831 589.5,455.5C 589.624,454.893 589.957,454.56 590.5,454.5 Z"/></g>
<g><path style="opacity:1" fill="#e7a839" d="M 442.5,466.5 C 538.828,468.498 635.494,469.164 732.5,468.5C 732.737,469.791 732.404,470.791 731.5,471.5C 634.838,469.668 537.838,468.835 440.5,469C 441.066,468.005 441.733,467.172 442.5,466.5 Z"/></g>
<g><path style="opacity:1" fill="#613963" d="M 554.5,514.5 C 604.331,515.499 654.331,515.832 704.5,515.5C 654.332,516.831 603.998,516.831 553.5,515.5C 553.624,514.893 553.957,514.56 554.5,514.5 Z"/></g>
<g><path style="opacity:1" fill="#916154" d="M 411.5,528.5 C 506.001,529.167 600.668,529.833 695.5,530.5C 695.376,531.107 695.043,531.44 694.5,531.5C 600.001,530.501 505.335,530.167 410.5,530.5C 410.328,529.508 410.662,528.842 411.5,528.5 Z"/></g>
<g><path style="opacity:1" fill="#401d6e" d="M 410.5,530.5 C 505.335,530.167 600.001,530.501 694.5,531.5C 694.5,532.167 694.167,532.5 693.5,532.5C 599.069,531.836 504.736,531.169 410.5,530.5 Z"/></g>
<g><path style="opacity:1" fill="#835559" d="M 863.5,537.5 C 864.434,538.568 864.768,539.901 864.5,541.5C 860.298,541.817 856.298,541.483 852.5,540.5C 856.167,540.5 859.833,540.5 863.5,540.5C 863.5,539.5 863.5,538.5 863.5,537.5 Z"/></g>
<g><path style="opacity:1" fill="#c08846" d="M 406.5,543.5 C 449.669,542.169 493.002,542.169 536.5,543.5C 536.376,544.107 536.043,544.44 535.5,544.5C 492.67,543.501 449.67,543.168 406.5,543.5 Z"/></g>
<g><path style="opacity:1" fill="#edae39" d="M 893.5,543.5 C 895.045,544.23 895.878,545.563 896,547.5C 897.977,564.165 897.977,580.832 896,597.5C 889.924,598.476 883.758,598.81 877.5,598.5C 878.166,582.509 878.5,566.509 878.5,550.5C 884.192,549.486 889.192,547.152 893.5,543.5 Z"/></g>
<g><path style="opacity:1" fill="#cf9442" d="M 493.5,612.5 C 493.5,611.5 493.5,610.5 493.5,609.5C 461.5,609.5 429.5,609.5 397.5,609.5C 397.5,614.167 397.5,618.833 397.5,623.5C 396.513,618.695 396.179,613.695 396.5,608.5C 429.835,608.333 463.168,608.5 496.5,609C 495.837,610.518 494.837,611.685 493.5,612.5 Z"/></g>
<g><path style="opacity:1" fill="#855758" d="M 668.5,609.5 C 704.329,610.498 740.329,610.832 776.5,610.5C 776.5,610.833 776.5,611.167 776.5,611.5C 740.161,611.833 703.827,611.5 667.5,610.5C 667.624,609.893 667.957,609.56 668.5,609.5 Z"/></g>
<g><path style="opacity:1" fill="#986652" d="M 776.5,611.5 C 776.5,611.167 776.5,610.833 776.5,610.5C 805.167,610.5 833.833,610.5 862.5,610.5C 862.737,611.791 862.404,612.791 861.5,613.5C 833.52,611.508 805.186,610.842 776.5,611.5 Z"/></g>
<g><path style="opacity:1" fill="#efb037" d="M 875.5,610.5 C 881.5,610.5 887.5,610.5 893.5,610.5C 891.036,628.02 886.536,645.02 880,661.5C 875.544,656.873 871.044,652.539 866.5,648.5C 870.017,635.904 873.017,623.238 875.5,610.5 Z"/></g>
<g><path style="opacity:1" fill="#efb037" d="M 861.5,662.5 C 867.292,665.626 871.292,670.293 873.5,676.5C 854.074,720.328 824.908,756.328 786,784.5C 786.398,782.369 787.398,780.369 789,778.5C 820.998,744.86 845.165,706.193 861.5,662.5 Z"/></g>
<g><path style="opacity:1" fill="#986752" d="M 548.5,805.5 C 553.305,806.487 558.305,806.821 563.5,806.5C 558.32,807.815 552.986,807.815 547.5,806.5C 547.624,805.893 547.957,805.56 548.5,805.5 Z"/></g>
<g><path style="opacity:1" fill="#411e6e" d="M 844.5,934.5 C 844.5,934.833 844.5,935.167 844.5,935.5C 625.333,935.833 406.333,935.5 187.5,934.5C 406.805,934.498 625.805,934.498 844.5,934.5 Z"/></g>
<g><path style="opacity:1" fill="#6e445f" d="M 187.5,934.5 C 406.333,935.5 625.333,935.833 844.5,935.5C 625.333,936.833 406,936.833 186.5,935.5C 186.624,934.893 186.957,934.56 187.5,934.5 Z"/></g>
</svg>
