<?xml version="1.0" encoding="UTF-8"?>
<!DOCTYPE svg PUBLIC "-//W3C//DTD SVG 1.1//EN" "http://www.w3.org/Graphics/SVG/1.1/DTD/svg11.dtd">
<svg xmlns="http://www.w3.org/2000/svg" version="1.1" width="1200px" height="1200px" style="shape-rendering:geometricPrecision; text-rendering:geometricPrecision; image-rendering:optimizeQuality; fill-rule:evenodd; clip-rule:evenodd" xmlns:xlink="http://www.w3.org/1999/xlink">
<g><path style="opacity:1" fill="#042d62" d="M 954.5,415.5 C 953.414,415.62 952.747,416.287 952.5,417.5C 949.006,429.147 945.672,440.814 942.5,452.5C 936.622,471.802 929.955,490.802 922.5,509.5C 920.864,510.749 919.697,512.416 919,514.5C 912.832,529.502 906.666,544.502 900.5,559.5C 852.448,659.07 784.781,742.903 697.5,811C 665.887,835.478 632.887,857.978 598.5,878.5C 538.337,843.346 483.337,801.346 433.5,752.5C 433.631,751.761 433.464,751.094 433,750.5C 422.267,739.767 411.6,729.1 401,718.5C 367.42,734.039 334.587,750.706 302.5,768.5C 301.833,768.5 301.5,768.833 301.5,769.5C 301.167,769.5 300.833,769.5 300.5,769.5C 299.833,769.5 299.5,769.833 299.5,770.5C 299.5,771.167 299.167,771.5 298.5,771.5C 298.167,770.167 297.833,770.167 297.5,771.5C 296.508,771.328 295.842,771.662 295.5,772.5C 284.916,778.53 273.583,782.697 261.5,785C 245.461,788.897 234.295,783.397 228,768.5C 227.175,755.129 229.842,742.462 236,730.5C 253.907,691.021 272.074,651.687 290.5,612.5C 296.076,602.35 301.409,592.017 306.5,581.5C 303.139,575.438 299.806,569.438 296.5,563.5C 267.744,505.647 247.244,444.98 235,381.5C 300.985,345.947 370.485,319.447 443.5,302C 606.021,268.024 762.354,286.357 912.5,357C 928.956,364.728 945.289,372.728 961.5,381C 962.059,381.725 962.392,382.558 962.5,383.5C 959.515,394.108 956.848,404.774 954.5,415.5 Z"/></g>
<g><path style="opacity:1" fill="#fdfdfd" d="M 461.5,689.5 C 503.323,738.342 550.657,780.675 603.5,816.5C 608.074,813.724 612.407,810.724 616.5,807.5C 759.52,709.429 855.853,576.929 905.5,410C 876.282,395.394 845.949,383.561 814.5,374.5C 813.833,374.833 813.167,375.167 812.5,375.5C 814.23,383.422 816.73,391.089 820,398.5C 835.161,495.98 810.827,581.98 747,656.5C 694.868,712.318 630.701,744.984 554.5,754.5C 551.167,751.833 548.167,748.833 545.5,745.5C 552.206,745.552 558.872,745.052 565.5,744C 568.851,743.943 571.851,743.109 574.5,741.5C 582.964,739.967 591.297,737.967 599.5,735.5C 631.74,727.72 661.407,713.887 688.5,694C 687.944,693.617 687.611,693.117 687.5,692.5C 689.308,692.509 690.975,692.009 692.5,691C 697.421,687.387 702.088,683.554 706.5,679.5C 707.552,679.649 708.552,679.483 709.5,679C 744.436,649.243 771.103,613.41 789.5,571.5C 797.097,555.383 802.43,538.716 805.5,521.5C 808.735,512.215 810.901,502.548 812,492.5C 817.594,451.533 814.76,411.2 803.5,371.5C 793.319,367.883 782.986,364.883 772.5,362.5C 766.688,360.544 760.688,358.877 754.5,357.5C 750.14,356.993 745.807,356.327 741.5,355.5C 660.625,337.336 579.292,335.836 497.5,351C 432.739,362.865 370.739,383.032 311.5,411.5C 322.533,447.604 335.533,482.937 350.5,517.5C 344.208,524.962 337.708,532.295 331,539.5C 327.638,544.03 324.471,548.697 321.5,553.5C 320.833,554.833 320.167,554.833 319.5,553.5C 295.463,502.894 276.463,450.394 262.5,396C 262.833,395.167 263.167,394.333 263.5,393.5C 324.718,361.593 389.051,338.093 456.5,323C 600.796,294.789 740.463,309.455 875.5,367C 894.641,375.265 913.475,384.098 932,393.5C 884.512,592.445 773.345,744.278 598.5,849C 597.5,849.667 596.5,849.667 595.5,849C 531.607,810.164 474.273,762.997 423.5,707.5C 435.673,700.413 448.34,694.413 461.5,689.5 Z"/></g>
<g><path style="opacity:1" fill="#fdbb33" d="M 741.5,355.5 C 690.498,350.194 639.498,350.194 588.5,355.5C 584.731,355.244 581.064,355.577 577.5,356.5C 571.918,356.857 566.585,357.857 561.5,359.5C 517.037,365.157 473.703,375.324 431.5,390C 417.637,395.033 403.971,400.199 390.5,405.5C 385.315,407.594 380.315,409.928 375.5,412.5C 367.735,415.217 360.402,418.717 353.5,423C 360.184,446.524 367.85,469.691 376.5,492.5C 367.86,500.806 359.193,509.139 350.5,517.5C 335.533,482.937 322.533,447.604 311.5,411.5C 370.739,383.032 432.739,362.865 497.5,351C 579.292,335.836 660.625,337.336 741.5,355.5 Z"/></g>
<g><path style="opacity:1" fill="#ef5133" d="M 741.5,355.5 C 745.807,356.327 750.14,356.993 754.5,357.5C 752.812,369.627 750.479,381.627 747.5,393.5C 735.576,395.749 724.742,400.415 715,407.5C 715.003,405.144 715.503,402.811 716.5,400.5C 715.167,400.167 713.833,399.833 712.5,399.5C 695.149,402.559 677.816,405.725 660.5,409C 653.667,414.5 647.5,420.667 642,427.5C 642.765,422.7 644.265,418.034 646.5,413.5C 645.667,413.167 644.833,412.833 644,412.5C 625.81,416.115 607.643,419.781 589.5,423.5C 586.204,401.423 582.537,379.423 578.5,357.5C 582.011,357.101 585.344,356.434 588.5,355.5C 639.498,350.194 690.498,350.194 741.5,355.5 Z"/></g>
<g><path style="opacity:1" fill="#f9b392" d="M 588.5,355.5 C 585.344,356.434 582.011,357.101 578.5,357.5C 577.833,357.5 577.5,357.167 577.5,356.5C 581.064,355.577 584.731,355.244 588.5,355.5 Z"/></g>
<g><path style="opacity:1" fill="#ef5133" d="M 561.5,359.5 C 566.251,381.669 570.251,404.002 573.5,426.5C 569.304,428.133 564.971,429.299 560.5,430C 554.301,435.864 548.468,442.031 543,448.5C 538.979,444.601 534.145,442.434 528.5,442C 522.126,441.392 515.793,441.725 509.5,443C 481.73,449.65 454.23,457.15 427,465.5C 413.552,446.269 401.385,426.269 390.5,405.5C 403.971,400.199 417.637,395.033 431.5,390C 473.703,375.324 517.037,365.157 561.5,359.5 Z"/></g>
<g><path style="opacity:1" fill="#057ac1" d="M 616.5,807.5 C 594.717,791.255 574.05,773.588 554.5,754.5C 630.701,744.984 694.868,712.318 747,656.5C 810.827,581.98 835.161,495.98 820,398.5C 816.73,391.089 814.23,383.422 812.5,375.5C 813.167,375.167 813.833,374.833 814.5,374.5C 845.949,383.561 876.282,395.394 905.5,410C 855.853,576.929 759.52,709.429 616.5,807.5 Z"/></g>
<g><path style="opacity:1" fill="#ef5133" d="M 772.5,362.5 C 782.986,364.883 793.319,367.883 803.5,371.5C 814.76,411.2 817.594,451.533 812,492.5C 810.901,502.548 808.735,512.215 805.5,521.5C 790.022,546.162 771.355,568.329 749.5,588C 729.73,603.559 708.064,616.059 684.5,625.5C 684.167,625 683.833,624.5 683.5,624C 686.418,612.069 689.584,600.235 693,588.5C 708.396,581.555 723.896,574.722 739.5,568C 747.997,558.503 756.83,549.336 766,540.5C 772.205,515.39 778.705,490.39 785.5,465.5C 784.833,465.167 784.167,464.833 783.5,464.5C 777.764,466.141 772.097,467.641 766.5,469C 774.355,461.412 781.855,453.579 789,445.5C 794.286,425.562 799.119,405.562 803.5,385.5C 791.82,387.073 780.154,388.74 768.5,390.5C 769.834,381.163 771.167,371.83 772.5,362.5 Z"/></g>
<g><path style="opacity:1" fill="#fbfcfd" d="M 787.5,397.5 C 788.5,397.5 789.5,397.5 790.5,397.5C 787.326,410.529 783.993,423.529 780.5,436.5C 772.011,439.456 763.344,441.789 754.5,443.5C 755.218,438.677 756.551,434.01 758.5,429.5C 757.833,429.167 757.167,428.833 756.5,428.5C 750.816,429.897 745.316,431.564 740,433.5C 731.645,462.101 723.479,490.768 715.5,519.5C 722.096,517.302 728.763,515.302 735.5,513.5C 736.924,504.732 739.257,496.232 742.5,488C 752.227,485.256 761.894,482.423 771.5,479.5C 766.94,497.787 761.94,515.953 756.5,534C 737.385,541.724 718.385,549.724 699.5,558C 692.471,561.258 685.138,562.925 677.5,563C 671.412,558.748 669.246,552.915 671,545.5C 681.261,511.383 691.928,477.383 703,443.5C 708.094,424.073 720.261,411.573 739.5,406C 755.703,403.468 771.703,400.634 787.5,397.5 Z"/></g>
<g><path style="opacity:1" fill="#fcfdfd" d="M 695.5,412.5 C 697.857,412.337 700.19,412.503 702.5,413C 699.073,422.446 695.74,431.946 692.5,441.5C 687.854,443.376 683.187,445.043 678.5,446.5C 662.788,469.426 647.455,492.593 632.5,516C 641.695,534.873 649.862,554.04 657,573.5C 643.8,579.766 630.467,585.766 617,591.5C 607.678,573.567 598.345,555.567 589,537.5C 579,564.167 569,590.833 559,617.5C 537.701,628.071 516.201,637.904 494.5,647C 516.947,589.774 539.947,532.774 563.5,476C 559.305,475.739 555.305,476.573 551.5,478.5C 551.167,478.167 550.833,477.833 550.5,477.5C 555.725,464.717 561.225,452.05 567,439.5C 588.299,433.868 609.799,429.368 631.5,426C 621.517,449.962 612.35,474.128 604,498.5C 623.641,472.025 643.474,445.692 663.5,419.5C 674.208,416.82 684.874,414.486 695.5,412.5 Z"/></g>
<g><path style="opacity:1" fill="#ef5133" d="M 375.5,412.5 C 385.881,432.929 397.548,452.595 410.5,471.5C 398.143,477.003 386.81,484.003 376.5,492.5C 367.85,469.691 360.184,446.524 353.5,423C 360.402,418.717 367.735,415.217 375.5,412.5 Z"/></g>
<g><path style="opacity:1" fill="#ef5134" d="M 942.5,452.5 C 945.672,440.814 949.006,429.147 952.5,417.5C 952.747,416.287 953.414,415.62 954.5,415.5C 1008.11,412.856 1061.78,413.022 1115.5,416C 1126,416.386 1136.33,417.386 1146.5,419C 1078.29,428.98 1010.29,440.147 942.5,452.5 Z"/></g>
<g><path style="opacity:1" fill="#fdfdfe" d="M 515.5,451.5 C 533.756,448.921 541.256,456.587 538,474.5C 519.057,519.386 500.391,564.386 482,609.5C 471.399,634.094 455.566,654.594 434.5,671C 424.436,678.061 414.102,684.727 403.5,691C 369.647,707.76 335.98,724.76 302.5,742C 292.227,746.825 281.561,748.158 270.5,746C 265.769,742.538 263.436,737.872 263.5,732C 264.178,725.964 265.678,720.13 268,714.5C 293.695,655.775 321.028,597.775 350,540.5C 371.055,503.351 402.555,479.851 444.5,470C 468.429,464.269 492.095,458.103 515.5,451.5 Z"/></g>
<g><path style="opacity:0.99" fill="#0078bf" d="M 900.5,559.5 C 906.666,544.502 912.832,529.502 919,514.5C 919.697,512.416 920.864,510.749 922.5,509.5C 996.447,493.063 1071.11,482.063 1146.5,476.5C 1063.9,502.469 981.903,530.135 900.5,559.5 Z"/></g>
<g><path style="opacity:1" fill="#022d62" d="M 466.5,502.5 C 467.675,502.281 468.675,502.614 469.5,503.5C 447.918,549.332 427.418,595.666 408,642.5C 393.607,649.612 379.107,656.612 364.5,663.5C 364.167,663.167 363.833,662.833 363.5,662.5C 384.57,613.025 406.737,564.025 430,515.5C 442.101,510.856 454.268,506.523 466.5,502.5 Z"/></g>
<g><path style="opacity:1" fill="#ef5133" d="M 296.5,563.5 C 299.806,569.438 303.139,575.438 306.5,581.5C 301.409,592.017 296.076,602.35 290.5,612.5C 210.161,637.168 130.495,663.835 51.5,692.5C 51.1667,692.167 50.8333,691.833 50.5,691.5C 128.715,642.055 210.715,599.388 296.5,563.5 Z"/></g>
<g><path style="opacity:1" fill="#f05234" d="M 789.5,571.5 C 771.103,613.41 744.436,649.243 709.5,679C 708.552,679.483 707.552,679.649 706.5,679.5C 689.988,677.293 681.988,667.626 682.5,650.5C 682.34,648.801 682.506,647.134 683,645.5C 684.652,644.601 686.152,643.601 687.5,642.5C 690.346,642.448 692.68,641.448 694.5,639.5C 696.779,638.349 699.112,637.349 701.5,636.5C 703.38,636.771 704.713,636.104 705.5,634.5C 738.227,619.803 766.227,598.803 789.5,571.5 Z"/></g>
<g><path style="opacity:1" fill="#ef5133" d="M 670.5,596.5 C 671.5,596.5 672.5,596.5 673.5,596.5C 670.758,608.626 668.425,620.792 666.5,633C 648.482,639.118 630.315,644.618 612,649.5C 611.182,639.589 611.349,629.756 612.5,620C 623.167,615.333 633.833,610.667 644.5,606C 648.227,601.102 653.227,599.102 659.5,600C 663.427,599.276 667.094,598.109 670.5,596.5 Z"/></g>
<g><path style="opacity:1" fill="#ef5133" d="M 574.5,613.5 C 578.638,618.853 582.305,624.687 585.5,631C 588.16,630.524 590.826,629.69 593.5,628.5C 594.498,636.807 594.831,645.14 594.5,653.5C 573.45,658.298 552.117,660.631 530.5,660.5C 530.238,659.022 530.571,657.689 531.5,656.5C 534.715,654.726 538.048,653.226 541.5,652C 550.575,644.38 559.741,636.88 569,629.5C 571.127,624.251 572.96,618.918 574.5,613.5 Z"/></g>
<g><path style="opacity:0.588" fill="#afb2bf" d="M 705.5,634.5 C 704.713,636.104 703.38,636.771 701.5,636.5C 702.514,635.326 703.847,634.66 705.5,634.5 Z"/></g>
<g><path style="opacity:0.639" fill="#d3babd" d="M 694.5,639.5 C 692.68,641.448 690.346,642.448 687.5,642.5C 689.509,640.935 691.843,639.935 694.5,639.5 Z"/></g>
<g><path style="opacity:0.565" fill="#cb7b72" d="M 687.5,642.5 C 686.152,643.601 684.652,644.601 683,645.5C 682.506,647.134 682.34,648.801 682.5,650.5C 680.14,645.478 681.806,642.812 687.5,642.5 Z"/></g>
<g><path style="opacity:0.639" fill="#e0c5c5" d="M 665.5,651.5 C 662.211,652.374 658.877,653.041 655.5,653.5C 658.661,651.32 661.994,650.653 665.5,651.5 Z"/></g>
<g><path style="opacity:1" fill="#ef5133" d="M 665.5,651.5 C 666.242,666.577 671.909,679.41 682.5,690C 684.078,691.094 685.745,691.928 687.5,692.5C 687.611,693.117 687.944,693.617 688.5,694C 661.407,713.887 631.74,727.72 599.5,735.5C 607.326,713.247 610.993,690.247 610.5,666.5C 613.152,666.59 615.485,665.924 617.5,664.5C 620.152,664.59 622.485,663.924 624.5,662.5C 632.081,661.107 639.414,659.107 646.5,656.5C 649.854,656.253 652.854,655.253 655.5,653.5C 658.877,653.041 662.211,652.374 665.5,651.5 Z"/></g>
<g><path style="opacity:0.796" fill="#ddc8ca" d="M 655.5,653.5 C 652.854,655.253 649.854,656.253 646.5,656.5C 649.084,654.528 652.084,653.528 655.5,653.5 Z"/></g>
<g><path style="opacity:0.796" fill="#dcc3c4" d="M 646.5,656.5 C 639.414,659.107 632.081,661.107 624.5,662.5C 631.47,659.588 638.804,657.588 646.5,656.5 Z"/></g>
<g><path style="opacity:0.992" fill="#eac8c3" d="M 624.5,662.5 C 622.485,663.924 620.152,664.59 617.5,664.5C 619.515,663.076 621.848,662.41 624.5,662.5 Z"/></g>
<g><path style="opacity:1" fill="#edb4aa" d="M 617.5,664.5 C 615.485,665.924 613.152,666.59 610.5,666.5C 612.438,664.837 614.772,664.171 617.5,664.5 Z"/></g>
<g><path style="opacity:1" fill="#ef5133" d="M 574.5,741.5 C 571.851,743.109 568.851,743.943 565.5,744C 558.872,745.052 552.206,745.552 545.5,745.5C 534.8,735.801 524.8,725.468 515.5,714.5C 522.182,708.621 526.682,701.287 529,692.5C 529.9,687.499 530.734,682.499 531.5,677.5C 552.217,675.982 572.883,673.649 593.5,670.5C 593.062,684.941 591.562,699.274 589,713.5C 586.806,724.392 581.64,733.559 573.5,741C 573.728,741.399 574.062,741.565 574.5,741.5 Z"/></g>
<g><path style="opacity:1" fill="#ef5233" d="M 504.5,702.5 C 497.486,694.817 490.82,686.817 484.5,678.5C 486.816,676.726 489.483,675.726 492.5,675.5C 499.47,676.387 506.47,676.721 513.5,676.5C 513.56,686.278 510.56,694.945 504.5,702.5 Z"/></g>
<g><path style="opacity:1" fill="#fcba32" d="M 484.5,678.5 C 490.82,686.817 497.486,694.817 504.5,702.5C 506.777,707.777 510.444,711.777 515.5,714.5C 524.8,725.468 534.8,735.801 545.5,745.5C 548.167,748.833 551.167,751.833 554.5,754.5C 574.05,773.588 594.717,791.255 616.5,807.5C 612.407,810.724 608.074,813.724 603.5,816.5C 550.657,780.675 503.323,738.342 461.5,689.5C 468.94,685.401 476.607,681.735 484.5,678.5 Z"/></g>
<g><path style="opacity:0.994" fill="#0079bf" d="M 433.5,752.5 C 322.729,803.968 213.895,858.968 107,917.5C 105.967,917.452 105.634,917.119 106,916.5C 165.943,864.031 229.109,816.031 295.5,772.5C 296.492,772.672 297.158,772.338 297.5,771.5C 297.833,771.5 298.167,771.5 298.5,771.5C 299.167,771.5 299.5,771.167 299.5,770.5C 300.167,770.5 300.5,770.167 300.5,769.5C 300.833,769.5 301.167,769.5 301.5,769.5C 302.167,769.5 302.5,769.167 302.5,768.5C 334.587,750.706 367.42,734.039 401,718.5C 411.6,729.1 422.267,739.767 433,750.5C 433.464,751.094 433.631,751.761 433.5,752.5 Z"/></g>
</svg>
