<?xml version="1.0" encoding="UTF-8"?>
<!DOCTYPE svg PUBLIC "-//W3C//DTD SVG 1.1//EN" "http://www.w3.org/Graphics/SVG/1.1/DTD/svg11.dtd">
<svg xmlns="http://www.w3.org/2000/svg" version="1.1" width="1100px" height="1100px" style="shape-rendering:geometricPrecision; text-rendering:geometricPrecision; image-rendering:optimizeQuality; fill-rule:evenodd; clip-rule:evenodd" xmlns:xlink="http://www.w3.org/1999/xlink">
<g><path style="opacity:1" fill="#fdfdfd" d="M 516.5,98.5 C 656.471,91.9683 775.638,137.968 874,236.5C 978.793,351.27 1017.46,485.604 990,639.5C 959.079,775.047 883.246,876.881 762.5,945C 650.326,1003.13 533.66,1014.13 412.5,978C 294.317,938.142 205.817,863.308 147,753.5C 96.7795,651.848 85.1128,545.848 112,435.5C 149.46,302.058 229.96,204.225 353.5,142C 405.305,117.634 459.638,103.134 516.5,98.5 Z"/></g>
<g><path style="opacity:1" fill="#061821" d="M 515.5,122.5 C 650.84,115.627 765.674,160.294 860,256.5C 962.183,371.221 996.183,503.887 962,654.5C 926.341,781.808 849.507,874.975 731.5,934C 630.916,979.396 527.582,986.73 421.5,956C 298.924,915.087 210.757,835.921 157,718.5C 105.73,593.781 110.064,471.114 170,350.5C 235.544,231.424 335.044,157.59 468.5,129C 484.245,126.298 499.911,124.131 515.5,122.5 Z"/></g>
<g><path style="opacity:1" fill="#fdfdfd" d="M 534.5,270.5 C 529.167,265.833 524.167,260.833 519.5,255.5C 519.333,227.831 519.5,200.165 520,172.5C 524.5,168 529,163.5 533.5,159C 547.833,158.333 562.167,158.333 576.5,159C 581,163.5 585.5,168 590,172.5C 590.667,200.5 590.667,228.5 590,256.5C 585.5,261 581,265.5 576.5,270C 562.504,270.5 548.504,270.667 534.5,270.5 Z"/></g>
<g><path style="opacity:1" fill="#05080c" d="M 519.5,255.5 C 524.167,260.833 529.167,265.833 534.5,270.5C 547.994,271.331 561.661,271.831 575.5,272C 561.5,272.667 547.5,272.667 533.5,272C 528.333,266.833 523.167,261.667 518,256.5C 517.333,228.5 517.333,200.5 518,172.5C 518.168,200.336 518.668,228.003 519.5,255.5 Z"/></g>
<g><path style="opacity:1" fill="#fcfcfc" d="M 699.5,187.5 C 699.167,208.511 699.5,229.511 700.5,250.5C 701.298,250.043 701.631,249.376 701.5,248.5C 701.833,247.167 702.167,245.833 702.5,244.5C 709.116,229.256 715.782,213.923 722.5,198.5C 723.365,197.417 724.365,197.251 725.5,198C 731.652,200.577 737.652,203.41 743.5,206.5C 729.383,238.676 715.55,271.01 702,303.5C 701.359,305.813 700.026,307.48 698,308.5C 692.567,306.357 687.233,304.024 682,301.5C 680.352,279.838 678.852,258.171 677.5,236.5C 677.808,234.076 677.474,231.743 676.5,229.5C 675.893,229.624 675.56,229.957 675.5,230.5C 667.712,250.075 659.379,269.408 650.5,288.5C 644.015,285.757 637.681,282.757 631.5,279.5C 646.404,245.698 660.737,211.698 674.5,177.5C 683.216,180.068 691.549,183.401 699.5,187.5 Z"/></g>
<g><path style="opacity:1" fill="#fcfcfc" d="M 416.5,182.5 C 424.038,184.933 431.371,187.933 438.5,191.5C 443.667,203.167 448.833,214.833 454,226.5C 453.258,233.541 452.258,240.541 451,247.5C 461.014,257.347 470.848,267.347 480.5,277.5C 473.908,280.978 467.075,283.978 460,286.5C 449.91,278.414 440.41,269.581 431.5,260C 428.076,260.361 424.742,261.361 421.5,263C 420.483,264.049 420.316,265.216 421,266.5C 425.5,276.833 430,287.167 434.5,297.5C 428.287,300.686 421.954,303.686 415.5,306.5C 414.201,305.91 413.368,304.91 413,303.5C 398.254,270.016 384.087,236.349 370.5,202.5C 386.146,196.401 401.479,189.735 416.5,182.5 Z"/></g>
<g><path style="opacity:1" fill="#061821" d="M 562.5,245.5 C 557.684,244.674 552.684,244.174 547.5,244C 546.667,243.167 545.833,242.333 545,241.5C 544.526,222.53 544.359,203.863 544.5,185.5C 544.953,184.542 545.619,183.708 546.5,183C 551.833,182.333 557.167,182.333 562.5,183C 563.667,184.167 564.833,185.333 566,186.5C 566.667,205.167 566.667,223.833 566,242.5C 564.961,243.71 563.794,244.71 562.5,245.5 Z"/></g>
<g><path style="opacity:1" fill="#1b1e21" d="M 544.5,185.5 C 544.359,203.863 544.526,222.53 545,241.5C 545.833,242.333 546.667,243.167 547.5,244C 552.684,244.174 557.684,244.674 562.5,245.5C 557.156,245.666 551.823,245.499 546.5,245C 545.333,243.833 544.167,242.667 543,241.5C 542.333,223.167 542.333,204.833 543,186.5C 543.383,185.944 543.883,185.611 544.5,185.5 Z"/></g>
<g><path style="opacity:1" fill="#010102" d="M 700.5,187.5 C 701.179,206.402 701.845,225.402 702.5,244.5C 702.167,245.833 701.833,247.167 701.5,248.5C 700.503,228.34 700.17,208.007 700.5,187.5 Z"/></g>
<g><path style="opacity:1" fill="#091820" d="M 416.5,209.5 C 418.84,210.086 421.007,211.086 423,212.5C 426.106,217.479 427.773,222.812 428,228.5C 427.535,229.931 426.701,231.097 425.5,232C 420.124,234.403 414.791,236.903 409.5,239.5C 406.3,232.267 402.967,225.1 399.5,218C 405.227,215.136 410.894,212.303 416.5,209.5 Z"/></g>
<g><path style="opacity:1" fill="#7c858a" d="M 699.5,187.5 C 699.833,187.5 700.167,187.5 700.5,187.5C 700.17,208.007 700.503,228.34 701.5,248.5C 701.631,249.376 701.298,250.043 700.5,250.5C 699.5,229.511 699.167,208.511 699.5,187.5 Z"/></g>
<g><path style="opacity:1" fill="#576369" d="M 675.5,230.5 C 675.56,229.957 675.893,229.624 676.5,229.5C 677.474,231.743 677.808,234.076 677.5,236.5C 676.833,234.5 676.167,232.5 675.5,230.5 Z"/></g>
<g><path style="opacity:1" fill="#fbfbfb" d="M 800.5,244.5 C 801.552,244.351 802.552,244.517 803.5,245C 817.695,259.529 832.195,273.696 847,287.5C 847.667,288.5 847.667,289.5 847,290.5C 841.667,295.833 836.333,301.167 831,306.5C 826.5,302 822,297.5 817.5,293C 816.833,292.333 816.167,292.333 815.5,293C 795.681,313.986 775.348,334.486 754.5,354.5C 748.833,349.5 743.5,344.167 738.5,338.5C 758.123,317.377 778.289,296.71 799,276.5C 799.667,275.833 799.667,275.167 799,274.5C 794.625,269.957 790.125,265.624 785.5,261.5C 790.15,255.517 795.15,249.85 800.5,244.5 Z"/></g>
<g><path style="opacity:1" fill="#fbfbfc" d="M 289.5,260.5 C 296.841,260.334 304.174,260.5 311.5,261C 331,279.833 350.5,298.667 370,317.5C 370.667,324.833 370.667,332.167 370,339.5C 360.47,348.696 351.303,358.196 342.5,368C 334.833,368.667 327.167,368.667 319.5,368C 300,349.167 280.5,330.333 261,311.5C 260.169,304.144 260.335,296.811 261.5,289.5C 270.827,279.839 280.161,270.173 289.5,260.5 Z"/></g>
<g><path style="opacity:1" fill="#081820" d="M 297.5,287.5 C 300.187,287.336 302.854,287.503 305.5,288C 317.696,300.53 330.196,312.696 343,324.5C 343.667,326.833 343.667,329.167 343,331.5C 339.833,334.667 336.667,337.833 333.5,341C 330.833,341.667 328.167,341.667 325.5,341C 313.304,328.47 300.804,316.304 288,304.5C 287.333,302.167 287.333,299.833 288,297.5C 291.371,294.297 294.538,290.964 297.5,287.5 Z"/></g>
<g><path style="opacity:1" fill="#bd1b21" d="M 528.5,307.5 C 572.498,307.329 610.832,321.829 643.5,351C 660.254,366.408 674.754,383.574 687,402.5C 689.22,405.54 690.72,408.873 691.5,412.5C 674.102,414.988 657.435,412.488 641.5,405C 639.5,402.667 637.5,400.333 635.5,398C 631.347,397.616 627.347,396.616 623.5,395C 620.137,388.954 615.137,385.287 608.5,384C 607.743,382.488 606.743,381.154 605.5,380C 600.725,378.297 595.892,376.797 591,375.5C 587.866,376.1 584.866,377.1 582,378.5C 571.584,373.709 561.417,368.542 551.5,363C 540.175,362.193 528.842,361.527 517.5,361C 513.8,356.965 509.8,353.298 505.5,350C 488.142,348.802 470.809,347.802 453.5,347C 434.02,354.592 414.353,361.258 394.5,367C 427.299,338.766 464.966,319.766 507.5,310C 514.649,309.163 521.649,308.33 528.5,307.5 Z"/></g>
<g><path style="opacity:1" fill="#be1b21" d="M 596.5,311.5 C 596.917,310.876 597.584,310.543 598.5,310.5C 644.595,320.713 685.261,341.213 720.5,372C 724.023,376.022 727.357,380.189 730.5,384.5C 725.264,396.918 716.264,404.751 703.5,408C 683.356,373.188 656.356,344.855 622.5,323C 613.966,318.9 605.299,315.067 596.5,311.5 Z"/></g>
<g><path style="opacity:1" fill="#fcfcfc" d="M 872.5,350.5 C 880.34,351.724 887.84,354.058 895,357.5C 901.219,369.495 907.052,381.661 912.5,394C 910.394,400.987 907.894,407.82 905,414.5C 881.121,425.856 857.288,437.356 833.5,449C 825.905,448.25 818.571,446.25 811.5,443C 805.095,430.358 799.095,417.524 793.5,404.5C 795.567,398.467 797.733,392.467 800,386.5C 824.027,374.07 848.193,362.07 872.5,350.5 Z"/></g>
<g><path style="opacity:1" fill="#fbfbfb" d="M 210.5,360.5 C 218.265,363.217 225.598,366.717 232.5,371C 229.696,376.774 227.03,382.607 224.5,388.5C 250.825,400.329 277.158,412.162 303.5,424C 303.957,424.414 304.291,424.914 304.5,425.5C 301.667,431.833 298.833,438.167 296,444.5C 293.853,445.476 291.686,445.309 289.5,444C 264.715,433.107 240.048,421.941 215.5,410.5C 212.139,415.888 209.306,421.554 207,427.5C 206.439,428.022 205.772,428.355 205,428.5C 197.829,425.831 190.996,422.498 184.5,418.5C 193.181,399.141 201.848,379.807 210.5,360.5 Z"/></g>
<g><path style="opacity:1" fill="#081820" d="M 871.5,377.5 C 874.192,378.009 876.692,379.009 879,380.5C 881.222,384.501 883.055,388.667 884.5,393C 883.983,395.077 883.316,397.077 882.5,399C 866.167,406.833 849.833,414.667 833.5,422.5C 831.289,421.877 829.289,420.877 827.5,419.5C 825.403,415.042 823.403,410.542 821.5,406C 821.975,404.237 822.642,402.57 823.5,401C 839.647,393.243 855.647,385.409 871.5,377.5 Z"/></g>
<g><path style="opacity:1" fill="#bd1b21" d="M 737.5,392.5 C 740.044,393.468 742.211,395.135 744,397.5C 763.999,422.494 778.499,450.494 787.5,481.5C 783.294,482.264 779.294,481.43 775.5,479C 760.423,476.195 745.257,474.695 730,474.5C 724.992,455.649 718.158,437.483 709.5,420C 709.645,419.228 709.978,418.561 710.5,418C 722.619,412.641 731.619,404.141 737.5,392.5 Z"/></g>
<g><path style="opacity:1" fill="#bd1b21" d="M 555.5,396.5 C 562.175,396.334 568.842,396.5 575.5,397C 577.087,397.862 578.754,398.529 580.5,399C 588.288,399.188 595.954,400.188 603.5,402C 607.804,406.149 612.47,409.816 617.5,413C 623.167,413.333 628.833,413.667 634.5,414C 655.013,422.716 676.346,425.883 698.5,423.5C 706.262,438.945 712.762,454.945 718,471.5C 718.495,473.473 718.662,475.473 718.5,477.5C 702.623,478.261 686.79,479.595 671,481.5C 659.885,479.077 648.719,476.744 637.5,474.5C 634.527,475.068 631.693,476.068 629,477.5C 624.799,475.574 620.632,473.574 616.5,471.5C 603.239,476.466 590.239,481.966 577.5,488C 566.18,489.074 554.846,489.407 543.5,489C 541.612,486.81 539.445,484.977 537,483.5C 531.721,484.589 526.387,485.589 521,486.5C 517.645,484.737 514.145,483.404 510.5,482.5C 505.532,483.527 500.532,484.36 495.5,485C 487.167,492 479.5,499.667 472.5,508C 468.903,508.972 465.236,509.472 461.5,509.5C 450.844,508.52 440.177,508.354 429.5,509C 423.658,512.754 417.991,516.754 412.5,521C 403.158,522.12 393.825,523.287 384.5,524.5C 382.047,527.241 379.714,530.075 377.5,533C 368.802,532.282 360.802,534.282 353.5,539C 340.377,552.113 327.377,565.279 314.5,578.5C 312.02,560.533 311.854,542.533 314,524.5C 315.459,512.08 317.459,499.747 320,487.5C 321.963,481.731 324.796,476.564 328.5,472C 347.685,458.299 366.685,444.466 385.5,430.5C 390.078,431.869 394.744,432.869 399.5,433.5C 404.581,432.459 409.581,431.125 414.5,429.5C 418.806,430.403 422.973,431.737 427,433.5C 436.154,426.257 445.488,419.257 455,412.5C 468.801,413.641 482.634,413.807 496.5,413C 503.332,408.416 510.332,404.083 517.5,400C 530.286,398.434 542.952,397.267 555.5,396.5 Z"/></g>
<g><path style="opacity:1" fill="#bd1b21" d="M 733.5,486.5 C 751.656,484.99 769.323,487.157 786.5,493C 788.286,493.785 789.786,494.951 791,496.5C 797.528,525.69 798.195,555.023 793,584.5C 789.5,580.333 786,576.167 782.5,572C 778.5,569 774.5,566 770.5,563C 760.513,558.231 750.346,554.064 740,550.5C 739.743,538.474 739.076,526.474 738,514.5C 735.894,505.254 734.394,495.921 733.5,486.5 Z"/></g>
<g><path style="opacity:1" fill="#bd1b21" d="M 713.5,487.5 C 716.247,487.187 718.914,487.52 721.5,488.5C 727.256,509.369 729.589,530.536 728.5,552C 712.678,553.496 697.678,557.83 683.5,565C 678.167,565 672.833,565 667.5,565C 665.5,567 663.5,569 661.5,571C 656.068,571.921 650.735,573.255 645.5,575C 643.858,577.786 642.358,580.619 641,583.5C 636.314,586.119 631.48,588.452 626.5,590.5C 619.787,588.362 613.787,589.528 608.5,594C 603.627,594.698 598.96,596.032 594.5,598C 592.741,601.104 591.074,604.271 589.5,607.5C 575.417,613.411 561.75,620.077 548.5,627.5C 543.667,635.167 538.833,642.833 534,650.5C 530.829,651.536 527.829,652.87 525,654.5C 523.584,659.415 522.584,664.415 522,669.5C 512.251,679.585 502.251,689.252 492,698.5C 488.208,705.255 484.041,711.755 479.5,718C 469.456,718.644 459.456,719.644 449.5,721C 445.266,723.409 440.933,725.576 436.5,727.5C 431.018,726.088 425.518,724.755 420,723.5C 417.12,724.356 414.287,725.356 411.5,726.5C 400.618,722.373 389.618,718.539 378.5,715C 366.234,701.615 355.567,687.115 346.5,671.5C 347.942,668.223 350.275,665.723 353.5,664C 360.483,662.956 367.483,662.123 374.5,661.5C 378.362,650.419 382.528,639.419 387,628.5C 398.41,619.546 409.91,610.712 421.5,602C 427.061,600.262 432.728,598.929 438.5,598C 441.833,594.667 445.167,591.333 448.5,588C 456.197,587.232 463.863,587.398 471.5,588.5C 480.526,584.306 489.193,579.473 497.5,574C 504.473,572.813 511.473,571.813 518.5,571C 530.539,557.963 542.206,544.629 553.5,531C 558.003,530.624 562.503,530.791 567,531.5C 581.159,528.777 593.326,522.277 603.5,512C 609.638,511.648 615.638,510.648 621.5,509C 627.243,504.379 633.076,499.879 639,495.5C 656.819,499.668 673.986,497.835 690.5,490C 698.367,489.643 706.033,488.81 713.5,487.5 Z"/></g>
<g><path style="opacity:1" fill="#bd1b21" d="M 722.5,563.5 C 724.5,563.5 726.5,563.5 728.5,563.5C 727.682,630.482 705.515,689.149 662,739.5C 646.002,756.509 627.502,770.009 606.5,780C 578.704,790.11 550.371,792.61 521.5,787.5C 521.977,786.522 522.643,785.689 523.5,785C 530.237,780.698 537.237,776.864 544.5,773.5C 545.167,770.5 545.833,767.5 546.5,764.5C 551.285,762.358 555.451,759.358 559,755.5C 568.429,742.307 577.095,728.641 585,714.5C 586.54,703.678 588.707,693.011 591.5,682.5C 596.535,680.824 601.535,678.824 606.5,676.5C 608.706,664.342 611.54,652.342 615,640.5C 618.357,636.104 620.357,631.104 621,625.5C 631.015,619.327 640.681,612.66 650,605.5C 652.833,600.5 655.667,595.5 658.5,590.5C 663.35,588.494 668.35,586.994 673.5,586C 675.405,584.185 677.072,582.185 678.5,580C 692.525,572.386 707.191,566.886 722.5,563.5 Z"/></g>
<g><path style="opacity:1" fill="#bd1b21" d="M 771.5,576.5 C 775.141,579.968 778.974,583.302 783,586.5C 786.161,590.658 788.661,595.158 790.5,600C 787.193,613.733 783.193,627.233 778.5,640.5C 750.812,703.353 705.146,747.853 641.5,774C 639.833,774.667 638.167,774.667 636.5,774C 659.333,759.167 678.167,740.333 693,717.5C 722.265,671.126 737.931,620.46 740,565.5C 743.485,564.378 746.985,564.544 750.5,566C 758.085,568.459 765.085,571.959 771.5,576.5 Z"/></g>
<g><path style="opacity:1" fill="#1b1a21" d="M 778.5,640.5 C 783.193,627.233 787.193,613.733 790.5,600C 788.661,595.158 786.161,590.658 783,586.5C 778.974,583.302 775.141,579.968 771.5,576.5C 771.897,575.475 772.563,575.308 773.5,576C 782.48,581.989 788.814,589.989 792.5,600C 789.389,612.277 785.889,624.443 782,636.5C 781.502,638.544 780.335,639.878 778.5,640.5 Z"/></g>
<g><path style="opacity:1" fill="#fbfcfc" d="M 288.5,647.5 C 289.822,647.33 290.989,647.663 292,648.5C 299.323,663.815 307.157,678.815 315.5,693.5C 312.704,700.386 310.204,707.386 308,714.5C 296.088,720.539 284.255,726.706 272.5,733C 265.787,732.589 259.12,731.922 252.5,731C 243.382,741.407 234.382,751.907 225.5,762.5C 220.092,756.019 216.592,748.686 215,740.5C 223.286,730.759 231.453,720.926 239.5,711C 237.861,707.544 235.861,704.377 233.5,701.5C 223.218,707.224 212.718,712.558 202,717.5C 197.321,711.805 193.987,705.472 192,698.5C 224.307,681.598 256.474,664.598 288.5,647.5 Z"/></g>
<g><path style="opacity:1" fill="#fbfbfb" d="M 827.5,648.5 C 834.979,649.406 841.645,652.239 847.5,657C 844.054,664.06 840.22,670.893 836,677.5C 833.667,676.167 831.333,674.833 829,673.5C 826,678.833 823,684.167 820,689.5C 819.743,692.017 820.41,694.35 822,696.5C 825.297,699.572 829.13,701.072 833.5,701C 835.329,700.727 836.829,699.893 838,698.5C 841.785,690.429 845.951,682.595 850.5,675C 857.261,672.635 864.094,670.469 871,668.5C 882.159,674.747 893.493,680.747 905,686.5C 907.168,693.172 909.334,699.839 911.5,706.5C 904.657,718.184 898.324,730.184 892.5,742.5C 885.586,745.519 878.419,747.853 871,749.5C 865.383,746.717 859.883,743.717 854.5,740.5C 857.667,734.167 860.833,727.833 864,721.5C 864.561,720.978 865.228,720.645 866,720.5C 868.333,721.5 870.667,722.5 873,723.5C 876.743,719.026 879.743,714.026 882,708.5C 882.734,702.212 879.901,698.378 873.5,697C 870.813,696.463 868.313,696.963 866,698.5C 861.627,706.747 857.127,714.914 852.5,723C 845.626,724.551 838.959,726.718 832.5,729.5C 821.254,723.627 810.087,717.627 799,711.5C 795.474,704.15 793.474,696.484 793,688.5C 799,677.167 805,665.833 811,654.5C 816.543,652.377 822.043,650.377 827.5,648.5 Z"/></g>
<g><path style="opacity:1" fill="#091820" d="M 278.5,677.5 C 283.272,683.374 286.105,690.04 287,697.5C 286.691,698.766 286.191,699.933 285.5,701C 281.061,703.303 276.561,705.47 272,707.5C 269.684,707.066 267.684,706.066 266,704.5C 263.5,699.5 261,694.5 258.5,689.5C 265.194,685.489 271.861,681.489 278.5,677.5 Z"/></g>
<g><path style="opacity:1" fill="#fbfcfc" d="M 750.5,744.5 C 758.163,744.978 765.83,745.478 773.5,746C 782.667,756.5 791.833,767 801,777.5C 801.169,783.859 801.669,790.193 802.5,796.5C 814.993,802.912 827.326,809.579 839.5,816.5C 834.083,822.255 828.083,827.255 821.5,831.5C 810.226,826.53 799.226,821.03 788.5,815C 787.167,814.333 785.833,814.333 784.5,815C 782.792,817.043 780.792,818.71 778.5,820C 777.549,820.718 777.383,821.551 778,822.5C 785.861,831.073 793.361,839.906 800.5,849C 795.679,854.318 790.345,859.151 784.5,863.5C 760.5,835.167 736.5,806.833 712.5,778.5C 724.889,766.774 737.555,755.44 750.5,744.5 Z"/></g>
<g><path style="opacity:1" fill="#fcfcfc" d="M 359.5,747.5 C 366.11,752.441 372.11,758.108 377.5,764.5C 360.527,799.779 343.027,834.779 325,869.5C 318.991,864.657 313.491,859.323 308.5,853.5C 310.798,847.755 312.965,842.088 315,836.5C 307.316,829.315 299.482,822.315 291.5,815.5C 286.666,818.752 281.666,821.752 276.5,824.5C 270.203,819.538 264.203,814.205 258.5,808.5C 292.396,788.392 326.063,768.059 359.5,747.5 Z"/></g>
<g><path style="opacity:1" fill="#091820" d="M 758.5,770.5 C 760.857,770.337 763.19,770.503 765.5,771C 767.963,774.465 770.796,777.631 774,780.5C 774.667,783.167 774.667,785.833 774,788.5C 769.52,792.737 764.853,796.737 760,800.5C 754.646,794.647 749.48,788.647 744.5,782.5C 749.506,778.822 754.173,774.822 758.5,770.5 Z"/></g>
<g><path style="opacity:1" fill="#0a181f" d="M 339.5,786.5 C 340.043,786.56 340.376,786.893 340.5,787.5C 335.667,797.167 330.833,806.833 326,816.5C 321.018,812.685 316.518,808.352 312.5,803.5C 321.733,798.059 330.733,792.392 339.5,786.5 Z"/></g>
<g><path style="opacity:1" fill="#fbfbfb" d="M 424.5,796.5 C 440.623,802.432 456.623,808.765 472.5,815.5C 475.718,821.938 478.385,828.604 480.5,835.5C 475.698,849.082 470.032,862.249 463.5,875C 458.674,877.246 454.008,879.746 449.5,882.5C 439.085,878.362 428.752,874.028 418.5,869.5C 412.909,882.344 407.076,895.011 401,907.5C 394.48,905.226 388.313,902.392 382.5,899C 396.934,864.972 410.934,830.805 424.5,796.5 Z"/></g>
<g><path style="opacity:1" fill="#fbfcfc" d="M 668.5,800.5 C 675.95,803.14 683.116,806.474 690,810.5C 699.639,835.612 709.139,860.778 718.5,886C 715.766,892.8 712.766,899.467 709.5,906C 696.612,910.694 683.778,915.528 671,920.5C 664.478,917.882 658.145,914.882 652,911.5C 642.305,885.945 632.472,860.445 622.5,835C 625.212,828.363 628.212,821.863 631.5,815.5C 644.013,810.669 656.347,805.669 668.5,800.5 Z"/></g>
<g><path style="opacity:1" fill="#fafafa" d="M 587.5,825.5 C 587.5,833.5 587.5,841.5 587.5,849.5C 580.833,849.5 574.167,849.5 567.5,849.5C 567.171,862.677 567.505,875.677 568.5,888.5C 568.5,905.167 568.5,921.833 568.5,938.5C 560.5,938.5 552.5,938.5 544.5,938.5C 544.5,909.167 544.5,879.833 544.5,850.5C 537.5,850.5 530.5,850.5 523.5,850.5C 523.5,842.167 523.5,833.833 523.5,825.5C 544.833,825.5 566.167,825.5 587.5,825.5 Z"/></g>
<g><path style="opacity:1" fill="#09181f" d="M 435.5,827.5 C 440.503,829.224 445.503,831.058 450.5,833C 452.152,834.47 453.152,836.303 453.5,838.5C 451.947,843.274 450.114,847.94 448,852.5C 446.139,853.764 444.139,854.764 442,855.5C 436.625,853.561 431.458,851.228 426.5,848.5C 429.702,841.553 432.702,834.553 435.5,827.5 Z"/></g>
<g><path style="opacity:1" fill="#081820" d="M 664.5,828.5 C 667.769,828.884 670.603,830.218 673,832.5C 679.068,848.872 685.235,865.206 691.5,881.5C 690.627,883.413 689.627,885.247 688.5,887C 684.08,889.029 679.58,890.862 675,892.5C 672.684,892.066 670.684,891.066 669,889.5C 662.777,872.722 656.277,856.055 649.5,839.5C 650.373,837.587 651.373,835.753 652.5,834C 656.644,832.241 660.644,830.408 664.5,828.5 Z"/></g>
<g><path style="opacity:1" fill="#8d9599" d="M 587.5,825.5 C 588.493,833.65 588.826,841.983 588.5,850.5C 581.833,850.5 575.167,850.5 568.5,850.5C 568.5,863.167 568.5,875.833 568.5,888.5C 567.505,875.677 567.171,862.677 567.5,849.5C 574.167,849.5 580.833,849.5 587.5,849.5C 587.5,841.5 587.5,833.5 587.5,825.5 Z"/></g>
</svg>
