<?xml version="1.0" encoding="UTF-8"?>
<!DOCTYPE svg PUBLIC "-//W3C//DTD SVG 1.1//EN" "http://www.w3.org/Graphics/SVG/1.1/DTD/svg11.dtd">
<svg xmlns="http://www.w3.org/2000/svg" version="1.1" width="1200px" height="1200px" style="shape-rendering:geometricPrecision; text-rendering:geometricPrecision; image-rendering:optimizeQuality; fill-rule:evenodd; clip-rule:evenodd" xmlns:xlink="http://www.w3.org/1999/xlink">
<g><path style="opacity:0.941" fill="#c6cdd2" d="M 573.5,145.5 C 731.677,140.896 860.844,199.23 961,320.5C 1044.4,431.423 1073.06,555.423 1047,692.5C 1015.2,826.344 939.703,927.177 820.5,995C 706.375,1054.68 587.375,1066.68 463.5,1031C 346.517,993.338 257.684,921.172 197,814.5C 138.701,703.757 126.701,588.09 161,467.5C 202.671,340.84 283.171,248.007 402.5,189C 456.939,163.974 513.939,149.474 573.5,145.5 Z"/></g>
<g><path style="opacity:1" fill="#fdfdfe" d="M 568.5,156.5 C 705.817,150.866 823.317,195.866 921,291.5C 1018.63,395.732 1058.63,519.066 1041,661.5C 1020.92,784.895 960.75,883.395 860.5,957C 743.47,1036.6 616.136,1058.93 478.5,1024C 346.925,984.649 251.425,903.149 192,779.5C 139.006,657.657 139.339,535.99 193,414.5C 255.418,287.764 354.918,205.93 491.5,169C 517.043,163.254 542.71,159.087 568.5,156.5 Z"/></g>
<g><path style="opacity:1" fill="#c2203a" d="M 580.5,194.5 C 615.835,194.03 650.835,197.197 685.5,204C 660.08,219.097 642.247,240.597 632,268.5C 620.921,253.342 610.087,238.009 599.5,222.5C 588.833,237.833 578.167,253.167 567.5,268.5C 557.361,240.37 539.361,218.87 513.5,204C 535.716,199.123 558.05,195.956 580.5,194.5 Z"/></g>
<g><path style="opacity:1" fill="#c21f39" d="M 468.5,215.5 C 501.355,223.359 525.355,242.359 540.5,272.5C 420.955,287.68 321.455,340.013 242,429.5C 232.615,441.217 223.615,453.217 215,465.5C 255.177,356.314 328.344,277.48 434.5,229C 445.814,224.179 457.147,219.679 468.5,215.5 Z"/></g>
<g><path style="opacity:1" fill="#c21f39" d="M 726.5,215.5 C 839.258,253.754 921.092,326.754 972,434.5C 976.488,443.978 980.155,453.645 983,463.5C 912.868,365.488 818.368,304.321 699.5,280C 685.903,277.35 672.236,275.183 658.5,273.5C 667.422,253.411 681.422,237.911 700.5,227C 708.977,222.463 717.644,218.63 726.5,215.5 Z"/></g>
<g><path style="opacity:1" fill="#c6cdd2" d="M 598.5,253.5 C 599.376,253.369 600.043,253.702 600.5,254.5C 607.31,267.954 613.977,281.454 620.5,295C 650.538,296.109 680.205,299.942 709.5,306.5C 688.659,318.088 667.659,329.421 646.5,340.5C 645.369,342.074 645.202,343.741 646,345.5C 652.818,369.111 659.151,392.777 665,416.5C 643.281,400.605 621.448,384.939 599.5,369.5C 577.772,384.386 556.438,399.886 535.5,416C 534.668,416.688 534.002,416.521 533.5,415.5C 540.433,390.927 547.433,366.427 554.5,342C 532.833,330.167 511.167,318.333 489.5,306.5C 518.778,299.798 548.445,295.965 578.5,295C 585.857,281.454 592.524,267.621 598.5,253.5 Z"/></g>
<g><path style="opacity:1" fill="#1a2e5b" d="M 937.5,792.5 C 937.556,787.269 936.889,782.269 935.5,777.5C 928.11,738.829 913.943,702.829 893,669.5C 861.238,620.371 824.904,574.705 784,532.5C 768.667,517.167 753.333,501.833 738,486.5C 717.262,462.719 700.262,436.385 687,407.5C 681.111,389.443 675.611,371.276 670.5,353C 686.004,343.747 701.67,334.747 717.5,326C 720.674,324.275 724.007,322.942 727.5,322C 750.009,319.751 771.342,323.751 791.5,334C 854.127,365.915 906.961,409.748 950,465.5C 978.01,506.834 996.677,552.167 1006,601.5C 1005.26,682.057 982.589,755.723 938,822.5C 937.5,812.506 937.334,802.506 937.5,792.5 Z"/></g>
<g><path style="opacity:1" fill="#1a2e5b" d="M 261.5,820.5 C 261.672,821.492 261.338,822.158 260.5,822.5C 219.075,760.177 196.409,691.51 192.5,616.5C 200.942,543.962 230.108,481.295 280,428.5C 319.935,387.89 365.435,355.057 416.5,330C 433.437,322.546 451.103,319.88 469.5,322C 474.383,323.072 479.05,324.739 483.5,327C 498.692,335.426 513.692,344.093 528.5,353C 523.744,369.856 518.911,386.689 514,403.5C 501.322,432.806 484.655,459.473 464,483.5C 427.501,518.992 392.834,555.992 360,594.5C 328.504,632.373 302.171,673.706 281,718.5C 266.229,750.917 259.729,784.917 261.5,820.5 Z"/></g>
<g><path style="opacity:1" fill="#1a2e5b" d="M 663.5,996.5 C 652.435,833.484 640.935,670.484 629,507.5C 619.5,498 610,488.5 600.5,479C 599.563,478.308 598.897,478.475 598.5,479.5C 588.868,488.631 579.368,497.964 570,507.5C 557.837,670.459 546.337,833.459 535.5,996.5C 454.695,983.843 384.195,950.176 324,895.5C 308.604,862.431 303.604,827.765 309,791.5C 314.086,759.242 323.419,728.242 337,698.5C 361.363,643.727 393.697,594.393 434,550.5C 484.6,496.612 539.933,448.612 600,406.5C 654.855,445.994 706.189,489.994 754,538.5C 812.085,598.615 854.418,668.615 881,748.5C 891.876,783.25 894.543,818.584 889,854.5C 886.812,865.064 883.812,875.398 880,885.5C 878.576,889.793 876.409,893.626 873.5,897C 813.334,950.243 743.334,983.41 663.5,996.5 Z"/></g>
<g><path style="opacity:1" fill="#c5ccd1" d="M 598.5,479.5 C 598.897,478.475 599.563,478.308 600.5,479C 610,488.5 619.5,498 629,507.5C 640.935,670.484 652.435,833.484 663.5,996.5C 642.833,1008.17 622.167,1019.83 601.5,1031.5C 600.833,856.167 600.167,680.833 599.5,505.5C 599.826,496.651 599.493,487.984 598.5,479.5 Z"/></g>
<g><path style="opacity:1" fill="#d9dde1" d="M 599.5,505.5 C 600.167,680.833 600.833,856.167 601.5,1031.5C 601.44,1032.04 601.107,1032.38 600.5,1032.5C 599.5,856.835 599.167,681.168 599.5,505.5 Z"/></g>
<g><path style="opacity:1" fill="#b2b8c7" d="M 935.5,777.5 C 936.889,782.269 937.556,787.269 937.5,792.5C 936.111,787.731 935.444,782.731 935.5,777.5 Z"/></g>
<g><path style="opacity:1" fill="#8590a7" d="M 261.5,820.5 C 262.598,821.601 262.765,822.934 262,824.5C 261.283,823.956 260.783,823.289 260.5,822.5C 261.338,822.158 261.672,821.492 261.5,820.5 Z"/></g>
</svg>
