<?xml version="1.0" encoding="UTF-8"?>
<!DOCTYPE svg PUBLIC "-//W3C//DTD SVG 1.1//EN" "http://www.w3.org/Graphics/SVG/1.1/DTD/svg11.dtd">
<svg xmlns="http://www.w3.org/2000/svg" version="1.1" width="1200px" height="1200px" style="shape-rendering:geometricPrecision; text-rendering:geometricPrecision; image-rendering:optimizeQuality; fill-rule:evenodd; clip-rule:evenodd" xmlns:xlink="http://www.w3.org/1999/xlink">
<g><path style="opacity:0.98" fill="#fec527" d="M 573.5,171.5 C 707.158,166.861 820.325,212.194 913,307.5C 1004.49,410.01 1040.83,529.676 1022,666.5C 997.21,800.037 926.71,901.204 810.5,970C 704.592,1027.49 593.592,1039.82 477.5,1007C 347.283,964.45 255.783,879.95 203,753.5C 170.936,668.506 165.602,581.839 187,493.5C 221.792,366.728 297.625,273.562 414.5,214C 465.042,190.283 518.042,176.116 573.5,171.5 Z"/></g>
<g><path style="opacity:1" fill="#8b2332" d="M 575.5,206.5 C 721.975,202.493 838.142,259.16 924,376.5C 985.027,467.655 1005.36,567.321 985,675.5C 957.694,798.098 888.86,888.932 778.5,948C 684.791,993.709 587.791,1002.38 487.5,974C 369.251,935.417 285.751,858.917 237,744.5C 192.202,626.749 200.202,512.749 261,402.5C 332.93,285.083 437.763,219.75 575.5,206.5 Z"/></g>
<g><path style="opacity:1" fill="#0d2240" d="M 574.5,235.5 C 695.657,230.468 796.491,272.801 877,362.5C 951.118,453.349 977.451,556.683 956,672.5C 930.858,780.59 870.358,862.09 774.5,917C 687.849,962.441 597.182,972.774 502.5,948C 404.135,917.95 329.969,858.117 280,768.5C 227.939,664.952 223.939,559.618 268,452.5C 315.656,350.728 393.156,282.895 500.5,249C 524.891,242.215 549.558,237.715 574.5,235.5 Z"/></g>
<g><path style="opacity:1" fill="#fcc427" d="M 921.5,676.5 C 920.833,675.5 920.167,674.5 919.5,673.5C 918.006,644.518 912.839,616.184 904,588.5C 891.697,549.574 875.864,512.24 856.5,476.5C 842.005,484.246 827.672,492.246 813.5,500.5C 811.5,498.5 809.5,496.5 807.5,494.5C 659.167,587.667 510.833,680.833 362.5,774C 354.939,782.441 347.606,791.108 340.5,800C 332.429,797.521 325.929,792.688 321,785.5C 313.738,776.337 310.571,766.003 311.5,754.5C 323.321,751.462 334.988,747.962 346.5,744C 419.658,696.33 492.658,648.496 565.5,600.5C 509.253,564.458 452.753,528.792 396,493.5C 394.333,495.833 392.667,498.167 391,500.5C 376.912,492.083 362.579,484.083 348,476.5C 321.589,524.391 302.255,575.058 290,628.5C 286.783,644.685 284.783,661.018 284,677.5C 276.194,649.692 273.527,621.359 276,592.5C 280.399,541.139 294.232,492.473 317.5,446.5C 315.044,444.433 312.378,442.599 309.5,441C 317.968,427.542 326.801,414.376 336,401.5C 337.901,402.536 339.735,403.702 341.5,405C 342.5,405.667 343.5,405.667 344.5,405C 381.954,358.198 427.621,321.865 481.5,296C 499.587,287.19 518.587,281.857 538.5,280C 512.631,293.212 488.965,309.545 467.5,329C 435.912,356.911 407.579,387.577 382.5,421C 395.864,431.009 409.198,441.009 422.5,451C 420.862,453.433 419.696,455.933 419,458.5C 479.081,497.791 539.248,536.958 599.5,576C 600.759,576.982 602.092,577.315 603.5,577C 664.374,537.402 725.041,497.569 785.5,457.5C 784.365,455.201 783.032,453.034 781.5,451C 794.999,440.994 808.333,430.827 821.5,420.5C 785.943,374.442 744.943,333.942 698.5,299C 687.99,291.909 676.99,285.575 665.5,280C 684.545,282.122 702.878,287.122 720.5,295C 775.821,321.47 822.821,358.637 861.5,406.5C 863.359,404.808 865.359,403.308 867.5,402C 868.332,401.312 868.998,401.479 869.5,402.5C 878.083,415.33 886.416,428.33 894.5,441.5C 891.707,442.879 889.374,444.712 887.5,447C 915.759,503.868 929.592,564.035 929,627.5C 927.942,644.077 925.442,660.411 921.5,676.5 Z"/></g>
<g><path style="opacity:1" fill="#fdfdfd" d="M 600.5,284.5 C 600.5,363.5 600.5,442.5 600.5,521.5C 575.825,491.343 551.492,460.843 527.5,430C 509.053,433.695 490.719,438.195 472.5,443.5C 471.833,443.167 471.167,442.833 470.5,442.5C 513.509,389.498 556.842,336.832 600.5,284.5 Z"/></g>
<g><path style="opacity:1" fill="#f1c23c" d="M 600.5,284.5 C 601.345,285.671 602.011,287.005 602.5,288.5C 601.167,365.5 601.167,442.5 602.5,519.5C 602.167,520.5 601.5,521.167 600.5,521.5C 600.5,442.5 600.5,363.5 600.5,284.5 Z"/></g>
<g><path style="opacity:1" fill="#fdc527" d="M 602.5,288.5 C 608.653,304.131 615.319,319.464 622.5,334.5C 626.762,346.363 631.595,358.03 637,369.5C 637.5,351.503 637.667,333.503 637.5,315.5C 673.636,359.144 709.636,402.977 745.5,447C 721.126,441.49 696.792,435.823 672.5,430C 649.037,459.773 625.704,489.606 602.5,519.5C 601.167,442.5 601.167,365.5 602.5,288.5 Z"/></g>
<g><path style="opacity:1" fill="#fdfcfa" d="M 637.5,315.5 C 637.667,333.503 637.5,351.503 637,369.5C 631.595,358.03 626.762,346.363 622.5,334.5C 627.27,327.946 632.27,321.613 637.5,315.5 Z"/></g>
<g><path style="opacity:1" fill="#fcc427" d="M 654.5,612.5 C 723.117,656.147 791.45,700.314 859.5,745C 870.683,748.736 882.016,751.903 893.5,754.5C 892.785,775.535 883.119,790.868 864.5,800.5C 857.619,791.908 850.619,783.408 843.5,775C 768.998,728.583 694.665,681.917 620.5,635C 619.167,634.333 619.167,633.667 620.5,633C 632.063,626.392 643.396,619.559 654.5,612.5 Z"/></g>
<g><path style="opacity:1" fill="#927c32" d="M 919.5,673.5 C 920.167,674.5 920.833,675.5 921.5,676.5C 921.539,677.756 921.039,678.756 920,679.5C 919.505,677.527 919.338,675.527 919.5,673.5 Z"/></g>
<g><path style="opacity:1" fill="#fbfbfc" d="M 590.5,698.5 C 590.5,712.167 590.5,725.833 590.5,739.5C 589.5,739.5 588.5,739.5 587.5,739.5C 569.488,736.827 553.822,729.327 540.5,717C 555.485,706.393 572.152,700.226 590.5,698.5 Z"/></g>
<g><path style="opacity:1" fill="#a3abb7" d="M 590.5,698.5 C 591.496,712.323 591.829,726.323 591.5,740.5C 589.901,740.768 588.568,740.434 587.5,739.5C 588.5,739.5 589.5,739.5 590.5,739.5C 590.5,725.833 590.5,712.167 590.5,698.5 Z"/></g>
<g><path style="opacity:1" fill="#7b8696" d="M 613.5,698.5 C 613.5,712.167 613.5,725.833 613.5,739.5C 614.833,739.5 616.167,739.5 617.5,739.5C 616.081,740.451 614.415,740.784 612.5,740.5C 612.171,726.323 612.504,712.323 613.5,698.5 Z"/></g>
<g><path style="opacity:1" fill="#fcfcfd" d="M 613.5,698.5 C 631.709,700.624 648.376,706.79 663.5,717C 650.428,729.036 635.094,736.536 617.5,739.5C 616.167,739.5 614.833,739.5 613.5,739.5C 613.5,725.833 613.5,712.167 613.5,698.5 Z"/></g>
<g><path style="opacity:1" fill="#fdfdfd" d="M 590.5,762.5 C 590.5,773.167 590.5,783.833 590.5,794.5C 558.167,794.5 525.833,794.5 493.5,794.5C 496.335,770.166 506.169,749.166 523,731.5C 542.156,748.993 564.656,759.326 590.5,762.5 Z"/></g>
<g><path style="opacity:1" fill="#fdfdfd" d="M 710.5,791.5 C 710.5,792.5 710.5,793.5 710.5,794.5C 678.167,794.5 645.833,794.5 613.5,794.5C 613.5,783.833 613.5,773.167 613.5,762.5C 639.237,759.464 661.57,749.131 680.5,731.5C 696.851,748.202 706.851,768.202 710.5,791.5 Z"/></g>
<g><path style="opacity:1" fill="#798595" d="M 590.5,762.5 C 591.495,773.321 591.828,784.321 591.5,795.5C 558.662,795.832 525.996,795.498 493.5,794.5C 525.833,794.5 558.167,794.5 590.5,794.5C 590.5,783.833 590.5,773.167 590.5,762.5 Z"/></g>
<g><path style="opacity:1" fill="#6e7b8d" d="M 710.5,791.5 C 711.434,792.568 711.768,793.901 711.5,795.5C 678.662,795.832 645.996,795.498 613.5,794.5C 645.833,794.5 678.167,794.5 710.5,794.5C 710.5,793.5 710.5,792.5 710.5,791.5 Z"/></g>
<g><path style="opacity:1" fill="#b5942e" d="M 493.5,817.5 C 525.996,816.502 558.662,816.168 591.5,816.5C 591.828,828.678 591.495,840.678 590.5,852.5C 590.5,840.833 590.5,829.167 590.5,817.5C 558.167,817.5 525.833,817.5 493.5,817.5 Z"/></g>
<g><path style="opacity:1" fill="#a28730" d="M 710.5,819.5 C 678.517,817.507 646.184,816.841 613.5,817.5C 613.5,829.167 613.5,840.833 613.5,852.5C 612.505,840.678 612.172,828.678 612.5,816.5C 645.5,816.5 678.5,816.5 711.5,816.5C 711.737,817.791 711.404,818.791 710.5,819.5 Z"/></g>
<g><path style="opacity:1" fill="#fdc527" d="M 493.5,817.5 C 525.833,817.5 558.167,817.5 590.5,817.5C 590.5,829.167 590.5,840.833 590.5,852.5C 564.724,855.557 542.39,865.89 523.5,883.5C 505.394,865.282 495.394,843.282 493.5,817.5 Z"/></g>
<g><path style="opacity:1" fill="#fdc527" d="M 710.5,819.5 C 708.355,844.643 698.355,865.976 680.5,883.5C 661.616,865.894 639.283,855.561 613.5,852.5C 613.5,840.833 613.5,829.167 613.5,817.5C 646.184,816.841 678.517,817.507 710.5,819.5 Z"/></g>
<g><path style="opacity:1" fill="#f8c228" d="M 612.5,874.5 C 631.938,876.97 648.938,884.637 663.5,897.5C 648.429,908.749 631.429,915.083 612.5,916.5C 612.5,902.5 612.5,888.5 612.5,874.5 Z"/></g>
<g><path style="opacity:1" fill="#fbc427" d="M 585.5,875.5 C 587.167,875.5 588.833,875.5 590.5,875.5C 590.5,889.167 590.5,902.833 590.5,916.5C 571.842,915.162 555.175,908.828 540.5,897.5C 553.224,885.638 568.224,878.305 585.5,875.5 Z"/></g>
<g><path style="opacity:1" fill="#a18630" d="M 585.5,875.5 C 587.265,874.539 589.265,874.205 591.5,874.5C 591.829,888.677 591.496,902.677 590.5,916.5C 590.5,902.833 590.5,889.167 590.5,875.5C 588.833,875.5 587.167,875.5 585.5,875.5 Z"/></g>
</svg>
