<?xml version="1.0" encoding="UTF-8"?>
<!DOCTYPE svg PUBLIC "-//W3C//DTD SVG 1.1//EN" "http://www.w3.org/Graphics/SVG/1.1/DTD/svg11.dtd">
<svg xmlns="http://www.w3.org/2000/svg" version="1.1" width="1100px" height="1100px" style="shape-rendering:geometricPrecision; text-rendering:geometricPrecision; image-rendering:optimizeQuality; fill-rule:evenodd; clip-rule:evenodd" xmlns:xlink="http://www.w3.org/1999/xlink">
<g><path style="opacity:0.934" fill="#1d418a" d="M 512.5,98.5 C 519.175,98.3337 525.842,98.5004 532.5,99C 541,110.167 549.5,121.333 558,132.5C 558.5,121.172 558.667,109.838 558.5,98.5C 563.5,98.5 568.5,98.5 573.5,98.5C 573.5,118.5 573.5,138.5 573.5,158.5C 568.489,158.666 563.489,158.499 558.5,158C 550,146.833 541.5,135.667 533,124.5C 532.5,135.828 532.333,147.162 532.5,158.5C 527.167,158.5 521.833,158.5 516.5,158.5C 516.175,140.923 516.508,123.423 517.5,106C 516.271,104.471 514.771,103.304 513,102.5C 512.51,101.207 512.343,99.8734 512.5,98.5 Z"/></g>
<g><path style="opacity:0.915" fill="#1d418a" d="M 487.5,100.5 C 488.833,100.5 490.167,100.5 491.5,100.5C 491.167,105.167 490.833,109.833 490.5,114.5C 482.418,115.55 474.418,117.05 466.5,119C 467.218,121.461 467.885,123.961 468.5,126.5C 474.839,126.838 481.173,126.172 487.5,124.5C 488.442,124.608 489.275,124.941 490,125.5C 491.177,129.52 491.344,133.52 490.5,137.5C 483.797,138.894 477.13,140.394 470.5,142C 471.432,145.085 472.099,148.252 472.5,151.5C 481.127,149.783 489.793,148.617 498.5,148C 499.756,152.039 500.423,156.206 500.5,160.5C 486.537,163.049 472.537,165.383 458.5,167.5C 455.863,150.148 453.03,132.814 450,115.5C 448.333,114.5 446.667,113.5 445,112.5C 444.51,111.207 444.343,109.873 444.5,108.5C 459.015,106.139 473.349,103.472 487.5,100.5 Z"/></g>
<g><path style="opacity:0.923" fill="#1d418a" d="M 652.5,111.5 C 663.285,111.088 672.285,114.754 679.5,122.5C 678.319,126.891 676.986,131.224 675.5,135.5C 671.353,131.591 666.686,128.424 661.5,126C 656.301,124.497 654.135,126.33 655,131.5C 661.792,137.286 667.459,143.952 672,151.5C 673.018,165.155 666.684,172.822 653,174.5C 643.986,173.498 635.986,170.165 629,164.5C 629.229,158.585 630.562,152.918 633,147.5C 637.097,154.541 643.097,158.875 651,160.5C 655.639,159.301 656.639,156.634 654,152.5C 648.667,148.5 644,143.833 640,138.5C 635.027,125.118 639.194,116.118 652.5,111.5 Z"/></g>
<g><path style="opacity:0.93" fill="#1d418a" d="M 399.5,122.5 C 421.865,120.865 434.198,131.199 436.5,153.5C 434.59,167.583 426.924,177.083 413.5,182C 405.964,185.012 398.297,187.512 390.5,189.5C 385.412,173.317 379.745,157.317 373.5,141.5C 372.088,140.194 370.421,139.36 368.5,139C 366.473,137.604 366.14,135.938 367.5,134C 378.314,130.232 388.981,126.398 399.5,122.5 Z M 399.5,136.5 C 412.607,135.269 419.607,141.269 420.5,154.5C 418.32,164.674 411.987,170.341 401.5,171.5C 398.133,161.091 394.466,150.758 390.5,140.5C 393.592,139.145 396.592,137.812 399.5,136.5 Z"/></g>
<g><path style="opacity:0.923" fill="#1d418a" d="M 701.5,127.5 C 718.387,134.278 734.721,142.111 750.5,151C 748.803,154.894 746.97,158.727 745,162.5C 739.667,159.833 734.333,157.167 729,154.5C 721.678,168.142 715.178,182.142 709.5,196.5C 703.844,195.173 698.511,193.007 693.5,190C 700.439,176.121 707.106,162.121 713.5,148C 707.856,145.178 702.189,142.344 696.5,139.5C 698.738,135.697 700.404,131.697 701.5,127.5 Z"/></g>
<g><path style="opacity:0.926" fill="#1d418a" d="M 319.5,159.5 C 320.675,159.281 321.675,159.614 322.5,160.5C 329.407,173.715 337.074,186.381 345.5,198.5C 354.125,193.022 363.125,188.355 372.5,184.5C 372.947,188.787 373.947,192.953 375.5,197C 363.316,204.671 350.983,212.171 338.5,219.5C 329.162,204.829 320.329,189.829 312,174.5C 309.133,173.334 306.633,171.668 304.5,169.5C 309.357,165.908 314.357,162.575 319.5,159.5 Z"/></g>
<g><path style="opacity:0.921" fill="#1d418a" d="M 772.5,164.5 C 780.107,167.975 787.107,172.475 793.5,178C 788.748,195.76 784.248,213.594 780,231.5C 778.5,233.833 777,236.167 775.5,238.5C 771.833,235.833 768.167,233.167 764.5,230.5C 766.698,226.581 768.031,222.415 768.5,218C 762.569,213.785 756.402,209.951 750,206.5C 745.798,208.044 742.131,210.377 739,213.5C 735.374,211.378 731.874,209.045 728.5,206.5C 729.93,203.567 731.93,201.067 734.5,199C 747.742,190.218 760.408,180.718 772.5,170.5C 771.377,168.518 771.377,166.518 772.5,164.5 Z M 775.5,187.5 C 774.717,193.351 773.217,199.017 771,204.5C 768.094,201.963 764.927,199.796 761.5,198C 766.018,194.248 770.684,190.748 775.5,187.5 Z"/></g>
<g><path style="opacity:0.978" fill="#1e418a" d="M 519.5,174.5 C 651.093,170.224 756.26,220.224 835,324.5C 900.672,421.54 917.339,526.54 885,639.5C 850.392,743.11 783.226,817.276 683.5,862C 575.003,905.1 469.337,899.1 366.5,844C 262.175,781.229 202.342,689.062 187,567.5C 177.97,444.451 219.137,341.951 310.5,260C 370.993,209.431 440.66,180.931 519.5,174.5 Z"/></g>
<g><path style="opacity:0.932" fill="#1d418a" d="M 271.5,194.5 C 294.191,192.675 307.191,203.009 310.5,225.5C 307.53,245.137 296.197,256.47 276.5,259.5C 257.5,257.167 246.833,246.5 244.5,227.5C 246.612,210.733 255.612,199.733 271.5,194.5 Z M 271.5,209.5 C 287.626,208.793 295.126,216.459 294,232.5C 288.638,243.431 280.472,246.265 269.5,241C 257.005,229.504 257.671,219.004 271.5,209.5 Z"/></g>
<g><path style="opacity:0.927" fill="#1d418a" d="M 818.5,196.5 C 832.42,208.082 845.753,220.416 858.5,233.5C 855.833,236.833 852.833,239.833 849.5,242.5C 845.149,238.314 840.649,234.314 836,230.5C 825.321,242.011 814.488,253.345 803.5,264.5C 799.5,261.167 795.833,257.5 792.5,253.5C 802.983,241.85 813.65,230.35 824.5,219C 819.684,215.019 815.018,210.852 810.5,206.5C 813.594,203.417 816.261,200.084 818.5,196.5 Z"/></g>
<g><path style="opacity:1" fill="#f9b828" d="M 523.5,862.5 C 520.5,862.5 517.5,862.5 514.5,862.5C 398.79,848.753 311.624,791.753 253,691.5C 207.703,603.789 200.703,513.123 232,419.5C 262.457,339.043 315.623,278.543 391.5,238C 487.556,191.475 584.556,189.475 682.5,232C 778.403,279.279 839.569,354.779 866,458.5C 888.373,571.655 861.706,671.321 786,757.5C 714.437,831.538 626.937,866.538 523.5,862.5 Z"/></g>
<g><path style="opacity:1" fill="#1d418a" d="M 596.5,554.5 C 597.738,554.19 597.738,553.69 596.5,553C 537.841,517.778 484.175,476.612 435.5,429.5C 428.533,422.364 421.7,415.03 415,407.5C 414.5,395.171 414.333,382.838 414.5,370.5C 409.879,369.285 405.213,368.285 400.5,367.5C 399.791,366.596 398.791,366.263 397.5,366.5C 397.5,373.5 397.5,380.5 397.5,387.5C 393.5,387.5 389.5,387.5 385.5,387.5C 385.5,380.167 385.5,372.833 385.5,365.5C 384.209,365.263 383.209,365.596 382.5,366.5C 378.204,367.43 373.87,368.263 369.5,369C 368.718,371.74 368.218,374.574 368,377.5C 365.75,378.708 363.583,380.041 361.5,381.5C 360.668,390.482 360.168,399.482 360,408.5C 333.238,455.914 302.572,500.581 268,542.5C 257.927,554.575 246.593,565.242 234,574.5C 221.096,454.485 261.596,356.985 355.5,282C 437.694,222.727 528.027,205.727 626.5,231C 726.501,261.335 796.335,324.835 836,421.5C 859.066,485.965 861.733,551.298 844,617.5C 840.036,632.397 834.703,646.73 828,660.5C 746.824,633.658 669.658,598.325 596.5,554.5 Z"/></g>
<g><path style="opacity:0.926" fill="#1d418a" d="M 869.5,246.5 C 880.121,258.142 890.121,270.475 899.5,283.5C 896,285.958 892.167,287.958 888,289.5C 882.768,283.38 877.768,277.047 873,270.5C 870.184,272.317 867.684,274.483 865.5,277C 869.629,282.633 873.962,288.133 878.5,293.5C 875.072,296.293 871.572,298.96 868,301.5C 863.306,296.308 858.806,290.975 854.5,285.5C 851.527,287.147 848.86,289.147 846.5,291.5C 851.833,298.5 857.167,305.5 862.5,312.5C 858.858,314.975 855.358,317.642 852,320.5C 843.167,309.5 834.333,298.5 825.5,287.5C 839.385,276.631 853.219,265.631 867,254.5C 867.117,251.496 867.951,248.829 869.5,246.5 Z"/></g>
<g><path style="opacity:0.927" fill="#1d418a" d="M 217.5,250.5 C 221.884,250.174 226.217,250.508 230.5,251.5C 226.833,256.167 223.167,260.833 219.5,265.5C 203.898,274.212 202.565,284.712 215.5,297C 229.629,302.77 238.296,298.27 241.5,283.5C 241.308,281.423 240.808,279.423 240,277.5C 237.231,281.382 234.231,285.049 231,288.5C 227.209,286.7 224.043,284.2 221.5,281C 227.819,272.678 234.152,264.344 240.5,256C 244.366,256.821 247.533,258.987 250,262.5C 260.266,279.962 257.766,295.462 242.5,309C 225.184,319.571 210.017,317.071 197,301.5C 187.134,277.886 193.968,260.886 217.5,250.5 Z"/></g>
<g><path style="opacity:1" fill="#928056" d="M 382.5,366.5 C 383.209,365.596 384.209,365.263 385.5,365.5C 385.5,372.833 385.5,380.167 385.5,387.5C 385.151,380.274 384.151,373.274 382.5,366.5 Z"/></g>
<g><path style="opacity:1" fill="#5e646d" d="M 400.5,367.5 C 398.85,373.938 397.85,380.605 397.5,387.5C 397.5,380.5 397.5,373.5 397.5,366.5C 398.791,366.263 399.791,366.596 400.5,367.5 Z"/></g>
<g><path style="opacity:1" fill="#5d5f71" d="M 385.5,425.5 C 385.5,429.167 385.5,432.833 385.5,436.5C 389.5,436.5 393.5,436.5 397.5,436.5C 397.5,432.833 397.5,429.167 397.5,425.5C 398.483,429.298 398.817,433.298 398.5,437.5C 393.833,437.5 389.167,437.5 384.5,437.5C 384.183,433.298 384.517,429.298 385.5,425.5 Z"/></g>
<g><path style="opacity:1" fill="#193e8c" d="M 385.5,425.5 C 389.5,425.5 393.5,425.5 397.5,425.5C 397.5,429.167 397.5,432.833 397.5,436.5C 393.5,436.5 389.5,436.5 385.5,436.5C 385.5,432.833 385.5,429.167 385.5,425.5 Z"/></g>
<g><path style="opacity:1" fill="#1f418a" d="M 424.5,436.5 C 438.159,450.659 451.992,464.659 466,478.5C 487.34,549.688 508.174,621.021 528.5,692.5C 517.802,692.263 507.135,692.596 496.5,693.5C 472.964,607.689 448.964,522.023 424.5,436.5 Z"/></g>
<g><path style="opacity:1" fill="#1e418a" d="M 350.5,442.5 C 327.52,528.05 303.687,613.717 279,699.5C 271.556,687.614 264.889,675.28 259,662.5C 258.799,659.485 259.132,656.485 260,653.5C 272.678,610.802 285.345,568.136 298,525.5C 317.305,499.018 334.805,471.351 350.5,442.5 Z"/></g>
<g><path style="opacity:1" fill="#67666c" d="M 385.5,455.5 C 385.5,461.5 385.5,467.5 385.5,473.5C 389.5,473.5 393.5,473.5 397.5,473.5C 397.5,467.5 397.5,461.5 397.5,455.5C 398.49,461.645 398.823,467.978 398.5,474.5C 393.833,474.5 389.167,474.5 384.5,474.5C 384.177,467.978 384.51,461.645 385.5,455.5 Z"/></g>
<g><path style="opacity:1" fill="#193e8c" d="M 385.5,455.5 C 389.5,455.5 393.5,455.5 397.5,455.5C 397.5,461.5 397.5,467.5 397.5,473.5C 393.5,473.5 389.5,473.5 385.5,473.5C 385.5,467.5 385.5,461.5 385.5,455.5 Z"/></g>
<g><path style="opacity:1" fill="#1f418a" d="M 358.5,453.5 C 358.478,482.624 358.811,511.624 359.5,540.5C 345.363,593.383 331.696,646.383 318.5,699.5C 308.812,699.38 299.146,699.713 289.5,700.5C 311.913,617.936 334.913,535.603 358.5,453.5 Z"/></g>
<g><path style="opacity:1" fill="#20418a" d="M 416.5,444.5 C 440.732,527.41 464.066,610.743 486.5,694.5C 477.167,694.5 467.833,694.5 458.5,694.5C 445.949,644.295 432.783,594.295 419,544.5C 418.233,511.163 417.4,477.829 416.5,444.5 Z"/></g>
<g><path style="opacity:1" fill="#9b8552" d="M 360.5,482.5 C 360.828,470.655 360.495,458.988 359.5,447.5C 359.461,446.244 359.961,445.244 361,444.5C 361.827,457.34 361.66,470.007 360.5,482.5 Z"/></g>
<g><path style="opacity:1" fill="#303f8b" d="M 359.5,447.5 C 360.495,458.988 360.828,470.655 360.5,482.5C 360.83,502.007 360.497,521.341 359.5,540.5C 358.811,511.624 358.478,482.624 358.5,453.5C 358.833,451.5 359.167,449.5 359.5,447.5 Z"/></g>
<g><path style="opacity:1" fill="#24418a" d="M 385.5,492.5 C 389.833,492.5 394.167,492.5 398.5,492.5C 398.5,498.833 398.5,505.167 398.5,511.5C 394.167,511.5 389.833,511.5 385.5,511.5C 385.5,505.167 385.5,498.833 385.5,492.5 Z"/></g>
<g><path style="opacity:1" fill="#20418a" d="M 478.5,490.5 C 478.897,489.475 479.563,489.308 480.5,490C 491.761,500.199 503.261,510.032 515,519.5C 532.936,576.475 550.77,633.475 568.5,690.5C 558.522,691.499 548.522,691.832 538.5,691.5C 519.276,624.172 499.276,557.172 478.5,490.5 Z"/></g>
<g><path style="opacity:1" fill="#6a686a" d="M 397.5,565.5 C 397.5,553.833 397.5,542.167 397.5,530.5C 393.5,530.5 389.5,530.5 385.5,530.5C 385.5,542.167 385.5,553.833 385.5,565.5C 384.505,553.678 384.172,541.678 384.5,529.5C 389.167,529.5 393.833,529.5 398.5,529.5C 398.828,541.678 398.495,553.678 397.5,565.5 Z"/></g>
<g><path style="opacity:1" fill="#013197" d="M 397.5,565.5 C 397.167,565.5 396.833,565.5 396.5,565.5C 396.5,554.167 396.5,542.833 396.5,531.5C 393.167,531.5 389.833,531.5 386.5,531.5C 386.5,542.833 386.5,554.167 386.5,565.5C 386.167,565.5 385.833,565.5 385.5,565.5C 385.5,553.833 385.5,542.167 385.5,530.5C 389.5,530.5 393.5,530.5 397.5,530.5C 397.5,542.167 397.5,553.833 397.5,565.5 Z"/></g>
<g><path style="opacity:1" fill="#1c418a" d="M 396.5,565.5 C 393.167,565.5 389.833,565.5 386.5,565.5C 386.5,554.167 386.5,542.833 386.5,531.5C 389.833,531.5 393.167,531.5 396.5,531.5C 396.5,542.833 396.5,554.167 396.5,565.5 Z"/></g>
<g><path style="opacity:1" fill="#1e418a" d="M 528.5,529.5 C 540.12,537.28 551.62,545.28 563,553.5C 578.478,598.768 593.645,644.102 608.5,689.5C 598.267,690.472 588.1,690.472 578,689.5C 561.191,636.24 544.691,582.907 528.5,529.5 Z"/></g>
<g><path style="opacity:1" fill="#283a8f" d="M 596.5,554.5 C 537.376,520.065 483.71,478.398 435.5,429.5C 484.175,476.612 537.841,517.778 596.5,553C 597.738,553.69 597.738,554.19 596.5,554.5 Z"/></g>
<g><path style="opacity:1" fill="#1d408b" d="M 281.5,544.5 C 272.69,578.134 262.857,611.801 252,645.5C 245.282,627.962 240.115,609.962 236.5,591.5C 252.532,576.802 267.532,561.135 281.5,544.5 Z"/></g>
<g><path style="opacity:1" fill="#20418a" d="M 576.5,562.5 C 588.302,569.804 599.968,577.304 611.5,585C 623.807,619.423 635.807,653.923 647.5,688.5C 637.852,689.245 628.185,689.578 618.5,689.5C 604.896,647.02 590.896,604.687 576.5,562.5 Z"/></g>
<g><path style="opacity:1" fill="#68676b" d="M 397.5,620.5 C 397.5,608.5 397.5,596.5 397.5,584.5C 393.5,584.5 389.5,584.5 385.5,584.5C 385.5,596.5 385.5,608.5 385.5,620.5C 384.505,608.345 384.171,596.011 384.5,583.5C 389.167,583.5 393.833,583.5 398.5,583.5C 398.829,596.011 398.495,608.345 397.5,620.5 Z"/></g>
<g><path style="opacity:1" fill="#013197" d="M 397.5,620.5 C 397.167,620.5 396.833,620.5 396.5,620.5C 396.5,608.833 396.5,597.167 396.5,585.5C 393.167,585.5 389.833,585.5 386.5,585.5C 386.5,597.167 386.5,608.833 386.5,620.5C 386.167,620.5 385.833,620.5 385.5,620.5C 385.5,608.5 385.5,596.5 385.5,584.5C 389.5,584.5 393.5,584.5 397.5,584.5C 397.5,596.5 397.5,608.5 397.5,620.5 Z"/></g>
<g><path style="opacity:1" fill="#1c418a" d="M 396.5,620.5 C 393.167,620.5 389.833,620.5 386.5,620.5C 386.5,608.833 386.5,597.167 386.5,585.5C 389.833,585.5 393.167,585.5 396.5,585.5C 396.5,597.167 396.5,608.833 396.5,620.5 Z"/></g>
<g><path style="opacity:1" fill="#1f418a" d="M 623.5,592.5 C 623.897,591.475 624.563,591.308 625.5,592C 637.424,599.213 649.591,606.047 662,612.5C 671.598,637.127 681.098,661.794 690.5,686.5C 679.52,687.499 668.52,687.832 657.5,687.5C 646.932,655.455 635.598,623.789 623.5,592.5 Z"/></g>
<g><path style="opacity:1" fill="#21418a" d="M 349.5,698.5 C 342.313,698.825 335.313,698.491 328.5,697.5C 337.873,659.672 347.707,622.005 358,584.5C 357.692,622.521 356.525,660.521 354.5,698.5C 352.833,698.5 351.167,698.5 349.5,698.5 Z"/></g>
<g><path style="opacity:1" fill="#21408a" d="M 420.5,588.5 C 430.327,623.94 439.66,659.606 448.5,695.5C 440.5,695.5 432.5,695.5 424.5,695.5C 423.368,659.82 422.035,624.154 420.5,588.5 Z"/></g>
<g><path style="opacity:1" fill="#1f418a" d="M 674.5,620.5 C 674.56,619.957 674.893,619.624 675.5,619.5C 688.109,625.721 700.609,632.054 713,638.5C 719.224,653.949 725.724,669.282 732.5,684.5C 721.875,686.431 711.209,686.765 700.5,685.5C 692.189,663.54 683.522,641.874 674.5,620.5 Z"/></g>
<g><path style="opacity:1" fill="#7d755f" d="M 385.5,638.5 C 385.5,657.833 385.5,677.167 385.5,696.5C 389.5,696.5 393.5,696.5 397.5,696.5C 397.833,696.5 398.167,696.5 398.5,696.5C 394.03,697.486 389.363,697.819 384.5,697.5C 384.17,677.66 384.503,657.993 385.5,638.5 Z"/></g>
<g><path style="opacity:1" fill="#234388" d="M 386.5,638.5 C 390.5,638.5 394.5,638.5 398.5,638.5C 398.5,657.833 398.5,677.167 398.5,696.5C 398.167,696.5 397.833,696.5 397.5,696.5C 397.667,677.497 397.5,658.497 397,639.5C 396.5,658.164 396.333,676.83 396.5,695.5C 393.167,695.5 389.833,695.5 386.5,695.5C 386.5,676.5 386.5,657.5 386.5,638.5 Z"/></g>
<g><path style="opacity:1" fill="#033197" d="M 385.5,638.5 C 385.833,638.5 386.167,638.5 386.5,638.5C 386.5,657.5 386.5,676.5 386.5,695.5C 389.833,695.5 393.167,695.5 396.5,695.5C 396.333,676.83 396.5,658.164 397,639.5C 397.5,658.497 397.667,677.497 397.5,696.5C 393.5,696.5 389.5,696.5 385.5,696.5C 385.5,677.167 385.5,657.833 385.5,638.5 Z"/></g>
<g><path style="opacity:1" fill="#1e408b" d="M 725.5,643.5 C 737.998,649.246 750.665,654.746 763.5,660C 767.646,667.603 771.313,675.436 774.5,683.5C 763.849,684.666 753.182,684.832 742.5,684C 736.929,670.452 731.262,656.952 725.5,643.5 Z"/></g>
<g><path style="opacity:1" fill="#1f3f8c" d="M 777.5,665.5 C 790.779,671.036 804.113,676.369 817.5,681.5C 806.507,682.991 795.507,683.325 784.5,682.5C 781.965,676.89 779.632,671.223 777.5,665.5 Z"/></g>
<g><path style="opacity:1" fill="#b3904b" d="M 328.5,697.5 C 335.313,698.491 342.313,698.825 349.5,698.5C 342.323,699.819 334.99,699.819 327.5,698.5C 327.624,697.893 327.957,697.56 328.5,697.5 Z"/></g>
<g><path style="opacity:1" fill="#61656b" d="M 743.5,716.5 C 760.846,716.167 778.179,716.5 795.5,717.5C 795.376,718.107 795.043,718.44 794.5,718.5C 777.5,717.833 760.5,717.167 743.5,716.5 Z"/></g>
<g><path style="opacity:1" fill="#233f8b" d="M 743.5,716.5 C 760.5,717.167 777.5,717.833 794.5,718.5C 792.732,720.508 791.066,722.674 789.5,725C 668.174,722.753 546.841,720.586 425.5,718.5C 425.5,717.5 425.5,716.5 425.5,715.5C 531.499,716.014 637.499,716.348 743.5,716.5 Z"/></g>
<g><path style="opacity:0.955" fill="#1d418a" d="M 217.5,731.5 C 225.131,738.133 232.131,745.467 238.5,753.5C 228.706,770.92 219.04,788.42 209.5,806C 227.508,797.833 245.508,789.333 263.5,780.5C 267.033,784.197 270.366,788.03 273.5,792C 263.507,808.984 253.507,825.984 243.5,843C 258.705,836.759 274.038,830.592 289.5,824.5C 289.336,821.813 289.503,819.146 290,816.5C 291.113,814.671 292.613,813.837 294.5,814C 301.667,821.833 308.833,829.667 316,837.5C 316.688,838.332 316.521,838.998 315.5,839.5C 285.833,851.5 256.167,863.5 226.5,875.5C 220.795,869.797 215.462,863.797 210.5,857.5C 216.373,846.254 222.373,835.087 228.5,824C 216.834,828.172 205.167,832.672 193.5,837.5C 187.215,833.049 181.715,827.716 177,821.5C 188.715,796.066 201.048,770.733 214,745.5C 214.703,742.287 214.536,739.121 213.5,736C 215.018,734.649 216.351,733.149 217.5,731.5 Z"/></g>
<g><path style="opacity:1" fill="#20418a" d="M 304.5,734.5 C 320.33,733.819 336.33,733.819 352.5,734.5C 351.466,748.839 350.3,763.172 349,777.5C 332.672,764.672 317.839,750.338 304.5,734.5 Z"/></g>
<g><path style="opacity:1" fill="#002b9c" d="M 391.5,736.5 C 390.081,737.451 388.415,737.784 386.5,737.5C 386.52,759.473 386.52,781.139 386.5,802.5C 385.503,780.673 385.169,758.673 385.5,736.5C 387.5,736.5 389.5,736.5 391.5,736.5 Z"/></g>
<g><path style="opacity:1" fill="#1d418a" d="M 391.5,736.5 C 516.83,740.923 642.163,745.423 767.5,750C 698.31,818.965 614.643,850.298 516.5,844C 487.626,841.521 459.626,835.188 432.5,825C 430.982,819.312 430.148,813.478 430,807.5C 428.966,788.157 427.8,768.823 426.5,749.5C 417.805,746.491 409.138,743.491 400.5,740.5C 399.791,739.596 398.791,739.263 397.5,739.5C 397.831,762.673 397.498,785.673 396.5,808.5C 392.882,806.863 389.549,804.863 386.5,802.5C 386.52,781.139 386.52,759.473 386.5,737.5C 388.415,737.784 390.081,737.451 391.5,736.5 Z"/></g>
<g><path style="opacity:0.948" fill="#1d418a" d="M 858.5,738.5 C 859.873,738.343 861.207,738.51 862.5,739C 868.001,743.007 873.334,747.173 878.5,751.5C 869.719,754.636 862.219,759.636 856,766.5C 851.634,774.281 853.801,778.114 862.5,778C 871.601,773.449 880.935,769.449 890.5,766C 904.869,763.698 915.036,769.198 921,782.5C 923.56,791.887 922.56,800.887 918,809.5C 911.24,819.595 902.573,827.595 892,833.5C 885.59,828.379 879.09,823.379 872.5,818.5C 882.626,816.19 891.126,811.19 898,803.5C 903.18,794.336 900.68,790.17 890.5,791C 880.223,796.726 869.39,800.893 858,803.5C 838.952,800.077 830.618,788.743 833,769.5C 837.683,755.988 846.183,745.655 858.5,738.5 Z"/></g>
<g><path style="opacity:1" fill="#4c5a75" d="M 400.5,740.5 C 398.839,763.152 397.839,786.152 397.5,809.5C 396.893,809.376 396.56,809.043 396.5,808.5C 397.498,785.673 397.831,762.673 397.5,739.5C 398.791,739.263 399.791,739.596 400.5,740.5 Z"/></g>
<g><path style="opacity:0.953" fill="#1d418a" d="M 807.5,806.5 C 828.572,808.739 838.072,820.406 836,841.5C 835.55,843.519 834.717,845.352 833.5,847C 848.695,850.382 863.695,854.215 878.5,858.5C 871.073,864.625 863.573,870.625 856,876.5C 843.299,872.482 830.466,869.315 817.5,867C 815.671,868.113 814.837,869.613 815,871.5C 821.843,879.208 828.676,886.874 835.5,894.5C 829.801,900.365 823.635,905.698 817,910.5C 800.208,890.039 783.042,869.873 765.5,850C 762.5,849.667 759.5,849.333 756.5,849C 755.101,847.938 754.101,846.605 753.5,845C 765.614,834.105 777.947,823.438 790.5,813C 795.882,809.712 801.549,807.545 807.5,806.5 Z M 801.5,830.5 C 811.87,830.702 815.37,835.702 812,845.5C 808.942,849.062 805.442,852.062 801.5,854.5C 797.155,850.153 793.155,845.486 789.5,840.5C 793.227,836.767 797.227,833.434 801.5,830.5 Z"/></g>
<g><path style="opacity:0.95" fill="#1d418a" d="M 334.5,844.5 C 344.23,849.536 353.897,854.869 363.5,860.5C 363.833,861.5 364.167,862.5 364.5,863.5C 359.731,889.845 354.898,916.178 350,942.5C 349.174,947.499 346.841,951.499 343,954.5C 337.685,952.01 332.685,949.01 328,945.5C 329.703,939.156 330.87,932.656 331.5,926C 322.165,919.664 312.499,913.831 302.5,908.5C 299.995,910.253 297.329,911.753 294.5,913C 291.94,915.971 289.273,918.804 286.5,921.5C 280.901,918.562 275.567,915.229 270.5,911.5C 272.642,906.715 275.642,902.549 279.5,899C 297.833,884 316.167,869 334.5,854C 331.929,850.806 331.929,847.639 334.5,844.5 Z M 339.5,876.5 C 340.097,876.735 340.43,877.235 340.5,878C 338.411,887.112 336.578,896.279 335,905.5C 329.246,902.375 323.746,898.875 318.5,895C 325.99,889.34 332.99,883.173 339.5,876.5 Z"/></g>
<g><path style="opacity:1" fill="#053296" d="M 514.5,862.5 C 517.5,862.5 520.5,862.5 523.5,862.5C 535.66,863.331 547.993,863.831 560.5,864C 543.801,864.872 527.135,864.539 510.5,863C 511.793,862.51 513.127,862.343 514.5,862.5 Z"/></g>
<g><path style="opacity:0.953" fill="#1d418a" d="M 716.5,863.5 C 748.972,863.472 766.639,879.639 769.5,912C 768.148,933.015 757.815,947.682 738.5,956C 709.132,966.06 687.632,957.227 674,929.5C 666.385,903.563 674.219,883.73 697.5,870C 703.708,867.098 710.041,864.932 716.5,863.5 Z M 713.5,885.5 C 736.699,885.539 747.199,897.206 745,920.5C 742.408,930.056 736.241,935.89 726.5,938C 709.26,939.448 698.76,931.615 695,914.5C 693.266,899.744 699.432,890.077 713.5,885.5 Z"/></g>
<g><path style="opacity:0.952" fill="#1d418a" d="M 395.5,878.5 C 412.235,883.356 428.902,888.522 445.5,894C 461.372,903.283 465.872,916.45 459,933.5C 453.782,941.195 446.615,946.028 437.5,948C 443.147,962.433 448.313,976.933 453,991.5C 443.763,988.732 434.597,985.732 425.5,982.5C 421.658,969.807 417.325,957.307 412.5,945C 411.128,944.598 409.795,944.098 408.5,943.5C 404.864,953.575 401.531,963.741 398.5,974C 390.586,972.936 382.919,970.77 375.5,967.5C 383.322,941.879 390.989,916.212 398.5,890.5C 396.833,888.5 395.167,886.5 393.5,884.5C 394.372,882.55 395.039,880.55 395.5,878.5 Z M 418.5,906.5 C 424.326,907.609 429.826,909.609 435,912.5C 438.235,917.087 438.068,921.587 434.5,926C 427.516,929.063 420.682,928.563 414,924.5C 415.167,918.499 416.667,912.499 418.5,906.5 Z"/></g>
<g><path style="opacity:0.943" fill="#1d418a" d="M 641.5,894.5 C 643.288,894.215 644.955,894.548 646.5,895.5C 647.726,901.192 649.06,906.858 650.5,912.5C 643.908,914.622 637.241,916.622 630.5,918.5C 633.81,935.219 637.31,951.886 641,968.5C 647.419,966.901 653.919,965.568 660.5,964.5C 661.759,971.128 662.759,977.794 663.5,984.5C 642.76,988.115 622.093,992.115 601.5,996.5C 599.514,990.254 597.848,983.921 596.5,977.5C 602.709,975.558 609.042,974.058 615.5,973C 616.022,972.439 616.355,971.772 616.5,971C 613.078,955.221 609.911,939.388 607,923.5C 606.275,922.941 605.442,922.608 604.5,922.5C 598.576,924.019 592.576,925.019 586.5,925.5C 585.889,919.776 584.889,914.109 583.5,908.5C 583.833,907.833 584.167,907.167 584.5,906.5C 603.642,902.593 622.642,898.593 641.5,894.5 Z"/></g>
<g><path style="opacity:0.952" fill="#1d418a" d="M 486.5,904.5 C 500.496,905.034 514.496,905.534 528.5,906C 553.979,906.793 564.812,919.627 561,944.5C 557.5,952 552,957.5 544.5,961C 553.167,973.333 561.833,985.667 570.5,998C 561.167,998.667 551.833,998.667 542.5,998C 535.126,987.422 528.126,976.589 521.5,965.5C 519.257,964.526 516.924,964.192 514.5,964.5C 514.653,975.521 514.32,986.521 513.5,997.5C 505.529,996.677 497.529,996.344 489.5,996.5C 490.982,969.163 491.649,941.83 491.5,914.5C 487.427,912.451 485.761,909.118 486.5,904.5 Z M 516.5,925.5 C 521.913,925.229 527.246,925.729 532.5,927C 539.167,932.667 539.167,938.333 532.5,944C 530.5,944.5 528.5,945 526.5,945.5C 522.882,944.654 519.215,944.32 515.5,944.5C 515.653,938.155 515.986,931.822 516.5,925.5 Z"/></g>
</svg>
