<?xml version="1.0" encoding="UTF-8"?>
<!DOCTYPE svg PUBLIC "-//W3C//DTD SVG 1.1//EN" "http://www.w3.org/Graphics/SVG/1.1/DTD/svg11.dtd">
<svg xmlns="http://www.w3.org/2000/svg" version="1.1" width="800px" height="800px" style="shape-rendering:geometricPrecision; text-rendering:geometricPrecision; image-rendering:optimizeQuality; fill-rule:evenodd; clip-rule:evenodd" xmlns:xlink="http://www.w3.org/1999/xlink">
<g><path style="opacity:0.029" fill="#6e7073" d="M 378.5,108.5 C 377.448,110.256 375.781,110.923 373.5,110.5C 374.78,109.069 376.447,108.402 378.5,108.5 Z"/></g>
<g><path style="opacity:0.035" fill="#696d70" d="M 417.5,108.5 C 419.898,108.259 421.898,108.926 423.5,110.5C 421.102,110.741 419.102,110.074 417.5,108.5 Z"/></g>
<g><path style="opacity:0.998" fill="#202020" d="M 378.5,108.5 C 380.5,108.5 382.5,108.5 384.5,108.5C 388.783,109.827 393.449,110.493 398.5,110.5C 403.551,110.493 408.217,109.827 412.5,108.5C 414.167,108.5 415.833,108.5 417.5,108.5C 419.102,110.074 421.102,110.741 423.5,110.5C 463.317,113.443 500.65,124.443 535.5,143.5C 535.973,144.906 536.973,145.573 538.5,145.5C 585.016,171.016 621.683,206.683 648.5,252.5C 648.427,254.027 649.094,255.027 650.5,255.5C 652.008,257.181 653.008,259.181 653.5,261.5C 653.427,263.027 654.094,264.027 655.5,264.5C 659.284,270.404 662.284,276.737 664.5,283.5C 664.229,285.38 664.896,286.713 666.5,287.5C 667.73,289.297 668.396,291.297 668.5,293.5C 668.415,296.649 669.415,299.316 671.5,301.5C 671.415,304.649 672.415,307.316 674.5,309.5C 675.566,311.701 676.233,314.035 676.5,316.5C 676.517,320.534 677.517,324.201 679.5,327.5C 679.5,327.833 679.5,328.167 679.5,328.5C 679.023,331.917 680.023,334.584 682.5,336.5C 682.848,340.557 683.514,344.557 684.5,348.5C 683.903,348.735 683.57,349.235 683.5,350C 683.954,352.03 684.62,353.863 685.5,355.5C 689.487,384.501 689.487,413.501 685.5,442.5C 683.036,448.82 681.703,455.486 681.5,462.5C 679.976,471.403 677.642,480.07 674.5,488.5C 672.733,490.792 671.733,493.458 671.5,496.5C 671.606,499.079 670.939,501.412 669.5,503.5C 667.461,504.911 666.461,506.911 666.5,509.5C 666.06,512.38 665.06,515.046 663.5,517.5C 661.896,518.287 661.229,519.62 661.5,521.5C 650.736,545.387 636.736,567.054 619.5,586.5C 617.413,587.585 616.08,589.251 615.5,591.5C 588.182,622.824 555.515,646.824 517.5,663.5C 514.687,663.025 512.687,664.025 511.5,666.5C 485.029,678.035 457.363,685.035 428.5,687.5C 413.106,687.74 397.773,688.407 382.5,689.5C 381.5,689.5 380.5,689.5 379.5,689.5C 373.741,687.714 367.741,686.381 361.5,685.5C 360.584,685.543 359.917,685.876 359.5,686.5C 268.863,672.315 199.03,626.649 150,549.5C 144.592,540.017 139.758,530.35 135.5,520.5C 135.539,517.911 134.539,515.911 132.5,514.5C 127.837,504.51 124.17,494.177 121.5,483.5C 121.405,481.214 120.738,479.214 119.5,477.5C 116.402,468.771 114.402,459.771 113.5,450.5C 113.662,448.473 113.495,446.473 113,444.5C 112.617,443.944 112.117,443.611 111.5,443.5C 111.5,443.167 111.5,442.833 111.5,442.5C 112.147,441.726 112.48,440.726 112.5,439.5C 112.353,434.711 111.353,430.378 109.5,426.5C 108.167,408.167 108.167,389.833 109.5,371.5C 110.222,371.082 110.722,370.416 111,369.5C 111.498,366.183 111.665,362.85 111.5,359.5C 112.989,355.764 113.656,351.764 113.5,347.5C 113.205,345.265 113.539,343.265 114.5,341.5C 116.04,339.162 116.706,336.495 116.5,333.5C 116.5,332.833 116.5,332.167 116.5,331.5C 118.41,328.548 119.41,325.214 119.5,321.5C 119.56,318.659 120.226,315.993 121.5,313.5C 123.267,311.208 124.267,308.542 124.5,305.5C 124.5,305.167 124.5,304.833 124.5,304.5C 125.931,303.22 126.598,301.553 126.5,299.5C 126.557,298.391 126.89,297.391 127.5,296.5C 130.01,292.89 131.677,288.89 132.5,284.5C 135.379,276.41 139.046,268.743 143.5,261.5C 144.906,261.027 145.573,260.027 145.5,258.5C 145.992,256.181 146.992,254.181 148.5,252.5C 149.906,252.027 150.573,251.027 150.5,249.5C 152.446,245.561 154.779,241.894 157.5,238.5C 158.906,238.027 159.573,237.027 159.5,235.5C 169.355,220.642 180.688,206.975 193.5,194.5C 198.105,191.564 202.105,187.898 205.5,183.5C 252.899,140.226 308.899,115.892 373.5,110.5C 375.781,110.923 377.448,110.256 378.5,108.5 Z M 411.5,210.5 C 412.498,186.006 412.831,161.339 412.5,136.5C 413.5,136.5 414.5,136.5 415.5,136.5C 423.485,137.331 431.485,137.998 439.5,138.5C 443.046,139.615 446.712,140.615 450.5,141.5C 495.777,150.346 535.777,169.679 570.5,199.5C 571.585,201.587 573.251,202.92 575.5,203.5C 580.145,208.48 584.812,213.48 589.5,218.5C 582.735,227.041 576.735,236.041 571.5,245.5C 570.094,245.973 569.427,246.973 569.5,248.5C 565.006,254.674 561.339,261.341 558.5,268.5C 557.094,268.973 556.427,269.973 556.5,271.5C 549.126,286.287 543.126,301.62 538.5,317.5C 537.766,318.708 537.433,320.041 537.5,321.5C 537.5,321.833 537.5,322.167 537.5,322.5C 536.655,323.671 535.989,325.005 535.5,326.5C 535.5,326.833 535.5,327.167 535.5,327.5C 534.341,332.468 533.341,337.468 532.5,342.5C 530.365,351.709 529.032,361.042 528.5,370.5C 527.529,386.786 527.196,403.119 527.5,419.5C 528.334,436.171 531.001,452.504 535.5,468.5C 535.41,471.152 536.076,473.485 537.5,475.5C 537.894,479.347 538.894,483.014 540.5,486.5C 540.733,489.542 541.733,492.208 543.5,494.5C 544.76,499.948 546.427,505.282 548.5,510.5C 548.932,511.71 549.599,512.71 550.5,513.5C 560.413,537.326 573.413,559.326 589.5,579.5C 584.201,585.135 578.867,590.801 573.5,596.5C 570.911,597.419 568.911,599.086 567.5,601.5C 537.705,625.9 504.038,643.234 466.5,653.5C 462.802,654.373 459.135,655.373 455.5,656.5C 440.924,659.589 426.257,661.423 411.5,662C 412.495,636.908 412.828,611.741 412.5,586.5C 403.5,586.5 394.5,586.5 385.5,586.5C 385.833,611.842 385.5,637.175 384.5,662.5C 356.007,660.222 328.34,654.222 301.5,644.5C 299.819,642.992 297.819,641.992 295.5,641.5C 261.635,627.237 232.302,606.57 207.5,579.5C 229.241,552.691 245.241,522.691 255.5,489.5C 257.02,487.11 258.02,484.443 258.5,481.5C 260.118,477.311 261.118,472.978 261.5,468.5C 262.924,466.485 263.59,464.152 263.5,461.5C 263.5,461.167 263.5,460.833 263.5,460.5C 264.407,458.343 265.073,456.01 265.5,453.5C 271.665,419.882 271.998,386.215 266.5,352.5C 266.102,347.588 265.102,342.921 263.5,338.5C 263.784,336.585 263.451,334.919 262.5,333.5C 262.435,330.572 261.768,327.905 260.5,325.5C 260.59,322.848 259.924,320.515 258.5,318.5C 257.276,311.833 255.276,305.499 252.5,299.5C 252.598,297.447 251.931,295.78 250.5,294.5C 242.948,272.724 232.282,252.724 218.5,234.5C 218.573,232.973 217.906,231.973 216.5,231.5C 213.922,227.354 211.089,223.354 208,219.5C 207.333,218.833 207.333,218.167 208,217.5C 256.535,167.656 315.701,140.656 385.5,136.5C 385.5,161.167 385.5,185.833 385.5,210.5C 394.167,210.5 402.833,210.5 411.5,210.5 Z M 220.5,290.5 C 220.707,293.241 221.707,295.574 223.5,297.5C 223.604,299.703 224.27,301.703 225.5,303.5C 226.264,306.018 227.264,308.351 228.5,310.5C 228.733,313.542 229.733,316.208 231.5,318.5C 231.926,322.427 232.926,326.093 234.5,329.5C 234.41,332.152 235.076,334.485 236.5,336.5C 236.575,339.206 236.908,341.873 237.5,344.5C 238.836,350.591 240.17,356.591 241.5,362.5C 241.647,370.095 242.313,377.595 243.5,385C 207.502,385.5 171.502,385.667 135.5,385.5C 136.552,375.37 137.552,365.037 138.5,354.5C 139.913,351.781 140.58,348.781 140.5,345.5C 142.102,341.079 143.102,336.412 143.5,331.5C 145.072,328.785 146.072,325.785 146.5,322.5C 148.571,317.286 150.238,311.953 151.5,306.5C 153.293,304.574 154.293,302.241 154.5,299.5C 155.931,298.22 156.598,296.553 156.5,294.5C 165.414,275.074 176.247,256.741 189,239.5C 201.557,255.29 212.057,272.29 220.5,290.5 Z M 632.5,278.5 C 632.932,279.71 633.599,280.71 634.5,281.5C 640.091,293.609 645.091,305.942 649.5,318.5C 649.928,321.785 650.928,324.785 652.5,327.5C 652.232,329.099 652.566,330.432 653.5,331.5C 653.41,334.152 654.076,336.485 655.5,338.5C 655.575,341.206 655.908,343.873 656.5,346.5C 656.963,349.33 657.629,351.997 658.5,354.5C 658.198,357.059 658.532,359.393 659.5,361.5C 659.704,364.518 660.037,367.518 660.5,370.5C 660.505,374.534 660.838,378.534 661.5,382.5C 661.5,383.5 661.5,384.5 661.5,385.5C 625.833,385.5 590.167,385.5 554.5,385.5C 554.5,381.167 554.5,376.833 554.5,372.5C 555.801,368.057 556.468,363.391 556.5,358.5C 557.468,356.393 557.802,354.059 557.5,351.5C 558.768,349.095 559.435,346.428 559.5,343.5C 563.936,325.755 569.602,308.422 576.5,291.5C 577.674,290.486 578.34,289.153 578.5,287.5C 586.553,270.39 596.387,254.39 608,239.5C 617.178,251.854 625.345,264.854 632.5,278.5 Z M 413.5,312.5 C 418.5,312.5 423.5,312.5 428.5,312.5C 428.5,335.167 428.5,357.833 428.5,380.5C 423.5,380.5 418.5,380.5 413.5,380.5C 413.5,357.833 413.5,335.167 413.5,312.5 Z M 236.5,461.5 C 235.13,464.619 234.13,467.952 233.5,471.5C 233.5,471.833 233.5,472.167 233.5,472.5C 232.076,474.515 231.41,476.848 231.5,479.5C 225.276,496.619 217.943,513.285 209.5,529.5C 208.094,529.973 207.427,530.973 207.5,532.5C 203.18,539.13 198.847,545.797 194.5,552.5C 192.457,553.579 191.124,555.246 190.5,557.5C 189.883,557.611 189.383,557.944 189,558.5C 187.303,555.98 185.47,553.647 183.5,551.5C 183.573,549.973 182.906,548.973 181.5,548.5C 180.525,546.205 179.192,544.205 177.5,542.5C 177.573,540.973 176.906,539.973 175.5,539.5C 175.573,537.973 174.906,536.973 173.5,536.5C 173.672,535.508 173.338,534.842 172.5,534.5C 172.573,532.973 171.906,531.973 170.5,531.5C 170.672,530.508 170.338,529.842 169.5,529.5C 169.573,527.973 168.906,526.973 167.5,526.5C 159.522,509.898 152.522,492.898 146.5,475.5C 146.405,473.214 145.738,471.214 144.5,469.5C 144.567,468.041 144.234,466.708 143.5,465.5C 143.59,462.848 142.924,460.515 141.5,458.5C 141.5,457.833 141.5,457.167 141.5,456.5C 140.943,451.948 139.943,447.615 138.5,443.5C 137.387,432.976 136.387,422.643 135.5,412.5C 171.502,412.333 207.502,412.5 243.5,413C 242.017,429.257 239.684,445.423 236.5,461.5 Z M 661.5,413.5 C 660.94,422.887 659.94,432.22 658.5,441.5C 657.85,443.435 657.517,445.435 657.5,447.5C 657.5,448.5 657.5,449.5 657.5,450.5C 656.232,452.905 655.565,455.572 655.5,458.5C 654.699,460.042 654.366,461.708 654.5,463.5C 653.076,465.515 652.41,467.848 652.5,470.5C 649.633,478.433 646.967,486.433 644.5,494.5C 643.069,495.78 642.402,497.447 642.5,499.5C 639.94,503.821 637.94,508.488 636.5,513.5C 635.094,513.973 634.427,514.973 634.5,516.5C 633.89,517.391 633.557,518.391 633.5,519.5C 632.094,519.973 631.427,520.973 631.5,522.5C 627.981,527.537 624.981,532.87 622.5,538.5C 621.094,538.973 620.427,539.973 620.5,541.5C 616.583,547.265 612.416,552.932 608,558.5C 604.146,553.431 600.313,548.431 596.5,543.5C 596.573,541.973 595.906,540.973 594.5,540.5C 593,536.827 591,533.494 588.5,530.5C 588.573,528.973 587.906,527.973 586.5,527.5C 580.874,515.918 575.54,504.251 570.5,492.5C 570.598,490.447 569.931,488.78 568.5,487.5C 567.899,484.032 566.899,480.699 565.5,477.5C 564.5,473.5 563.5,469.5 562.5,465.5C 562.5,464.833 562.167,464.5 561.5,464.5C 561.435,461.572 560.768,458.905 559.5,456.5C 559.5,456.167 559.5,455.833 559.5,455.5C 559.212,452.061 558.546,448.728 557.5,445.5C 557.5,445.167 557.5,444.833 557.5,444.5C 557.283,440.295 556.617,436.295 555.5,432.5C 554.81,426.19 554.476,419.857 554.5,413.5C 590.167,412.167 625.833,412.167 661.5,413.5 Z"/></g>
<g><path style="opacity:0.518" fill="#545657" d="M 384.5,108.5 C 393.833,108.5 403.167,108.5 412.5,108.5C 408.217,109.827 403.551,110.493 398.5,110.5C 393.449,110.493 388.783,109.827 384.5,108.5 Z"/></g>
<g><path style="opacity:0.039" fill="#a9abac" d="M 415.5,136.5 C 414.5,136.5 413.5,136.5 412.5,136.5C 412.831,161.339 412.498,186.006 411.5,210.5C 411.5,185.5 411.5,160.5 411.5,135.5C 413.099,135.232 414.432,135.566 415.5,136.5 Z"/></g>
<g><path style="opacity:0.475" fill="#494b4c" d="M 439.5,138.5 C 442.551,138.364 445.551,138.698 448.5,139.5C 449.713,139.747 450.38,140.414 450.5,141.5C 446.712,140.615 443.046,139.615 439.5,138.5 Z"/></g>
<g><path style="opacity:0.204" fill="#7f8182" d="M 535.5,143.5 C 537.027,143.427 538.027,144.094 538.5,145.5C 536.973,145.573 535.973,144.906 535.5,143.5 Z"/></g>
<g><path style="opacity:0.78" fill="#525454" d="M 205.5,183.5 C 202.105,187.898 198.105,191.564 193.5,194.5C 196.895,190.102 200.895,186.436 205.5,183.5 Z"/></g>
<g><path style="opacity:0.467" fill="#707273" d="M 570.5,199.5 C 572.749,200.08 574.415,201.413 575.5,203.5C 573.251,202.92 571.585,201.587 570.5,199.5 Z"/></g>
<g><path style="opacity:0.631" fill="#7c7e7f" d="M 216.5,231.5 C 217.906,231.973 218.573,232.973 218.5,234.5C 217.094,234.027 216.427,233.027 216.5,231.5 Z"/></g>
<g><path style="opacity:0.592" fill="#7c7f80" d="M 159.5,235.5 C 159.573,237.027 158.906,238.027 157.5,238.5C 157.427,236.973 158.094,235.973 159.5,235.5 Z"/></g>
<g><path style="opacity:0.348" fill="#1e5cb5" d="M 496.5,239.5 C 431.173,238.178 365.839,238.178 300.5,239.5C 301.609,238.71 302.942,238.21 304.5,238C 367.167,237.333 429.833,237.333 492.5,238C 494.058,238.21 495.391,238.71 496.5,239.5 Z"/></g>
<g><path style="opacity:0.992" fill="#0246ae" d="M 496.5,239.5 C 502.521,241.163 506.021,245.163 507,251.5C 507.5,287.498 507.667,323.498 507.5,359.5C 495.5,359.5 483.5,359.5 471.5,359.5C 471.5,329.833 471.5,300.167 471.5,270.5C 472.043,270.44 472.376,270.107 472.5,269.5C 423.002,268.169 373.668,268.169 324.5,269.5C 324.5,356.167 324.5,442.833 324.5,529.5C 374.239,529.833 423.239,529.5 471.5,528.5C 471.5,498.5 471.5,468.5 471.5,438.5C 483.5,438.5 495.5,438.5 507.5,438.5C 507.667,474.502 507.5,510.502 507,546.5C 505.993,553.843 501.826,558.343 494.5,560C 430.5,560.667 366.5,560.667 302.5,560C 299.826,559.33 297.493,558.163 295.5,556.5C 295.152,553.142 293.486,550.808 290.5,549.5C 290.5,549.167 290.5,548.833 290.5,548.5C 290.762,545.748 290.762,542.748 290.5,539.5C 290.333,444.833 290.5,350.166 291,255.5C 291.363,252.456 291.863,249.456 292.5,246.5C 293.938,242.726 296.605,240.393 300.5,239.5C 365.839,238.178 431.173,238.178 496.5,239.5 Z"/></g>
<g><path style="opacity:0.631" fill="#7a7c7d" d="M 571.5,245.5 C 571.573,247.027 570.906,248.027 569.5,248.5C 569.427,246.973 570.094,245.973 571.5,245.5 Z"/></g>
<g><path style="opacity:0.235" fill="#8e9091" d="M 150.5,249.5 C 150.573,251.027 149.906,252.027 148.5,252.5C 148.427,250.973 149.094,249.973 150.5,249.5 Z"/></g>
<g><path style="opacity:0.176" fill="#9b9d9f" d="M 648.5,252.5 C 649.906,252.973 650.573,253.973 650.5,255.5C 649.094,255.027 648.427,254.027 648.5,252.5 Z"/></g>
<g><path style="opacity:0.529" fill="#4279c3" d="M 292.5,246.5 C 291.863,249.456 291.363,252.456 291,255.5C 290.5,350.166 290.333,444.833 290.5,539.5C 290.167,539.5 289.833,539.5 289.5,539.5C 289.333,443.499 289.5,347.499 290,251.5C 290.099,249.347 290.933,247.681 292.5,246.5 Z"/></g>
<g><path style="opacity:0.263" fill="#959193" d="M 145.5,258.5 C 145.573,260.027 144.906,261.027 143.5,261.5C 143.427,259.973 144.094,258.973 145.5,258.5 Z"/></g>
<g><path style="opacity:0.204" fill="#7c7e7f" d="M 653.5,261.5 C 654.906,261.973 655.573,262.973 655.5,264.5C 654.094,264.027 653.427,263.027 653.5,261.5 Z"/></g>
<g><path style="opacity:0.529" fill="#4079c3" d="M 324.5,269.5 C 373.668,268.169 423.002,268.169 472.5,269.5C 472.376,270.107 472.043,270.44 471.5,270.5C 423.003,269.501 374.336,269.168 325.5,269.5C 325.167,269.5 324.833,269.5 324.5,269.5 Z"/></g>
<g><path style="opacity:0.118" fill="#9fa1a2" d="M 558.5,268.5 C 558.573,270.027 557.906,271.027 556.5,271.5C 556.427,269.973 557.094,268.973 558.5,268.5 Z"/></g>
<g><path style="opacity:0.647" fill="#e65b7c" d="M 463.5,277.5 C 463.5,278.167 463.167,278.5 462.5,278.5C 434.833,278.5 407.167,278.5 379.5,278.5C 379.5,308.833 379.5,339.167 379.5,369.5C 379.167,369.5 378.833,369.5 378.5,369.5C 378.5,338.833 378.5,308.167 378.5,277.5C 406.833,277.5 435.167,277.5 463.5,277.5 Z"/></g>
<g><path style="opacity:0.463" fill="#eb8ea3" d="M 369.5,278.5 C 369.167,278.5 368.833,278.5 368.5,278.5C 357.167,278.5 345.833,278.5 334.5,278.5C 334.5,358.5 334.5,438.5 334.5,518.5C 376.997,519.499 419.663,519.832 462.5,519.5C 462.833,519.5 463.167,519.5 463.5,519.5C 420.337,520.499 377.003,520.832 333.5,520.5C 333.333,439.499 333.5,358.499 334,277.5C 334.333,277.167 334.667,276.833 335,276.5C 346.598,277.157 358.098,277.824 369.5,278.5 Z"/></g>
<g><path style="opacity:1" fill="#d4002d" d="M 368.5,278.5 C 368.5,278.833 368.5,279.167 368.5,279.5C 357.5,279.5 346.5,279.5 335.5,279.5C 335.833,359.335 335.499,439.002 334.5,518.5C 334.5,438.5 334.5,358.5 334.5,278.5C 345.833,278.5 357.167,278.5 368.5,278.5 Z"/></g>
<g><path style="opacity:0.329" fill="#dc1c4b" d="M 368.5,278.5 C 368.833,278.5 369.167,278.5 369.5,278.5C 369.5,347.5 369.5,416.5 369.5,485.5C 400.835,485.333 432.168,485.5 463.5,486C 464.829,497.265 464.829,508.431 463.5,519.5C 463.167,519.5 462.833,519.5 462.5,519.5C 462.5,508.5 462.5,497.5 462.5,486.5C 431.167,486.5 399.833,486.5 368.5,486.5C 368.5,417.5 368.5,348.5 368.5,279.5C 368.5,279.167 368.5,278.833 368.5,278.5 Z"/></g>
<g><path style="opacity:0.797" fill="#dc1948" d="M 463.5,277.5 C 464.833,315.5 464.833,353.5 463.5,391.5C 463.167,391.5 462.833,391.5 462.5,391.5C 462.5,353.833 462.5,316.167 462.5,278.5C 463.167,278.5 463.5,278.167 463.5,277.5 Z"/></g>
<g><path style="opacity:0.761" fill="#7f7c7e" d="M 632.5,278.5 C 634.048,278.821 634.715,279.821 634.5,281.5C 633.599,280.71 632.932,279.71 632.5,278.5 Z"/></g>
<g><path style="opacity:1" fill="#d7073b" d="M 368.5,279.5 C 368.5,348.5 368.5,417.5 368.5,486.5C 399.833,486.5 431.167,486.5 462.5,486.5C 462.5,497.5 462.5,508.5 462.5,519.5C 419.663,519.832 376.997,519.499 334.5,518.5C 335.499,439.002 335.833,359.335 335.5,279.5C 346.5,279.5 357.5,279.5 368.5,279.5 Z"/></g>
<g><path style="opacity:1" fill="#d70c3c" d="M 462.5,278.5 C 462.5,316.167 462.5,353.833 462.5,391.5C 462.5,419.833 462.5,448.167 462.5,476.5C 451.5,476.5 440.5,476.5 429.5,476.5C 429.815,472.629 429.482,468.962 428.5,465.5C 428.5,449.167 428.5,432.833 428.5,416.5C 429.043,416.44 429.376,416.107 429.5,415.5C 423.872,414.505 418.206,414.171 412.5,414.5C 412.173,423.682 412.507,432.682 413.5,441.5C 413.5,448.167 413.5,454.833 413.5,461.5C 411.558,466.056 410.892,471.056 411.5,476.5C 400.5,476.5 389.5,476.5 378.5,476.5C 378.5,470.5 378.5,464.5 378.5,458.5C 378.848,428.834 379.181,399.167 379.5,369.5C 379.5,339.167 379.5,308.833 379.5,278.5C 407.167,278.5 434.833,278.5 462.5,278.5 Z M 413.5,312.5 C 413.5,335.167 413.5,357.833 413.5,380.5C 418.5,380.5 423.5,380.5 428.5,380.5C 428.5,357.833 428.5,335.167 428.5,312.5C 423.5,312.5 418.5,312.5 413.5,312.5 Z"/></g>
<g><path style="opacity:0.118" fill="#a3a5a6" d="M 664.5,283.5 C 665.674,284.514 666.34,285.847 666.5,287.5C 664.896,286.713 664.229,285.38 664.5,283.5 Z"/></g>
<g><path style="opacity:0.973" fill="#5d5f60" d="M 132.5,284.5 C 131.677,288.89 130.01,292.89 127.5,296.5C 128.403,292.111 130.069,288.111 132.5,284.5 Z"/></g>
<g><path style="opacity:0.267" fill="#8b8d8e" d="M 578.5,287.5 C 578.34,289.153 577.674,290.486 576.5,291.5C 576.229,289.62 576.896,288.287 578.5,287.5 Z"/></g>
<g><path style="opacity:0.286" fill="#717375" d="M 220.5,290.5 C 222.293,292.426 223.293,294.759 223.5,297.5C 221.707,295.574 220.707,293.241 220.5,290.5 Z"/></g>
<g><path style="opacity:0.831" fill="#5d5f60" d="M 668.5,293.5 C 670.02,295.89 671.02,298.557 671.5,301.5C 669.415,299.316 668.415,296.649 668.5,293.5 Z"/></g>
<g><path style="opacity:0.341" fill="#808283" d="M 156.5,294.5 C 156.598,296.553 155.931,298.22 154.5,299.5C 154.402,297.447 155.069,295.78 156.5,294.5 Z"/></g>
<g><path style="opacity:0.145" fill="#919394" d="M 250.5,294.5 C 251.931,295.78 252.598,297.447 252.5,299.5C 251.069,298.22 250.402,296.553 250.5,294.5 Z"/></g>
<g><path style="opacity:0.086" fill="#848687" d="M 126.5,299.5 C 126.598,301.553 125.931,303.22 124.5,304.5C 124.402,302.447 125.069,300.78 126.5,299.5 Z"/></g>
<g><path style="opacity:0.302" fill="#6f7172" d="M 154.5,299.5 C 154.293,302.241 153.293,304.574 151.5,306.5C 151.707,303.759 152.707,301.426 154.5,299.5 Z"/></g>
<g><path style="opacity:0.804" fill="#656768" d="M 671.5,301.5 C 673.02,303.89 674.02,306.557 674.5,309.5C 672.415,307.316 671.415,304.649 671.5,301.5 Z"/></g>
<g><path style="opacity:0.482" fill="#6e7071" d="M 225.5,303.5 C 227.834,305.176 228.834,307.509 228.5,310.5C 227.264,308.351 226.264,306.018 225.5,303.5 Z"/></g>
<g><path style="opacity:0.176" fill="#6b6e6f" d="M 124.5,305.5 C 124.267,308.542 123.267,311.208 121.5,313.5C 121.733,310.458 122.733,307.792 124.5,305.5 Z"/></g>
<g><path style="opacity:0.345" fill="#6a6c6d" d="M 228.5,310.5 C 230.267,312.792 231.267,315.458 231.5,318.5C 229.733,316.208 228.733,313.542 228.5,310.5 Z"/></g>
<g><path style="opacity:0.302" fill="#7a7c7d" d="M 538.5,317.5 C 539.471,318.962 539.138,320.295 537.5,321.5C 537.433,320.041 537.766,318.708 538.5,317.5 Z"/></g>
<g><path style="opacity:0.176" fill="#6e7071" d="M 258.5,318.5 C 259.924,320.515 260.59,322.848 260.5,325.5C 259.076,323.485 258.41,321.152 258.5,318.5 Z"/></g>
<g><path style="opacity:0.059" fill="#5c5f61" d="M 676.5,316.5 C 678.074,319.907 679.074,323.573 679.5,327.5C 677.517,324.201 676.517,320.534 676.5,316.5 Z"/></g>
<g><path style="opacity:0.565" fill="#7b7d7e" d="M 537.5,322.5 C 537.843,324.483 537.176,325.817 535.5,326.5C 535.989,325.005 536.655,323.671 537.5,322.5 Z"/></g>
<g><path style="opacity:0.035" fill="#626567" d="M 649.5,318.5 C 651.472,321.084 652.472,324.084 652.5,327.5C 650.928,324.785 649.928,321.785 649.5,318.5 Z"/></g>
<g><path style="opacity:0.463" fill="#6b6c6e" d="M 119.5,321.5 C 119.41,325.214 118.41,328.548 116.5,331.5C 116.899,327.884 117.899,324.55 119.5,321.5 Z"/></g>
<g><path style="opacity:0.553" fill="#6a6c6e" d="M 146.5,322.5 C 146.072,325.785 145.072,328.785 143.5,331.5C 143.528,328.084 144.528,325.084 146.5,322.5 Z"/></g>
<g><path style="opacity:0.502" fill="#616364" d="M 260.5,325.5 C 261.768,327.905 262.435,330.572 262.5,333.5C 260.96,331.162 260.294,328.495 260.5,325.5 Z"/></g>
<g><path style="opacity:0.176" fill="#5d6061" d="M 679.5,328.5 C 680.795,330.979 681.795,333.646 682.5,336.5C 680.023,334.584 679.023,331.917 679.5,328.5 Z"/></g>
<g><path style="opacity:0.451" fill="#6d6c6e" d="M 234.5,329.5 C 235.924,331.515 236.59,333.848 236.5,336.5C 235.076,334.485 234.41,332.152 234.5,329.5 Z"/></g>
<g><path style="opacity:0.224" fill="#656768" d="M 535.5,327.5 C 536.613,328.946 536.78,330.613 536,332.5C 535.122,336.052 533.956,339.386 532.5,342.5C 533.341,337.468 534.341,332.468 535.5,327.5 Z"/></g>
<g><path style="opacity:0.514" fill="#706f71" d="M 653.5,331.5 C 654.924,333.515 655.59,335.848 655.5,338.5C 654.076,336.485 653.41,334.152 653.5,331.5 Z"/></g>
<g><path style="opacity:0.118" fill="#6f7273" d="M 116.5,333.5 C 116.706,336.495 116.04,339.162 114.5,341.5C 114.294,338.505 114.96,335.838 116.5,333.5 Z"/></g>
<g><path style="opacity:0.569" fill="#585a5b" d="M 263.5,338.5 C 265.102,342.921 266.102,347.588 266.5,352.5C 264.498,348.167 263.498,343.5 263.5,338.5 Z"/></g>
<g><path style="opacity:0.431" fill="#696b6c" d="M 559.5,343.5 C 559.435,346.428 558.768,349.095 557.5,351.5C 557.294,348.505 557.96,345.838 559.5,343.5 Z"/></g>
<g><path style="opacity:0.8" fill="#4e4f50" d="M 237.5,344.5 C 239.045,345.23 239.878,346.563 240,348.5C 240.994,353.118 241.494,357.785 241.5,362.5C 240.17,356.591 238.836,350.591 237.5,344.5 Z"/></g>
<g><path style="opacity:0.404" fill="#545657" d="M 113.5,347.5 C 113.656,351.764 112.989,355.764 111.5,359.5C 111.344,355.236 112.011,351.236 113.5,347.5 Z"/></g>
<g><path style="opacity:0.025" fill="#6d7072" d="M 684.5,348.5 C 685.219,350.764 685.552,353.097 685.5,355.5C 684.62,353.863 683.954,352.03 683.5,350C 683.57,349.235 683.903,348.735 684.5,348.5 Z"/></g>
<g><path style="opacity:0.275" fill="#6f7172" d="M 140.5,345.5 C 140.58,348.781 139.913,351.781 138.5,354.5C 138.42,351.219 139.087,348.219 140.5,345.5 Z"/></g>
<g><path style="opacity:0.035" fill="#6b6d6f" d="M 656.5,346.5 C 657.117,346.611 657.617,346.944 658,347.5C 658.497,349.81 658.663,352.143 658.5,354.5C 657.629,351.997 656.963,349.33 656.5,346.5 Z"/></g>
<g><path style="opacity:0.518" fill="#5e6061" d="M 658.5,354.5 C 660.312,356.713 660.645,359.047 659.5,361.5C 658.532,359.393 658.198,357.059 658.5,354.5 Z"/></g>
<g><path style="opacity:0.804" fill="#565758" d="M 556.5,358.5 C 556.468,363.391 555.801,368.057 554.5,372.5C 554.123,367.547 554.789,362.881 556.5,358.5 Z"/></g>
<g><path style="opacity:0.565" fill="#58595b" d="M 111.5,359.5 C 111.665,362.85 111.498,366.183 111,369.5C 110.722,370.416 110.222,371.082 109.5,371.5C 109.851,367.316 110.518,363.316 111.5,359.5 Z"/></g>
<g><path style="opacity:0.737" fill="#e23960" d="M 378.5,369.5 C 378.833,369.5 379.167,369.5 379.5,369.5C 379.181,399.167 378.848,428.834 378.5,458.5C 378.167,458.5 377.833,458.5 377.5,458.5C 377.169,428.662 377.502,398.995 378.5,369.5 Z"/></g>
<g><path style="opacity:0.106" fill="#4f5153" d="M 660.5,370.5 C 662.162,374.446 662.496,378.446 661.5,382.5C 660.838,378.534 660.505,374.534 660.5,370.5 Z"/></g>
<g><path style="opacity:0.631" fill="#515353" d="M 528.5,370.5 C 529.097,370.735 529.43,371.235 529.5,372C 528.855,387.974 528.188,403.807 527.5,419.5C 527.196,403.119 527.529,386.786 528.5,370.5 Z"/></g>
<g><path style="opacity:0.671" fill="#e5496b" d="M 462.5,391.5 C 462.833,391.5 463.167,391.5 463.5,391.5C 463.5,420.167 463.5,448.833 463.5,477.5C 451.833,477.5 440.167,477.5 428.5,477.5C 428.5,473.5 428.5,469.5 428.5,465.5C 429.482,468.962 429.815,472.629 429.5,476.5C 440.5,476.5 451.5,476.5 462.5,476.5C 462.5,448.167 462.5,419.833 462.5,391.5 Z"/></g>
<g><path style="opacity:0.529" fill="#6d6e6e" d="M 661.5,413.5 C 625.833,412.167 590.167,412.167 554.5,413.5C 553.957,413.44 553.624,413.107 553.5,412.5C 589.833,411.167 626.167,411.167 662.5,412.5C 662.376,413.107 662.043,413.44 661.5,413.5 Z"/></g>
<g><path style="opacity:0.49" fill="#ee8ca1" d="M 428.5,416.5 C 423.695,415.513 418.695,415.179 413.5,415.5C 413.5,424.167 413.5,432.833 413.5,441.5C 412.507,432.682 412.173,423.682 412.5,414.5C 418.206,414.171 423.872,414.505 429.5,415.5C 429.376,416.107 429.043,416.44 428.5,416.5 Z"/></g>
<g><path style="opacity:0.6" fill="#595a5c" d="M 109.5,426.5 C 111.353,430.378 112.353,434.711 112.5,439.5C 112.48,440.726 112.147,441.726 111.5,442.5C 110.833,437.167 110.167,431.833 109.5,426.5 Z"/></g>
<g><path style="opacity:0.808" fill="#545657" d="M 555.5,432.5 C 556.617,436.295 557.283,440.295 557.5,444.5C 555.75,440.817 555.083,436.817 555.5,432.5 Z"/></g>
<g><path style="opacity:0.808" fill="#5e5e60" d="M 658.5,441.5 C 659.794,443.68 659.461,445.68 657.5,447.5C 657.517,445.435 657.85,443.435 658.5,441.5 Z"/></g>
<g><path style="opacity:0.565" fill="#636667" d="M 111.5,443.5 C 112.117,443.611 112.617,443.944 113,444.5C 113.495,446.473 113.662,448.473 113.5,450.5C 112.593,448.343 111.927,446.01 111.5,443.5 Z"/></g>
<g><path style="opacity:0.18" fill="#515455" d="M 138.5,443.5 C 139.943,447.615 140.943,451.948 141.5,456.5C 139.124,452.595 138.124,448.261 138.5,443.5 Z"/></g>
<g><path style="opacity:0.18" fill="#545658" d="M 685.5,442.5 C 684.785,449.411 683.451,456.077 681.5,462.5C 681.703,455.486 683.036,448.82 685.5,442.5 Z"/></g>
<g><path style="opacity:0.09" fill="#4c4e4f" d="M 557.5,445.5 C 558.546,448.728 559.212,452.061 559.5,455.5C 557.32,452.339 556.653,449.006 557.5,445.5 Z"/></g>
<g><path style="opacity:0.529" fill="#666868" d="M 657.5,450.5 C 657.706,453.495 657.04,456.162 655.5,458.5C 655.565,455.572 656.232,452.905 657.5,450.5 Z"/></g>
<g><path style="opacity:0.663" fill="#626264" d="M 265.5,453.5 C 265.073,456.01 264.407,458.343 263.5,460.5C 262.99,457.612 263.656,455.279 265.5,453.5 Z"/></g>
<g><path style="opacity:0.345" fill="#717374" d="M 141.5,458.5 C 142.924,460.515 143.59,462.848 143.5,465.5C 142.076,463.485 141.41,461.152 141.5,458.5 Z"/></g>
<g><path style="opacity:0.569" fill="#5c5e5f" d="M 559.5,456.5 C 560.768,458.905 561.435,461.572 561.5,464.5C 559.96,462.162 559.294,459.495 559.5,456.5 Z"/></g>
<g><path style="opacity:0.525" fill="#6d6e6f" d="M 236.5,461.5 C 236.68,465.286 235.68,468.619 233.5,471.5C 234.13,467.952 235.13,464.619 236.5,461.5 Z"/></g>
<g><path style="opacity:0.504" fill="#737677" d="M 263.5,461.5 C 263.59,464.152 262.924,466.485 261.5,468.5C 261.41,465.848 262.076,463.515 263.5,461.5 Z"/></g>
<g><path style="opacity:0.086" fill="#6d6f70" d="M 654.5,463.5 C 654.59,466.152 653.924,468.485 652.5,470.5C 652.41,467.848 653.076,465.515 654.5,463.5 Z"/></g>
<g><path style="opacity:0.224" fill="#7f8182" d="M 144.5,469.5 C 145.738,471.214 146.405,473.214 146.5,475.5C 144.926,473.898 144.259,471.898 144.5,469.5 Z"/></g>
<g><path style="opacity:0.631" fill="#5d5f60" d="M 562.5,465.5 C 563.5,469.5 564.5,473.5 565.5,477.5C 562.801,473.772 561.801,469.772 562.5,465.5 Z"/></g>
<g><path style="opacity:0.404" fill="#787a7b" d="M 535.5,468.5 C 536.924,470.515 537.59,472.848 537.5,475.5C 536.076,473.485 535.41,471.152 535.5,468.5 Z"/></g>
<g><path style="opacity:0.129" fill="#6b6d6e" d="M 233.5,472.5 C 233.59,475.152 232.924,477.485 231.5,479.5C 231.41,476.848 232.076,474.515 233.5,472.5 Z"/></g>
<g><path style="opacity:0.522" fill="#e9627c" d="M 377.5,458.5 C 377.833,458.5 378.167,458.5 378.5,458.5C 378.5,464.5 378.5,470.5 378.5,476.5C 389.5,476.5 400.5,476.5 411.5,476.5C 410.892,471.056 411.558,466.056 413.5,461.5C 413.5,466.833 413.5,472.167 413.5,477.5C 401.5,477.5 389.5,477.5 377.5,477.5C 377.5,471.167 377.5,464.833 377.5,458.5 Z"/></g>
<g><path style="opacity:0.184" fill="#7c7e7f" d="M 119.5,477.5 C 120.738,479.214 121.405,481.214 121.5,483.5C 119.926,481.898 119.259,479.898 119.5,477.5 Z"/></g>
<g><path style="opacity:0.557" fill="#656768" d="M 258.5,481.5 C 258.02,484.443 257.02,487.11 255.5,489.5C 255.415,486.351 256.415,483.684 258.5,481.5 Z"/></g>
<g><path style="opacity:0.345" fill="#626466" d="M 540.5,486.5 C 542.267,488.792 543.267,491.458 543.5,494.5C 541.733,492.208 540.733,489.542 540.5,486.5 Z"/></g>
<g><path style="opacity:0.114" fill="#8f9293" d="M 568.5,487.5 C 569.931,488.78 570.598,490.447 570.5,492.5C 569.069,491.22 568.402,489.553 568.5,487.5 Z"/></g>
<g><path style="opacity:0.447" fill="#696b6d" d="M 674.5,488.5 C 674.267,491.542 673.267,494.208 671.5,496.5C 671.733,493.458 672.733,490.792 674.5,488.5 Z"/></g>
<g><path style="opacity:0.157" fill="#868889" d="M 644.5,494.5 C 644.598,496.553 643.931,498.22 642.5,499.5C 642.402,497.447 643.069,495.78 644.5,494.5 Z"/></g>
<g><path style="opacity:0.275" fill="#767879" d="M 669.5,503.5 C 669.008,505.819 668.008,507.819 666.5,509.5C 666.461,506.911 667.461,504.911 669.5,503.5 Z"/></g>
<g><path style="opacity:0.502" fill="#8d8f90" d="M 548.5,510.5 C 550.048,510.821 550.715,511.821 550.5,513.5C 549.599,512.71 548.932,511.71 548.5,510.5 Z"/></g>
<g><path style="opacity:0.235" fill="#999597" d="M 636.5,513.5 C 636.573,515.027 635.906,516.027 634.5,516.5C 634.427,514.973 635.094,513.973 636.5,513.5 Z"/></g>
<g><path style="opacity:0.345" fill="#67696b" d="M 132.5,514.5 C 134.539,515.911 135.539,517.911 135.5,520.5C 133.992,518.819 132.992,516.819 132.5,514.5 Z"/></g>
<g><path style="opacity:0.31" fill="#898b8c" d="M 663.5,517.5 C 663.34,519.153 662.674,520.486 661.5,521.5C 661.229,519.62 661.896,518.287 663.5,517.5 Z"/></g>
<g><path style="opacity:0.298" fill="#868888" d="M 633.5,519.5 C 633.573,521.027 632.906,522.027 631.5,522.5C 631.427,520.973 632.094,519.973 633.5,519.5 Z"/></g>
<g><path style="opacity:0.373" fill="#817d7f" d="M 167.5,526.5 C 168.906,526.973 169.573,527.973 169.5,529.5C 168.094,529.027 167.427,528.027 167.5,526.5 Z"/></g>
<g><path style="opacity:0.306" fill="#6492cd" d="M 324.5,269.5 C 324.833,269.5 325.167,269.5 325.5,269.5C 325.5,355.833 325.5,442.167 325.5,528.5C 374.167,528.5 422.833,528.5 471.5,528.5C 423.239,529.5 374.239,529.833 324.5,529.5C 324.5,442.833 324.5,356.167 324.5,269.5 Z"/></g>
<g><path style="opacity:0.361" fill="#7b7c7d" d="M 586.5,527.5 C 587.906,527.973 588.573,528.973 588.5,530.5C 587.094,530.027 586.427,529.027 586.5,527.5 Z"/></g>
<g><path style="opacity:0.31" fill="#7d7f80" d="M 209.5,529.5 C 209.573,531.027 208.906,532.027 207.5,532.5C 207.427,530.973 208.094,529.973 209.5,529.5 Z"/></g>
<g><path style="opacity:0.31" fill="#7e8081" d="M 170.5,531.5 C 171.906,531.973 172.573,532.973 172.5,534.5C 171.094,534.027 170.427,533.027 170.5,531.5 Z"/></g>
<g><path style="opacity:0.369" fill="#7b7c7d" d="M 173.5,536.5 C 174.906,536.973 175.573,537.973 175.5,539.5C 174.094,539.027 173.427,538.027 173.5,536.5 Z"/></g>
<g><path style="opacity:0.361" fill="#7c7e7f" d="M 622.5,538.5 C 622.573,540.027 621.906,541.027 620.5,541.5C 620.427,539.973 621.094,538.973 622.5,538.5 Z"/></g>
<g><path style="opacity:0.302" fill="#818384" d="M 175.5,539.5 C 176.906,539.973 177.573,540.973 177.5,542.5C 176.094,542.027 175.427,541.027 175.5,539.5 Z"/></g>
<g><path style="opacity:0.361" fill="#8a8688" d="M 594.5,540.5 C 595.906,540.973 596.573,541.973 596.5,543.5C 595.094,543.027 594.427,542.027 594.5,540.5 Z"/></g>
<g><path style="opacity:0.059" fill="#7587a2" d="M 289.5,539.5 C 289.833,539.5 290.167,539.5 290.5,539.5C 290.762,542.748 290.762,545.748 290.5,548.5C 289.597,545.609 289.264,542.609 289.5,539.5 Z"/></g>
<g><path style="opacity:0.635" fill="#7e8081" d="M 181.5,548.5 C 182.906,548.973 183.573,549.973 183.5,551.5C 182.094,551.027 181.427,550.027 181.5,548.5 Z"/></g>
<g><path style="opacity:1" fill="#6378be" d="M 290.5,549.5 C 293.486,550.808 295.152,553.142 295.5,556.5C 293.478,554.469 291.811,552.135 290.5,549.5 Z"/></g>
<g><path style="opacity:0.804" fill="#5f6161" d="M 194.5,552.5 C 194.33,555.204 192.997,556.871 190.5,557.5C 191.124,555.246 192.457,553.579 194.5,552.5 Z"/></g>
<g><path style="opacity:0.09" fill="#686a6b" d="M 619.5,586.5 C 618.92,588.749 617.587,590.415 615.5,591.5C 616.08,589.251 617.413,587.585 619.5,586.5 Z"/></g>
<g><path style="opacity:0.675" fill="#636365" d="M 573.5,596.5 C 572.089,598.914 570.089,600.581 567.5,601.5C 568.911,599.086 570.911,597.419 573.5,596.5 Z"/></g>
<g><path style="opacity:0.714" fill="#616365" d="M 295.5,641.5 C 297.819,641.992 299.819,642.992 301.5,644.5C 298.911,644.539 296.911,643.539 295.5,641.5 Z"/></g>
<g><path style="opacity:0.235" fill="#4b4d4f" d="M 466.5,653.5 C 466.209,654.649 465.376,655.316 464,655.5C 461.432,655.934 458.932,656.6 456.5,657.5C 455.893,657.376 455.56,657.043 455.5,656.5C 459.135,655.373 462.802,654.373 466.5,653.5 Z"/></g>
<g><path style="opacity:0.035" fill="#5e6062" d="M 517.5,663.5 C 515.819,665.008 513.819,666.008 511.5,666.5C 512.687,664.025 514.687,663.025 517.5,663.5 Z"/></g>
<g><path style="opacity:0.025" fill="#55585a" d="M 359.5,686.5 C 359.917,685.876 360.584,685.543 361.5,685.5C 367.741,686.381 373.741,687.714 379.5,689.5C 372.763,688.71 366.096,687.71 359.5,686.5 Z"/></g>
<g><path style="opacity:0.647" fill="#424445" d="M 428.5,687.5 C 426.708,688.309 424.708,688.809 422.5,689C 409.171,689.5 395.837,689.667 382.5,689.5C 397.773,688.407 413.106,687.74 428.5,687.5 Z"/></g>
</svg>
