<?xml version="1.0" encoding="UTF-8"?>
<!DOCTYPE svg PUBLIC "-//W3C//DTD SVG 1.1//EN" "http://www.w3.org/Graphics/SVG/1.1/DTD/svg11.dtd">
<svg xmlns="http://www.w3.org/2000/svg" version="1.1" width="800px" height="800px" style="shape-rendering:geometricPrecision; text-rendering:geometricPrecision; image-rendering:optimizeQuality; fill-rule:evenodd; clip-rule:evenodd" xmlns:xlink="http://www.w3.org/1999/xlink">
<g><path style="opacity:0.994" fill="#ece0c5" d="M 316.5,57.5 C 325.986,56.8182 330.153,61.1515 329,70.5C 316.116,79.2983 304.116,89.2983 293,100.5C 289.469,104.397 286.303,108.564 283.5,113C 292.715,111.351 302.048,110.684 311.5,111C 318.157,115.263 319.157,120.597 314.5,127C 296.492,132.338 279.825,140.338 264.5,151C 248.349,199.908 255.849,245.075 287,286.5C 288.333,287.833 289.667,289.167 291,290.5C 290.554,245.338 310.72,213.505 351.5,195C 357.484,192.128 361.984,193.628 365,199.5C 365.79,202.634 365.457,205.634 364,208.5C 355.251,213.914 347.751,220.747 341.5,229C 347.36,227.681 353.36,227.347 359.5,228C 365.76,232.856 366.093,238.19 360.5,244C 346.426,250.405 336.926,260.905 332,275.5C 330.385,288.484 333.551,300.151 341.5,310.5C 342.274,311.711 343.107,311.711 344,310.5C 355.57,293.353 363.904,274.686 369,254.5C 375.537,247.381 381.204,248.048 386,256.5C 387.284,283.863 381.117,309.363 367.5,333C 388.829,342.999 410.162,342.999 431.5,333C 416.731,308.428 410.898,281.928 414,253.5C 419.625,248.065 424.958,248.398 430,254.5C 435.143,274.944 443.643,293.778 455.5,311C 457.113,311.089 458.28,310.255 459,308.5C 472.85,286.474 469.683,267.307 449.5,251C 444.224,248.112 439.391,244.612 435,240.5C 433.631,235.563 434.797,231.396 438.5,228C 444.26,227.723 449.927,227.556 455.5,227.5C 449.138,219.971 441.971,213.305 434,207.5C 431.472,199.89 434.139,195.224 442,193.5C 474.344,204.511 495.011,226.511 504,259.5C 505.925,269.753 507.259,280.086 508,290.5C 541.816,248.907 550.649,202.574 534.5,151.5C 519.729,141.282 503.729,133.448 486.5,128C 480.403,124.372 479.236,119.538 483,113.5C 484.419,112.54 485.919,111.707 487.5,111C 496.952,110.684 506.285,111.351 515.5,113C 502.832,96.3279 487.665,82.4945 470,71.5C 466.962,63.5762 469.629,58.9095 478,57.5C 495.238,62.4503 510.572,70.7837 524,82.5C 525.685,75.1419 530.185,72.3086 537.5,74C 579.704,94.5244 604.871,128.024 613,174.5C 617.88,208.477 610.713,239.644 591.5,268C 659.191,336.512 685.691,418.679 671,514.5C 652.229,605.249 601.729,671.749 519.5,714C 461.14,741.236 400.473,747.903 337.5,734C 236.923,707.424 169.757,644.924 136,546.5C 109.861,452.534 126.528,367.201 186,290.5C 193.019,282.982 199.852,275.315 206.5,267.5C 179.164,222.264 177.331,175.93 201,128.5C 215.457,104.046 235.623,85.8792 261.5,74C 264.167,73.3333 266.833,73.3333 269.5,74C 272.119,76.1211 274.119,78.6211 275.5,81.5C 288.145,71.6804 301.811,63.6804 316.5,57.5 Z"/></g>
<g><path style="opacity:1" fill="#03481c" d="M 316.5,67.5 C 318.379,67.3932 318.712,67.8932 317.5,69C 294.253,83.9119 276.253,103.579 263.5,128C 273.637,125.218 283.97,122.885 294.5,121C 298.167,120.333 301.833,120.333 305.5,121C 286.851,126.573 270.017,135.406 255,147.5C 238.868,200.718 247.535,249.384 281,293.5C 288.364,301.198 296.03,308.531 304,315.5C 297.975,291.994 299.642,268.994 309,246.5C 318.598,226.328 333.765,212.495 354.5,205C 338.153,216.219 327.653,231.386 323,250.5C 331.919,242.29 342.419,237.79 354.5,237C 316.372,261.511 312.205,291.011 342,325.5C 353.057,315.068 361.39,302.735 367,288.5C 370.727,279.319 374.061,269.985 377,260.5C 377.751,287.84 370.584,312.84 355.5,335.5C 358.458,338.944 362.124,341.444 366.5,343C 387.35,351.326 408.35,351.659 429.5,344C 434.49,342.335 438.99,339.835 443,336.5C 432.215,319.154 425.548,300.154 423,279.5C 422.067,273.179 421.734,266.846 422,260.5C 427.451,280.731 436.117,299.397 448,316.5C 451,319.5 454,322.5 457,325.5C 486.843,291.006 482.676,261.506 444.5,237C 456.592,237.796 467.092,242.296 476,250.5C 471.853,231.073 461.353,215.906 444.5,205C 475.887,217.834 493.721,241.334 498,275.5C 498.961,289.065 497.961,302.398 495,315.5C 538.003,278.793 556.67,232.126 551,175.5C 549.52,165.951 547.186,156.617 544,147.5C 528.983,135.406 512.149,126.573 493.5,121C 498.868,120.522 504.201,120.855 509.5,122C 518.152,124.331 526.818,126.331 535.5,128C 522.412,103.243 504.079,83.2433 480.5,68C 497.437,73.6407 512.437,82.6407 525.5,95C 539.379,108.546 550.546,124.046 559,141.5C 567.963,148.129 575.963,155.795 583,164.5C 576.786,131.961 560.952,105.127 535.5,84C 566.27,98.1155 587.437,121.282 599,153.5C 611.951,193.508 606.618,230.842 583,265.5C 573.956,278.217 563.789,290.051 552.5,301C 537.687,314.236 522.687,327.236 507.5,340C 519.613,335.956 531.613,331.29 543.5,326C 544.5,325.333 545.5,325.333 546.5,326C 547.403,341.151 544.57,355.651 538,369.5C 530.25,380.768 519.417,385.934 505.5,385C 494.811,385.58 484.145,386.413 473.5,387.5C 475.8,393.036 477.3,398.702 478,404.5C 468.424,419.018 459.424,433.685 451,448.5C 454.966,443.533 459.299,438.866 464,434.5C 474.551,469.495 484.718,504.662 494.5,540C 467.458,562.611 440.291,585.111 413,607.5C 412.67,604.134 413.003,600.801 414,597.5C 421.995,562.51 429.662,527.51 437,492.5C 424.667,507.833 412.333,523.167 400,538.5C 387.333,523.167 374.667,507.833 362,492.5C 369.341,527.533 377.007,562.533 385,597.5C 385.997,600.801 386.33,604.134 386,607.5C 358.709,585.111 331.542,562.611 304.5,540C 314.436,504.754 324.603,469.588 335,434.5C 338.677,438.725 342.511,442.058 346.5,444.5C 338.333,431.5 330.167,418.5 322,405.5C 321.333,403.5 321.333,401.5 322,399.5C 323.076,395.441 324.243,391.441 325.5,387.5C 310.804,386.743 296.137,385.577 281.5,384C 274.017,382.339 267.85,378.506 263,372.5C 255.138,358.196 251.472,342.863 252,326.5C 253.049,325.483 254.216,325.316 255.5,326C 267.387,331.29 279.387,335.956 291.5,340C 264.739,319.24 240.572,295.74 219,269.5C 188.317,225.382 185.317,179.382 210,131.5C 222.956,109.861 240.789,94.0273 263.5,84C 237.992,105.515 222.158,132.682 216,165.5C 222.667,156.167 230.667,148.167 240,141.5C 256.22,107.111 281.72,82.4444 316.5,67.5 Z"/></g>
<g><path style="opacity:1" fill="#e8ddc1" d="M 230.5,169.5 C 231.043,169.56 231.376,169.893 231.5,170.5C 230.134,173.692 229.301,177.026 229,180.5C 228.333,190.833 228.333,201.167 229,211.5C 230.264,225.942 231.931,240.275 234,254.5C 222.253,235.843 216.586,215.509 217,193.5C 219.172,184.154 223.672,176.154 230.5,169.5 Z"/></g>
<g><path style="opacity:1" fill="#e6dcc0" d="M 567.5,168.5 C 577.176,176.688 582.176,187.188 582.5,200C 581.274,220.009 575.441,238.509 565,255.5C 566.936,243.61 568.603,231.61 570,219.5C 570.667,206.167 570.667,192.833 570,179.5C 569.1,175.829 568.266,172.163 567.5,168.5 Z"/></g>
<g><path style="opacity:1" fill="#08491d" d="M 211.5,275.5 C 213.909,277.367 216.242,279.534 218.5,282C 150.616,353.363 128.116,437.196 151,533.5C 179.668,626.834 240.834,687.334 334.5,715C 416.949,734.112 491.949,718.445 559.5,668C 629.222,609.688 661.722,534.854 657,443.5C 650.634,380.779 625.467,327.112 581.5,282.5C 582.761,279.736 584.595,277.403 587,275.5C 655.969,347.11 679.969,431.777 659,529.5C 634.525,618.303 579.691,680.136 494.5,715C 392.731,749.644 301.064,732.31 219.5,663C 147.09,592.091 120.257,506.591 139,406.5C 151.248,355.984 175.415,312.317 211.5,275.5 Z"/></g>
<g><path style="opacity:1" fill="#05481d" d="M 224.5,289.5 C 227.225,290.713 229.559,292.546 231.5,295C 173.92,355.252 151.587,426.752 164.5,509.5C 188.813,503.005 213.146,496.672 237.5,490.5C 250.285,558.869 289.952,603.369 356.5,624C 421.247,638.193 476.414,621.36 522,573.5C 542.417,548.996 555.583,520.996 561.5,489.5C 585.632,496.949 609.965,503.616 634.5,509.5C 647.76,427.461 625.926,356.461 569,296.5C 569.546,293.907 571.046,291.74 573.5,290C 574.167,289.333 574.833,289.333 575.5,290C 639.514,358.211 660.681,438.044 639,529.5C 612.84,616.993 556.34,674.827 469.5,703C 383.969,725.763 306.969,709.43 238.5,654C 177.355,598.629 148.522,529.462 152,446.5C 157.877,385.431 182.043,333.097 224.5,289.5 Z"/></g>
<g><path style="opacity:1" fill="#f7f9f7" d="M 532.5,341.5 C 533.095,351.868 529.761,361.034 522.5,369C 510.757,372.379 498.757,373.712 486.5,373C 503.384,364.59 518.718,354.09 532.5,341.5 Z"/></g>
<g><path style="opacity:1" fill="#f6f9f7" d="M 265.5,340.5 C 279.915,353.551 295.915,364.384 313.5,373C 304.164,373.167 294.83,372.834 285.5,372C 277.65,370.648 272.483,366.148 270,358.5C 267.327,352.793 265.827,346.793 265.5,340.5 Z"/></g>
<g><path style="opacity:1" fill="#f7f9f8" d="M 349.5,376.5 C 357.771,378.796 365.771,381.962 373.5,386C 374.517,387.049 374.684,388.216 374,389.5C 364.446,397.13 356.446,395.797 350,385.5C 349.502,382.518 349.335,379.518 349.5,376.5 Z"/></g>
<g><path style="opacity:1" fill="#f8faf8" d="M 444.5,376.5 C 450.204,376.146 452.037,378.813 450,384.5C 445.936,392.61 439.436,395.443 430.5,393C 428.91,391.954 427.41,390.787 426,389.5C 425.28,387.888 425.446,386.388 426.5,385C 432.712,382.392 438.712,379.558 444.5,376.5 Z"/></g>
<g><path style="opacity:1" fill="#fafbfa" d="M 387.5,471.5 C 384.038,472.482 380.371,472.815 376.5,472.5C 372.35,467.508 368.35,462.341 364.5,457C 366.053,450.855 367.553,444.688 369,438.5C 372.979,434.852 376.645,430.852 380,426.5C 383.745,415.762 387.578,405.095 391.5,394.5C 394,396.5 396.834,397.833 400,398.5C 402.806,397.43 405.473,396.097 408,394.5C 411.516,404.048 414.85,413.714 418,423.5C 420.933,428.601 424.766,432.935 429.5,436.5C 431.539,442.9 433.206,449.4 434.5,456C 431.476,461.866 427.81,467.366 423.5,472.5C 419.5,473.833 415.5,473.833 411.5,472.5C 414.471,467.697 417.638,463.03 421,458.5C 421.854,454.375 421.52,450.375 420,446.5C 411.874,453.87 402.374,456.37 391.5,454C 386.995,452.251 382.995,449.751 379.5,446.5C 378.125,450.078 377.625,453.744 378,457.5C 381.388,462.048 384.555,466.714 387.5,471.5 Z"/></g>
<g><path style="opacity:1" fill="#94b29f" d="M 387.5,471.5 C 388.043,471.56 388.376,471.893 388.5,472.5C 384.351,473.809 380.351,473.809 376.5,472.5C 380.371,472.815 384.038,472.482 387.5,471.5 Z"/></g>
<g><path style="opacity:1" fill="#b5cabc" d="M 415.5,483.5 C 404.986,483.172 394.653,483.506 384.5,484.5C 383.957,484.44 383.624,484.107 383.5,483.5C 389,483.167 394.5,482.833 400,482.5C 405.916,482.476 411.083,482.809 415.5,483.5 Z"/></g>
<g><path style="opacity:1" fill="#fbfcfb" d="M 415.5,483.5 C 413.526,486.482 411.526,489.482 409.5,492.5C 403.193,493.664 396.859,493.831 390.5,493C 388.28,490.287 386.28,487.454 384.5,484.5C 394.653,483.506 404.986,483.172 415.5,483.5 Z"/></g>
<g><path style="opacity:1" fill="#f6f8f7" d="M 572.5,505.5 C 577.918,506.47 582.918,508.303 587.5,511C 586.932,512.872 586.265,514.705 585.5,516.5C 583.074,517.168 580.741,517.502 578.5,517.5C 574.499,524.688 576.499,528.854 584.5,530C 586.112,530.72 587.612,530.554 589,529.5C 590.667,524.167 592.333,518.833 594,513.5C 594.725,512.941 595.558,512.608 596.5,512.5C 606.785,515.707 617.118,518.707 627.5,521.5C 624.764,530.874 621.931,540.207 619,549.5C 614.649,547.619 610.149,546.119 605.5,545C 604.709,542.25 604.709,539.417 605.5,536.5C 608.167,536.833 610.833,537.167 613.5,537.5C 614.301,533.765 615.301,530.099 616.5,526.5C 611.763,525.923 607.096,524.923 602.5,523.5C 601.833,523.833 601.167,524.167 600.5,524.5C 598.846,529.448 597.346,534.448 596,539.5C 595.481,540.516 594.647,541.182 593.5,541.5C 584.074,538.977 574.741,536.144 565.5,533C 564.978,532.439 564.645,531.772 564.5,531C 567.078,522.436 569.744,513.936 572.5,505.5 Z"/></g>
<g><path style="opacity:1" fill="#f7f9f7" d="M 219.5,523.5 C 218.711,523.783 218.044,524.283 217.5,525C 222.823,525.499 228.156,525.666 233.5,525.5C 234.492,528.138 235.492,530.805 236.5,533.5C 218.509,539.83 200.509,546.164 182.5,552.5C 180.706,550.318 179.373,547.818 178.5,545C 189.237,540.42 200.237,536.42 211.5,533C 206.798,532.828 202.132,532.328 197.5,531.5C 201.019,528.904 204.352,526.071 207.5,523C 196.553,525.87 185.719,529.37 175,533.5C 173.477,530.509 172.977,527.509 173.5,524.5C 191.314,517.895 209.314,511.895 227.5,506.5C 228.342,509.498 228.842,512.498 229,515.5C 225.642,518.031 222.476,520.698 219.5,523.5 Z"/></g>
<g><path style="opacity:1" fill="#467857" d="M 219.5,523.5 C 224.167,524.167 228.833,524.833 233.5,525.5C 228.156,525.666 222.823,525.499 217.5,525C 218.044,524.283 218.711,523.783 219.5,523.5 Z"/></g>
<g><path style="opacity:1" fill="#f7f9f8" d="M 560.5,536.5 C 561.496,536.414 562.329,536.748 563,537.5C 567.306,543.972 571.806,550.306 576.5,556.5C 588.806,558.472 601.139,560.306 613.5,562C 612.31,565.686 609.977,568.186 606.5,569.5C 598.819,568.258 591.153,567.424 583.5,567C 590.468,570.819 597.468,574.652 604.5,578.5C 603.253,581.329 601.753,583.995 600,586.5C 583.493,577.246 566.826,568.246 550,559.5C 550.234,556.365 551.567,553.698 554,551.5C 557.955,554.067 562.122,555.9 566.5,557C 563.001,552.998 560.001,548.665 557.5,544C 558.651,541.535 559.651,539.035 560.5,536.5 Z"/></g>
<g><path style="opacity:1" fill="#f6f8f7" d="M 237.5,542.5 C 240.934,543.115 242.934,545.281 243.5,549C 226.935,558.535 210.101,567.702 193,576.5C 191.7,573.705 190.2,571.039 188.5,568.5C 205.053,560.059 221.387,551.392 237.5,542.5 Z"/></g>
<g><path style="opacity:1" fill="#f6f8f7" d="M 247.5,557.5 C 248.983,559.094 250.483,560.76 252,562.5C 252.667,563.5 252.667,564.5 252,565.5C 239.667,574.5 227.333,583.5 215,592.5C 214.333,593.167 214.333,593.833 215,594.5C 218.362,599.03 221.529,603.697 224.5,608.5C 222.135,610.842 219.469,612.342 216.5,613C 212.367,606.567 207.867,600.401 203,594.5C 202.018,593.241 201.685,591.908 202,590.5C 217.145,579.356 232.312,568.356 247.5,557.5 Z"/></g>
<g><path style="opacity:1" fill="#f7f9f7" d="M 545.5,564.5 C 550.727,567.387 555.394,571.054 559.5,575.5C 558.299,577.909 556.633,579.909 554.5,581.5C 552.177,579.935 549.844,578.768 547.5,578C 546.023,580.445 544.19,582.612 542,584.5C 541.333,585.167 541.333,585.833 542,586.5C 551.108,593.307 559.942,600.474 568.5,608C 569.759,608.982 571.092,609.315 572.5,609C 574.62,606.591 576.62,604.091 578.5,601.5C 576.167,599.833 574.167,597.833 572.5,595.5C 574.149,593.35 575.982,591.35 578,589.5C 582,592.833 586,596.167 590,599.5C 590.667,600.5 590.667,601.5 590,602.5C 584.685,609.481 579.018,616.147 573,622.5C 557.719,611.052 542.886,599.052 528.5,586.5C 534.668,579.468 540.335,572.134 545.5,564.5 Z"/></g>
<g><path style="opacity:1" fill="#f7f9f8" d="M 262.5,579.5 C 265.075,580.728 267.408,582.395 269.5,584.5C 265.046,589.909 260.713,595.409 256.5,601C 262.927,597.284 269.593,593.784 276.5,590.5C 273.216,597.407 269.716,604.073 266,610.5C 271.517,606.406 276.85,602.073 282,597.5C 283.833,599.333 285.667,601.167 287.5,603C 274.313,614.097 261.313,625.431 248.5,637C 246.631,638.602 244.631,639.602 242.5,640C 240.649,638.316 238.982,636.483 237.5,634.5C 241.238,629.65 244.405,624.65 247,619.5C 242.304,623.028 237.471,626.362 232.5,629.5C 230.167,627.833 228.167,625.833 226.5,623.5C 238.901,609.105 250.901,594.438 262.5,579.5 Z"/></g>
<g><path style="opacity:1" fill="#f6f9f7" d="M 522.5,592.5 C 535.485,606.575 548.152,621.075 560.5,636C 553.352,642.404 546.019,648.571 538.5,654.5C 525.444,640.444 513.111,625.777 501.5,610.5C 503.511,608.659 505.678,606.992 508,605.5C 518.684,617.185 529.017,629.185 539,641.5C 541.167,640 543.333,638.5 545.5,637C 547.007,636.163 547.507,634.996 547,633.5C 536.459,621.961 526.292,610.128 516.5,598C 518.396,595.932 520.396,594.099 522.5,592.5 Z"/></g>
<g><path style="opacity:1" fill="#f7f9f8" d="M 291.5,606.5 C 300.322,611.077 308.655,616.411 316.5,622.5C 306.464,638.602 295.964,654.269 285,669.5C 282.395,668.785 280.228,667.452 278.5,665.5C 282.583,658.332 286.916,651.332 291.5,644.5C 288.696,642.862 286.029,641.029 283.5,639C 281.887,638.911 280.72,639.745 280,641.5C 276.416,647.669 272.583,653.669 268.5,659.5C 265.865,658.189 263.531,656.522 261.5,654.5C 271.949,638.731 281.949,622.731 291.5,606.5 Z"/></g>
<g><path style="opacity:1" fill="#f8faf9" d="M 487.5,618.5 C 491.503,618.416 495.169,619.416 498.5,621.5C 501,625.833 503.5,630.167 506,634.5C 505.802,637.235 505.969,639.901 506.5,642.5C 508.753,643.253 510.587,644.586 512,646.5C 513.746,650.327 515.746,653.993 518,657.5C 518.738,661.402 518.072,665.068 516,668.5C 510.073,672.215 503.906,675.548 497.5,678.5C 487.802,662.278 478.469,645.778 469.5,629C 475.399,625.221 481.399,621.721 487.5,618.5 Z"/></g>
<g><path style="opacity:1" fill="#09491e" d="M 294.5,619.5 C 298.22,620.728 301.22,622.894 303.5,626C 301.378,629.626 299.045,633.126 296.5,636.5C 293.291,634.735 290.291,632.735 287.5,630.5C 289.594,626.636 291.928,622.969 294.5,619.5 Z"/></g>
<g><path style="opacity:1" fill="#f7f9f8" d="M 320.5,625.5 C 323.696,625.899 326.696,626.899 329.5,628.5C 323.539,642.882 317.873,657.382 312.5,672C 315.517,674.954 319.184,676.454 323.5,676.5C 328.43,662.048 333.763,647.714 339.5,633.5C 342.687,633.061 345.687,633.894 348.5,636C 341.337,653.324 334.67,670.824 328.5,688.5C 320.003,686.257 311.67,683.424 303.5,680C 301.82,679.653 300.82,678.653 300.5,677C 307.468,659.928 314.134,642.761 320.5,625.5 Z"/></g>
<g><path style="opacity:1" fill="#08491e" d="M 490.5,627.5 C 493.667,630.637 496,634.47 497.5,639C 494.863,641.324 491.863,643.157 488.5,644.5C 486.11,640.887 484.11,637.054 482.5,633C 485.029,630.907 487.696,629.074 490.5,627.5 Z"/></g>
<g><path style="opacity:1" fill="#f6f8f6" d="M 371.5,693.5 C 371.5,694.833 371.5,696.167 371.5,697.5C 370.5,697.5 369.5,697.5 368.5,697.5C 366.533,697.739 364.699,697.406 363,696.5C 361.703,688.082 360.036,679.749 358,671.5C 356.813,678.912 355.313,686.245 353.5,693.5C 350.914,694.48 348.247,694.813 345.5,694.5C 348.335,675.488 351.335,656.488 354.5,637.5C 357.249,637.274 359.916,637.607 362.5,638.5C 362.833,639.167 363.167,639.833 363.5,640.5C 362.446,644.477 361.946,648.477 362,652.5C 365.1,647.955 368.434,643.622 372,639.5C 374.918,640.083 377.751,640.916 380.5,642C 375.613,647.886 371.113,654.053 367,660.5C 366.333,663.167 366.333,665.833 367,668.5C 368.567,676.833 370.067,685.167 371.5,693.5 Z"/></g>
<g><path style="opacity:1" fill="#f5f8f6" d="M 443.5,636.5 C 445.167,636.5 446.833,636.5 448.5,636.5C 448.963,639.482 449.296,642.482 449.5,645.5C 443.531,646.686 437.531,647.686 431.5,648.5C 431.857,653.313 432.857,657.98 434.5,662.5C 440.409,660.817 446.409,659.983 452.5,660C 453.444,662.719 453.777,665.552 453.5,668.5C 447.329,668.834 441.329,670.001 435.5,672C 436.873,676.732 437.873,681.565 438.5,686.5C 444.883,685.779 451.216,684.779 457.5,683.5C 458.395,686.738 458.395,689.905 457.5,693C 448.821,694.504 440.154,696.004 431.5,697.5C 427.794,678.553 424.46,659.553 421.5,640.5C 429.042,639.618 436.375,638.285 443.5,636.5 Z"/></g>
<g><path style="opacity:1" fill="#f9fbfa" d="M 401.5,651.5 C 399.5,651.5 397.5,651.5 395.5,651.5C 395.5,656.167 395.5,660.833 395.5,665.5C 401.833,665.5 408.167,665.5 414.5,665.5C 414.5,668.5 414.5,671.5 414.5,674.5C 408.5,674.5 402.5,674.5 396.5,674.5C 396.5,679.833 396.5,685.167 396.5,690.5C 402.5,690.5 408.5,690.5 414.5,690.5C 414.5,693.5 414.5,696.5 414.5,699.5C 405.5,699.5 396.5,699.5 387.5,699.5C 387.525,680.492 387.192,661.492 386.5,642.5C 395.833,642.5 405.167,642.5 414.5,642.5C 414.5,645.5 414.5,648.5 414.5,651.5C 410.167,651.5 405.833,651.5 401.5,651.5 Z"/></g>
<g><path style="opacity:1" fill="#09491e" d="M 501.5,647.5 C 505.028,651.375 507.695,655.875 509.5,661C 506.935,663.202 504.102,665.036 501,666.5C 497.625,662.926 495.125,658.76 493.5,654C 493.759,652.739 494.426,651.739 495.5,651C 497.727,650.059 499.727,648.892 501.5,647.5 Z"/></g>
<g><path style="opacity:1" fill="#2e6742" d="M 401.5,651.5 C 400.081,652.451 398.415,652.784 396.5,652.5C 396.5,656.5 396.5,660.5 396.5,664.5C 402.69,664.177 408.69,664.51 414.5,665.5C 408.167,665.5 401.833,665.5 395.5,665.5C 395.5,660.833 395.5,656.167 395.5,651.5C 397.5,651.5 399.5,651.5 401.5,651.5 Z"/></g>
<g><path style="opacity:1" fill="#a2bcab" d="M 371.5,693.5 C 372.451,694.919 372.784,696.585 372.5,698.5C 370.901,698.768 369.568,698.434 368.5,697.5C 369.5,697.5 370.5,697.5 371.5,697.5C 371.5,696.167 371.5,694.833 371.5,693.5 Z"/></g>
<g><path style="opacity:1" fill="#5e8a6e" d="M 414.5,690.5 C 415.479,693.625 415.813,696.958 415.5,700.5C 405.985,700.827 396.652,700.494 387.5,699.5C 396.5,699.5 405.5,699.5 414.5,699.5C 414.5,696.5 414.5,693.5 414.5,690.5 Z"/></g>
</svg>
