<?xml version="1.0" encoding="UTF-8"?>
<!DOCTYPE svg PUBLIC "-//W3C//DTD SVG 1.1//EN" "http://www.w3.org/Graphics/SVG/1.1/DTD/svg11.dtd">
<svg xmlns="http://www.w3.org/2000/svg" version="1.1" width="800px" height="800px" style="shape-rendering:geometricPrecision; text-rendering:geometricPrecision; image-rendering:optimizeQuality; fill-rule:evenodd; clip-rule:evenodd" xmlns:xlink="http://www.w3.org/1999/xlink">
<g><path style="opacity:0.951" fill="#fcfdfe" d="M 372.5,56.5 C 491.761,50.9025 589.928,93.2359 667,183.5C 739.66,278.809 759.993,384.476 728,500.5C 695.067,601.1 630.234,672.934 533.5,716C 456.575,746.901 378.242,750.901 298.5,728C 197.9,695.067 126.066,630.234 83,533.5C 52.0991,456.575 48.0991,378.242 71,298.5C 103.933,197.9 168.766,126.066 265.5,83C 299.95,68.7489 335.617,59.9156 372.5,56.5 Z"/></g>
<g><path style="opacity:1" fill="#046bb5" d="M 371.5,69.5 C 502.226,63.9481 604.393,114.615 678,221.5C 738.071,321.045 746.071,424.712 702,532.5C 660.863,621.3 594.03,681.8 501.5,714C 397.112,745.044 299.779,730.377 209.5,670C 105.005,590.979 59.1718,485.812 72,354.5C 90.0705,244.774 147.237,162.607 243.5,108C 283.808,86.9495 326.475,74.1162 371.5,69.5 Z"/></g>
<g><path style="opacity:1" fill="#f6fafc" d="M 422.5,90.5 C 435.437,92.6338 448.437,94.3004 461.5,95.5C 462.624,99.7849 463.624,104.118 464.5,108.5C 464.253,111.082 462.92,111.915 460.5,111C 456.933,104.584 451.599,100.751 444.5,99.5C 442.9,99.5507 441.4,99.8841 440,100.5C 438.663,104.026 438.163,107.692 438.5,111.5C 443.093,112.582 446.093,110.915 447.5,106.5C 448.689,105.571 450.022,105.238 451.5,105.5C 450.927,112.177 450.26,118.843 449.5,125.5C 447.833,125.5 446.167,125.5 444.5,125.5C 444.688,120.019 442.021,117.019 436.5,116.5C 435.633,122.071 435.633,127.571 436.5,133C 446.27,134.744 454.437,131.91 461,124.5C 462,125.167 463,125.833 464,126.5C 462.004,130.813 459.671,135.146 457,139.5C 455.701,140.98 454.034,141.646 452,141.5C 440.513,139.669 429.013,138.002 417.5,136.5C 417.5,134.5 417.5,132.5 417.5,130.5C 422.677,130.477 424.844,127.81 424,122.5C 425.706,114.23 426.373,105.897 426,97.5C 424.989,96.6634 423.822,96.33 422.5,96.5C 422.5,94.5 422.5,92.5 422.5,90.5 Z"/></g>
<g><path style="opacity:1" fill="#f9fbfd" d="M 352.5,93.5 C 360.832,92.684 368.832,93.8507 376.5,97C 386.281,106.399 388.114,117.232 382,129.5C 377.029,134.902 370.863,138.069 363.5,139C 355.142,140.086 346.808,141.253 338.5,142.5C 338.5,140.5 338.5,138.5 338.5,136.5C 341.775,135.981 343.108,133.981 342.5,130.5C 341.473,122.479 340.307,114.479 339,106.5C 337.974,103.307 335.808,101.974 332.5,102.5C 332.5,100.5 332.5,98.5 332.5,96.5C 339.396,96.1413 346.062,95.1413 352.5,93.5 Z"/></g>
<g><path style="opacity:1" fill="#0e6db6" d="M 352.5,99.5 C 362.14,97.897 368.64,101.564 372,110.5C 372.667,115.5 372.667,120.5 372,125.5C 368.789,131.856 363.623,134.689 356.5,134C 356,133.5 355.5,133 355,132.5C 353.421,123.015 351.921,113.515 350.5,104C 350.519,102.167 351.185,100.667 352.5,99.5 Z"/></g>
<g><path style="opacity:1" fill="#f8fbfd" d="M 506.5,109.5 C 512.638,111.158 518.638,113.325 524.5,116C 527.448,117.01 528.114,118.843 526.5,121.5C 523.465,121.998 520.965,123.332 519,125.5C 515.222,133.388 511.722,141.388 508.5,149.5C 509.269,152.104 510.936,153.938 513.5,155C 516.5,155.667 519.5,155.667 522.5,155C 525.606,153.364 528.773,151.864 532,150.5C 534.251,151.063 535.251,152.397 535,154.5C 530.685,157.981 526.518,161.647 522.5,165.5C 511.17,160.833 500.17,155.666 489.5,150C 490.477,147.323 492.477,145.99 495.5,146C 501.166,137.332 505.5,127.998 508.5,118C 508.505,115.837 507.505,114.337 505.5,113.5C 506.246,112.264 506.579,110.93 506.5,109.5 Z"/></g>
<g><path style="opacity:1" fill="#f7fafc" d="M 275.5,116.5 C 276.552,116.351 277.552,116.517 278.5,117C 287.53,126.364 296.863,135.364 306.5,144C 308.5,144.333 310.5,144.667 312.5,145C 313.167,146.333 313.833,147.667 314.5,149C 308.122,152.352 301.622,155.519 295,158.5C 291.045,156.393 290.878,154.393 294.5,152.5C 295.614,151.277 295.781,149.944 295,148.5C 292.998,145.113 290.165,143.613 286.5,144C 283.618,145.608 280.618,146.941 277.5,148C 276.383,151.073 276.216,154.24 277,157.5C 279.069,158.264 281.236,158.764 283.5,159C 284.747,160.494 284.747,161.994 283.5,163.5C 278.396,166.563 273.062,168.73 267.5,170C 266.707,168.915 266.04,167.748 265.5,166.5C 266.861,164.972 268.028,163.305 269,161.5C 269.534,147.492 269.368,133.492 268.5,119.5C 271.241,119.293 273.574,118.293 275.5,116.5 Z"/></g>
<g><path style="opacity:1" fill="#086ab5" d="M 275.5,130.5 C 278.631,133.129 281.631,135.962 284.5,139C 281.691,140.741 278.691,141.908 275.5,142.5C 275.5,138.5 275.5,134.5 275.5,130.5 Z"/></g>
<g><path style="opacity:1" fill="#f8fafd" d="M 579.5,147.5 C 580.552,147.351 581.552,147.517 582.5,148C 589.667,153.833 596.833,159.667 604,165.5C 610.535,173.731 609.701,181.231 601.5,188C 592.667,189.935 585.334,187.268 579.5,180C 578.5,179.333 577.5,179.333 576.5,180C 574.291,181.873 572.458,184.04 571,186.5C 570.244,188.809 570.744,190.809 572.5,192.5C 571.5,193.833 570.5,195.167 569.5,196.5C 563.363,192.116 557.696,187.282 552.5,182C 553.501,178.664 555.501,177.831 558.5,179.5C 560.055,179.278 561.389,178.611 562.5,177.5C 569.141,170.698 574.808,163.198 579.5,155C 579.097,153.527 578.43,152.194 577.5,151C 578.305,149.887 578.972,148.721 579.5,147.5 Z"/></g>
<g><path style="opacity:1" fill="#f8fafd" d="M 382.5,153.5 C 476.099,151.052 550.265,187.386 605,262.5C 651.869,336.524 659.536,414.524 628,496.5C 591.285,577.874 529.118,627.374 441.5,645C 343.158,658.233 262.991,626.399 201,549.5C 153.84,482.746 140.84,409.746 162,330.5C 193.144,237.841 256.311,180.341 351.5,158C 361.932,156.153 372.266,154.653 382.5,153.5 Z"/></g>
<g><path style="opacity:1" fill="#f7fafc" d="M 200.5,163.5 C 204.504,164.664 205.504,167.164 203.5,171C 203.625,172.627 204.125,174.127 205,175.5C 210.619,181.907 216.119,188.407 221.5,195C 226.643,194.553 230.143,191.719 232,186.5C 232.499,181.845 232.666,177.179 232.5,172.5C 234.467,172.261 236.301,172.594 238,173.5C 240.07,178.687 241.07,184.021 241,189.5C 232,197.167 223,204.833 214,212.5C 212.647,211.315 211.48,209.981 210.5,208.5C 212.256,206.809 212.756,204.809 212,202.5C 206.207,195.039 200.041,187.872 193.5,181C 189.473,182.658 186.473,181.492 184.5,177.5C 190.175,173.154 195.508,168.488 200.5,163.5 Z"/></g>
<g><path style="opacity:1" fill="#0b6cb5" d="M 377.5,163.5 C 476.733,159.194 552.9,198.527 606,281.5C 645.377,354.936 647.71,429.603 613,505.5C 574.235,580.835 512.735,624.668 428.5,637C 345.036,645.168 275.203,618.335 219,556.5C 168.483,494.17 151.483,423.504 168,344.5C 189.334,266.997 236.834,212.164 310.5,180C 332.233,171.483 354.566,165.983 377.5,163.5 Z"/></g>
<g><path style="opacity:1" fill="#136db6" d="M 589.5,163.5 C 596.598,164.458 599.098,168.458 597,175.5C 595.38,177.726 593.214,179.06 590.5,179.5C 586.722,178.445 583.389,176.612 580.5,174C 583.336,170.333 586.336,166.833 589.5,163.5 Z"/></g>
<g><path style="opacity:1" fill="#fbfdfe" d="M 381.5,178.5 C 410.189,176.94 438.189,180.44 465.5,189C 471.979,195.461 476.812,202.961 480,211.5C 481.381,224.071 477.214,234.405 467.5,242.5C 435.786,217.981 400.119,202.147 360.5,195C 345.108,193.116 329.775,193.116 314.5,195C 336.14,186.173 358.473,180.673 381.5,178.5 Z"/></g>
<g><path style="opacity:1" fill="#fcfdfe" d="M 484.5,195.5 C 511.832,206.34 535.832,222.174 556.5,243C 541.5,255.167 526.5,267.333 511.5,279.5C 500.105,268.766 488.438,258.433 476.5,248.5C 491.934,232.755 494.6,215.089 484.5,195.5 Z"/></g>
<g><path style="opacity:1" fill="#fdfdfe" d="M 319.5,203.5 C 358.799,201.325 395.466,210.158 429.5,230C 439.549,236.018 449.215,242.518 458.5,249.5C 445.524,257.885 431.524,264.052 416.5,268C 389.756,274.749 362.756,280.249 335.5,284.5C 334.833,284.833 334.167,285.167 333.5,285.5C 334.816,288.384 335.816,291.384 336.5,294.5C 365.438,289.915 394.104,284.081 422.5,277C 438.494,272.177 453.494,265.343 467.5,256.5C 479.698,264.854 491.198,274.188 502,284.5C 502.711,286.367 502.211,287.867 500.5,289C 475.738,309.758 451.572,331.258 428,353.5C 429.332,356.48 430.999,359.48 433,362.5C 458.203,339.628 483.703,317.128 509.5,295C 510.5,294.333 511.5,294.333 512.5,295C 523.815,305.807 533.815,317.64 542.5,330.5C 527.9,346.353 517.4,364.687 511,385.5C 506.253,402.005 502.586,418.672 500,435.5C 503.334,433.958 506.834,432.958 510.5,432.5C 514.013,406.46 521.847,381.793 534,358.5C 538.258,351.74 543.091,345.407 548.5,339.5C 567.255,367.426 578.922,398.093 583.5,431.5C 587.354,431.841 590.854,433.174 594,435.5C 592.076,411.806 586.076,389.14 576,367.5C 570.462,355.587 564.295,344.087 557.5,333C 567.339,324.217 578.005,323.217 589.5,330C 603.035,341.897 613.535,356.064 621,372.5C 626.543,421.374 617.543,467.374 594,510.5C 593.667,509.167 593.333,507.833 593,506.5C 589.622,509.023 585.955,511.023 582,512.5C 580.923,519.218 579.59,525.885 578,532.5C 577.108,535.952 575.442,538.952 573,541.5C 528.302,594.529 471.136,621.696 401.5,623C 429.333,608.5 450.5,587.333 465,559.5C 474.116,543.115 481.449,526.115 487,508.5C 483.054,510.319 479.054,511.985 475,513.5C 465.592,538.997 452.592,562.33 436,583.5C 419.584,601.577 399.75,614.411 376.5,622C 323.145,616.405 277.645,594.572 240,556.5C 239.333,555.5 239.333,554.5 240,553.5C 250.984,541.682 262.151,530.015 273.5,518.5C 269.699,516.506 265.699,515.673 261.5,516C 251.697,526.804 241.53,537.304 231,547.5C 194.82,504.973 176.82,455.64 177,399.5C 183.052,382.382 192.386,367.382 205,354.5C 205.226,350.113 205.726,345.779 206.5,341.5C 205.998,340.479 205.332,340.312 204.5,341C 194.452,349.965 185.952,360.132 179,371.5C 189.008,307.166 220.175,255.666 272.5,217C 287.559,209.919 303.226,205.419 319.5,203.5 Z"/></g>
<g><path style="opacity:1" fill="#f8fafd" d="M 641.5,202.5 C 645.812,208.433 650.145,214.433 654.5,220.5C 652.312,224.122 649.646,224.455 646.5,221.5C 643.893,222.137 641.56,223.304 639.5,225C 636.994,227.549 637.16,230.049 640,232.5C 642.032,235.525 644.365,238.192 647,240.5C 650.186,239.236 652.852,237.236 655,234.5C 655.651,232.765 655.485,231.098 654.5,229.5C 655.833,228.5 657.167,227.5 658.5,226.5C 662.833,232.5 667.167,238.5 671.5,244.5C 670.564,245.974 669.23,246.974 667.5,247.5C 664.069,244.814 660.736,244.981 657.5,248C 651.089,252.955 644.589,257.789 638,262.5C 637.695,264.557 637.695,266.557 638,268.5C 636.915,269.293 635.748,269.96 634.5,270.5C 629.424,265.082 625.091,259.082 621.5,252.5C 622.833,251.5 624.167,250.5 625.5,249.5C 627.527,251.339 629.86,251.839 632.5,251C 635.418,249.291 638.252,247.458 641,245.5C 641.315,244.092 640.982,242.759 640,241.5C 637.089,238.01 634.422,234.344 632,230.5C 627.966,233.022 624.299,236.022 621,239.5C 622.494,242.85 621.494,245.184 618,246.5C 612.923,241.213 608.423,235.38 604.5,229C 606.796,225.602 609.129,225.269 611.5,228C 612.5,228.667 613.5,228.667 614.5,228C 622.519,222.99 630.186,217.49 637.5,211.5C 638.767,209.629 638.767,207.796 637.5,206C 638.731,204.595 640.064,203.429 641.5,202.5 Z"/></g>
<g><path style="opacity:1" fill="#f8fafc" d="M 157.5,207.5 C 162.385,208.271 163.885,210.937 162,215.5C 169.585,222.367 177.752,228.367 186.5,233.5C 188.104,233.061 189.604,232.394 191,231.5C 193.723,232.208 194.723,233.875 194,236.5C 190.024,241.977 185.858,247.31 181.5,252.5C 178.275,251.168 177.275,249.001 178.5,246C 178.138,244.775 177.638,243.609 177,242.5C 169.589,236.878 162.089,231.378 154.5,226C 152.097,225.37 150.263,226.203 149,228.5C 147.846,227.257 146.512,226.257 145,225.5C 144.333,224.833 144.333,224.167 145,223.5C 149.417,218.318 153.583,212.984 157.5,207.5 Z"/></g>
<g><path style="opacity:1" fill="#2272b9" d="M 274.5,246.5 C 276.011,247.958 277.011,249.791 277.5,252C 279.5,252.333 281.5,252.667 283.5,253C 281.651,254.093 279.984,255.426 278.5,257C 279.638,258.734 280.138,260.568 280,262.5C 278.323,261.484 276.657,260.484 275,259.5C 269.794,263.957 268.627,263.123 271.5,257C 270.201,255.674 268.868,254.34 267.5,253C 269.473,252.505 271.473,252.338 273.5,252.5C 273.517,250.435 273.85,248.435 274.5,246.5 Z"/></g>
<g><path style="opacity:1" fill="#fcfdfe" d="M 562.5,251.5 C 563.552,251.351 564.552,251.517 565.5,252C 588.229,277.403 604.063,306.57 613,339.5C 605.893,329.385 596.726,321.885 585.5,317C 579.235,315.516 572.902,315.182 566.5,316C 560.759,317.881 555.426,320.214 550.5,323C 541.289,310.116 530.955,298.116 519.5,287C 533.44,274.547 547.774,262.714 562.5,251.5 Z"/></g>
<g><path style="opacity:1" fill="#2574ba" d="M 250.5,252.5 C 251.931,253.78 252.598,255.447 252.5,257.5C 260.102,256.582 260.935,257.916 255,261.5C 255,263.5 255,265.5 255,267.5C 253.414,266.624 251.914,265.624 250.5,264.5C 249.167,265.5 247.833,266.5 246.5,267.5C 246.167,267 245.833,266.5 245.5,266C 247.168,262.513 246.168,260.013 242.5,258.5C 246.64,258.264 249.307,256.264 250.5,252.5 Z"/></g>
<g><path style="opacity:1" fill="#2273b9" d="M 297.5,252.5 C 299.185,253.184 300.185,254.517 300.5,256.5C 302.766,257.314 305.1,257.814 307.5,258C 305.91,259.046 304.41,260.213 303,261.5C 303,263.5 303,265.5 303,267.5C 301.414,266.624 299.914,265.624 298.5,264.5C 297.167,265.5 295.833,266.5 294.5,267.5C 294.245,265.657 294.078,263.657 294,261.5C 292.926,260.382 291.76,259.382 290.5,258.5C 292.5,257.833 294.5,257.167 296.5,256.5C 297.246,255.264 297.579,253.93 297.5,252.5 Z"/></g>
<g><path style="opacity:1" fill="#f8fafd" d="M 123.5,258.5 C 127.632,259.197 129.632,261.697 129.5,266C 138.274,270.387 147.274,274.221 156.5,277.5C 158.447,276.723 160.28,275.723 162,274.5C 163.621,274.725 164.788,275.558 165.5,277C 163,283.167 160.5,289.333 158,295.5C 156.293,296.138 154.46,296.138 152.5,295.5C 152.756,293.208 152.423,291.041 151.5,289C 147.359,286.442 143.025,285.275 138.5,285.5C 136.735,289.627 135.069,293.793 133.5,298C 133.645,298.772 133.978,299.439 134.5,300C 139.832,303.72 145.332,304.22 151,301.5C 152.395,301.78 153.562,302.447 154.5,303.5C 151.88,310.369 148.88,317.035 145.5,323.5C 142.24,322.145 140.573,319.645 140.5,316C 131.415,311.972 122.248,308.138 113,304.5C 111.566,304.93 110.399,305.764 109.5,307C 105.333,308.167 103.833,306.667 105,302.5C 107.742,297.023 109.908,291.356 111.5,285.5C 115.309,285.534 117.143,287.534 117,291.5C 120.046,294.279 123.546,295.779 127.5,296C 130.088,291.347 131.921,286.513 133,281.5C 129.521,279.006 125.687,278.173 121.5,279C 119.268,281.932 117.268,281.598 115.5,278C 118.32,271.531 120.987,265.031 123.5,258.5 Z"/></g>
<g><path style="opacity:1" fill="#91bfdf" d="M 231.5,273.5 C 229.5,274.167 227.5,274.833 225.5,275.5C 224.957,275.44 224.624,275.107 224.5,274.5C 226.743,273.526 229.076,273.192 231.5,273.5 Z"/></g>
<g><path style="opacity:1" fill="#2b75ba" d="M 225.5,275.5 C 227.5,274.833 229.5,274.167 231.5,273.5C 232.148,267.021 233.482,266.854 235.5,273C 241.606,272.989 242.439,274.489 238,277.5C 237.845,279.856 237.845,282.189 238,284.5C 236.883,282.876 235.383,281.876 233.5,281.5C 231.526,282.704 229.526,283.537 227.5,284C 230.794,280.068 230.127,277.235 225.5,275.5 Z"/></g>
<g><path style="opacity:1" fill="#1a6eb7" d="M 315.5,270.5 C 317.043,271.736 318.043,273.402 318.5,275.5C 320.078,276.298 321.744,276.798 323.5,277C 322.315,278.353 320.981,279.52 319.5,280.5C 320.548,282.456 321.048,284.456 321,286.5C 317.786,282.587 314.62,282.587 311.5,286.5C 311.167,286.167 310.833,285.833 310.5,285.5C 313.628,281.724 312.961,278.89 308.5,277C 310.473,276.505 312.473,276.338 314.5,276.5C 314.833,274.5 315.167,272.5 315.5,270.5 Z"/></g>
<g><path style="opacity:1" fill="#f8fafc" d="M 686.5,280.5 C 687.496,280.414 688.329,280.748 689,281.5C 691.309,288.095 693.809,294.595 696.5,301C 693.885,303.6 691.551,303.6 689.5,301C 679.303,301.952 669.636,304.952 660.5,310C 659.072,311.916 658.072,314.083 657.5,316.5C 656.109,317.645 654.776,317.645 653.5,316.5C 650.833,310.167 648.167,303.833 645.5,297.5C 648.115,294.75 650.448,294.916 652.5,298C 654.167,298.667 655.833,298.667 657.5,298C 666.178,294.886 674.678,291.386 683,287.5C 682.892,284.363 684.059,282.03 686.5,280.5 Z"/></g>
<g><path style="opacity:1" fill="#2b77bb" d="M 224.5,290.5 C 225.965,291.406 226.965,292.739 227.5,294.5C 229.766,295.314 232.1,295.814 234.5,296C 232.91,297.046 231.41,298.213 230,299.5C 230.218,301.587 230.051,303.587 229.5,305.5C 228.167,304.5 226.833,303.5 225.5,302.5C 224.167,303.5 222.833,304.5 221.5,305.5C 220.949,303.587 220.782,301.587 221,299.5C 215.065,295.916 215.898,294.582 223.5,295.5C 223.629,293.784 223.962,292.117 224.5,290.5 Z"/></g>
<g><path style="opacity:1" fill="#2374b9" d="M 322.5,293.5 C 324.213,294.635 324.88,296.302 324.5,298.5C 326.857,298.337 329.19,298.503 331.5,299C 329.415,300.041 327.748,301.541 326.5,303.5C 327.485,305.098 327.651,306.765 327,308.5C 323.847,304.848 320.847,305.181 318,309.5C 317.952,307.456 318.452,305.456 319.5,303.5C 317.874,302.01 316.208,300.51 314.5,299C 319.083,299.672 321.75,297.839 322.5,293.5 Z"/></g>
<g><path style="opacity:1" fill="#2a77bb" d="M 226.5,314.5 C 228.185,315.184 229.185,316.517 229.5,318.5C 231.766,319.314 234.1,319.814 236.5,320C 234.91,321.046 233.41,322.213 232,323.5C 232,325.5 232,327.5 232,329.5C 230.414,328.624 228.914,327.624 227.5,326.5C 226.167,327.5 224.833,328.5 223.5,329.5C 222.949,327.587 222.782,325.587 223,323.5C 221.926,322.382 220.76,321.382 219.5,320.5C 221.5,319.833 223.5,319.167 225.5,318.5C 226.246,317.264 226.579,315.93 226.5,314.5 Z"/></g>
<g><path style="opacity:1" fill="#2373b9" d="M 319.5,316.5 C 321.074,318.102 321.741,320.102 321.5,322.5C 323.857,322.337 326.19,322.503 328.5,323C 326.792,324.51 325.126,326.01 323.5,327.5C 326.289,333.364 325.122,334.031 320,329.5C 314.52,334.016 313.353,333.183 316.5,327C 309.558,323.052 310.225,321.552 318.5,322.5C 318.517,320.435 318.85,318.435 319.5,316.5 Z"/></g>
<g><path style="opacity:1" fill="#2072b9" d="M 306.5,336.5 C 307.931,337.78 308.598,339.447 308.5,341.5C 310.857,341.337 313.19,341.503 315.5,342C 313.415,343.041 311.748,344.541 310.5,346.5C 311.485,348.098 311.651,349.765 311,351.5C 308.215,347.587 305.382,347.587 302.5,351.5C 301.777,349.836 302.11,348.169 303.5,346.5C 301.684,345.185 300.017,343.685 298.5,342C 300.81,341.503 303.143,341.337 305.5,341.5C 305.366,339.708 305.699,338.042 306.5,336.5 Z"/></g>
<g><path style="opacity:1" fill="#2473b9" d="M 240.5,333.5 C 241.738,335.214 242.405,337.214 242.5,339.5C 244.527,339.338 246.527,339.505 248.5,340C 247.132,341.34 245.799,342.674 244.5,344C 245.547,345.578 245.547,347.078 244.5,348.5C 241.329,345.665 238.496,345.998 236,349.5C 236.155,347.189 236.155,344.856 236,342.5C 234.745,341.789 233.579,340.956 232.5,340C 237.333,340.357 240,338.19 240.5,333.5 Z"/></g>
<g><path style="opacity:1" fill="#f9fbfd" d="M 669.5,361.5 C 667.114,361.741 665.114,361.075 663.5,359.5C 663.24,353.828 662.907,348.161 662.5,342.5C 664.199,342.34 665.866,342.506 667.5,343C 668.5,345.333 670.167,347 672.5,348C 685.034,351.425 697.534,354.925 710,358.5C 710.256,361.557 710.756,364.557 711.5,367.5C 699.45,374.611 687.284,381.611 675,388.5C 673.991,390.025 673.491,391.692 673.5,393.5C 671.234,393.859 669.401,393.192 668,391.5C 666.969,384.848 666.135,378.181 665.5,371.5C 667.288,371.215 668.955,371.548 670.5,372.5C 670.833,374.167 671.833,375.167 673.5,375.5C 678.262,374.994 680.928,372.494 681.5,368C 681.163,364.477 680.663,360.977 680,357.5C 676.927,356.383 673.76,356.216 670.5,357C 669.62,358.356 669.286,359.856 669.5,361.5 Z"/></g>
<g><path style="opacity:1" fill="#f26285" d="M 213.5,342.5 C 213.178,364.575 213.511,386.575 214.5,408.5C 213.168,397.854 212.501,386.854 212.5,375.5C 212.5,364.328 212.833,353.328 213.5,342.5 Z"/></g>
<g><path style="opacity:1" fill="#ec1a4c" d="M 213.5,342.5 C 221.791,349.265 230.791,355.099 240.5,360C 267.663,371.31 293.997,369.643 319.5,355C 324.134,351.368 328.467,347.368 332.5,343C 333.635,342.251 334.635,342.417 335.5,343.5C 330.391,364.33 321.891,383.663 310,401.5C 303.667,411.167 297.333,420.833 291,430.5C 279.022,456.588 274.855,483.921 278.5,512.5C 271.311,510.161 263.977,508.327 256.5,507C 242.089,504.778 229.089,507.945 217.5,516.5C 216.339,512.205 216.172,507.871 217,503.5C 223.02,479.79 234.02,458.79 250,440.5C 257.135,432.364 264.635,424.53 272.5,417C 291.639,403.86 308.139,388.027 322,369.5C 323.187,367.956 323.52,366.289 323,364.5C 306.246,389.902 282.746,404.736 252.5,409C 239.815,409.708 227.148,409.541 214.5,408.5C 213.511,386.575 213.178,364.575 213.5,342.5 Z"/></g>
<g><path style="opacity:1" fill="#f8fbfd" d="M 92.5,388.5 C 91.791,387.596 90.791,387.263 89.5,387.5C 89.5,386.167 89.5,384.833 89.5,383.5C 90.0033,375.473 90.8366,367.473 92,359.5C 96.5847,345.318 104.918,342.651 117,351.5C 118.388,359 118.888,366.5 118.5,374C 122.167,374.667 125.833,374.667 129.5,374C 130.803,370.956 133.136,369.789 136.5,370.5C 135.907,377.841 135.24,385.174 134.5,392.5C 132.5,392.5 130.5,392.5 128.5,392.5C 129.035,389.762 128.035,387.928 125.5,387C 115.845,385.535 106.179,384.535 96.5,384C 95.4209,385.859 94.0876,387.359 92.5,388.5 Z"/></g>
<g><path style="opacity:1" fill="#046bb5" d="M 379.5,344.5 C 396.526,341.746 411.026,346.412 423,358.5C 430.785,369.475 431.451,380.809 425,392.5C 416.915,398.996 408.082,400.162 398.5,396C 395.238,393.408 392.738,390.241 391,386.5C 388.502,378.982 386.836,371.315 386,363.5C 382.621,361.077 379.121,360.91 375.5,363C 370.683,367.151 367.517,372.318 366,378.5C 362.737,391.984 361.404,405.651 362,419.5C 366.69,413.232 372.857,409.065 380.5,407C 408.002,403.834 425.168,415.668 432,442.5C 435.959,462.426 432.292,480.76 421,497.5C 406.391,512.62 388.558,518.787 367.5,516C 340.963,509.795 324.796,493.295 319,466.5C 313.166,439.657 314.833,413.324 324,387.5C 334.832,363.157 353.332,348.824 379.5,344.5 Z"/></g>
<g><path style="opacity:1" fill="#2174b9" d="M 260.5,346.5 C 262.185,347.184 263.185,348.517 263.5,350.5C 265.423,351.308 267.423,351.808 269.5,352C 267.878,353.295 266.545,354.795 265.5,356.5C 267.336,362.406 266.002,363.073 261.5,358.5C 260.167,359.5 258.833,360.5 257.5,361.5C 256.949,359.587 256.782,357.587 257,355.5C 255.59,354.213 254.09,353.046 252.5,352C 254.9,351.814 257.234,351.314 259.5,350.5C 260.246,349.264 260.579,347.93 260.5,346.5 Z"/></g>
<g><path style="opacity:1" fill="#1e71b8" d="M 285.5,346.5 C 287.074,348.102 287.741,350.102 287.5,352.5C 289.857,352.337 292.19,352.503 294.5,353C 292.651,354.093 290.984,355.426 289.5,357C 292.395,363.1 291.229,363.934 286,359.5C 280.878,364.031 279.711,363.364 282.5,357.5C 281.252,355.541 279.585,354.041 277.5,353C 279.81,352.503 282.143,352.337 284.5,352.5C 284.517,350.435 284.85,348.435 285.5,346.5 Z"/></g>
<g><path style="opacity:1" fill="#8cbadd" d="M 663.5,359.5 C 665.114,361.075 667.114,361.741 669.5,361.5C 667.735,362.461 665.735,362.795 663.5,362.5C 663.5,361.5 663.5,360.5 663.5,359.5 Z"/></g>
<g><path style="opacity:1" fill="#166eb7" d="M 686.5,359.5 C 690.936,360.026 695.27,361.026 699.5,362.5C 695.597,364.368 691.764,366.368 688,368.5C 687.047,365.568 686.547,362.568 686.5,359.5 Z"/></g>
<g><path style="opacity:1" fill="#126db6" d="M 101.5,358.5 C 110.981,358.333 114.648,362.999 112.5,372.5C 107.546,372.435 102.713,371.768 98,370.5C 96.593,365.599 97.7597,361.599 101.5,358.5 Z"/></g>
<g><path style="opacity:1" fill="#7ab0d8" d="M 89.5,383.5 C 89.5,384.833 89.5,386.167 89.5,387.5C 90.791,387.263 91.791,387.596 92.5,388.5C 91.1667,388.5 89.8333,388.5 88.5,388.5C 88.2155,386.585 88.5489,384.919 89.5,383.5 Z"/></g>
<g><path style="opacity:1" fill="#fafcfd" d="M 371.5,428.5 C 381.813,427.973 387.313,432.973 388,443.5C 388.862,457.204 388.528,470.871 387,484.5C 386.124,488.341 384.791,492.007 383,495.5C 376.96,501.103 371.293,500.769 366,494.5C 364.189,490.012 363.189,485.346 363,480.5C 362.173,467.466 362.507,454.466 364,441.5C 364.98,436.196 367.48,431.863 371.5,428.5 Z"/></g>
<g><path style="opacity:1" fill="#0c6cb5" d="M 461.5,436.5 C 483.343,436.009 495.01,446.676 496.5,468.5C 484.751,470.931 473.418,474.264 462.5,478.5C 466.37,492.109 474.37,495.276 486.5,488C 487.304,486.229 488.471,484.729 490,483.5C 492.735,485.732 494.902,488.399 496.5,491.5C 487.362,503.944 475.028,509.111 459.5,507C 443.573,501.685 435.573,490.519 435.5,473.5C 435.757,454.958 444.423,442.624 461.5,436.5 Z"/></g>
<g><path style="opacity:1" fill="#0d6cb6" d="M 532.5,504.5 C 520.833,504.5 509.167,504.5 497.5,504.5C 497.5,501.833 497.5,499.167 497.5,496.5C 498.791,496.737 499.791,496.404 500.5,495.5C 501.83,489.369 502.497,482.869 502.5,476C 502.333,469.5 502.167,463 502,456.5C 500.59,453.211 498.09,451.544 494.5,451.5C 494.187,448.753 494.52,446.086 495.5,443.5C 503.115,441.013 510.781,438.679 518.5,436.5C 519.442,436.608 520.275,436.941 521,437.5C 522.76,442.723 524.093,448.056 525,453.5C 526.381,446.552 529.881,441.052 535.5,437C 545.045,436.206 549.878,440.706 550,450.5C 558.823,439.003 570.323,434.836 584.5,438C 591.517,440.356 594.35,445.189 593,452.5C 592.167,454.667 590.667,456.167 588.5,457C 584.375,457.854 580.375,457.52 576.5,456C 574.308,453.147 572.142,450.314 570,447.5C 568.008,448.229 567.174,449.729 567.5,452C 567.354,454.034 568.02,455.701 569.5,457C 574.678,459.393 580.012,461.393 585.5,463C 595.42,468.693 598.92,477.193 596,488.5C 594.281,497.886 588.781,503.719 579.5,506C 569.071,508.751 559.071,507.751 549.5,503C 544.227,496.597 544.227,490.263 549.5,484C 554.84,482.466 559.34,483.633 563,487.5C 564.699,490.935 566.199,494.435 567.5,498C 572.288,499.436 575.621,497.936 577.5,493.5C 577.24,491.813 576.573,490.313 575.5,489C 569.531,486.016 563.531,483.016 557.5,480C 549.893,474.951 546.393,467.785 547,458.5C 542.364,462.154 537.364,462.487 532,459.5C 528.705,462.764 527.038,466.764 527,471.5C 526.5,479.493 526.334,487.493 526.5,495.5C 528.5,495.5 530.5,495.5 532.5,495.5C 532.5,498.5 532.5,501.5 532.5,504.5 Z"/></g>
<g><path style="opacity:1" fill="#f7fafc" d="M 464.5,446.5 C 469.092,445.916 471.925,447.916 473,452.5C 473.956,456.572 473.456,460.405 471.5,464C 468.291,465.092 465.124,466.259 462,467.5C 461.333,461.833 461.333,456.167 462,450.5C 462.662,449.016 463.496,447.683 464.5,446.5 Z"/></g>
<g><path style="opacity:1" fill="#f8fbfd" d="M 119.5,456.5 C 123.194,462.915 125.527,469.915 126.5,477.5C 133.841,477.334 141.174,477.5 148.5,478C 142.665,482.34 136.998,486.84 131.5,491.5C 133.599,497.296 135.599,503.129 137.5,509C 137.167,509.5 136.833,510 136.5,510.5C 131.126,506.622 125.626,502.955 120,499.5C 114.067,503.096 108.4,507.096 103,511.5C 104.671,504.489 106.338,497.489 108,490.5C 102.5,486.333 97,482.167 91.5,478C 98.8258,477.5 106.159,477.334 113.5,477.5C 115.791,470.585 117.791,463.585 119.5,456.5 Z"/></g>
<g><path style="opacity:1" fill="#f9fbfd" d="M 678.5,456.5 C 681.804,463.079 684.138,470.079 685.5,477.5C 692.841,477.334 700.174,477.5 707.5,478C 702,482.167 696.5,486.333 691,490.5C 692.667,497.5 694.333,504.5 696,511.5C 690.6,507.096 684.933,503.096 679,499.5C 673.067,503.096 667.4,507.096 662,511.5C 662.888,504.657 664.721,497.99 667.5,491.5C 662.002,486.84 656.335,482.34 650.5,478C 657.826,477.5 665.159,477.334 672.5,477.5C 674.092,470.39 676.092,463.39 678.5,456.5 Z"/></g>
<g><path style="opacity:1" fill="#076bb5" d="M 310.5,465.5 C 311.586,465.62 312.253,466.287 312.5,467.5C 313.659,470.785 314.159,474.118 314,477.5C 304.333,487.167 294.667,496.833 285,506.5C 284.333,501.5 284.333,496.5 285,491.5C 293.702,482.965 302.202,474.298 310.5,465.5 Z"/></g>
<g><path style="opacity:1" fill="#3789c4" d="M 500.5,495.5 C 499.791,496.404 498.791,496.737 497.5,496.5C 497.5,499.167 497.5,501.833 497.5,504.5C 509.167,504.5 520.833,504.5 532.5,504.5C 520.678,505.495 508.678,505.828 496.5,505.5C 496.5,502.167 496.5,498.833 496.5,495.5C 497.833,495.5 499.167,495.5 500.5,495.5 Z"/></g>
<g><path style="opacity:1" fill="#f6f9fc" d="M 605.5,572.5 C 608.988,578.624 611.321,585.291 612.5,592.5C 620.174,592.334 627.841,592.5 635.5,593C 629.107,597.192 623.107,601.859 617.5,607C 620.051,613.38 621.884,619.88 623,626.5C 617.411,622.622 611.911,618.622 606.5,614.5C 600.833,618.5 595.167,622.5 589.5,626.5C 589.167,626 588.833,625.5 588.5,625C 590.976,618.587 592.809,612.087 594,605.5C 588.431,600.965 582.597,596.799 576.5,593C 584.159,592.5 591.826,592.334 599.5,592.5C 601.297,585.774 603.297,579.108 605.5,572.5 Z"/></g>
<g><path style="opacity:1" fill="#f6fafc" d="M 199.5,572.5 C 203.365,578.42 205.699,585.086 206.5,592.5C 214.174,592.334 221.841,592.5 229.5,593C 223.469,597.676 217.469,602.342 211.5,607C 214.377,613.286 216.21,619.786 217,626.5C 211.64,622.307 206.14,618.307 200.5,614.5C 194.526,618.641 188.692,622.974 183,627.5C 184.871,620.219 186.537,612.886 188,605.5C 182.5,601.333 177,597.167 171.5,593C 178.856,592.831 186.189,592.331 193.5,591.5C 195.912,585.265 197.912,578.932 199.5,572.5 Z"/></g>
<g><path style="opacity:1" fill="#f8fafc" d="M 332.5,667.5 C 339.5,668.167 346.5,668.833 353.5,669.5C 347.711,673.449 342.044,677.616 336.5,682C 339.297,688.721 341.464,695.554 343,702.5C 337.256,698.045 331.423,693.711 325.5,689.5C 319.577,693.711 313.744,698.045 308,702.5C 309.976,695.259 311.643,687.926 313,680.5C 307.954,676.614 302.787,672.947 297.5,669.5C 304.5,668.833 311.5,668.167 318.5,667.5C 320.434,660.697 322.768,654.03 325.5,647.5C 328.264,654.131 330.598,660.798 332.5,667.5 Z"/></g>
<g><path style="opacity:1" fill="#f8fbfd" d="M 484.5,667.5 C 491.5,668.167 498.5,668.833 505.5,669.5C 500.213,672.947 495.046,676.614 490,680.5C 490.782,688.083 492.449,695.416 495,702.5C 489.256,698.045 483.423,693.711 477.5,689.5C 471.577,693.711 465.744,698.045 460,702.5C 461.53,695.571 463.697,688.737 466.5,682C 461.19,677.345 455.523,673.179 449.5,669.5C 456.5,668.833 463.5,668.167 470.5,667.5C 472.433,660.702 474.766,654.035 477.5,647.5C 480.253,654.097 482.587,660.763 484.5,667.5 Z"/></g>
<g><path style="opacity:1" fill="#8fbede" d="M 318.5,667.5 C 311.5,668.167 304.5,668.833 297.5,669.5C 296.957,669.44 296.624,669.107 296.5,668.5C 303.803,667.503 311.137,667.169 318.5,667.5 Z"/></g>
<g><path style="opacity:1" fill="#8ebdde" d="M 332.5,667.5 C 339.863,667.169 347.197,667.503 354.5,668.5C 354.376,669.107 354.043,669.44 353.5,669.5C 346.5,668.833 339.5,668.167 332.5,667.5 Z"/></g>
<g><path style="opacity:1" fill="#8ebdde" d="M 470.5,667.5 C 463.5,668.167 456.5,668.833 449.5,669.5C 448.957,669.44 448.624,669.107 448.5,668.5C 455.803,667.503 463.137,667.169 470.5,667.5 Z"/></g>
<g><path style="opacity:1" fill="#8ebdde" d="M 484.5,667.5 C 491.863,667.169 499.197,667.503 506.5,668.5C 506.376,669.107 506.043,669.44 505.5,669.5C 498.5,668.833 491.5,668.167 484.5,667.5 Z"/></g>
</svg>
