<?xml version="1.0" encoding="UTF-8"?>
<!DOCTYPE svg PUBLIC "-//W3C//DTD SVG 1.1//EN" "http://www.w3.org/Graphics/SVG/1.1/DTD/svg11.dtd">
<svg xmlns="http://www.w3.org/2000/svg" version="1.1" width="1200px" height="1200px" style="shape-rendering:geometricPrecision; text-rendering:geometricPrecision; image-rendering:optimizeQuality; fill-rule:evenodd; clip-rule:evenodd" xmlns:xlink="http://www.w3.org/1999/xlink">
<g><path style="opacity:0.944" fill="#fefdfb" d="M 440.5,672.5 C 334.802,726.766 229.302,781.432 124,836.5C 123.5,836.167 123,835.833 122.5,835.5C 221.691,759.808 321.025,684.308 420.5,609C 329.187,656.827 237.854,704.994 146.5,753.5C 146.167,753.167 145.833,752.833 145.5,752.5C 268.976,656.858 392.31,561.024 515.5,465C 488.752,462.614 462.086,459.781 435.5,456.5C 468.438,439.697 501.438,422.864 534.5,406C 505,388.418 475.667,370.584 446.5,352.5C 447.025,351.808 447.692,351.308 448.5,351C 501.242,339.814 553.909,328.314 606.5,316.5C 616.144,264.114 625.977,211.78 636,159.5C 688.887,186.942 741.554,214.608 794,242.5C 826.68,209.653 859.514,176.986 892.5,144.5C 910.901,186.98 929.068,229.647 947,272.5C 986.677,253.365 1026.51,235.365 1066.5,218.5C 1054.72,268.773 1042.72,318.94 1030.5,369C 1070.72,386.276 1111.05,403.276 1151.5,420C 1153.55,420.687 1155.22,421.854 1156.5,423.5C 1124.21,451.657 1091.87,479.823 1059.5,508C 1074.87,553.615 1089.54,599.448 1103.5,645.5C 1069.18,649.693 1035.01,654.693 1001,660.5C 974.793,739.62 948.293,818.62 921.5,897.5C 871.516,850.683 821.682,803.683 772,756.5C 746.914,770.627 721.747,784.627 696.5,798.5C 697.473,785.28 699.14,771.946 701.5,758.5C 701.167,757.833 700.833,757.167 700.5,756.5C 541.472,848.017 382.306,939.35 223,1030.5C 222.5,1030.17 222,1029.83 221.5,1029.5C 325.978,945.523 430.311,861.356 534.5,777C 370.263,865.627 206.263,955.127 42.5,1045.5C 41.479,1045 41.3123,1044.33 42,1043.5C 177.922,945.122 313.755,846.622 449.5,748C 333.537,808.485 217.87,869.818 102.5,932C 98.1667,934.167 93.8333,936.333 89.5,938.5C 89.1667,938.167 88.8333,937.833 88.5,937.5C 205.901,849.146 323.235,760.813 440.5,672.5 Z M 443.5,670.5 C 443.027,671.906 442.027,672.573 440.5,672.5C 440.973,671.094 441.973,670.427 443.5,670.5 Z"/></g>
<g><path style="opacity:1" fill="#fea103" d="M 562.5,596.5 C 564.138,595.343 565.804,594.176 567.5,593C 565.332,592.751 563.665,593.584 562.5,595.5C 459.239,648.464 356.239,701.964 253.5,756C 248.289,758.947 242.955,761.28 237.5,763C 340.167,685 442.833,607 545.5,529C 452.029,577.739 358.696,627.073 265.5,677C 263.598,678.301 261.598,678.968 259.5,679C 355.31,604.691 450.976,530.191 546.5,455.5C 523.455,453.784 500.455,451.617 477.5,449C 504.833,435 532.167,421 559.5,407C 532.001,390.751 504.667,374.251 477.5,357.5C 523.915,346.717 570.415,336.384 617,326.5C 626.009,276.8 635.175,227.133 644.5,177.5C 695.094,203.713 745.594,230.047 796,256.5C 826.974,226.36 857.807,196.027 888.5,165.5C 905.271,204.71 921.771,244.043 938,283.5C 938.523,285.223 939.523,286.556 941,287.5C 977.012,271.578 1012.85,255.244 1048.5,238.5C 1038.82,282.37 1028.65,326.37 1018,370.5C 1017.33,372.5 1017.33,374.5 1018,376.5C 1056.91,393.038 1095.74,409.704 1134.5,426.5C 1107.97,450.531 1080.97,474.031 1053.5,497C 1050.78,499.382 1048.45,502.049 1046.5,505C 1060.89,548.33 1074.56,591.83 1087.5,635.5C 1055.56,639.658 1023.73,644.325 992,649.5C 967.004,724.489 942.004,799.489 917,874.5C 916.586,874.957 916.086,875.291 915.5,875.5C 868.349,831.516 821.349,787.35 774.5,743C 773.5,742.333 772.5,742.333 771.5,743C 751.748,754.293 731.914,765.46 712,776.5C 712.792,762.451 714.292,748.451 716.5,734.5C 591.606,805.285 466.939,876.618 342.5,948.5C 443.085,866.247 544.419,784.08 646.5,702C 497.2,782.489 348.2,863.822 199.5,946C 198.241,946.982 196.908,947.315 195.5,947C 330.167,849.667 464.833,752.333 599.5,655C 600.696,654.346 600.696,653.846 599.5,653.5C 470.638,722.593 341.638,791.093 212.5,859C 329.327,771.668 445.993,684.168 562.5,596.5 Z M 443.5,670.5 C 443.027,671.906 442.027,672.573 440.5,672.5C 440.973,671.094 441.973,670.427 443.5,670.5 Z"/></g>
<g><path style="opacity:1" fill="#ed7c06" d="M 791.5,268.5 C 800.5,267.167 809.5,267.167 818.5,268.5C 816.265,268.205 814.265,268.539 812.5,269.5C 805.557,268.573 798.557,268.24 791.5,268.5 Z"/></g>
<g><path style="opacity:1" fill="#fb5e10" d="M 791.5,268.5 C 798.557,268.24 805.557,268.573 812.5,269.5C 847.042,284.191 876.375,306.024 900.5,335C 889.365,334.457 878.365,332.79 867.5,330C 843.7,323.8 820.033,317.133 796.5,310C 762.135,300.496 727.135,296.329 691.5,297.5C 722.32,279.528 755.653,269.861 791.5,268.5 Z"/></g>
<g><path style="opacity:1" fill="#04111b" d="M 812.5,269.5 C 814.265,268.539 816.265,268.205 818.5,268.5C 835.444,269.991 852.111,272.991 868.5,277.5C 890.011,293.845 908.677,313.011 924.5,335C 935.214,334.377 944.548,330.544 952.5,323.5C 957.167,327.5 961.5,331.833 965.5,336.5C 957.344,344.077 947.677,348.743 936.5,350.5C 943.868,364.738 950.868,379.238 957.5,394C 975.218,395.438 992.885,397.272 1010.5,399.5C 1013.11,405.048 1015.44,410.715 1017.5,416.5C 1001.51,414.834 985.508,413.167 969.5,411.5C 967.5,411.833 965.5,412.167 963.5,412.5C 967.459,426.336 970.792,440.336 973.5,454.5C 994.25,456.43 1013.25,463.096 1030.5,474.5C 1031.49,482.316 1031.83,490.316 1031.5,498.5C 1016.06,483.116 997.393,474.783 975.5,473.5C 980.538,551.708 958.538,621.042 909.5,681.5C 899.5,692.167 889.167,702.5 878.5,712.5C 862.483,717.57 846.15,721.237 829.5,723.5C 828.448,723.649 827.448,723.483 826.5,723C 842.403,714.912 856.736,704.746 869.5,692.5C 901.742,664.722 925.242,630.722 940,590.5C 953.775,552.636 958.941,513.636 955.5,473.5C 945.652,471.968 935.985,472.801 926.5,476C 910.82,480.508 896.153,487.174 882.5,496C 871.988,503.423 861.655,511.09 851.5,519C 819.426,548.411 786.759,577.078 753.5,605C 735.289,618.597 716.622,631.43 697.5,643.5C 682.008,651.912 666.008,659.245 649.5,665.5C 640.735,658.073 633.068,649.739 626.5,640.5C 643.096,635.86 659.096,629.86 674.5,622.5C 700.068,612.077 724.068,598.911 746.5,583C 760.119,573.049 773.452,562.716 786.5,552C 804.167,536.333 821.833,520.667 839.5,505C 857.843,489.822 877.843,477.155 899.5,467C 914.82,460.337 930.82,456.503 947.5,455.5C 949.5,455.5 951.5,455.5 953.5,455.5C 953.768,453.901 953.434,452.568 952.5,451.5C 950.427,437.207 947.093,423.207 942.5,409.5C 860.248,406.319 780.915,419.819 704.5,450C 671.796,463.663 642.129,481.829 615.5,504.5C 602.056,516.107 590.222,529.107 580,543.5C 579.768,542.263 579.268,541.263 578.5,540.5C 577.354,531.852 576.354,523.186 575.5,514.5C 575.334,510.486 575.501,506.486 576,502.5C 587.515,490.469 600.015,479.803 613.5,470.5C 672.426,432.574 736.759,408.741 806.5,399C 829.028,395.434 851.695,393.267 874.5,392.5C 894.5,392.5 914.5,392.5 934.5,392.5C 934.737,391.209 934.404,390.209 933.5,389.5C 928.462,377.088 922.129,365.422 914.5,354.5C 899.746,352.94 885.079,350.773 870.5,348C 837.866,339.338 805.2,330.671 772.5,322C 731.77,315.14 692.103,318.973 653.5,333.5C 648.089,335.303 642.756,337.303 637.5,339.5C 653.32,322.603 671.32,308.603 691.5,297.5C 727.135,296.329 762.135,300.496 796.5,310C 820.033,317.133 843.7,323.8 867.5,330C 878.365,332.79 889.365,334.457 900.5,335C 876.375,306.024 847.042,284.191 812.5,269.5 Z"/></g>
<g><path style="opacity:1" fill="#fb5e10" d="M 868.5,277.5 C 900.124,286.637 928.124,301.97 952.5,323.5C 944.548,330.544 935.214,334.377 924.5,335C 908.677,313.011 890.011,293.845 868.5,277.5 Z"/></g>
<g><path style="opacity:1" fill="#fe5e10" d="M 933.5,389.5 C 914.021,391.163 894.355,392.163 874.5,392.5C 851.695,393.267 829.028,395.434 806.5,399C 736.759,408.741 672.426,432.574 613.5,470.5C 611.705,420.511 625.039,374.844 653.5,333.5C 692.103,318.973 731.77,315.14 772.5,322C 805.2,330.671 837.866,339.338 870.5,348C 885.079,350.773 899.746,352.94 914.5,354.5C 922.129,365.422 928.462,377.088 933.5,389.5 Z"/></g>
<g><path style="opacity:1" fill="#d15900" d="M 653.5,333.5 C 625.039,374.844 611.705,420.511 613.5,470.5C 600.015,479.803 587.515,490.469 576,502.5C 575.501,506.486 575.334,510.486 575.5,514.5C 570.755,447.064 591.421,388.731 637.5,339.5C 642.756,337.303 648.089,335.303 653.5,333.5 Z"/></g>
<g><path style="opacity:1" fill="#fc5e10" d="M 965.5,336.5 C 984.625,354.363 999.625,375.363 1010.5,399.5C 992.885,397.272 975.218,395.438 957.5,394C 950.868,379.238 943.868,364.738 936.5,350.5C 947.677,348.743 957.344,344.077 965.5,336.5 Z"/></g>
<g><path style="opacity:1" fill="#853a16" d="M 933.5,389.5 C 934.404,390.209 934.737,391.209 934.5,392.5C 914.5,392.5 894.5,392.5 874.5,392.5C 894.355,392.163 914.021,391.163 933.5,389.5 Z"/></g>
<g><path style="opacity:1" fill="#fd5e10" d="M 952.5,451.5 C 952.5,452.5 952.5,453.5 952.5,454.5C 950.585,454.216 948.919,454.549 947.5,455.5C 930.82,456.503 914.82,460.337 899.5,467C 877.843,477.155 857.843,489.822 839.5,505C 821.833,520.667 804.167,536.333 786.5,552C 773.452,562.716 760.119,573.049 746.5,583C 724.068,598.911 700.068,612.077 674.5,622.5C 643.189,589.211 623.522,549.878 615.5,504.5C 642.129,481.829 671.796,463.663 704.5,450C 780.915,419.819 860.248,406.319 942.5,409.5C 947.093,423.207 950.427,437.207 952.5,451.5 Z"/></g>
<g><path style="opacity:1" fill="#fc5e10" d="M 1017.5,416.5 C 1025.03,434.999 1029.37,454.333 1030.5,474.5C 1013.25,463.096 994.25,456.43 973.5,454.5C 970.792,440.336 967.459,426.336 963.5,412.5C 965.5,412.167 967.5,411.833 969.5,411.5C 985.508,413.167 1001.51,414.834 1017.5,416.5 Z"/></g>
<g><path style="opacity:1" fill="#8f3d15" d="M 952.5,451.5 C 953.434,452.568 953.768,453.901 953.5,455.5C 951.5,455.5 949.5,455.5 947.5,455.5C 948.919,454.549 950.585,454.216 952.5,454.5C 952.5,453.5 952.5,452.5 952.5,451.5 Z"/></g>
<g><path style="opacity:1" fill="#fe5e10" d="M 869.5,692.5 C 805.22,699.44 747.887,683.106 697.5,643.5C 716.622,631.43 735.289,618.597 753.5,605C 786.759,577.078 819.426,548.411 851.5,519C 861.655,511.09 871.988,503.423 882.5,496C 896.153,487.174 910.82,480.508 926.5,476C 935.985,472.801 945.652,471.968 955.5,473.5C 958.941,513.636 953.775,552.636 940,590.5C 925.242,630.722 901.742,664.722 869.5,692.5 Z"/></g>
<g><path style="opacity:1" fill="#fd5e10" d="M 1031.5,498.5 C 1030.52,560.485 1008.52,613.485 965.5,657.5C 948.463,668.099 930.296,676.432 911,682.5C 910.235,682.43 909.735,682.097 909.5,681.5C 958.538,621.042 980.538,551.708 975.5,473.5C 997.393,474.783 1016.06,483.116 1031.5,498.5 Z"/></g>
<g><path style="opacity:1" fill="#d25900" d="M 615.5,504.5 C 623.522,549.878 643.189,589.211 674.5,622.5C 659.096,629.86 643.096,635.86 626.5,640.5C 613.531,625.931 603.031,609.597 595,591.5C 587.982,574.946 582.482,557.946 578.5,540.5C 579.268,541.263 579.768,542.263 580,543.5C 590.222,529.107 602.056,516.107 615.5,504.5 Z"/></g>
<g><path style="opacity:1" fill="#ffda9e" d="M 562.5,596.5 C 562.5,596.167 562.5,595.833 562.5,595.5C 563.665,593.584 565.332,592.751 567.5,593C 565.804,594.176 564.138,595.343 562.5,596.5 Z"/></g>
<g><path style="opacity:1" fill="#d25900" d="M 697.5,643.5 C 747.887,683.106 805.22,699.44 869.5,692.5C 856.736,704.746 842.403,714.912 826.5,723C 827.448,723.483 828.448,723.649 829.5,723.5C 768.204,730.176 712.871,715.009 663.5,678C 658.639,673.968 653.972,669.801 649.5,665.5C 666.008,659.245 682.008,651.912 697.5,643.5 Z"/></g>
<g><path style="opacity:1" fill="#d35900" d="M 965.5,657.5 C 940.97,682.615 911.97,700.948 878.5,712.5C 889.167,702.5 899.5,692.167 909.5,681.5C 909.735,682.097 910.235,682.43 911,682.5C 930.296,676.432 948.463,668.099 965.5,657.5 Z"/></g>
</svg>
