<?xml version="1.0" encoding="UTF-8"?>
<!DOCTYPE svg PUBLIC "-//W3C//DTD SVG 1.1//EN" "http://www.w3.org/Graphics/SVG/1.1/DTD/svg11.dtd">
<svg xmlns="http://www.w3.org/2000/svg" version="1.1" width="1200px" height="1200px" style="shape-rendering:geometricPrecision; text-rendering:geometricPrecision; image-rendering:optimizeQuality; fill-rule:evenodd; clip-rule:evenodd" xmlns:xlink="http://www.w3.org/1999/xlink">
<g><path style="opacity:0.967" fill="#fcfcfc" d="M 647.5,263.5 C 790.502,263.167 933.502,263.5 1076.5,264.5C 1059.76,283.301 1048.26,304.968 1042,329.5C 1031.03,349.405 1024.7,370.738 1023,393.5C 1005.67,415.498 995.508,440.498 992.5,468.5C 905.996,468.089 819.496,467.422 733,466.5C 707.865,468.067 682.698,468.901 657.5,469C 650.786,469.262 644.453,470.928 638.5,474C 614.101,526.968 589.268,579.802 564,632.5C 548.056,666.721 534.056,701.721 522,737.5C 520.143,751.349 519.476,765.015 520,778.5C 504.307,799.234 494.64,822.567 491,848.5C 478.02,865.801 469.353,885.135 465,906.5C 459.268,915.239 453.935,924.239 449,933.5C 446.649,936.433 445.649,936.099 446,932.5C 455.34,911.505 464.34,890.505 473,869.5C 426.231,921.548 367.731,945.048 297.5,940C 220.354,929.049 165.188,888.549 132,818.5C 103.471,745.388 112.471,677.388 159,614.5C 213.24,551.749 281.407,527.916 363.5,543C 412.934,554.785 452.767,580.951 483,621.5C 490.689,613.466 496.356,604.133 500,593.5C 549.083,483.4 598.25,373.4 647.5,263.5 Z"/></g>
<g><path style="opacity:1" fill="#9099a6" d="M 656.5,276.5 C 789.667,275.167 923.001,275.167 1056.5,276.5C 1056.38,277.107 1056.04,277.44 1055.5,277.5C 922.668,276.5 789.668,276.167 656.5,276.5 Z"/></g>
<g><path style="opacity:1" fill="#001332" d="M 656.5,276.5 C 789.668,276.167 922.668,276.5 1055.5,277.5C 922.195,277.503 789.195,277.503 656.5,277.5C 656.5,277.167 656.5,276.833 656.5,276.5 Z"/></g>
<g><path style="opacity:1" fill="#0c2340" d="M 656.5,277.5 C 789.195,277.503 922.195,277.503 1055.5,277.5C 1030.87,336.407 1005.87,395.074 980.5,453.5C 980.565,453.062 980.399,452.728 980,452.5C 865.899,453.1 769.065,453.766 689.5,454.5C 677.007,455.331 664.34,455.831 651.5,456C 639.161,456.748 629.661,462.248 623,472.5C 614.861,491.916 606.528,511.249 598,530.5C 577.727,572.712 557.727,615.046 538,657.5C 527.336,681.829 517.503,706.496 508.5,731.5C 468.506,732.5 428.506,732.833 388.5,732.5C 392.629,681.743 413.629,639.577 451.5,606C 452.167,605.333 452.833,605.333 453.5,606C 468.781,621.05 479.614,638.883 486,659.5C 541.511,531.486 598.344,404.153 656.5,277.5 Z"/></g>
<g><path style="opacity:1" fill="#021937" d="M 980.5,453.5 C 883.668,454.499 786.668,454.833 689.5,454.5C 769.065,453.766 865.899,453.1 980,452.5C 980.399,452.728 980.565,453.062 980.5,453.5 Z"/></g>
<g><path style="opacity:0.786" fill="#fefffe" d="M 640.5,487.5 C 645.875,487.172 651.208,487.505 656.5,488.5C 648.805,493.683 641.472,499.349 634.5,505.5C 634.167,505.167 633.833,504.833 633.5,504.5C 636.122,498.926 638.456,493.259 640.5,487.5 Z"/></g>
<g><path style="opacity:1" fill="#f9a01c" d="M 299.5,551.5 C 302.833,551.5 306.167,551.5 309.5,551.5C 309.5,611.833 309.5,672.167 309.5,732.5C 293.833,732.5 278.167,732.5 262.5,732.5C 259.739,677.649 237.739,632.316 196.5,596.5C 226.098,570.849 260.432,555.849 299.5,551.5 Z"/></g>
<g><path style="opacity:1" fill="#00471b" d="M 333.5,552.5 C 365.583,554.472 395.249,563.972 422.5,581C 429.088,585.124 435.088,589.958 440.5,595.5C 399.21,631.749 376.877,677.415 373.5,732.5C 357.833,732.5 342.167,732.5 326.5,732.5C 326.5,672.5 326.5,612.5 326.5,552.5C 328.833,552.5 331.167,552.5 333.5,552.5 Z"/></g>
<g><path style="opacity:1" fill="#16532a" d="M 333.5,552.5 C 331.167,552.5 328.833,552.5 326.5,552.5C 326.5,612.5 326.5,672.5 326.5,732.5C 325.501,672.336 325.168,612.002 325.5,551.5C 328.385,551.194 331.052,551.527 333.5,552.5 Z"/></g>
<g><path style="opacity:1" fill="#0c2340" d="M 186.5,605.5 C 225.559,638.616 246.892,680.949 250.5,732.5C 210.5,732.5 170.5,732.5 130.5,732.5C 132.602,682.649 151.269,640.315 186.5,605.5 Z"/></g>
<g><path style="opacity:1" fill="#6e947b" d="M 325.5,749.5 C 341.325,748.504 357.325,748.17 373.5,748.5C 373.5,751.833 373.5,755.167 373.5,758.5C 372.523,755.713 372.19,752.713 372.5,749.5C 356.833,749.5 341.167,749.5 325.5,749.5 Z"/></g>
<g><path style="opacity:1" fill="#405268" d="M 507.5,754.5 C 507.5,753.167 507.5,751.833 507.5,750.5C 468.167,750.5 428.833,750.5 389.5,750.5C 389.5,751.833 389.5,753.167 389.5,754.5C 388.549,753.081 388.216,751.415 388.5,749.5C 428.5,749.5 468.5,749.5 508.5,749.5C 508.784,751.415 508.451,753.081 507.5,754.5 Z"/></g>
<g><path style="opacity:1" fill="#f9a01b" d="M 308.5,926.5 C 267.799,924.133 231.799,910.133 200.5,884.5C 238.323,849.515 258.99,806.182 262.5,754.5C 263.451,753.081 263.784,751.415 263.5,749.5C 278.5,749.5 293.5,749.5 308.5,749.5C 308.5,808.5 308.5,867.5 308.5,926.5 Z"/></g>
<g><path style="opacity:1" fill="#01471b" d="M 325.5,749.5 C 341.167,749.5 356.833,749.5 372.5,749.5C 372.19,752.713 372.523,755.713 373.5,758.5C 373.5,759.5 373.5,760.5 373.5,761.5C 373.708,763.92 373.374,766.253 372.5,768.5C 373.696,770.145 374.696,771.811 375.5,773.5C 383.34,817.862 403.673,855.195 436.5,885.5C 422.288,897.782 406.288,907.282 388.5,914C 368.151,921.504 347.151,925.671 325.5,926.5C 325.5,867.5 325.5,808.5 325.5,749.5 Z"/></g>
<g><path style="opacity:1" fill="#0c2340" d="M 131.5,749.5 C 171.167,749.5 210.833,749.5 250.5,749.5C 246.623,799.579 226.457,841.579 190,875.5C 153.549,841.586 134.049,799.586 131.5,749.5 Z"/></g>
<g><path style="opacity:1" fill="#0c2340" d="M 507.5,754.5 C 503.481,802.532 483.981,842.866 449,875.5C 423.357,853.25 406.023,825.583 397,792.5C 393.225,780.071 390.725,767.404 389.5,754.5C 389.5,753.167 389.5,751.833 389.5,750.5C 428.833,750.5 468.167,750.5 507.5,750.5C 507.5,751.833 507.5,753.167 507.5,754.5 Z"/></g>
<g><path style="opacity:1" fill="#406e4b" d="M 373.5,761.5 C 374.482,765.316 375.149,769.316 375.5,773.5C 374.696,771.811 373.696,770.145 372.5,768.5C 373.374,766.253 373.708,763.92 373.5,761.5 Z"/></g>
<g><path style="opacity:1" fill="#fab349" d="M 308.5,926.5 C 308.5,867.5 308.5,808.5 308.5,749.5C 293.5,749.5 278.5,749.5 263.5,749.5C 263.784,751.415 263.451,753.081 262.5,754.5C 262.5,752.5 262.5,750.5 262.5,748.5C 278.167,748.5 293.833,748.5 309.5,748.5C 309.832,808.002 309.499,867.336 308.5,926.5 Z"/></g>
</svg>
