<?xml version="1.0" encoding="UTF-8"?>
<!DOCTYPE svg PUBLIC "-//W3C//DTD SVG 1.1//EN" "http://www.w3.org/Graphics/SVG/1.1/DTD/svg11.dtd">
<svg xmlns="http://www.w3.org/2000/svg" version="1.1" width="900px" height="900px" style="shape-rendering:geometricPrecision; text-rendering:geometricPrecision; image-rendering:optimizeQuality; fill-rule:evenodd; clip-rule:evenodd" xmlns:xlink="http://www.w3.org/1999/xlink">
<g><path style="opacity:1" fill="#b3b3b3" d="M 469.5,80.5 C 481.437,80.6777 493.103,82.011 504.5,84.5C 492.628,83.7369 480.961,82.4035 469.5,80.5 Z"/></g>
<g><path style="opacity:1" fill="#050505" d="M 426.5,80.5 C 440.833,80.5 455.167,80.5 469.5,80.5C 480.961,82.4035 492.628,83.7369 504.5,84.5C 504.833,84.5 505.167,84.5 505.5,84.5C 510.525,86.5036 515.858,87.5036 521.5,87.5C 529.84,88.585 537.84,90.585 545.5,93.5C 549.903,95.4078 554.57,96.7411 559.5,97.5C 561.786,97.595 563.786,98.2616 565.5,99.5C 567.102,101.074 569.102,101.741 571.5,101.5C 572.609,101.557 573.609,101.89 574.5,102.5C 575.78,103.931 577.447,104.598 579.5,104.5C 592.04,108.773 604.04,114.107 615.5,120.5C 616.659,122.25 618.326,123.25 620.5,123.5C 620.833,123.5 621.167,123.5 621.5,123.5C 621.821,125.048 622.821,125.715 624.5,125.5C 626.153,125.66 627.486,126.326 628.5,127.5C 628.821,129.048 629.821,129.715 631.5,129.5C 633.153,129.66 634.486,130.326 635.5,131.5C 635.821,133.048 636.821,133.715 638.5,133.5C 640.368,134.263 642.035,135.263 643.5,136.5C 643.821,138.048 644.821,138.715 646.5,138.5C 647.71,138.932 648.71,139.599 649.5,140.5C 649.821,142.048 650.821,142.715 652.5,142.5C 653.035,144.446 654.368,145.446 656.5,145.5C 663.76,150.087 670.76,155.087 677.5,160.5C 677.5,161.833 678.167,162.5 679.5,162.5C 680.5,162.833 681.167,163.5 681.5,164.5C 681.973,165.906 682.973,166.573 684.5,166.5C 690.129,170.794 695.463,175.461 700.5,180.5C 704.773,186.442 709.773,191.776 715.5,196.5C 717.5,197.833 719.167,199.5 720.5,201.5C 721.08,203.749 722.413,205.415 724.5,206.5C 725.833,207.167 726.833,208.167 727.5,209.5C 728.08,211.749 729.413,213.415 731.5,214.5C 732.08,216.749 733.413,218.415 735.5,219.5C 735.738,221.404 736.738,222.738 738.5,223.5C 739.08,225.749 740.413,227.415 742.5,228.5C 742.427,230.027 743.094,231.027 744.5,231.5C 745.167,231.5 745.5,231.833 745.5,232.5C 745.427,234.027 746.094,235.027 747.5,235.5C 747.427,237.027 748.094,238.027 749.5,238.5C 750.906,238.973 751.573,239.973 751.5,241.5C 751.738,243.404 752.738,244.738 754.5,245.5C 754.427,247.027 755.094,248.027 756.5,248.5C 757.338,248.842 757.672,249.508 757.5,250.5C 757.427,252.027 758.094,253.027 759.5,253.5C 760.89,254.899 761.89,256.566 762.5,258.5C 762.427,260.027 763.094,261.027 764.5,261.5C 765.674,262.514 766.34,263.847 766.5,265.5C 766.427,267.027 767.094,268.027 768.5,268.5C 769.674,269.514 770.34,270.847 770.5,272.5C 770.427,274.027 771.094,275.027 772.5,275.5C 775.69,280.547 778.357,285.88 780.5,291.5C 780.229,293.38 780.896,294.713 782.5,295.5C 783.441,297.05 784.107,298.716 784.5,300.5C 784.402,302.553 785.069,304.22 786.5,305.5C 789.6,311.12 791.933,317.12 793.5,323.5C 793.12,325.698 793.787,327.365 795.5,328.5C 796.434,329.568 796.768,330.901 796.5,332.5C 797.194,337.915 798.86,342.915 801.5,347.5C 802.301,349.042 802.634,350.708 802.5,352.5C 802.59,356.214 803.59,359.548 805.5,362.5C 806.482,365.763 807.149,369.097 807.5,372.5C 807.294,375.495 807.96,378.162 809.5,380.5C 811.482,389.729 812.816,399.062 813.5,408.5C 813.337,415.062 814.004,421.395 815.5,427.5C 815.5,442.5 815.5,457.5 815.5,472.5C 814.054,478.274 813.388,484.274 813.5,490.5C 812.527,492.948 812.194,495.615 812.5,498.5C 811.205,502.267 810.539,506.267 810.5,510.5C 810.802,513.059 810.468,515.393 809.5,517.5C 807.754,521.889 806.754,526.556 806.5,531.5C 806.324,534.727 805.657,537.727 804.5,540.5C 802.723,543.505 801.723,546.838 801.5,550.5C 801.768,552.099 801.434,553.432 800.5,554.5C 798.928,557.215 797.928,560.215 797.5,563.5C 797.279,566.067 796.612,568.401 795.5,570.5C 794.069,571.78 793.402,573.447 793.5,575.5C 787.02,594.786 778.686,613.119 768.5,630.5C 767.094,630.973 766.427,631.973 766.5,633.5C 766.34,635.153 765.674,636.486 764.5,637.5C 763.094,637.973 762.427,638.973 762.5,640.5C 758.678,646.806 754.845,653.139 751,659.5C 745.683,667.309 739.85,674.642 733.5,681.5C 732.094,681.973 731.427,682.973 731.5,684.5C 719.848,699.152 706.848,712.485 692.5,724.5C 691.5,724.833 690.833,725.5 690.5,726.5C 689.415,728.587 687.749,729.92 685.5,730.5C 684.5,730.833 683.833,731.5 683.5,732.5C 655.438,756.547 624.104,775.547 589.5,789.5C 587.447,789.402 585.78,790.069 584.5,791.5C 583.791,792.404 582.791,792.737 581.5,792.5C 579.447,792.402 577.78,793.069 576.5,794.5C 573.785,796.072 570.785,797.072 567.5,797.5C 564.215,797.928 561.215,798.928 558.5,800.5C 557.791,801.404 556.791,801.737 555.5,801.5C 552.848,801.41 550.515,802.076 548.5,803.5C 545.848,803.41 543.515,804.076 541.5,805.5C 541.167,805.5 540.833,805.5 540.5,805.5C 536.521,805.742 532.854,806.742 529.5,808.5C 526.171,808.215 523.171,808.882 520.5,810.5C 518.621,811.341 516.621,811.675 514.5,811.5C 507.264,811.765 500.264,812.765 493.5,814.5C 491.052,815.473 488.385,815.806 485.5,815.5C 483.5,815.5 481.5,815.5 479.5,815.5C 475.988,814.945 472.988,815.612 470.5,817.5C 456.167,817.5 441.833,817.5 427.5,817.5C 422.71,816.275 417.71,815.608 412.5,815.5C 397.782,814.769 383.448,812.435 369.5,808.5C 365.8,806.719 361.8,805.719 357.5,805.5C 352.1,803.259 346.433,801.592 340.5,800.5C 338.901,800.768 337.568,800.434 336.5,799.5C 334.898,797.926 332.898,797.259 330.5,797.5C 329.391,797.443 328.391,797.11 327.5,796.5C 326.365,794.787 324.698,794.12 322.5,794.5C 314.654,792.571 307.321,789.571 300.5,785.5C 298.815,783.182 296.481,782.182 293.5,782.5C 287.182,780.008 281.182,777.008 275.5,773.5C 275.027,772.094 274.027,771.427 272.5,771.5C 269.24,770.226 266.24,768.56 263.5,766.5C 263.027,765.094 262.027,764.427 260.5,764.5C 259.508,764.672 258.842,764.338 258.5,763.5C 258.027,762.094 257.027,761.427 255.5,761.5C 255.027,760.094 254.027,759.427 252.5,759.5C 251.508,759.672 250.842,759.338 250.5,758.5C 249.738,756.738 248.404,755.738 246.5,755.5C 245.508,755.672 244.842,755.338 244.5,754.5C 243.738,752.738 242.404,751.738 240.5,751.5C 240.027,750.094 239.027,749.427 237.5,749.5C 236.738,747.738 235.404,746.738 233.5,746.5C 233.027,745.094 232.027,744.427 230.5,744.5C 230.027,743.094 229.027,742.427 227.5,742.5C 226.5,742.167 225.833,741.5 225.5,740.5C 224.738,738.738 223.404,737.738 221.5,737.5C 220.415,735.413 218.749,734.08 216.5,733.5C 215.089,731.086 213.089,729.419 210.5,728.5C 209.738,726.738 208.404,725.738 206.5,725.5C 203.167,722.833 200.167,719.833 197.5,716.5C 193.108,711.106 188.108,706.439 182.5,702.5C 177.128,697.13 172.128,691.463 167.5,685.5C 167.573,683.973 166.906,682.973 165.5,682.5C 164.5,682.167 163.833,681.5 163.5,680.5C 163.573,678.973 162.906,677.973 161.5,677.5C 157.452,673.746 154.118,669.413 151.5,664.5C 151.446,662.368 150.446,661.035 148.5,660.5C 142.086,652.014 136.42,643.014 131.5,633.5C 131.573,631.973 130.906,630.973 129.5,630.5C 128.833,629.167 128.167,627.833 127.5,626.5C 127.715,624.821 127.048,623.821 125.5,623.5C 122.365,618.896 120.032,613.896 118.5,608.5C 118.573,606.973 117.906,605.973 116.5,605.5C 115.227,603.287 114.227,600.954 113.5,598.5C 113.598,596.447 112.931,594.78 111.5,593.5C 108.738,588.895 106.738,583.895 105.5,578.5C 105.598,576.447 104.931,574.78 103.5,573.5C 102.388,571.401 101.721,569.067 101.5,566.5C 101.598,564.447 100.931,562.78 99.5,561.5C 97.8993,558.45 96.8993,555.116 96.5,551.5C 96.5905,548.848 95.9238,546.515 94.5,544.5C 93.2318,542.095 92.5651,539.428 92.5,536.5C 91.9252,530.54 90.5919,524.874 88.5,519.5C 88.5,518.833 88.5,518.167 88.5,517.5C 87.6859,508.954 86.3526,500.62 84.5,492.5C 83.5269,490.052 83.1936,487.385 83.5,484.5C 83.5,480.833 83.5,477.167 83.5,473.5C 82.274,454.837 82.274,436.17 83.5,417.5C 83.5,416.167 83.5,414.833 83.5,413.5C 83.5,413.167 83.5,412.833 83.5,412.5C 84.4731,410.052 84.8064,407.385 84.5,404.5C 84.5,404.167 84.5,403.833 84.5,403.5C 85.4794,400.375 85.8128,397.042 85.5,393.5C 85.8627,387.69 86.8627,382.023 88.5,376.5C 90.2598,372.453 91.2598,368.12 91.5,363.5C 91.5651,360.572 92.2318,357.905 93.5,355.5C 95.0395,353.162 95.7062,350.495 95.5,347.5C 97.0739,345.898 97.7406,343.898 97.5,341.5C 97.4095,338.848 98.0762,336.515 99.5,334.5C 101.472,331.916 102.472,328.916 102.5,325.5C 103.98,319.891 105.98,314.557 108.5,309.5C 110.834,307.824 111.834,305.491 111.5,302.5C 112.931,301.22 113.598,299.553 113.5,297.5C 115.562,292.375 117.896,287.375 120.5,282.5C 121.906,282.027 122.573,281.027 122.5,279.5C 123.326,276.515 124.659,273.849 126.5,271.5C 127.906,271.027 128.573,270.027 128.5,268.5C 129.742,264.345 131.742,260.678 134.5,257.5C 135.906,257.027 136.573,256.027 136.5,254.5C 137.906,254.027 138.573,253.027 138.5,251.5C 138.328,250.508 138.662,249.842 139.5,249.5C 140.906,249.027 141.573,248.027 141.5,246.5C 142.906,246.027 143.573,245.027 143.5,243.5C 144.906,243.027 145.573,242.027 145.5,240.5C 145.932,239.29 146.599,238.29 147.5,237.5C 149.262,236.738 150.262,235.404 150.5,233.5C 151.906,233.027 152.573,232.027 152.5,230.5C 153.906,230.027 154.573,229.027 154.5,227.5C 155.701,225.091 157.367,223.091 159.5,221.5C 160.906,221.027 161.573,220.027 161.5,218.5C 161.833,217.5 162.5,216.833 163.5,216.5C 164.906,216.027 165.573,215.027 165.5,213.5C 165.833,212.5 166.5,211.833 167.5,211.5C 169.262,210.738 170.262,209.404 170.5,207.5C 171.167,206.167 172.167,205.167 173.5,204.5C 175.587,203.415 176.92,201.749 177.5,199.5C 179.167,197.167 181.167,195.167 183.5,193.5C 185.5,192.167 187.167,190.5 188.5,188.5C 191.5,186.167 194.167,183.5 196.5,180.5C 196.5,179.833 196.833,179.5 197.5,179.5C 201.436,177.234 204.769,174.234 207.5,170.5C 207.5,169.833 207.833,169.5 208.5,169.5C 211.089,168.581 213.089,166.914 214.5,164.5C 216.749,163.92 218.415,162.587 219.5,160.5C 221.091,158.367 223.091,156.701 225.5,155.5C 227.404,155.262 228.738,154.262 229.5,152.5C 231.027,152.573 232.027,151.906 232.5,150.5C 234.404,150.262 235.738,149.262 236.5,147.5C 238.404,147.262 239.738,146.262 240.5,144.5C 240.842,143.662 241.508,143.328 242.5,143.5C 244.404,143.262 245.738,142.262 246.5,140.5C 247.899,139.11 249.566,138.11 251.5,137.5C 253.404,137.262 254.738,136.262 255.5,134.5C 256.514,133.326 257.847,132.66 259.5,132.5C 261.027,132.573 262.027,131.906 262.5,130.5C 262.842,129.662 263.508,129.328 264.5,129.5C 266.027,129.573 267.027,128.906 267.5,127.5C 269.181,125.992 271.181,124.992 273.5,124.5C 275.027,124.573 276.027,123.906 276.5,122.5C 280.182,119.992 284.182,117.992 288.5,116.5C 289.873,116.657 291.207,116.49 292.5,116C 294.431,115.098 296.097,113.931 297.5,112.5C 297.842,111.662 298.508,111.328 299.5,111.5C 302.491,111.834 304.824,110.834 306.5,108.5C 309.54,106.654 312.873,105.321 316.5,104.5C 319.716,104.655 322.383,103.655 324.5,101.5C 327.716,101.655 330.383,100.655 332.5,98.5C 332.833,98.5 333.167,98.5 333.5,98.5C 336.916,98.4725 339.916,97.4725 342.5,95.5C 345.228,95.8294 347.562,95.1628 349.5,93.5C 349.833,93.5 350.167,93.5 350.5,93.5C 353.152,93.5905 355.485,92.9238 357.5,91.5C 360.495,91.7062 363.162,91.0395 365.5,89.5C 371.646,87.4038 377.98,86.0705 384.5,85.5C 398.696,84.3081 412.696,82.6414 426.5,80.5 Z"/></g>
<g><path style="opacity:1" fill="#8b8c8c" d="M 426.5,80.5 C 412.696,82.6414 398.696,84.3081 384.5,85.5C 398.212,82.5443 412.212,80.8776 426.5,80.5 Z"/></g>
<g><path style="opacity:1" fill="#a4a5a5" d="M 505.5,84.5 C 511.095,84.7536 516.428,85.7536 521.5,87.5C 515.858,87.5036 510.525,86.5036 505.5,84.5 Z"/></g>
<g><path style="opacity:1" fill="#8d8e8e" d="M 365.5,89.5 C 363.162,91.0395 360.495,91.7062 357.5,91.5C 359.838,89.9605 362.505,89.2938 365.5,89.5 Z"/></g>
<g><path style="opacity:1" fill="#7b7c7c" d="M 357.5,91.5 C 355.485,92.9238 353.152,93.5905 350.5,93.5C 352.515,92.0762 354.848,91.4095 357.5,91.5 Z"/></g>
<g><path style="opacity:1" fill="#bbbbbb" d="M 545.5,93.5 C 550.54,93.8504 555.206,95.1837 559.5,97.5C 554.57,96.7411 549.903,95.4078 545.5,93.5 Z"/></g>
<g><path style="opacity:1" fill="#8b8b8b" d="M 349.5,93.5 C 347.562,95.1628 345.228,95.8294 342.5,95.5C 344.599,94.3882 346.933,93.7215 349.5,93.5 Z"/></g>
<g><path style="opacity:1" fill="#787979" d="M 342.5,95.5 C 339.916,97.4725 336.916,98.4725 333.5,98.5C 336.215,96.9281 339.215,95.9281 342.5,95.5 Z"/></g>
<g><path style="opacity:1" fill="#7c7c7c" d="M 332.5,98.5 C 330.383,100.655 327.716,101.655 324.5,101.5C 326.89,99.9802 329.557,98.9802 332.5,98.5 Z"/></g>
<g><path style="opacity:1" fill="#9b9c9c" d="M 565.5,99.5 C 567.786,99.595 569.786,100.262 571.5,101.5C 569.102,101.741 567.102,101.074 565.5,99.5 Z"/></g>
<g><path style="opacity:1" fill="#656565" d="M 324.5,101.5 C 322.383,103.655 319.716,104.655 316.5,104.5C 318.848,102.903 321.514,101.903 324.5,101.5 Z"/></g>
<g><path style="opacity:1" fill="#c7c7c7" d="M 574.5,102.5 C 576.553,102.402 578.22,103.069 579.5,104.5C 577.447,104.598 575.78,103.931 574.5,102.5 Z"/></g>
<g><path style="opacity:1" fill="#5b5b5c" d="M 306.5,108.5 C 304.824,110.834 302.491,111.834 299.5,111.5C 301.509,109.935 303.843,108.935 306.5,108.5 Z"/></g>
<g><path style="opacity:1" fill="#fcfcfc" d="M 422.5,113.5 C 419.5,112.833 416.5,112.167 413.5,111.5C 534.507,103.638 634.007,145.638 712,237.5C 722.075,250.646 731.408,264.313 740,278.5C 756.217,311.767 759.217,346.1 749,381.5C 744.577,391.908 738.577,401.241 731,409.5C 704.355,319.309 655.522,243.809 584.5,183C 548.585,153.873 508.252,132.873 463.5,120C 449.976,116.949 436.309,114.782 422.5,113.5 Z"/></g>
<g><path style="opacity:1" fill="#6e6e6e" d="M 413.5,111.5 C 416.5,112.167 419.5,112.833 422.5,113.5C 418.774,113.823 415.107,113.489 411.5,112.5C 411.957,111.702 412.624,111.369 413.5,111.5 Z"/></g>
<g><path style="opacity:1" fill="#737374" d="M 297.5,112.5 C 296.097,113.931 294.431,115.098 292.5,116C 291.207,116.49 289.873,116.657 288.5,116.5C 291.057,114.393 294.057,113.059 297.5,112.5 Z"/></g>
<g><path style="opacity:1" fill="#bebebf" d="M 615.5,120.5 C 617.674,120.75 619.341,121.75 620.5,123.5C 618.326,123.25 616.659,122.25 615.5,120.5 Z"/></g>
<g><path style="opacity:1" fill="#fdfdfd" d="M 648.5,433.5 C 643.402,432.043 638.069,431.376 632.5,431.5C 609.668,428.556 587.668,422.556 566.5,413.5C 563.867,416.486 561.867,419.986 560.5,424C 566.161,431.649 571.828,439.316 577.5,447C 595.626,451.949 613.96,455.783 632.5,458.5C 637.25,460.031 642.25,460.698 647.5,460.5C 672.287,464.875 695.62,460.875 717.5,448.5C 721.205,463.933 723.371,479.599 724,495.5C 724.832,504.518 724.665,513.518 723.5,522.5C 680.497,541.723 636.163,556.723 590.5,567.5C 589.508,574.648 589.175,581.981 589.5,589.5C 590.791,589.737 591.791,589.404 592.5,588.5C 637.899,578.422 681.899,564.255 724.5,546C 722.574,566.724 719.074,587.224 714,607.5C 662.041,638.902 608.875,668.402 554.5,696C 540.738,707.717 525.071,716.05 507.5,721C 459.744,746.793 408.744,758.793 354.5,757C 328.115,753.987 302.448,747.987 277.5,739C 198.818,691.616 147.318,623.449 123,534.5C 118.545,517.029 115.545,499.363 114,481.5C 127.936,505.773 146.436,525.939 169.5,542C 206.389,566.419 246.389,584.086 289.5,595C 301.609,598.611 313.942,601.111 326.5,602.5C 326.56,603.043 326.893,603.376 327.5,603.5C 328.822,594.008 328.822,584.675 327.5,575.5C 289.246,566.078 251.579,554.578 214.5,541C 178.545,527.121 147.045,506.621 120,479.5C 116.905,475.411 114.239,471.077 112,466.5C 111.074,448.772 111.574,431.106 113.5,413.5C 115.235,406.736 116.235,399.736 116.5,392.5C 123.11,349.657 137.777,309.99 160.5,273.5C 166.051,273.473 171.384,272.806 176.5,271.5C 212.167,271.713 246.501,278.547 279.5,292C 295.648,298.576 311.648,305.41 327.5,312.5C 327.831,305.137 327.497,297.803 326.5,290.5C 295.847,273.893 263.514,261.726 229.5,254C 209.978,250.342 190.645,250.676 171.5,255C 217.731,190.124 279.065,146.124 355.5,123C 429.119,118.432 495.453,138.098 554.5,182C 633.394,243.75 686.06,323.083 712.5,420C 711.947,423.306 709.947,425.306 706.5,426C 687.772,432.767 668.439,435.267 648.5,433.5 Z"/></g>
<g><path style="opacity:1" fill="#919292" d="M 276.5,122.5 C 276.027,123.906 275.027,124.573 273.5,124.5C 273.973,123.094 274.973,122.427 276.5,122.5 Z"/></g>
<g><path style="opacity:1" fill="#808081" d="M 621.5,123.5 C 622.71,123.932 623.71,124.599 624.5,125.5C 622.821,125.715 621.821,125.048 621.5,123.5 Z"/></g>
<g><path style="opacity:1" fill="#969697" d="M 267.5,127.5 C 267.027,128.906 266.027,129.573 264.5,129.5C 264.973,128.094 265.973,127.427 267.5,127.5 Z"/></g>
<g><path style="opacity:1" fill="#6d6d6d" d="M 628.5,127.5 C 629.71,127.932 630.71,128.599 631.5,129.5C 629.821,129.715 628.821,129.048 628.5,127.5 Z"/></g>
<g><path style="opacity:1" fill="#888888" d="M 262.5,130.5 C 262.027,131.906 261.027,132.573 259.5,132.5C 259.973,131.094 260.973,130.427 262.5,130.5 Z"/></g>
<g><path style="opacity:1" fill="#797979" d="M 635.5,131.5 C 636.71,131.932 637.71,132.599 638.5,133.5C 636.821,133.715 635.821,133.048 635.5,131.5 Z"/></g>
<g><path style="opacity:1" fill="#9e9e9e" d="M 255.5,134.5 C 254.738,136.262 253.404,137.262 251.5,137.5C 252.262,135.738 253.596,134.738 255.5,134.5 Z"/></g>
<g><path style="opacity:1" fill="#757676" d="M 643.5,136.5 C 644.71,136.932 645.71,137.599 646.5,138.5C 644.821,138.715 643.821,138.048 643.5,136.5 Z"/></g>
<g><path style="opacity:1" fill="#7a7a7b" d="M 246.5,140.5 C 245.738,142.262 244.404,143.262 242.5,143.5C 243.262,141.738 244.596,140.738 246.5,140.5 Z"/></g>
<g><path style="opacity:1" fill="#6e6f6f" d="M 649.5,140.5 C 650.71,140.932 651.71,141.599 652.5,142.5C 650.821,142.715 649.821,142.048 649.5,140.5 Z"/></g>
<g><path style="opacity:1" fill="#707171" d="M 652.5,142.5 C 654.23,143.026 655.564,144.026 656.5,145.5C 654.368,145.446 653.035,144.446 652.5,142.5 Z"/></g>
<g><path style="opacity:1" fill="#949494" d="M 240.5,144.5 C 239.738,146.262 238.404,147.262 236.5,147.5C 237.262,145.738 238.596,144.738 240.5,144.5 Z"/></g>
<g><path style="opacity:1" fill="#757575" d="M 236.5,147.5 C 235.738,149.262 234.404,150.262 232.5,150.5C 233.262,148.738 234.596,147.738 236.5,147.5 Z"/></g>
<g><path style="opacity:1" fill="#797a7a" d="M 232.5,150.5 C 232.027,151.906 231.027,152.573 229.5,152.5C 229.973,151.094 230.973,150.427 232.5,150.5 Z"/></g>
<g><path style="opacity:1" fill="#919192" d="M 229.5,152.5 C 228.738,154.262 227.404,155.262 225.5,155.5C 226.262,153.738 227.596,152.738 229.5,152.5 Z"/></g>
<g><path style="opacity:1" fill="#9fa0a0" d="M 677.5,160.5 C 678.5,160.833 679.167,161.5 679.5,162.5C 678.167,162.5 677.5,161.833 677.5,160.5 Z"/></g>
<g><path style="opacity:1" fill="#5c5c5c" d="M 219.5,160.5 C 218.415,162.587 216.749,163.92 214.5,164.5C 215.585,162.413 217.251,161.08 219.5,160.5 Z"/></g>
<g><path style="opacity:1" fill="#bcbdbd" d="M 681.5,164.5 C 683.027,164.427 684.027,165.094 684.5,166.5C 682.973,166.573 681.973,165.906 681.5,164.5 Z"/></g>
<g><path style="opacity:1" fill="#676868" d="M 214.5,164.5 C 213.089,166.914 211.089,168.581 208.5,169.5C 209.911,167.086 211.911,165.419 214.5,164.5 Z"/></g>
<g><path style="opacity:1" fill="#686868" d="M 207.5,170.5 C 204.769,174.234 201.436,177.234 197.5,179.5C 200.231,175.766 203.564,172.766 207.5,170.5 Z"/></g>
<g><path style="opacity:1" fill="#a0a1a1" d="M 196.5,180.5 C 194.167,183.5 191.5,186.167 188.5,188.5C 190.167,184.833 192.833,182.167 196.5,180.5 Z"/></g>
<g><path style="opacity:1" fill="#a0a0a1" d="M 700.5,180.5 C 706.227,185.224 711.227,190.558 715.5,196.5C 709.773,191.776 704.773,186.442 700.5,180.5 Z"/></g>
<g><path style="opacity:1" fill="#a3a4a4" d="M 188.5,188.5 C 187.167,190.5 185.5,192.167 183.5,193.5C 184.167,190.833 185.833,189.167 188.5,188.5 Z"/></g>
<g><path style="opacity:1" fill="#969697" d="M 177.5,199.5 C 176.92,201.749 175.587,203.415 173.5,204.5C 174.08,202.251 175.413,200.585 177.5,199.5 Z"/></g>
<g><path style="opacity:1" fill="#838384" d="M 720.5,201.5 C 722.587,202.585 723.92,204.251 724.5,206.5C 722.413,205.415 721.08,203.749 720.5,201.5 Z"/></g>
<g><path style="opacity:1" fill="#010101" d="M 363.5,207.5 C 400.168,207.333 436.835,207.5 473.5,208C 514.141,211.308 537.308,233.142 543,273.5C 543.667,309.833 543.667,346.167 543,382.5C 541.3,402.408 532.467,418.241 516.5,430C 546.177,444.822 561.011,468.989 561,502.5C 561.893,541.182 561.56,579.849 560,618.5C 556.566,658.513 535.399,683.679 496.5,694C 490.5,695 484.5,696 478.5,697C 440.5,697.667 402.5,697.667 364.5,697C 361.244,695.413 359.077,692.913 358,689.5C 357.333,530.5 357.333,371.5 358,212.5C 359.812,210.7 361.645,209.033 363.5,207.5 Z"/></g>
<g><path style="opacity:1" fill="#8e8e8e" d="M 170.5,207.5 C 170.262,209.404 169.262,210.738 167.5,211.5C 167.738,209.596 168.738,208.262 170.5,207.5 Z"/></g>
<g><path style="opacity:1" fill="#949494" d="M 727.5,209.5 C 729.587,210.585 730.92,212.251 731.5,214.5C 729.413,213.415 728.08,211.749 727.5,209.5 Z"/></g>
<g><path style="opacity:1" fill="#828383" d="M 165.5,213.5 C 165.573,215.027 164.906,216.027 163.5,216.5C 163.427,214.973 164.094,213.973 165.5,213.5 Z"/></g>
<g><path style="opacity:1" fill="#878888" d="M 731.5,214.5 C 733.587,215.585 734.92,217.251 735.5,219.5C 733.413,218.415 732.08,216.749 731.5,214.5 Z"/></g>
<g><path style="opacity:1" fill="#898989" d="M 161.5,218.5 C 161.573,220.027 160.906,221.027 159.5,221.5C 159.427,219.973 160.094,218.973 161.5,218.5 Z"/></g>
<g><path style="opacity:1" fill="#737373" d="M 735.5,219.5 C 737.262,220.262 738.262,221.596 738.5,223.5C 736.738,222.738 735.738,221.404 735.5,219.5 Z"/></g>
<g><path style="opacity:1" fill="#838384" d="M 738.5,223.5 C 740.587,224.585 741.92,226.251 742.5,228.5C 740.413,227.415 739.08,225.749 738.5,223.5 Z"/></g>
<g><path style="opacity:1" fill="#abacac" d="M 154.5,227.5 C 154.573,229.027 153.906,230.027 152.5,230.5C 152.427,228.973 153.094,227.973 154.5,227.5 Z"/></g>
<g><path style="opacity:1" fill="#7c7d7e" d="M 742.5,228.5 C 743.906,228.973 744.573,229.973 744.5,231.5C 743.094,231.027 742.427,230.027 742.5,228.5 Z"/></g>
<g><path style="opacity:1" fill="#868686" d="M 152.5,230.5 C 152.573,232.027 151.906,233.027 150.5,233.5C 150.427,231.973 151.094,230.973 152.5,230.5 Z"/></g>
<g><path style="opacity:1" fill="#8e8e8f" d="M 745.5,232.5 C 746.906,232.973 747.573,233.973 747.5,235.5C 746.094,235.027 745.427,234.027 745.5,232.5 Z"/></g>
<g><path style="opacity:1" fill="#868687" d="M 150.5,233.5 C 150.262,235.404 149.262,236.738 147.5,237.5C 147.738,235.596 148.738,234.262 150.5,233.5 Z"/></g>
<g><path style="opacity:1" fill="#787979" d="M 747.5,235.5 C 748.906,235.973 749.573,236.973 749.5,238.5C 748.094,238.027 747.427,237.027 747.5,235.5 Z"/></g>
<g><path style="opacity:1" fill="#9e9e9e" d="M 145.5,240.5 C 145.573,242.027 144.906,243.027 143.5,243.5C 143.427,241.973 144.094,240.973 145.5,240.5 Z"/></g>
<g><path style="opacity:1" fill="#767777" d="M 751.5,241.5 C 753.262,242.262 754.262,243.596 754.5,245.5C 752.738,244.738 751.738,243.404 751.5,241.5 Z"/></g>
<g><path style="opacity:1" fill="#989899" d="M 143.5,243.5 C 143.573,245.027 142.906,246.027 141.5,246.5C 141.427,244.973 142.094,243.973 143.5,243.5 Z"/></g>
<g><path style="opacity:1" fill="#a4a5a5" d="M 754.5,245.5 C 755.906,245.973 756.573,246.973 756.5,248.5C 755.094,248.027 754.427,247.027 754.5,245.5 Z"/></g>
<g><path style="opacity:1" fill="#a2a2a3" d="M 141.5,246.5 C 141.573,248.027 140.906,249.027 139.5,249.5C 139.427,247.973 140.094,246.973 141.5,246.5 Z"/></g>
<g><path style="opacity:1" fill="#828383" d="M 757.5,250.5 C 758.906,250.973 759.573,251.973 759.5,253.5C 758.094,253.027 757.427,252.027 757.5,250.5 Z"/></g>
<g><path style="opacity:1" fill="#888888" d="M 138.5,251.5 C 138.573,253.027 137.906,254.027 136.5,254.5C 136.427,252.973 137.094,251.973 138.5,251.5 Z"/></g>
<g><path style="opacity:1" fill="#aaaaaa" d="M 136.5,254.5 C 136.573,256.027 135.906,257.027 134.5,257.5C 134.427,255.973 135.094,254.973 136.5,254.5 Z"/></g>
<g><path style="opacity:1" fill="#fcfcfc" d="M 412.5,257.5 C 430.196,257.156 447.863,257.656 465.5,259C 483.734,262.587 491.9,273.754 490,292.5C 490.936,319.531 490.603,346.531 489,373.5C 484.015,395.474 470.182,406.974 447.5,408C 435.591,408.821 423.757,408.654 412,407.5C 411.172,357.429 411.339,307.429 412.5,257.5 Z"/></g>
<g><path style="opacity:1" fill="#9f9f9f" d="M 762.5,258.5 C 763.906,258.973 764.573,259.973 764.5,261.5C 763.094,261.027 762.427,260.027 762.5,258.5 Z"/></g>
<g><path style="opacity:1" fill="#8e8e8e" d="M 766.5,265.5 C 767.906,265.973 768.573,266.973 768.5,268.5C 767.094,268.027 766.427,267.027 766.5,265.5 Z"/></g>
<g><path style="opacity:1" fill="#959595" d="M 128.5,268.5 C 128.573,270.027 127.906,271.027 126.5,271.5C 126.427,269.973 127.094,268.973 128.5,268.5 Z"/></g>
<g><path style="opacity:1" fill="#bdbdbd" d="M 176.5,271.5 C 171.384,272.806 166.051,273.473 160.5,273.5C 165.583,271.922 170.916,271.255 176.5,271.5 Z"/></g>
<g><path style="opacity:1" fill="#a4a5a5" d="M 770.5,272.5 C 771.906,272.973 772.573,273.973 772.5,275.5C 771.094,275.027 770.427,274.027 770.5,272.5 Z"/></g>
<g><path style="opacity:1" fill="#b4b5b5" d="M 122.5,279.5 C 122.573,281.027 121.906,282.027 120.5,282.5C 120.427,280.973 121.094,279.973 122.5,279.5 Z"/></g>
<g><path style="opacity:1" fill="#c9caca" d="M 780.5,291.5 C 781.674,292.514 782.34,293.847 782.5,295.5C 780.896,294.713 780.229,293.38 780.5,291.5 Z"/></g>
<g><path style="opacity:1" fill="#c9c9ca" d="M 113.5,297.5 C 113.598,299.553 112.931,301.22 111.5,302.5C 111.402,300.447 112.069,298.78 113.5,297.5 Z"/></g>
<g><path style="opacity:1" fill="#b8b8b8" d="M 784.5,300.5 C 785.931,301.78 786.598,303.447 786.5,305.5C 785.069,304.22 784.402,302.553 784.5,300.5 Z"/></g>
<g><path style="opacity:1" fill="#6d6e6e" d="M 111.5,302.5 C 111.834,305.491 110.834,307.824 108.5,309.5C 108.935,306.843 109.935,304.509 111.5,302.5 Z"/></g>
<g><path style="opacity:1" fill="#787878" d="M 793.5,323.5 C 794.931,324.78 795.598,326.447 795.5,328.5C 793.787,327.365 793.12,325.698 793.5,323.5 Z"/></g>
<g><path style="opacity:1" fill="#858585" d="M 102.5,325.5 C 102.472,328.916 101.472,331.916 99.5,334.5C 99.9281,331.215 100.928,328.215 102.5,325.5 Z"/></g>
<g><path style="opacity:1" fill="#818282" d="M 796.5,332.5 C 798.973,337.14 800.64,342.14 801.5,347.5C 798.86,342.915 797.194,337.915 796.5,332.5 Z"/></g>
<g><path style="opacity:1" fill="#7c7c7c" d="M 97.5,341.5 C 97.7406,343.898 97.0739,345.898 95.5,347.5C 95.595,345.214 96.2616,343.214 97.5,341.5 Z"/></g>
<g><path style="opacity:1" fill="#8d8e8e" d="M 95.5,347.5 C 95.7062,350.495 95.0395,353.162 93.5,355.5C 93.2938,352.505 93.9605,349.838 95.5,347.5 Z"/></g>
<g><path style="opacity:1" fill="#909090" d="M 802.5,352.5 C 804.101,355.55 805.101,358.884 805.5,362.5C 803.59,359.548 802.59,356.214 802.5,352.5 Z"/></g>
<g><path style="opacity:1" fill="#fbfbfb" d="M 774.5,364.5 C 774.41,367.152 775.076,369.485 776.5,371.5C 783.355,398.385 786.189,425.719 785,453.5C 777.854,476.142 765.02,494.809 746.5,509.5C 745.727,499.828 745.06,490.161 744.5,480.5C 744.55,474.611 743.884,468.944 742.5,463.5C 740.924,452.799 739.424,442.132 738,431.5C 758.439,412.625 770.439,389.292 774,361.5C 774.483,362.448 774.649,363.448 774.5,364.5 Z"/></g>
<g><path style="opacity:1" fill="#979798" d="M 91.5,363.5 C 91.2598,368.12 90.2598,372.453 88.5,376.5C 88.7402,371.88 89.7402,367.547 91.5,363.5 Z"/></g>
<g><path style="opacity:1" fill="#a2a2a2" d="M 774.5,364.5 C 775.924,366.515 776.59,368.848 776.5,371.5C 775.076,369.485 774.41,367.152 774.5,364.5 Z"/></g>
<g><path style="opacity:1" fill="#c4c4c4" d="M 807.5,372.5 C 808.768,374.905 809.435,377.572 809.5,380.5C 807.96,378.162 807.294,375.495 807.5,372.5 Z"/></g>
<g><path style="opacity:1" fill="#b3b4b4" d="M 116.5,392.5 C 116.235,399.736 115.235,406.736 113.5,413.5C 113.547,406.234 114.547,399.234 116.5,392.5 Z"/></g>
<g><path style="opacity:1" fill="#939393" d="M 85.5,393.5 C 85.8128,397.042 85.4794,400.375 84.5,403.5C 84.0618,403.565 83.7284,403.399 83.5,403C 84.132,399.73 84.7986,396.563 85.5,393.5 Z"/></g>
<g><path style="opacity:1" fill="#848484" d="M 84.5,404.5 C 84.8064,407.385 84.4731,410.052 83.5,412.5C 83.0618,412.565 82.7284,412.399 82.5,412C 83.1233,409.393 83.79,406.893 84.5,404.5 Z"/></g>
<g><path style="opacity:1" fill="#d7d8d8" d="M 83.5,413.5 C 83.5,414.833 83.5,416.167 83.5,417.5C 82.8333,420.5 82.1667,423.5 81.5,426.5C 81.3345,422.486 81.5012,418.486 82,414.5C 82.3826,413.944 82.8826,413.611 83.5,413.5 Z"/></g>
<g><path style="opacity:1" fill="#bababb" d="M 813.5,408.5 C 815.094,414.594 815.761,420.928 815.5,427.5C 814.004,421.395 813.337,415.062 813.5,408.5 Z"/></g>
<g><path style="opacity:1" fill="#b1b1b1" d="M 632.5,431.5 C 638.069,431.376 643.402,432.043 648.5,433.5C 642.916,433.745 637.583,433.078 632.5,431.5 Z"/></g>
<g><path style="opacity:1" fill="#343535" d="M 83.5,417.5 C 82.274,436.17 82.274,454.837 83.5,473.5C 82.8333,472.167 82.1667,470.833 81.5,469.5C 81.5,455.167 81.5,440.833 81.5,426.5C 82.1667,423.5 82.8333,420.5 83.5,417.5 Z"/></g>
<g><path style="opacity:1" fill="#3c3c3c" d="M 632.5,458.5 C 637.731,458.444 642.731,459.111 647.5,460.5C 642.25,460.698 637.25,460.031 632.5,458.5 Z"/></g>
<g><path style="opacity:1" fill="#fdfdfd" d="M 413.5,459.5 C 434.138,458.279 454.471,460.112 474.5,465C 494.778,471.293 505.278,485.126 506,506.5C 506.667,539.833 506.667,573.167 506,606.5C 506.032,630.463 494.199,643.629 470.5,646C 451.833,646.667 433.167,646.667 414.5,646C 414,645.5 413.5,645 413,644.5C 412.171,582.763 412.338,521.096 413.5,459.5 Z"/></g>
<g><path style="opacity:1" fill="#c8c8c8" d="M 81.5,469.5 C 82.1667,470.833 82.8333,472.167 83.5,473.5C 83.5,477.167 83.5,480.833 83.5,484.5C 82.7321,483.737 82.2321,482.737 82,481.5C 81.5012,477.514 81.3345,473.514 81.5,469.5 Z"/></g>
<g><path style="opacity:1" fill="#4a4a4a" d="M 742.5,463.5 C 743.884,468.944 744.55,474.611 744.5,480.5C 742.988,475.071 742.321,469.404 742.5,463.5 Z"/></g>
<g><path style="opacity:1" fill="#f9f9f9" d="M 783.5,479.5 C 780.528,521.192 769.528,560.858 750.5,598.5C 744.94,596.013 739.273,596.013 733.5,598.5C 734.478,590.227 736.311,581.894 739,573.5C 741.121,559.822 743.287,546.155 745.5,532.5C 764.753,519.699 777.42,502.033 783.5,479.5 Z"/></g>
<g><path style="opacity:1" fill="#cdcece" d="M 815.5,472.5 C 815.816,478.75 815.15,484.75 813.5,490.5C 813.388,484.274 814.054,478.274 815.5,472.5 Z"/></g>
<g><path style="opacity:1" fill="#bfbfbf" d="M 813.5,490.5 C 813.611,491.117 813.944,491.617 814.5,492C 813.883,494.277 813.216,496.444 812.5,498.5C 812.194,495.615 812.527,492.948 813.5,490.5 Z"/></g>
<g><path style="opacity:1" fill="#a8a8a9" d="M 84.5,492.5 C 86.3526,500.62 87.6859,508.954 88.5,517.5C 85.9971,509.478 84.6638,501.145 84.5,492.5 Z"/></g>
<g><path style="opacity:1" fill="#929393" d="M 812.5,498.5 C 812.656,502.764 811.989,506.764 810.5,510.5C 810.539,506.267 811.205,502.267 812.5,498.5 Z"/></g>
<g><path style="opacity:1" fill="#aaabab" d="M 809.5,517.5 C 809.419,522.477 808.419,527.143 806.5,531.5C 806.754,526.556 807.754,521.889 809.5,517.5 Z"/></g>
<g><path style="opacity:1" fill="#b2b3b3" d="M 88.5,519.5 C 90.5919,524.874 91.9252,530.54 92.5,536.5C 90.4207,531.122 89.0873,525.456 88.5,519.5 Z"/></g>
<g><path style="opacity:1" fill="#b2b2b2" d="M 804.5,540.5 C 804.277,544.162 803.277,547.495 801.5,550.5C 801.723,546.838 802.723,543.505 804.5,540.5 Z"/></g>
<g><path style="opacity:1" fill="#c3c4c4" d="M 94.5,544.5 C 95.9238,546.515 96.5905,548.848 96.5,551.5C 95.0762,549.485 94.4095,547.152 94.5,544.5 Z"/></g>
<g><path style="opacity:1" fill="#b7b8b8" d="M 800.5,554.5 C 800.472,557.916 799.472,560.916 797.5,563.5C 797.928,560.215 798.928,557.215 800.5,554.5 Z"/></g>
<g><path style="opacity:1" fill="#939393" d="M 99.5,561.5 C 100.931,562.78 101.598,564.447 101.5,566.5C 100.069,565.22 99.4021,563.553 99.5,561.5 Z"/></g>
<g><path style="opacity:1" fill="#a9aaaa" d="M 795.5,570.5 C 795.598,572.553 794.931,574.22 793.5,575.5C 793.402,573.447 794.069,571.78 795.5,570.5 Z"/></g>
<g><path style="opacity:1" fill="#b2b2b2" d="M 103.5,573.5 C 104.931,574.78 105.598,576.447 105.5,578.5C 104.069,577.22 103.402,575.553 103.5,573.5 Z"/></g>
<g><path style="opacity:1" fill="#b0b1b1" d="M 590.5,567.5 C 589.872,574.913 590.539,581.913 592.5,588.5C 591.791,589.404 590.791,589.737 589.5,589.5C 589.175,581.981 589.508,574.648 590.5,567.5 Z"/></g>
<g><path style="opacity:1" fill="#444445" d="M 327.5,575.5 C 328.822,584.675 328.822,594.008 327.5,603.5C 326.893,603.376 326.56,603.043 326.5,602.5C 327.493,593.682 327.827,584.682 327.5,575.5 Z"/></g>
<g><path style="opacity:1" fill="#bcbdbd" d="M 111.5,593.5 C 112.931,594.78 113.598,596.447 113.5,598.5C 112.069,597.22 111.402,595.553 111.5,593.5 Z"/></g>
<g><path style="opacity:1" fill="#bdbdbd" d="M 116.5,605.5 C 117.906,605.973 118.573,606.973 118.5,608.5C 117.094,608.027 116.427,607.027 116.5,605.5 Z"/></g>
<g><path style="opacity:1" fill="#f2f2f2" d="M 736.5,609.5 C 738.857,609.337 741.19,609.503 743.5,610C 743.957,610.414 744.291,610.914 744.5,611.5C 730.572,636.928 713.739,660.262 694,681.5C 706.687,661.459 717.354,640.126 726,617.5C 729.4,614.586 732.9,611.92 736.5,609.5 Z"/></g>
<g><path style="opacity:1" fill="#79797a" d="M 125.5,623.5 C 127.048,623.821 127.715,624.821 127.5,626.5C 126.599,625.71 125.932,624.71 125.5,623.5 Z"/></g>
<g><path style="opacity:1" fill="#c7c7c7" d="M 129.5,630.5 C 130.906,630.973 131.573,631.973 131.5,633.5C 130.094,633.027 129.427,632.027 129.5,630.5 Z"/></g>
<g><path style="opacity:1" fill="#fbfbfb" d="M 342.5,769.5 C 343.568,768.566 344.901,768.232 346.5,768.5C 385.317,773.732 423.65,771.232 461.5,761C 509.078,746.594 554.078,726.594 596.5,701C 633.707,678.272 670.374,655.438 706.5,632.5C 693.532,666.295 674.199,695.795 648.5,721C 600.59,756.443 546.923,777.776 487.5,785C 437.83,790.892 389.496,785.725 342.5,769.5 Z"/></g>
<g><path style="opacity:1" fill="#b3b4b5" d="M 768.5,630.5 C 768.573,632.027 767.906,633.027 766.5,633.5C 766.427,631.973 767.094,630.973 768.5,630.5 Z"/></g>
<g><path style="opacity:1" fill="#c2c2c2" d="M 764.5,637.5 C 764.573,639.027 763.906,640.027 762.5,640.5C 762.427,638.973 763.094,637.973 764.5,637.5 Z"/></g>
<g><path style="opacity:1" fill="#828383" d="M 148.5,660.5 C 150.446,661.035 151.446,662.368 151.5,664.5C 150.026,663.564 149.026,662.23 148.5,660.5 Z"/></g>
<g><path style="opacity:1" fill="#c7c7c8" d="M 161.5,677.5 C 162.906,677.973 163.573,678.973 163.5,680.5C 162.094,680.027 161.427,679.027 161.5,677.5 Z"/></g>
<g><path style="opacity:1" fill="#bcbcbc" d="M 733.5,681.5 C 733.573,683.027 732.906,684.027 731.5,684.5C 731.427,682.973 732.094,681.973 733.5,681.5 Z"/></g>
<g><path style="opacity:1" fill="#cfd0d0" d="M 165.5,682.5 C 166.906,682.973 167.573,683.973 167.5,685.5C 166.094,685.027 165.427,684.027 165.5,682.5 Z"/></g>
<g><path style="opacity:1" fill="#9e9e9f" d="M 182.5,702.5 C 188.108,706.439 193.108,711.106 197.5,716.5C 191.892,712.561 186.892,707.894 182.5,702.5 Z"/></g>
<g><path style="opacity:1" fill="#b1b2b2" d="M 206.5,725.5 C 208.404,725.738 209.738,726.738 210.5,728.5C 208.596,728.262 207.262,727.262 206.5,725.5 Z"/></g>
<g><path style="opacity:1" fill="#cacaca" d="M 692.5,724.5 C 692.5,725.833 691.833,726.5 690.5,726.5C 690.833,725.5 691.5,724.833 692.5,724.5 Z"/></g>
<g><path style="opacity:1" fill="#969696" d="M 210.5,728.5 C 213.089,729.419 215.089,731.086 216.5,733.5C 213.911,732.581 211.911,730.914 210.5,728.5 Z"/></g>
<g><path style="opacity:1" fill="#c7c7c7" d="M 685.5,730.5 C 685.5,731.833 684.833,732.5 683.5,732.5C 683.833,731.5 684.5,730.833 685.5,730.5 Z"/></g>
<g><path style="opacity:1" fill="#808181" d="M 216.5,733.5 C 218.749,734.08 220.415,735.413 221.5,737.5C 219.251,736.92 217.585,735.587 216.5,733.5 Z"/></g>
<g><path style="opacity:1" fill="#7a7a7b" d="M 221.5,737.5 C 223.404,737.738 224.738,738.738 225.5,740.5C 223.596,740.262 222.262,739.262 221.5,737.5 Z"/></g>
<g><path style="opacity:1" fill="#ababac" d="M 227.5,742.5 C 229.027,742.427 230.027,743.094 230.5,744.5C 228.973,744.573 227.973,743.906 227.5,742.5 Z"/></g>
<g><path style="opacity:1" fill="#858585" d="M 230.5,744.5 C 232.027,744.427 233.027,745.094 233.5,746.5C 231.973,746.573 230.973,745.906 230.5,744.5 Z"/></g>
<g><path style="opacity:1" fill="#737374" d="M 233.5,746.5 C 235.404,746.738 236.738,747.738 237.5,749.5C 235.596,749.262 234.262,748.262 233.5,746.5 Z"/></g>
<g><path style="opacity:1" fill="#7b7b7c" d="M 237.5,749.5 C 239.027,749.427 240.027,750.094 240.5,751.5C 238.973,751.573 237.973,750.906 237.5,749.5 Z"/></g>
<g><path style="opacity:1" fill="#888889" d="M 240.5,751.5 C 242.404,751.738 243.738,752.738 244.5,754.5C 242.596,754.262 241.262,753.262 240.5,751.5 Z"/></g>
<g><path style="opacity:1" fill="#878888" d="M 246.5,755.5 C 248.404,755.738 249.738,756.738 250.5,758.5C 248.596,758.262 247.262,757.262 246.5,755.5 Z"/></g>
<g><path style="opacity:1" fill="#848585" d="M 252.5,759.5 C 254.027,759.427 255.027,760.094 255.5,761.5C 253.973,761.573 252.973,760.906 252.5,759.5 Z"/></g>
<g><path style="opacity:1" fill="#a5a5a5" d="M 255.5,761.5 C 257.027,761.427 258.027,762.094 258.5,763.5C 256.973,763.573 255.973,762.906 255.5,761.5 Z"/></g>
<g><path style="opacity:1" fill="#979798" d="M 260.5,764.5 C 262.027,764.427 263.027,765.094 263.5,766.5C 261.973,766.573 260.973,765.906 260.5,764.5 Z"/></g>
<g><path style="opacity:1" fill="#b3b3b4" d="M 346.5,768.5 C 344.901,768.232 343.568,768.566 342.5,769.5C 339.029,768.635 335.696,767.468 332.5,766C 337.29,766.515 341.957,767.349 346.5,768.5 Z"/></g>
<g><path style="opacity:1" fill="#c1c2c2" d="M 272.5,771.5 C 274.027,771.427 275.027,772.094 275.5,773.5C 273.973,773.573 272.973,772.906 272.5,771.5 Z"/></g>
<g><path style="opacity:1" fill="#767677" d="M 293.5,782.5 C 296.481,782.182 298.815,783.182 300.5,785.5C 297.937,784.912 295.604,783.912 293.5,782.5 Z"/></g>
<g><path style="opacity:1" fill="#c8c9c9" d="M 589.5,789.5 C 588.22,790.931 586.553,791.598 584.5,791.5C 585.78,790.069 587.447,789.402 589.5,789.5 Z"/></g>
<g><path style="opacity:1" fill="#b0b0b0" d="M 581.5,792.5 C 580.22,793.931 578.553,794.598 576.5,794.5C 577.78,793.069 579.447,792.402 581.5,792.5 Z"/></g>
<g><path style="opacity:1" fill="#6d6d6e" d="M 322.5,794.5 C 324.698,794.12 326.365,794.787 327.5,796.5C 325.597,796.204 323.93,795.537 322.5,794.5 Z"/></g>
<g><path style="opacity:1" fill="#929293" d="M 330.5,797.5 C 332.898,797.259 334.898,797.926 336.5,799.5C 334.214,799.405 332.214,798.738 330.5,797.5 Z"/></g>
<g><path style="opacity:1" fill="#c8c9c9" d="M 567.5,797.5 C 564.916,799.472 561.916,800.472 558.5,800.5C 561.215,798.928 564.215,797.928 567.5,797.5 Z"/></g>
<g><path style="opacity:1" fill="#8c8d8d" d="M 340.5,800.5 C 346.433,801.592 352.1,803.259 357.5,805.5C 351.457,804.816 345.79,803.149 340.5,800.5 Z"/></g>
<g><path style="opacity:1" fill="#c1c1c2" d="M 555.5,801.5 C 553.485,802.924 551.152,803.59 548.5,803.5C 550.515,802.076 552.848,801.41 555.5,801.5 Z"/></g>
<g><path style="opacity:1" fill="#cccccc" d="M 548.5,803.5 C 546.485,804.924 544.152,805.59 541.5,805.5C 543.515,804.076 545.848,803.41 548.5,803.5 Z"/></g>
<g><path style="opacity:1" fill="#929293" d="M 357.5,805.5 C 361.8,805.719 365.8,806.719 369.5,808.5C 365.2,808.281 361.2,807.281 357.5,805.5 Z"/></g>
<g><path style="opacity:1" fill="#adadad" d="M 540.5,805.5 C 537.146,807.258 533.479,808.258 529.5,808.5C 532.854,806.742 536.521,805.742 540.5,805.5 Z"/></g>
<g><path style="opacity:1" fill="#d0d0d0" d="M 529.5,808.5 C 526.727,809.657 523.727,810.324 520.5,810.5C 523.171,808.882 526.171,808.215 529.5,808.5 Z"/></g>
<g><path style="opacity:1" fill="#afafaf" d="M 514.5,811.5 C 507.766,813.453 500.766,814.453 493.5,814.5C 500.264,812.765 507.264,811.765 514.5,811.5 Z"/></g>
<g><path style="opacity:1" fill="#848585" d="M 479.5,815.5 C 477.833,816.167 476.167,816.833 474.5,817.5C 473.167,817.5 471.833,817.5 470.5,817.5C 472.988,815.612 475.988,814.945 479.5,815.5 Z"/></g>
<g><path style="opacity:1" fill="#dfe0e0" d="M 412.5,815.5 C 417.71,815.608 422.71,816.275 427.5,817.5C 423.486,817.666 419.486,817.499 415.5,817C 414.263,816.768 413.263,816.268 412.5,815.5 Z"/></g>
<g><path style="opacity:1" fill="#ececec" d="M 479.5,815.5 C 481.5,815.5 483.5,815.5 485.5,815.5C 482.155,817.217 478.489,817.884 474.5,817.5C 476.167,816.833 477.833,816.167 479.5,815.5 Z"/></g>
</svg>
