<?xml version="1.0" encoding="UTF-8"?>
<!DOCTYPE svg PUBLIC "-//W3C//DTD SVG 1.1//EN" "http://www.w3.org/Graphics/SVG/1.1/DTD/svg11.dtd">
<svg xmlns="http://www.w3.org/2000/svg" version="1.1" width="500px" height="500px" style="shape-rendering:geometricPrecision; text-rendering:geometricPrecision; image-rendering:optimizeQuality; fill-rule:evenodd; clip-rule:evenodd" xmlns:xlink="http://www.w3.org/1999/xlink">
<g><path style="opacity:0.946" fill="#f8b21b" d="M 314.5,111.5 C 340.457,108.437 365.124,112.604 388.5,124C 396.309,128.995 403.475,134.829 410,141.5C 410.816,150.412 410.65,159.245 409.5,168C 370.912,190.879 332.079,213.379 293,235.5C 292.333,234.5 292.333,233.5 293,232.5C 304.257,211.987 314.424,190.987 323.5,169.5C 309.792,171.903 296.792,176.403 284.5,183C 258.18,197.436 235.347,216.27 216,239.5C 200.313,257.868 186.98,277.868 176,299.5C 174.365,303.709 173.198,308.042 172.5,312.5C 172.406,314.912 173.406,316.745 175.5,318C 187.956,320.189 200.289,319.522 212.5,316C 261.083,302.362 308.417,285.362 354.5,265C 361.414,261.293 368.248,257.46 375,253.5C 372.552,270.244 369.385,286.911 365.5,303.5C 318.394,344.721 264.06,372.221 202.5,386C 181.825,389.297 161.158,389.297 140.5,386C 101.171,374.536 84.0047,348.369 89,307.5C 94.3451,281.98 105.178,259.147 121.5,239C 111.803,240.672 102.136,242.839 92.5,245.5C 91.8333,245.167 91.1667,244.833 90.5,244.5C 99.6369,230.198 108.97,216.031 118.5,202C 164.148,166.168 214.815,139.168 270.5,121C 285.095,116.847 299.762,113.68 314.5,111.5 Z"/></g>
<g><path style="opacity:1" fill="#6b0931" d="M 314.5,120.5 C 338.659,117.7 361.659,121.533 383.5,132C 389.033,134.934 394.033,138.6 398.5,143C 374.751,157.959 350.917,172.792 327,187.5C 329.541,181.385 331.874,175.052 334,168.5C 337.525,149.029 329.358,141.196 309.5,145C 285.437,151.033 263.437,161.366 243.5,176C 206.173,204.836 177.006,240.336 156,282.5C 150.584,294.445 150.251,306.445 155,318.5C 163.016,326.395 172.683,329.728 184,328.5C 203.013,327.697 221.513,324.197 239.5,318C 279.829,304.673 319.496,290.007 358.5,274C 325.84,301.68 289.84,324.347 250.5,342C 229.263,350.968 207.263,357.301 184.5,361C 166.156,363.955 148.156,362.621 130.5,357C 106.146,346.468 96.3125,327.968 101,301.5C 106.964,280.239 116.63,260.906 130,243.5C 142.349,228.338 155.516,213.838 169.5,200C 167.833,199.333 166.167,199.333 164.5,200C 151.385,203.019 138.385,206.019 125.5,209C 167.635,175.589 214.301,149.922 265.5,132C 281.786,127.343 298.12,123.51 314.5,120.5 Z"/></g>
<g><path style="opacity:1" fill="#060e40" d="M 400.5,147.5 C 401.809,149.571 402.475,152.071 402.5,155C 402.475,157.755 402.141,160.422 401.5,163C 372.583,180.374 343.75,197.874 315,215.5C 317.513,207.972 321.013,200.805 325.5,194C 350.899,178.976 375.899,163.476 400.5,147.5 Z"/></g>
<g><path style="opacity:1" fill="#060e40" d="M 312.5,148.5 C 317.08,148.113 321.414,148.947 325.5,151C 328.029,153.642 329.029,156.808 328.5,160.5C 321.678,160.124 315.012,160.957 308.5,163C 281.708,172.39 257.708,186.39 236.5,205C 206.81,232.004 183.31,263.504 166,299.5C 164.149,305.008 163.149,310.675 163,316.5C 157.851,310.046 156.184,302.713 158,294.5C 164.399,276.365 173.399,259.698 185,244.5C 204.875,216.291 229.042,192.458 257.5,173C 274.677,162.075 293.01,153.908 312.5,148.5 Z"/></g>
<g><path style="opacity:1" fill="#070f40" d="M 148.5,208.5 C 149.873,208.343 151.207,208.51 152.5,209C 148.167,214 143.833,219 139.5,224C 130.979,226.089 122.479,228.255 114,230.5C 113.5,230.167 113,229.833 112.5,229.5C 115.802,224.397 119.469,219.564 123.5,215C 132.072,213.275 140.405,211.108 148.5,208.5 Z"/></g>
<g><path style="opacity:1" fill="#050e40" d="M 361.5,277.5 C 361.232,284.041 360.066,290.708 358,297.5C 312.125,337.355 259.292,363.855 199.5,377C 181.873,379.799 164.207,380.132 146.5,378C 132.016,374.677 119.516,367.844 109,357.5C 100.933,346.43 101.766,345.263 111.5,354C 131.993,366.887 154.326,371.554 178.5,368C 248.74,355.879 309.74,325.712 361.5,277.5 Z"/></g>
</svg>
