<?xml version="1.0" encoding="UTF-8"?>
<!DOCTYPE svg PUBLIC "-//W3C//DTD SVG 1.1//EN" "http://www.w3.org/Graphics/SVG/1.1/DTD/svg11.dtd">
<svg xmlns="http://www.w3.org/2000/svg" version="1.1" width="1200px" height="1200px" style="shape-rendering:geometricPrecision; text-rendering:geometricPrecision; image-rendering:optimizeQuality; fill-rule:evenodd; clip-rule:evenodd" xmlns:xlink="http://www.w3.org/1999/xlink">
<g><path style="opacity:0.966" fill="#040101" d="M 743.5,200.5 C 751.008,200.038 758.342,200.538 765.5,202C 759.967,207.198 754.8,212.698 750,218.5C 745.085,229.327 743.418,240.66 745,252.5C 747.877,266.88 749.71,281.38 750.5,296C 750.333,300.167 750.167,304.333 750,308.5C 748.828,313.661 747.495,318.661 746,323.5C 751.329,317.516 755.663,310.849 759,303.5C 761.857,291.617 764.024,279.617 765.5,267.5C 770.839,272.832 774.673,279.165 777,286.5C 780.713,301.598 782.38,316.931 782,332.5C 790.919,326.252 799.252,319.252 807,311.5C 809.311,307.233 810.811,302.733 811.5,298C 809.253,286.267 807.753,274.434 807,262.5C 814.712,271.21 822.045,280.21 829,289.5C 836.142,300.284 840.308,312.117 841.5,325C 841.212,336.24 836.879,345.574 828.5,353C 818.909,360.38 809.409,367.88 800,375.5C 798.092,378.206 797.259,381.206 797.5,384.5C 845.056,392.297 890.389,406.797 933.5,428C 953.71,438.206 970.21,452.706 983,471.5C 994.963,495.679 992.63,518.345 976,539.5C 962.939,552.903 948.439,564.403 932.5,574C 889.73,594.76 845.063,608.926 798.5,616.5C 780.023,620.394 761.69,623.56 743.5,626C 723.468,643.229 712.301,665.063 710,691.5C 711.941,729.439 709.608,767.106 703,804.5C 697.778,825.719 691.778,846.719 685,867.5C 651.483,943.053 593.983,986.553 512.5,998C 442.062,1003.74 382.562,980.908 334,929.5C 284.891,870.643 270.225,803.976 290,729.5C 306.6,677.576 338.1,637.409 384.5,609C 350.083,600.612 317.083,588.612 285.5,573C 270.233,564.075 256.4,553.241 244,540.5C 220.364,507.047 223.864,476.547 254.5,449C 283.153,426.674 315.153,410.674 350.5,401C 416.026,382.107 482.86,371.607 551,369.5C 568.736,367.826 586.569,367.16 604.5,367.5C 613.014,333.812 633.681,310.979 666.5,299C 680.659,294.368 694.992,290.368 709.5,287C 714.152,284.013 715.652,279.846 714,274.5C 709.371,261.783 705.871,248.783 703.5,235.5C 704.462,225.402 709.128,217.569 717.5,212C 725.804,207.076 734.471,203.243 743.5,200.5 Z M 558.5,439.5 C 559.239,439.369 559.906,439.536 560.5,440C 543.118,454.248 531.952,472.414 527,494.5C 525.578,504.875 523.911,515.209 522,525.5C 518.98,535.858 513.48,544.692 505.5,552C 497.434,558.451 488.934,564.284 480,569.5C 439.856,564.861 400.023,556.027 360.5,543C 348.825,538.439 337.492,533.106 326.5,527C 319.588,523.089 314.421,517.589 311,510.5C 310.348,507.406 310.682,504.406 312,501.5C 320.829,491.021 331.662,483.187 344.5,478C 382.191,463.217 420.691,453.717 460,449.5C 474.401,446.602 488.735,444.602 503,443.5C 503.414,443.957 503.914,444.291 504.5,444.5C 507.399,443.273 510.233,442.939 513,443.5C 528.291,441.998 543.457,440.664 558.5,439.5 Z M 798.5,457.5 C 828.397,463.189 857.063,472.356 884.5,485C 892.499,489.322 899.666,494.822 906,501.5C 909.333,507.167 909.333,512.833 906,518.5C 898.268,526.279 889.435,532.446 879.5,537C 842.83,552.102 804.664,561.936 765,566.5C 753.735,568.968 742.568,570.468 731.5,571C 741.564,567.135 751.23,562.468 760.5,557C 771.449,549.272 777.949,538.772 780,525.5C 780.406,515.107 781.406,504.773 783,494.5C 787.647,484.18 794.814,476.18 804.5,470.5C 800.236,469.121 795.902,467.955 791.5,467C 794.848,464.499 797.182,461.332 798.5,457.5 Z"/></g>
<g><path style="opacity:1" fill="#fc9f00" d="M 742.5,209.5 C 744.199,209.34 745.866,209.506 747.5,210C 738.871,218.885 735.204,229.551 736.5,242C 737.422,255.615 739.256,269.115 742,282.5C 746.354,304.612 740.187,323.112 723.5,338C 709.905,348.948 696.572,360.115 683.5,371.5C 660.218,369.392 636.884,368.392 613.5,368.5C 615.056,356.056 619.889,345.056 628,335.5C 641.453,320.854 657.62,310.354 676.5,304C 688.171,300.998 699.838,297.998 711.5,295C 721.321,290.564 724.821,283.064 722,272.5C 719.198,262.429 716.198,252.429 713,242.5C 710.345,232.649 713.178,224.816 721.5,219C 728.095,214.698 735.095,211.531 742.5,209.5 Z"/></g>
<g><path style="opacity:1" fill="#fa9e00" d="M 818.5,290.5 C 830.969,303.077 835.469,318.077 832,335.5C 829.309,341.197 825.475,346.03 820.5,350C 811.72,355.78 803.22,361.946 795,368.5C 791.187,372.739 789.354,377.739 789.5,383.5C 785.202,382.8 780.869,382.467 776.5,382.5C 777.67,370.785 779.17,359.118 781,347.5C 787.246,338.622 795.08,331.455 804.5,326C 815.727,316.83 820.394,304.996 818.5,290.5 Z"/></g>
<g><path style="opacity:1" fill="#cd8100" d="M 773.5,315.5 C 772.668,310.932 771.668,306.265 770.5,301.5C 769.859,302.993 768.859,303.993 767.5,304.5C 768.292,300.789 769.292,297.122 770.5,293.5C 772.434,300.702 773.434,308.035 773.5,315.5 Z"/></g>
<g><path style="opacity:1" fill="#fb9f00" d="M 773.5,315.5 C 775.705,337.418 771.705,358.085 761.5,377.5C 742.517,376.623 723.517,374.956 704.5,372.5C 715.438,360.725 727.438,350.225 740.5,341C 751.85,330.422 760.85,318.255 767.5,304.5C 768.859,303.993 769.859,302.993 770.5,301.5C 771.668,306.265 772.668,310.932 773.5,315.5 Z"/></g>
<g><path style="opacity:1" fill="#fcfcfc" d="M 559.5,379.5 C 645.696,375.968 731.029,382.802 815.5,400C 855.338,408.168 893.338,421.501 929.5,440C 943.206,447.447 955.373,456.947 966,468.5C 981.935,488.614 982.602,509.281 968,530.5C 952.328,547.484 933.828,560.651 912.5,570C 872.367,586.907 830.867,599.074 788,606.5C 772.732,600.301 756.898,596.135 740.5,594C 729.202,592.613 718.202,593.78 707.5,597.5C 707.167,597.167 706.833,596.833 706.5,596.5C 708.102,592.905 710.102,589.571 712.5,586.5C 748.088,582.725 783.421,577.225 818.5,570C 845.039,564.376 870.373,555.376 894.5,543C 902.156,538.58 908.989,533.08 915,526.5C 922.159,517.403 923.159,507.736 918,497.5C 908.15,485.318 895.983,476.151 881.5,470C 851.467,457.741 820.467,448.741 788.5,443C 681.181,425.238 573.514,422.904 465.5,436C 426.603,440.892 388.603,449.558 351.5,462C 333.928,468.264 318.428,477.764 305,490.5C 298.045,498.978 296.712,508.311 301,518.5C 307.263,528.097 315.43,535.597 325.5,541C 357.536,557.007 391.203,568.007 426.5,574C 437.819,575.942 449.152,577.775 460.5,579.5C 441.581,586.696 422.581,593.696 403.5,600.5C 365.085,593.084 328.418,580.584 293.5,563C 275.216,553.786 260.05,540.952 248,524.5C 236.702,504.664 238.369,485.997 253,468.5C 271.363,449.724 292.863,435.558 317.5,426C 374.576,404.317 433.576,390.65 494.5,385C 516.298,382.885 537.964,381.051 559.5,379.5 Z M 558.5,439.5 C 543.457,440.664 528.291,441.998 513,443.5C 510.233,442.939 507.399,443.273 504.5,444.5C 503.914,444.291 503.414,443.957 503,443.5C 488.735,444.602 474.401,446.602 460,449.5C 420.691,453.717 382.191,463.217 344.5,478C 331.662,483.187 320.829,491.021 312,501.5C 310.682,504.406 310.348,507.406 311,510.5C 314.421,517.589 319.588,523.089 326.5,527C 337.492,533.106 348.825,538.439 360.5,543C 400.023,556.027 439.856,564.861 480,569.5C 488.934,564.284 497.434,558.451 505.5,552C 513.48,544.692 518.98,535.858 522,525.5C 523.911,515.209 525.578,504.875 527,494.5C 531.952,472.414 543.118,454.248 560.5,440C 559.906,439.536 559.239,439.369 558.5,439.5 Z M 798.5,457.5 C 797.182,461.332 794.848,464.499 791.5,467C 795.902,467.955 800.236,469.121 804.5,470.5C 794.814,476.18 787.647,484.18 783,494.5C 781.406,504.773 780.406,515.107 780,525.5C 777.949,538.772 771.449,549.272 760.5,557C 751.23,562.468 741.564,567.135 731.5,571C 742.568,570.468 753.735,568.968 765,566.5C 804.664,561.936 842.83,552.102 879.5,537C 889.435,532.446 898.268,526.279 906,518.5C 909.333,512.833 909.333,507.167 906,501.5C 899.666,494.822 892.499,489.322 884.5,485C 857.063,472.356 828.397,463.189 798.5,457.5 Z"/></g>
<g><path style="opacity:1" fill="#b2002a" d="M 576.5,439.5 C 579.167,439.5 581.833,439.5 584.5,439.5C 584.185,443.371 584.518,447.038 585.5,450.5C 589.565,473.365 601.898,479.365 622.5,468.5C 627.093,463.818 629.093,458.152 628.5,451.5C 628.261,447.484 627.928,443.484 627.5,439.5C 635.5,439.5 643.5,439.5 651.5,439.5C 649.427,476.484 647.594,513.484 646,550.5C 641.077,592.996 624.744,630.329 597,662.5C 589.5,670 582,677.5 574.5,685C 550.351,705.239 526.017,725.239 501.5,745C 483.788,760.696 469.955,779.196 460,800.5C 448.259,833.411 450.259,865.411 466,896.5C 468.639,900.639 471.472,904.639 474.5,908.5C 464.641,910.817 454.641,912.484 444.5,913.5C 441.989,913.712 439.822,913.045 438,911.5C 394.632,846.97 381.298,776.636 398,700.5C 404.1,677.954 415.1,658.287 431,641.5C 445.467,625.352 461.967,611.852 480.5,601C 498.927,591.786 517.593,583.12 536.5,575C 553.647,565.051 561.98,550.051 561.5,530C 560.243,514.198 557.41,498.698 553,483.5C 551.429,473.385 552.762,463.718 557,454.5C 562.806,448.519 569.306,443.519 576.5,439.5 Z"/></g>
<g><path style="opacity:1" fill="#b2002a" d="M 667.5,440.5 C 683.207,441.392 698.874,442.725 714.5,444.5C 692.711,476.71 681.878,512.376 682,551.5C 682.194,588.561 680.861,625.561 678,662.5C 668.227,760.97 621.06,835.136 536.5,885C 521.744,892.878 506.411,899.378 490.5,904.5C 477.134,892.104 469.301,876.771 467,858.5C 464.148,828.402 471.815,801.402 490,777.5C 499.136,767.363 508.636,757.53 518.5,748C 537.211,732.287 556.211,716.954 575.5,702C 624.724,660.726 652.224,607.893 658,543.5C 660,516.83 662,490.163 664,463.5C 665.029,455.799 666.195,448.132 667.5,440.5 Z"/></g>
<g><path style="opacity:1" fill="#5f0016" d="M 576.5,439.5 C 579.287,438.523 582.287,438.19 585.5,438.5C 585.5,442.5 585.5,446.5 585.5,450.5C 584.518,447.038 584.185,443.371 584.5,439.5C 581.833,439.5 579.167,439.5 576.5,439.5 Z"/></g>
<g><path style="opacity:1" fill="#b1002a" d="M 730.5,446.5 C 745.283,447.348 759.949,449.181 774.5,452C 767.167,455.333 759.833,458.667 752.5,462C 735.938,472.173 732.938,485.506 743.5,502C 750.646,505.91 757.146,505.077 763,499.5C 765.158,491.679 768.992,484.845 774.5,479C 778.387,475.97 782.72,474.97 787.5,476C 781.556,479.715 777.389,484.882 775,491.5C 773.39,502.43 772.39,513.43 772,524.5C 769.749,537.401 762.915,546.901 751.5,553C 738.165,557.5 725.831,563.834 714.5,572C 705.887,580.628 699.72,590.795 696,602.5C 694.217,571.958 695.884,541.625 701,511.5C 706.544,487.755 716.377,466.088 730.5,446.5 Z"/></g>
<g><path style="opacity:1" fill="#b1002a" d="M 541.5,476.5 C 542.885,488.586 545.385,500.586 549,512.5C 552.399,527.209 550.733,541.209 544,554.5C 540.088,559.083 535.588,562.917 530.5,566C 508.119,575.903 486.119,586.57 464.5,598C 410.217,630.685 381.051,678.852 377,742.5C 373.043,804.007 387.543,860.673 420.5,912.5C 411.539,912.532 402.539,911.365 393.5,909C 386.874,898.25 380.374,887.416 374,876.5C 355.412,851.676 339.079,825.343 325,797.5C 302.984,735.229 315.484,681.063 362.5,635C 376.324,623.914 391.324,614.58 407.5,607C 428.398,599.923 449.065,592.257 469.5,584C 488.486,576.006 504.986,564.506 519,549.5C 524.591,542.077 528.258,533.744 530,524.5C 532.163,513.19 534.163,501.857 536,490.5C 537.351,485.607 539.185,480.94 541.5,476.5 Z"/></g>
<g><path style="opacity:1" fill="#b1002a" d="M 734.5,609.5 C 740.842,609.334 747.175,609.5 753.5,610C 724.427,627.771 707.26,653.605 702,687.5C 701.802,715.18 701.135,742.847 700,770.5C 696.905,808.784 685.238,844.118 665,876.5C 634.802,916.176 594.635,934.676 544.5,932C 530.575,929.359 517.575,924.359 505.5,917C 504.167,916.333 504.167,915.667 505.5,915C 601.479,876.683 661.312,807.183 685,706.5C 687.55,689.901 689.55,673.234 691,656.5C 693.693,629.648 708.193,613.982 734.5,609.5 Z"/></g>
<g><path style="opacity:1" fill="#b0002a" d="M 300.5,722.5 C 296.711,759.043 304.211,793.376 323,825.5C 338.91,851.238 355.41,876.571 372.5,901.5C 372.167,901.833 371.833,902.167 371.5,902.5C 327.506,884.337 300.339,852.003 290,805.5C 287.695,777.077 291.195,749.411 300.5,722.5 Z"/></g>
<g><path style="opacity:1" fill="#b0002a" d="M 392.5,956.5 C 392.806,959.385 392.473,962.052 391.5,964.5C 355.413,944.254 328.58,915.588 311,878.5C 324.436,894.249 340.936,905.749 360.5,913C 367.843,915.673 375.177,918.34 382.5,921C 388.575,932.058 391.908,943.891 392.5,956.5 Z"/></g>
<g><path style="opacity:1" fill="#b0002a" d="M 643.5,917.5 C 645.646,917.696 645.812,918.696 644,920.5C 622.415,945.537 596.248,964.037 565.5,976C 520.978,976.006 483.311,960.173 452.5,928.5C 463.326,925.8 474.326,923.467 485.5,921.5C 492.078,924.795 498.412,928.629 504.5,933C 538.338,950.492 573.005,952.158 608.5,938C 621.513,933.171 633.179,926.338 643.5,917.5 Z"/></g>
<g><path style="opacity:1" fill="#b0002a" d="M 400.5,926.5 C 401.274,925.853 402.274,925.52 403.5,925.5C 413.47,926.779 423.47,927.779 433.5,928.5C 459.559,958.704 492.226,977.871 531.5,986C 489.084,995.517 448.084,991.351 408.5,973.5C 408.226,960.67 406.726,948.004 404,935.5C 403.1,932.282 401.933,929.282 400.5,926.5 Z"/></g>
<g><path style="opacity:1" fill="#4d0011" d="M 392.5,956.5 C 393.803,959.355 393.803,962.355 392.5,965.5C 391.893,965.376 391.56,965.043 391.5,964.5C 392.473,962.052 392.806,959.385 392.5,956.5 Z"/></g>
</svg>
