<?xml version="1.0" encoding="UTF-8"?>
<!DOCTYPE svg PUBLIC "-//W3C//DTD SVG 1.1//EN" "http://www.w3.org/Graphics/SVG/1.1/DTD/svg11.dtd">
<svg xmlns="http://www.w3.org/2000/svg" version="1.1" width="1200px" height="1200px" style="shape-rendering:geometricPrecision; text-rendering:geometricPrecision; image-rendering:optimizeQuality; fill-rule:evenodd; clip-rule:evenodd" xmlns:xlink="http://www.w3.org/1999/xlink">
<g><path style="opacity:0.953" fill="#b7c3ca" d="M 950.5,273.5 C 951.497,273.47 952.164,273.97 952.5,275C 959.232,304.759 965.565,334.592 971.5,364.5C 996.616,372.094 1021.62,380.094 1046.5,388.5C 1029.44,396.363 1012.44,404.529 995.5,413C 1054.6,436.792 1100.77,475.625 1134,529.5C 1175.62,607.236 1179.62,686.903 1146,768.5C 1095.87,874.187 1012.04,925.02 894.5,921C 803.651,907.136 738.818,858.636 700,775.5C 685.21,741.216 678.044,705.716 678.5,669C 633.181,640.676 585.181,617.676 534.5,600C 509.195,591.065 483.861,582.232 458.5,573.5C 459.025,572.808 459.692,572.308 460.5,572C 521.039,562.424 581.372,563.424 641.5,575C 661.575,579.393 681.075,585.56 700,593.5C 703.343,587.843 706.51,582.01 709.5,576C 617.341,546.972 524.007,542.639 429.5,563C 394.489,571.059 361.156,583.559 329.5,600.5C 329.167,600.167 328.833,599.833 328.5,599.5C 338.647,575.716 348.98,552.05 359.5,528.5C 359,528.167 358.5,527.833 358,527.5C 278.937,550.615 206.77,586.781 141.5,636C 103.818,664.508 67.1514,694.341 31.5,725.5C 31.1667,725 30.8333,724.5 30.5,724C 101.765,566.735 217.431,455.735 377.5,391C 392.005,385.665 406.672,380.832 421.5,376.5C 421.833,376.833 422.167,377.167 422.5,377.5C 419.111,386.306 416.445,394.973 414.5,403.5C 558.77,357.733 705.77,345.566 855.5,367C 845.5,354 835.5,341 825.5,328C 851.203,333.842 876.869,339.842 902.5,346C 918.893,322.034 934.893,297.867 950.5,273.5 Z"/></g>
<g><path style="opacity:1" fill="#0d0507" d="M 942.5,312.5 C 944.117,313.589 944.95,315.256 945,317.5C 947.958,336.126 950.625,354.792 953,373.5C 971.592,379.808 990.092,386.308 1008.5,393C 993.803,399.683 979.136,406.35 964.5,413C 1012.71,431.842 1054.54,460.009 1090,497.5C 1151.23,571.698 1165.56,654.365 1133,745.5C 1107.62,812.541 1062.12,860.374 996.5,889C 899.935,920.826 818.101,898.659 751,822.5C 713.401,775.707 694.901,722.207 695.5,662C 671.89,643.777 646.223,628.777 618.5,617C 580.972,601.602 542.639,588.602 503.5,578C 574.285,573.613 642.285,585.447 707.5,613.5C 715.324,598.186 722.324,582.519 728.5,566.5C 635.341,536.369 540.341,528.869 443.5,544C 413.993,549.114 385.66,557.947 358.5,570.5C 358.167,570.167 357.833,569.833 357.5,569.5C 366.212,548.526 375.212,527.693 384.5,507C 372.281,508.386 360.281,511.053 348.5,515C 242.421,549.257 148.921,604.091 68,679.5C 76.9579,661.497 87.2912,644.164 99,627.5C 169.567,530.313 259.733,457.48 369.5,409C 379.052,405.205 388.719,401.705 398.5,398.5C 398.833,399 399.167,399.5 399.5,400C 396.122,408.3 393.455,416.8 391.5,425.5C 534.847,376.165 681.847,360.998 832.5,380C 850.23,383.007 867.897,386.007 885.5,389C 875.215,375.047 864.548,361.38 853.5,348C 872.604,352.4 891.771,356.9 911,361.5C 912.89,361.215 914.223,360.215 915,358.5C 924.441,343.277 933.608,327.943 942.5,312.5 Z"/></g>
<g><path style="opacity:1" fill="#b7c3ca" d="M 936.5,344.5 C 937.927,346.148 938.76,348.148 939,350.5C 940.427,360.822 941.76,371.155 943,381.5C 955.065,385.855 967.231,390.022 979.5,394C 968.592,398.705 957.759,403.538 947,408.5C 947.722,421.495 948.388,434.495 949,447.5C 940.617,437.906 932.117,428.406 923.5,419C 922.167,418.333 920.833,418.333 919.5,419C 909.264,422.969 898.931,426.302 888.5,429C 893.912,418.175 899.579,407.508 905.5,397C 897.5,386.667 889.5,376.333 881.5,366C 893.091,368.647 904.757,371.48 916.5,374.5C 918.829,373.002 920.663,371.002 922,368.5C 926.662,360.351 931.495,352.351 936.5,344.5 Z"/></g>
<g><path style="opacity:1" fill="#f9f9fa" d="M 747.5,462.5 C 747.631,463.239 747.464,463.906 747,464.5C 745.629,462.959 744.129,461.625 742.5,460.5C 737.533,455.705 732.367,451.038 727,446.5C 720.746,449.377 714.579,452.377 708.5,455.5C 707.193,456.153 705.86,456.82 704.5,457.5C 703.537,457.03 703.537,456.363 704.5,455.5C 707.35,448.297 710.35,441.131 713.5,434C 707.878,427.376 701.878,421.043 695.5,415C 704.438,416.042 713.438,416.375 722.5,416C 726.206,408.754 730.039,401.587 734,394.5C 736.797,402.809 738.963,411.309 740.5,420C 748.916,421.069 757.25,422.569 765.5,424.5C 757.876,428.806 750.543,433.473 743.5,438.5C 744.999,446.504 746.333,454.504 747.5,462.5 Z"/></g>
<g><path style="opacity:1" fill="#b7c3ca" d="M 773.5,427.5 C 828.132,429.383 881.798,438.216 934.5,454C 966.083,463.398 995.083,477.732 1021.5,497C 1028.61,501.941 1034.94,507.775 1040.5,514.5C 1028.44,535.899 1012.44,553.899 992.5,568.5C 957.564,529.52 915.564,500.687 866.5,482C 875.942,479.386 885.609,477.552 895.5,476.5C 911.603,479.719 927.269,484.386 942.5,490.5C 943.696,490.154 943.696,489.654 942.5,489C 918.281,474.059 892.614,462.059 865.5,453C 835.355,442.63 804.688,434.13 773.5,427.5 Z"/></g>
<g><path style="opacity:1" fill="#140f11" d="M 742.5,460.5 C 730.936,459.474 719.603,457.808 708.5,455.5C 714.579,452.377 720.746,449.377 727,446.5C 732.367,451.038 737.533,455.705 742.5,460.5 Z"/></g>
<g><path style="opacity:1" fill="#b7c3ca" d="M 704.5,455.5 C 703.537,456.363 703.537,457.03 704.5,457.5C 705.86,456.82 707.193,456.153 708.5,455.5C 719.603,457.808 730.936,459.474 742.5,460.5C 744.129,461.625 745.629,462.959 747,464.5C 747.464,463.906 747.631,463.239 747.5,462.5C 806.676,471.724 862.009,491.558 913.5,522C 938.166,537.018 960.166,555.352 979.5,577C 972.107,582.365 964.107,586.698 955.5,590C 918.504,603.09 880.838,605.09 842.5,596C 812.787,588.596 783.787,579.096 755.5,567.5C 763.158,554.354 772.158,542.187 782.5,531C 801.513,531.001 819.846,534.667 837.5,542C 854.046,548.023 869.879,555.523 885,564.5C 885.667,563.833 885.667,563.167 885,562.5C 858.814,536.366 827.981,517.532 792.5,506C 736.162,488.332 678.495,477.665 619.5,474C 598.179,472.812 576.846,471.979 555.5,471.5C 536.833,470.833 518.167,470.167 499.5,469.5C 566.975,453.178 635.309,448.512 704.5,455.5 Z"/></g>
<g><path style="opacity:1" fill="#f5f5f6" d="M 451.5,469.5 C 452.649,469.791 453.316,470.624 453.5,472C 454.379,476.733 455.379,481.4 456.5,486C 461.769,487.484 467.102,488.651 472.5,489.5C 467.678,492.498 463.011,495.664 458.5,499C 460.205,504.119 460.538,509.285 459.5,514.5C 455.755,510.583 451.588,507.25 447,504.5C 442.194,506.57 437.527,508.903 433,511.5C 434.343,506.282 436.177,501.115 438.5,496C 435.215,491.712 431.548,487.712 427.5,484C 433.186,483.7 438.853,483.7 444.5,484C 447.245,479.343 449.579,474.51 451.5,469.5 Z"/></g>
<g><path style="opacity:1" fill="#888e93" d="M 499.5,469.5 C 518.167,470.167 536.833,470.833 555.5,471.5C 534.831,471.667 514.164,471.5 493.5,471C 495.436,470.187 497.436,469.687 499.5,469.5 Z"/></g>
<g><path style="opacity:1" fill="#fcfcfd" d="M 926.5,476.5 C 961.912,485.701 994.578,501.201 1024.5,523C 1021.86,527.105 1018.86,530.939 1015.5,534.5C 998.679,517.838 980.012,503.671 959.5,492C 948.715,486.273 937.715,481.106 926.5,476.5 Z"/></g>
<g><path style="opacity:1" fill="#b8c3ca" d="M 1050.5,524.5 C 1055.41,527.898 1059.91,531.898 1064,536.5C 1075.85,550.368 1086.35,565.201 1095.5,581C 1078.08,601.097 1058.25,618.264 1036,632.5C 1025.33,615.158 1014.16,598.158 1002.5,581.5C 1022.05,565.328 1038.05,546.328 1050.5,524.5 Z"/></g>
<g><path style="opacity:1" fill="#fdfdfd" d="M 1056.5,551.5 C 1057.24,551.369 1057.91,551.536 1058.5,552C 1067.98,562.624 1075.98,574.291 1082.5,587C 1077.98,593.02 1072.65,598.187 1066.5,602.5C 1060.3,589.981 1053.3,577.981 1045.5,566.5C 1049.6,561.744 1053.27,556.744 1056.5,551.5 Z"/></g>
<g><path style="opacity:1" fill="#b7c4cb" d="M 727.5,652.5 C 728.889,647.731 729.556,642.731 729.5,637.5C 732.213,618.65 737.713,600.65 746,583.5C 746.725,582.941 747.558,582.608 748.5,582.5C 777.351,593.506 806.685,603.006 836.5,611C 872.181,619.666 907.848,619.666 943.5,611C 959.245,605.794 974.245,598.961 988.5,590.5C 1001.76,605.774 1013.09,622.441 1022.5,640.5C 946.619,684.991 864.619,709.825 776.5,715C 761.822,715.833 747.155,715.666 732.5,714.5C 730.678,706.568 729.178,698.568 728,690.5C 727.5,677.838 727.333,665.171 727.5,652.5 Z"/></g>
<g><path style="opacity:1" fill="#b8c4cb" d="M 1113.5,638.5 C 1113.44,643.731 1114.11,648.731 1115.5,653.5C 1115.5,660.833 1115.5,668.167 1115.5,675.5C 1095.92,676.296 1076.92,679.963 1058.5,686.5C 1054.06,673.614 1049.06,660.948 1043.5,648.5C 1064.92,633.931 1084.75,617.265 1103,598.5C 1108.38,611.34 1111.88,624.673 1113.5,638.5 Z"/></g>
<g><path style="opacity:1" fill="#0277c4" d="M 892.5,650.5 C 896.167,651.167 899.833,651.833 903.5,652.5C 875.735,660.352 848.069,668.519 820.5,677C 865.243,678.65 909.577,675.15 953.5,666.5C 955.373,666.482 955.706,666.982 954.5,668C 888.926,696.748 820.259,710.582 748.5,709.5C 743.047,687.114 743.214,664.78 749,642.5C 750.818,636.035 753.318,629.868 756.5,624C 769.722,628.632 783.056,633.298 796.5,638C 827.946,646.326 859.946,650.492 892.5,650.5 Z"/></g>
<g><path style="opacity:1" fill="#fdfdfd" d="M 1098.5,626.5 C 1100.18,629.888 1101.34,633.555 1102,637.5C 1103.95,647.734 1104.78,658.067 1104.5,668.5C 1098.16,669.085 1091.82,669.751 1085.5,670.5C 1085.22,661.237 1083.55,652.237 1080.5,643.5C 1086.52,637.812 1092.52,632.145 1098.5,626.5 Z"/></g>
<g><path style="opacity:1" fill="#519bc8" d="M 892.5,650.5 C 896.884,650.174 901.217,650.508 905.5,651.5C 905.043,652.298 904.376,652.631 903.5,652.5C 899.833,651.833 896.167,651.167 892.5,650.5 Z"/></g>
<g><path style="opacity:1" fill="#7d8287" d="M 729.5,637.5 C 729.556,642.731 728.889,647.731 727.5,652.5C 727.444,647.269 728.111,642.269 729.5,637.5 Z"/></g>
<g><path style="opacity:1" fill="#7a7f84" d="M 1113.5,638.5 C 1114.89,643.269 1115.56,648.269 1115.5,653.5C 1114.11,648.731 1113.44,643.731 1113.5,638.5 Z"/></g>
<g><path style="opacity:1" fill="#b7c3ca" d="M 1028.5,656.5 C 1029.5,656.414 1030.33,656.748 1031,657.5C 1036.03,668.915 1040.03,680.582 1043,692.5C 1015.38,706.78 992.714,726.78 975,752.5C 952.615,786.602 934.449,822.936 920.5,861.5C 879.295,862.599 841.962,851.099 808.5,827C 775.764,802.435 752.431,770.935 738.5,732.5C 842.076,732.775 938.743,707.441 1028.5,656.5 Z"/></g>
<g><path style="opacity:1" fill="#b7c3ca" d="M 1071.5,792.5 C 1070.83,781.167 1070.17,769.833 1069.5,758.5C 1068.66,738.98 1066.33,719.647 1062.5,700.5C 1071.73,698.062 1081.06,695.895 1090.5,694C 1098.18,693.212 1105.85,692.379 1113.5,691.5C 1108.45,729.005 1094.45,762.672 1071.5,792.5 Z"/></g>
<g><path style="opacity:1" fill="#fafbfb" d="M 1093.5,709.5 C 1095.17,709.5 1096.83,709.5 1098.5,709.5C 1095.67,724.83 1090.83,739.496 1084,753.5C 1085.82,739.571 1087.49,725.571 1089,711.5C 1090.62,710.901 1092.12,710.234 1093.5,709.5 Z"/></g>
<g><path style="opacity:1" fill="#b7c3ca" d="M 1047.5,708.5 C 1048.65,708.791 1049.32,709.624 1049.5,711C 1053.82,737.707 1054.65,764.54 1052,791.5C 1050.58,800.28 1048.75,808.947 1046.5,817.5C 1014.88,843.808 978.551,858.142 937.5,860.5C 950.643,824.881 967.476,791.215 988,759.5C 1004.05,737.943 1023.88,720.943 1047.5,708.5 Z"/></g>
<g><path style="opacity:1" fill="#0377c4" d="M 969.5,712.5 C 970.239,712.369 970.906,712.536 971.5,713C 947.998,735.745 921.998,755.078 893.5,771C 875.5,780.667 857.5,790.333 839.5,800C 870.622,795.28 899.622,784.613 926.5,768C 943.465,757.266 959.632,745.433 975,732.5C 965.111,745.432 955.444,758.765 946,772.5C 931.419,797.998 916.586,823.331 901.5,848.5C 882.719,850.759 864.719,847.926 847.5,840C 813.26,824.427 786.593,800.427 767.5,768C 823.362,764.894 877.362,753.228 929.5,733C 943.614,727.444 956.947,720.611 969.5,712.5 Z"/></g>
<g><path style="opacity:1" fill="#0477c4" d="M 1014.5,753.5 C 1015.1,753.735 1015.43,754.235 1015.5,755C 1012.49,766.412 1010.33,777.912 1009,789.5C 1016.33,777.5 1023.67,765.5 1031,753.5C 1031.77,769.555 1031.1,785.555 1029,801.5C 1028.12,809.094 1026.28,816.428 1023.5,823.5C 1004.9,838.138 984.23,849.138 961.5,856.5C 960.386,855.277 960.219,853.944 961,852.5C 972.093,815.634 989.926,782.634 1014.5,753.5 Z"/></g>
<g><path style="opacity:1" fill="#858a8f" d="M 1069.5,758.5 C 1070.17,769.833 1070.83,781.167 1071.5,792.5C 1071.22,793.289 1070.72,793.956 1070,794.5C 1069.5,782.505 1069.33,770.505 1069.5,758.5 Z"/></g>
</svg>
