<?xml version="1.0" encoding="UTF-8"?>
<!DOCTYPE svg PUBLIC "-//W3C//DTD SVG 1.1//EN" "http://www.w3.org/Graphics/SVG/1.1/DTD/svg11.dtd">
<svg xmlns="http://www.w3.org/2000/svg" version="1.1" width="800px" height="800px" style="shape-rendering:geometricPrecision; text-rendering:geometricPrecision; image-rendering:optimizeQuality; fill-rule:evenodd; clip-rule:evenodd" xmlns:xlink="http://www.w3.org/1999/xlink">
<g><path style="opacity:0.936" fill="#b29659" d="M 398.5,146.5 C 404.742,151.236 410.576,156.569 416,162.5C 420.006,151.499 427.839,146.665 439.5,148C 448.767,150.697 452.934,156.864 452,166.5C 448.323,175.754 441.823,178.588 432.5,175C 428.119,170.918 428.619,167.751 434,165.5C 436.575,167.321 439.241,167.654 442,166.5C 444.045,163.281 443.545,160.448 440.5,158C 434.733,155.3 429.9,156.467 426,161.5C 420.807,175.174 425.64,182.507 440.5,183.5C 449.678,180.088 459.011,176.921 468.5,174C 482.242,171.603 494.909,174.269 506.5,182C 510.833,185.667 515.167,189.333 519.5,193C 584.084,203.751 646.084,222.751 705.5,250C 722.8,260.426 733.3,275.593 737,295.5C 737.667,310.833 737.667,326.167 737,341.5C 736.346,340.304 735.846,340.304 735.5,341.5C 736.634,344.07 737.468,346.736 738,349.5C 738.667,363.167 738.667,376.833 738,390.5C 733.442,409.719 722.276,423.552 704.5,432C 697.599,442.905 688.266,450.905 676.5,456C 676.018,457.008 675.852,458.175 676,459.5C 666.607,471.781 654.44,479.948 639.5,484C 640.956,484.423 641.456,485.256 641,486.5C 629.324,497.588 615.49,504.254 599.5,506.5C 578.286,569.883 536.619,614.05 474.5,639C 397.447,665.251 327.113,653.251 263.5,603C 233.656,576.968 212.322,545.134 199.5,507.5C 183.648,504.324 169.814,497.324 158,486.5C 157.544,485.256 158.044,484.423 159.5,484C 144.514,479.931 132.347,471.765 123,459.5C 123.148,458.175 122.982,457.008 122.5,456C 110.897,450.899 101.564,443.066 94.5,432.5C 80.8038,426.304 70.9705,416.304 65,402.5C 64.6667,385.833 64.3333,369.167 64,352.5C 59.4585,343.877 59.4585,335.21 64,326.5C 64.6667,318.167 64.6667,309.833 64,301.5C 62.7246,299.283 61.7246,296.949 61,294.5C 60.1679,284.816 60.3345,275.149 61.5,265.5C 130.673,230.054 203.673,205.887 280.5,193C 293.761,177.801 310.427,171.467 330.5,174C 339.857,176.769 349.023,179.936 358,183.5C 373.114,182.755 378.114,175.422 373,161.5C 369.1,156.467 364.267,155.3 358.5,158C 354.224,162.125 354.724,165.292 360,167.5C 364.526,164.173 368.026,165.007 370.5,170C 367.214,176.05 362.214,178.05 355.5,176C 345.959,169.676 344.459,161.842 351,152.5C 365.106,143.634 375.939,146.634 383.5,161.5C 388.854,156.812 393.854,151.812 398.5,146.5 Z M 313.5,182.5 C 321.337,181.968 329.003,182.801 336.5,185C 323.918,186.864 311.251,188.697 298.5,190.5C 297.304,190.154 297.304,189.654 298.5,189C 303.367,186.226 308.367,184.059 313.5,182.5 Z M 469.5,182.5 C 481.522,180.757 492.522,183.257 502.5,190C 489.179,188.556 475.846,186.89 462.5,185C 465.004,184.302 467.337,183.469 469.5,182.5 Z"/></g>
<g><path style="opacity:1" fill="#052c5c" d="M 660.5,451.5 C 657.15,451.335 653.817,451.502 650.5,452C 651.244,453.039 652.244,453.539 653.5,453.5C 657.3,455.234 660.966,457.234 664.5,459.5C 652.445,472.474 637.445,478.974 619.5,479C 622.88,480.441 626.047,482.274 629,484.5C 629.167,484.833 629.333,485.167 629.5,485.5C 618.591,494.806 605.925,499.806 591.5,500.5C 567.422,574.075 517.755,620.241 442.5,639C 363.906,653.263 298.073,630.763 245,571.5C 228.082,550.671 215.582,527.337 207.5,501.5C 192.998,500.079 180.331,494.579 169.5,485C 172.534,482.484 175.868,480.484 179.5,479C 166.318,479.161 154.318,475.495 143.5,468C 140.113,465.815 137.446,462.981 135.5,459.5C 138.705,456.729 142.372,454.729 146.5,453.5C 147.289,453.217 147.956,452.717 148.5,452C 144.848,451.501 141.182,451.335 137.5,451.5C 124.783,450.479 114.783,444.812 107.5,434.5C 110.801,431.844 114.468,429.678 118.5,428C 98.1942,427.601 83.3609,418.434 74,400.5C 73.6667,383.5 73.3333,366.5 73,349.5C 69.7179,342.527 69.7179,335.527 73,328.5C 73.6667,318.167 73.6667,307.833 73,297.5C 71.7485,295.999 70.7485,294.332 70,292.5C 69.1689,285.476 69.3356,278.476 70.5,271.5C 78.8333,267.333 87.1667,263.167 95.5,259C 98.8936,258.248 102.227,258.415 105.5,259.5C 106.466,257.604 106.799,255.604 106.5,253.5C 182.942,220.973 262.609,201.139 345.5,194C 354.827,193.5 364.161,193.334 373.5,193.5C 375.241,188.094 378.907,184.761 384.5,183.5C 385.916,173.348 390.916,165.348 399.5,159.5C 408.338,165.179 413.671,173.179 415.5,183.5C 420.554,185.22 423.887,188.554 425.5,193.5C 515.178,196.892 601.511,215.725 684.5,250C 719.984,263.783 734.651,289.617 728.5,327.5C 725.314,327.105 722.314,326.105 719.5,324.5C 719.167,324.833 718.833,325.167 718.5,325.5C 723.652,333.137 727.152,341.47 729,350.5C 729.667,363.167 729.667,375.833 729,388.5C 724.878,407.289 713.712,419.789 695.5,426C 690.53,426.886 685.53,427.552 680.5,428C 684.079,429.706 687.579,431.539 691,433.5C 691.667,434.5 691.667,435.5 691,436.5C 682.896,445.635 672.729,450.635 660.5,451.5 Z"/></g>
<g><path style="opacity:1" fill="#f5f7f8" d="M 360.5,204.5 C 364.846,204.334 369.179,204.501 373.5,205C 375.673,208.339 378.34,211.172 381.5,213.5C 298.744,216.179 218.744,232.179 141.5,261.5C 141.248,258.68 141.748,256.014 143,253.5C 146.081,250.707 149.581,248.54 153.5,247C 220.672,223.266 289.672,209.1 360.5,204.5 Z"/></g>
<g><path style="opacity:1" fill="#de1837" d="M 408.5,205.5 C 408.5,206.5 408.5,207.5 408.5,208.5C 405.941,208.198 403.607,208.532 401.5,209.5C 402.117,211.229 403.117,212.729 404.5,214C 402.247,215.712 400.58,217.879 399.5,220.5C 398.42,217.879 396.753,215.712 394.5,214C 395.687,212.981 396.687,211.814 397.5,210.5C 395.257,209.526 392.924,209.192 390.5,209.5C 390.5,208.167 390.5,206.833 390.5,205.5C 391.5,205.5 392.5,205.5 393.5,205.5C 393.695,201.063 391.861,199.396 388,200.5C 387.51,201.793 387.343,203.127 387.5,204.5C 381.965,203.092 380.465,199.758 383,194.5C 388.516,191.092 392.516,192.425 395,198.5C 395.497,200.81 395.663,203.143 395.5,205.5C 396.5,205.5 397.5,205.5 398.5,205.5C 397.456,198.364 395.789,191.364 393.5,184.5C 397.534,168.519 401.534,168.519 405.5,184.5C 403.626,191.453 401.96,198.453 400.5,205.5C 401.5,205.5 402.5,205.5 403.5,205.5C 403.16,201.869 403.994,198.536 406,195.5C 409.667,191.5 413.333,191.5 417,195.5C 418.059,199.381 416.892,202.381 413.5,204.5C 410.132,197.836 407.465,198.169 405.5,205.5C 406.5,205.5 407.5,205.5 408.5,205.5 Z"/></g>
<g><path style="opacity:1" fill="#f6f7f9" d="M 425.5,204.5 C 506.118,208.323 584.118,224.49 659.5,253C 664.236,255.682 665.569,259.515 663.5,264.5C 584.75,233.816 503.083,216.816 418.5,213.5C 421.263,210.748 423.597,207.748 425.5,204.5 Z"/></g>
<g><path style="opacity:1" fill="#941e43" d="M 408.5,205.5 C 409.434,206.568 409.768,207.901 409.5,209.5C 406.833,209.5 404.167,209.5 401.5,209.5C 403.607,208.532 405.941,208.198 408.5,208.5C 408.5,207.5 408.5,206.5 408.5,205.5 Z"/></g>
<g><path style="opacity:1" fill="#fafafb" d="M 438.5,317.5 C 438.5,319.833 438.5,322.167 438.5,324.5C 434.167,324.5 429.833,324.5 425.5,324.5C 423.292,323.977 421.792,322.644 421,320.5C 420.963,307.405 420.296,294.405 419,281.5C 418.097,280.299 416.931,279.465 415.5,279C 410.98,278.186 406.646,278.353 402.5,279.5C 401.504,293.99 401.171,308.657 401.5,323.5C 397.167,323.5 392.833,323.5 388.5,323.5C 388.833,308.152 388.499,292.819 387.5,277.5C 383.468,274.098 383.635,270.765 388,267.5C 388.667,256.833 388.667,246.167 388,235.5C 384.293,232.75 382.793,229.084 383.5,224.5C 394.505,224.333 405.505,224.5 416.5,225C 425.454,226.619 431.287,231.786 434,240.5C 434.667,247.5 434.667,254.5 434,261.5C 432.855,265.794 430.688,269.461 427.5,272.5C 430.296,275.796 432.463,279.463 434,283.5C 434.168,293.849 434.668,304.183 435.5,314.5C 436.855,315.188 437.855,316.188 438.5,317.5 Z"/></g>
<g><path style="opacity:1" fill="#f6f7f9" d="M 347.5,224.5 C 357.364,223.087 365.864,225.753 373,232.5C 374,234.5 375,236.5 376,238.5C 376.168,248.517 376.668,258.517 377.5,268.5C 381.532,271.902 381.365,275.235 377,278.5C 376.91,289.891 376.243,301.224 375,312.5C 372.192,319.661 367.026,324.161 359.5,326C 352.833,326.667 346.167,326.667 339.5,326C 333.447,323.394 329.613,318.894 328,312.5C 327.832,302.151 327.332,291.817 326.5,281.5C 322.607,278.248 322.607,274.914 326.5,271.5C 327.067,260.445 327.9,249.445 329,238.5C 333.321,231.339 339.488,226.673 347.5,224.5 Z"/></g>
<g><path style="opacity:1" fill="#f8f9fa" d="M 452.5,226.5 C 456.869,226.467 461.202,226.8 465.5,227.5C 466.285,231.596 465.118,234.93 462,237.5C 461.333,263.5 461.333,289.5 462,315.5C 466.69,316.941 471.523,317.608 476.5,317.5C 476.334,308.494 476.5,299.494 477,290.5C 478.299,289.02 479.966,288.354 482,288.5C 484.498,288.917 486.998,289.251 489.5,289.5C 489.823,302.746 489.489,315.913 488.5,329C 474.869,328.074 461.202,327.241 447.5,326.5C 447.667,310.83 447.5,295.163 447,279.5C 442.649,276.283 442.482,272.95 446.5,269.5C 447.666,258.515 447.832,247.515 447,236.5C 445.198,235.211 444.031,233.544 443.5,231.5C 443.5,229.833 443.5,228.167 443.5,226.5C 446.5,226.5 449.5,226.5 452.5,226.5 Z"/></g>
<g><path style="opacity:1" fill="#7f94ad" d="M 452.5,226.5 C 449.5,226.5 446.5,226.5 443.5,226.5C 443.5,228.167 443.5,229.833 443.5,231.5C 442.539,229.735 442.205,227.735 442.5,225.5C 446.042,225.187 449.375,225.521 452.5,226.5 Z"/></g>
<g><path style="opacity:1" fill="#f9fafb" d="M 541.5,240.5 C 541.5,250.167 541.5,259.833 541.5,269.5C 540.5,269.5 539.5,269.5 538.5,269.5C 535.421,269.196 532.587,268.196 530,266.5C 529.813,259.919 529.313,253.419 528.5,247C 523.552,245.95 518.552,245.45 513.5,245.5C 513.334,255.506 513.5,265.506 514,275.5C 520.295,277.71 526.795,279.044 533.5,279.5C 533.5,283.167 533.5,286.833 533.5,290.5C 526.81,290.052 520.143,289.385 513.5,288.5C 513.5,299.833 513.5,311.167 513.5,322.5C 518.804,323.384 524.137,324.051 529.5,324.5C 529.334,318.491 529.501,312.491 530,306.5C 534.109,305.444 538.275,305.444 542.5,306.5C 542.819,316.749 542.486,326.916 541.5,337C 528.056,336.146 514.722,334.313 501.5,331.5C 500.833,315.833 500.167,300.167 499.5,284.5C 494.167,281.167 494.167,277.833 499.5,274.5C 500.666,263.849 500.832,253.182 500,242.5C 495.772,239.437 494.605,235.437 496.5,230.5C 510.809,232.996 525.143,235.496 539.5,238C 540.381,238.708 541.047,239.542 541.5,240.5 Z"/></g>
<g><path style="opacity:1" fill="#f8f9fa" d="M 280.5,233.5 C 282.833,233.5 285.167,233.5 287.5,233.5C 288.112,238.611 286.278,242.611 282,245.5C 280.98,255.351 279.813,265.184 278.5,275C 279.555,277.507 280.555,280.007 281.5,282.5C 281.362,285.477 279.862,287.477 277,288.5C 275.662,302.538 273.995,316.538 272,330.5C 271.837,332.676 271.004,334.509 269.5,336C 264.866,337.027 260.2,337.86 255.5,338.5C 253.307,338.674 251.473,338.007 250,336.5C 246.55,315.8 242.883,295.133 239,274.5C 234.947,295.764 231.281,317.097 228,338.5C 227.771,341.458 226.604,343.958 224.5,346C 219.242,346.773 214.075,347.94 209,349.5C 207.893,349.415 206.893,349.081 206,348.5C 204.096,334.533 202.596,320.533 201.5,306.5C 196.849,305.826 195.349,303.159 197,298.5C 198.022,297.646 198.855,296.646 199.5,295.5C 198.384,285.851 197.217,276.185 196,266.5C 193.143,264.486 191.309,261.82 190.5,258.5C 190.57,257.228 190.903,256.062 191.5,255C 196.763,253.185 202.097,251.685 207.5,250.5C 209.935,277.281 213.268,303.947 217.5,330.5C 221.844,302.411 226.678,274.411 232,246.5C 236.285,242.268 240.952,241.602 246,244.5C 251.146,270.749 255.812,297.082 260,323.5C 263.94,294.225 267.44,264.892 270.5,235.5C 274.011,235.101 277.344,234.434 280.5,233.5 Z"/></g>
<g><path style="opacity:1" fill="#012a5b" d="M 347.5,236.5 C 350.85,236.335 354.183,236.502 357.5,237C 359.667,237.833 361.167,239.333 362,241.5C 362.667,263.833 362.667,286.167 362,308.5C 359.908,313.472 356.075,315.805 350.5,315.5C 346.312,316.146 343.478,314.48 342,310.5C 341.333,287.5 341.333,264.5 342,241.5C 343.73,239.598 345.563,237.931 347.5,236.5 Z"/></g>
<g><path style="opacity:1" fill="#032b5c" d="M 402.5,235.5 C 415.998,232.566 421.998,237.899 420.5,251.5C 422.459,265.535 416.459,270.868 402.5,267.5C 402.5,256.833 402.5,246.167 402.5,235.5 Z"/></g>
<g><path style="opacity:1" fill="#a7b5c6" d="M 541.5,240.5 C 542.494,250.319 542.827,260.319 542.5,270.5C 540.901,270.768 539.568,270.434 538.5,269.5C 539.5,269.5 540.5,269.5 541.5,269.5C 541.5,259.833 541.5,250.167 541.5,240.5 Z"/></g>
<g><path style="opacity:1" fill="#f8f9fa" d="M 563.5,243.5 C 569.849,244.837 576.183,246.337 582.5,248C 585,249.167 586.833,251 588,253.5C 590.415,267.148 592.748,280.814 595,294.5C 597.111,296.102 598.611,298.102 599.5,300.5C 598.5,302.5 597.5,304.5 596.5,306.5C 599.708,322.079 602.374,337.746 604.5,353.5C 599.668,353.278 595.168,351.945 591,349.5C 590.525,340.86 589.358,332.36 587.5,324C 580.945,321.86 574.278,320.36 567.5,319.5C 566.598,326.915 565.264,334.248 563.5,341.5C 562.667,341.833 561.833,342.167 561,342.5C 557.837,341.75 554.67,341.084 551.5,340.5C 553.655,325.92 556.322,311.42 559.5,297C 557.96,294.917 556.96,292.584 556.5,290C 556.748,286.918 558.415,285.418 561.5,285.5C 562.986,275.735 564.986,266.068 567.5,256.5C 566.57,254.394 565.404,252.394 564,250.5C 563.503,248.19 563.337,245.857 563.5,243.5 Z"/></g>
<g><path style="opacity:1" fill="#fbfcfc" d="M 98.5,322.5 C 98.2914,321.078 97.7914,319.745 97,318.5C 96.5,342.498 96.3334,366.498 96.5,390.5C 93.6963,392.405 90.6963,394.071 87.5,395.5C 86.8333,376.833 86.1667,358.167 85.5,339.5C 80.4542,336.787 80.2875,333.453 85,329.5C 85.8327,315.821 85.6661,302.154 84.5,288.5C 82.0454,287.09 81.0454,284.923 81.5,282C 81.8333,280.5 82.1667,279 82.5,277.5C 86.6194,275.941 90.6194,274.107 94.5,272C 96.1124,271.28 97.6124,271.446 99,272.5C 105.151,291.777 110.984,311.11 116.5,330.5C 116.461,331.756 116.961,332.756 118,333.5C 118.5,309.502 118.667,285.502 118.5,261.5C 123.141,259.515 127.807,257.515 132.5,255.5C 134.119,259.995 133.286,263.995 130,267.5C 129.167,281.512 129.334,295.512 130.5,309.5C 134.179,312.267 134.179,315.267 130.5,318.5C 129.667,337.491 129.167,356.491 129,375.5C 125.263,378.804 121.096,380.471 116.5,380.5C 110.373,361.187 104.373,341.854 98.5,322.5 Z"/></g>
<g><path style="opacity:1" fill="#fafafb" d="M 647.5,329.5 C 647.892,331.179 648.392,332.846 649,334.5C 649.5,312.836 649.667,291.169 649.5,269.5C 654.844,271.174 660.177,272.841 665.5,274.5C 666.379,279.001 664.879,282.334 661,284.5C 660.333,295.167 660.333,305.833 661,316.5C 664.25,319.101 665.084,322.267 663.5,326C 662.552,326.483 661.552,326.649 660.5,326.5C 660.667,341.504 660.5,356.504 660,371.5C 659.586,371.957 659.086,372.291 658.5,372.5C 655.5,371.333 652.5,370.167 649.5,369C 647.428,365.798 645.928,362.298 645,358.5C 640.289,339.982 635.122,321.649 629.5,303.5C 629.313,301.436 628.813,299.436 628,297.5C 627.832,318.671 627.332,339.671 626.5,360.5C 622.834,360.042 619.334,359.042 616,357.5C 615.667,341.833 615.333,326.167 615,310.5C 610.635,307.235 610.468,303.902 614.5,300.5C 615.666,289.849 615.832,279.182 615,268.5C 611.903,265.14 610.736,261.14 611.5,256.5C 617.314,257.827 622.981,259.66 628.5,262C 635.738,284.219 642.072,306.719 647.5,329.5 Z"/></g>
<g><path style="opacity:1" fill="#fbfcfc" d="M 171.5,290.5 C 171.829,284.463 171.496,278.463 170.5,272.5C 169.893,272.624 169.56,272.957 169.5,273.5C 164.672,274.276 160.172,275.943 156,278.5C 155.5,288.494 155.334,298.494 155.5,308.5C 162.167,306.833 168.833,305.167 175.5,303.5C 175.5,307.167 175.5,310.833 175.5,314.5C 168.676,315.941 162.176,318.275 156,321.5C 155.333,332.5 155.333,343.5 156,354.5C 156.414,354.957 156.914,355.291 157.5,355.5C 162.05,353.428 166.717,351.762 171.5,350.5C 171.334,344.158 171.5,337.825 172,331.5C 175.141,328.562 178.807,326.562 183,325.5C 183.667,335.833 183.667,346.167 183,356.5C 170.209,361.264 157.376,365.93 144.5,370.5C 143.833,355.5 143.167,340.5 142.5,325.5C 140.05,325.126 139.05,323.626 139.5,321C 139.343,318.148 140.51,315.982 143,314.5C 143.667,304.167 143.667,293.833 143,283.5C 139.02,280.982 137.52,277.315 138.5,272.5C 151.502,268.11 164.502,263.61 177.5,259C 179.473,258.505 181.473,258.338 183.5,258.5C 183.832,268.855 183.499,279.188 182.5,289.5C 178.785,291.299 175.118,291.633 171.5,290.5 Z"/></g>
<g><path style="opacity:1" fill="#728aa5" d="M 118.5,261.5 C 118.667,285.502 118.5,309.502 118,333.5C 116.961,332.756 116.461,331.756 116.5,330.5C 117.167,307.5 117.833,284.5 118.5,261.5 Z"/></g>
<g><path style="opacity:1" fill="#f8f9fa" d="M 678.5,264.5 C 696.443,264.718 708.943,273.052 716,289.5C 716.667,295.5 716.667,301.5 716,307.5C 706.032,304.163 701.699,297.163 703,286.5C 698.874,279.581 693.207,277.248 686,279.5C 685.333,287.833 685.333,296.167 686,304.5C 689.421,311.921 694.754,317.254 702,320.5C 704.015,326.87 707.348,332.536 712,337.5C 713.667,340.833 715.333,344.167 717,347.5C 717.667,359.833 717.667,372.167 717,384.5C 716.261,387.573 714.428,389.74 711.5,391C 696.596,391.437 684.763,385.604 676,373.5C 671.808,365.654 670.474,357.321 672,348.5C 675.955,349.977 679.622,351.977 683,354.5C 681.768,364.926 685.602,372.76 694.5,378C 697.562,378.741 700.562,378.575 703.5,377.5C 704.666,366.181 704.832,354.848 704,343.5C 702.323,337.484 698.489,333.984 692.5,333C 689.527,330.552 688.027,327.386 688,323.5C 672.952,309.66 667.952,292.66 673,272.5C 674.243,269.424 676.077,266.757 678.5,264.5 Z"/></g>
<g><path style="opacity:1" fill="#0f3060" d="M 577.5,260.5 C 580.519,274.269 583.019,288.269 585,302.5C 585.821,305.554 585.655,308.554 584.5,311.5C 579.787,310.854 575.287,309.521 571,307.5C 570.595,301.807 570.928,296.141 572,290.5C 574.159,280.547 575.992,270.547 577.5,260.5 Z"/></g>
<g><path style="opacity:1" fill="#36577e" d="M 649.5,269.5 C 649.667,291.169 649.5,312.836 649,334.5C 648.392,332.846 647.892,331.179 647.5,329.5C 648.167,309.5 648.833,289.5 649.5,269.5 Z"/></g>
<g><path style="opacity:1" fill="#516d8f" d="M 169.5,273.5 C 169.56,272.957 169.893,272.624 170.5,272.5C 171.496,278.463 171.829,284.463 171.5,290.5C 170.833,284.833 170.167,279.167 169.5,273.5 Z"/></g>
<g><path style="opacity:1" fill="#a4b3c5" d="M 402.5,279.5 C 402.5,294.5 402.5,309.5 402.5,324.5C 397.637,324.819 392.97,324.486 388.5,323.5C 392.833,323.5 397.167,323.5 401.5,323.5C 401.171,308.657 401.504,293.99 402.5,279.5 Z"/></g>
<g><path style="opacity:1" fill="#214571" d="M 629.5,303.5 C 628.833,322.671 628.167,342.004 627.5,361.5C 626.893,361.376 626.56,361.043 626.5,360.5C 627.332,339.671 627.832,318.671 628,297.5C 628.813,299.436 629.313,301.436 629.5,303.5 Z"/></g>
<g><path style="opacity:1" fill="#2b4f78" d="M 98.5,322.5 C 97.8333,345.167 97.1667,367.833 96.5,390.5C 96.3334,366.498 96.5,342.498 97,318.5C 97.7914,319.745 98.2914,321.078 98.5,322.5 Z"/></g>
<g><path style="opacity:1" fill="#7b91aa" d="M 438.5,317.5 C 439.473,319.948 439.806,322.615 439.5,325.5C 434.637,325.819 429.97,325.486 425.5,324.5C 429.833,324.5 434.167,324.5 438.5,324.5C 438.5,322.167 438.5,319.833 438.5,317.5 Z"/></g>
<g><path style="opacity:1" fill="#67809e" d="M 142.5,325.5 C 143.167,340.5 143.833,355.5 144.5,370.5C 144.44,371.043 144.107,371.376 143.5,371.5C 142.501,356.181 142.167,340.848 142.5,325.5 Z"/></g>
<g><path style="opacity:1" fill="#b6c3d0" d="M 85.5,339.5 C 86.1667,358.167 86.8333,376.833 87.5,395.5C 87.44,396.043 87.1067,396.376 86.5,396.5C 85.5004,377.512 85.1671,358.512 85.5,339.5 Z"/></g>
<g><path style="opacity:1" fill="#f7f8fa" d="M 333.5,339.5 C 339.925,339.13 346.258,339.63 352.5,341C 353.059,341.725 353.392,342.558 353.5,343.5C 348.16,352.176 343.327,361.176 339,370.5C 328.544,401.35 335.544,427.35 360,448.5C 360.612,450.237 359.946,451.237 358,451.5C 331.635,434.763 320.301,410.763 324,379.5C 325.243,370.606 327.743,362.106 331.5,354C 306.889,355.045 282.555,358.379 258.5,364C 211.627,374.846 165.961,389.513 121.5,408C 117.833,408.667 114.167,408.667 110.5,408C 108.579,407.64 106.912,406.806 105.5,405.5C 177.896,370.738 253.896,348.738 333.5,339.5 Z"/></g>
<g><path style="opacity:1" fill="#f7f8fa" d="M 447.5,339.5 C 533.605,346.193 615.605,368.193 693.5,405.5C 688.46,408.116 683.127,408.949 677.5,408C 627.985,387.404 576.985,371.738 524.5,361C 507.289,357.658 489.956,355.158 472.5,353.5C 471.167,353.833 469.833,354.167 468.5,354.5C 483.425,389.608 477.092,420.108 449.5,446C 446.971,448.029 444.304,449.862 441.5,451.5C 439.899,450.965 439.399,449.965 440,448.5C 467.813,421.764 472.479,391.43 454,357.5C 451.333,353.5 448.667,349.5 446,345.5C 445.252,343.16 445.752,341.16 447.5,339.5 Z"/></g>
<g><path style="opacity:1" fill="#f7f8fa" d="M 391.5,358.5 C 401.178,357.058 410.011,359.058 418,364.5C 418.873,364.265 419.707,363.931 420.5,363.5C 429.915,375.539 432.081,388.873 427,403.5C 420.616,405.032 415.283,408.365 411,413.5C 410.333,410.833 410.333,408.167 411,405.5C 414.246,404.061 417.579,402.728 421,401.5C 424.008,396.947 425.174,391.947 424.5,386.5C 422.011,386.298 419.677,386.798 417.5,388C 412.794,393.267 408.461,398.767 404.5,404.5C 403.029,403.619 402.196,402.286 402,400.5C 401.421,394.792 400.588,389.125 399.5,383.5C 398.743,389.514 397.909,395.514 397,401.5C 396.632,402.91 395.799,403.91 394.5,404.5C 391.09,399.36 387.423,394.36 383.5,389.5C 380.972,387.126 377.972,386.126 374.5,386.5C 374.884,391.69 376.05,396.69 378,401.5C 380.596,403.02 383.429,403.853 386.5,404C 389.605,406.844 390.105,410.011 388,413.5C 384.201,408.019 379.034,404.685 372.5,403.5C 367.638,390.598 368.805,378.265 376,366.5C 381.658,364.755 386.824,362.088 391.5,358.5 Z"/></g>
<g><path style="opacity:1" fill="#b2955a" d="M 300.5,376.5 C 302.5,376.5 304.5,376.5 306.5,376.5C 305.861,383.148 305.527,389.814 305.5,396.5C 273.836,403.083 242.502,410.916 211.5,420C 197.701,423.012 186.368,419.179 177.5,408.5C 184.454,405.009 191.787,402.176 199.5,400C 232.873,390.364 266.54,382.53 300.5,376.5 Z"/></g>
<g><path style="opacity:1" fill="#b2965a" d="M 492.5,376.5 C 536.769,382.651 579.769,393.318 621.5,408.5C 618.051,414.101 613.051,417.601 606.5,419C 599.567,420.506 592.567,420.839 585.5,420C 555.05,411.221 524.384,403.388 493.5,396.5C 493.664,389.798 493.331,383.131 492.5,376.5 Z"/></g>
<g><path style="opacity:1" fill="#ae1d40" d="M 381.5,399.5 C 382.386,398.224 383.386,398.224 384.5,399.5C 383.575,400.562 382.575,400.562 381.5,399.5 Z"/></g>
<g><path style="opacity:1" fill="#b01e3f" d="M 417.5,394.5 C 419.982,396.975 419.316,398.975 415.5,400.5C 415.167,400.167 414.833,399.833 414.5,399.5C 415.325,398.614 416.325,398.281 417.5,398.5C 417.5,397.167 417.5,395.833 417.5,394.5 Z"/></g>
<g><path style="opacity:1" fill="#b2955a" d="M 302.5,408.5 C 304.288,408.215 305.955,408.548 307.5,409.5C 309.374,415.12 311.041,420.787 312.5,426.5C 288.798,433.176 265.131,440.009 241.5,447C 227.375,449.954 215.042,446.62 204.5,437C 236.577,424.986 269.244,415.486 302.5,408.5 Z"/></g>
<g><path style="opacity:1" fill="#b2955a" d="M 491.5,408.5 C 526.717,415.129 561.051,424.796 594.5,437.5C 588.789,442.521 582.122,445.687 574.5,447C 565.69,448.029 557.023,447.363 548.5,445C 527.655,438.996 506.988,432.496 486.5,425.5C 488.78,419.994 490.447,414.327 491.5,408.5 Z"/></g>
<g><path style="opacity:1" fill="#dd1938" d="M 398.5,409.5 C 400.716,410.203 402.549,411.536 404,413.5C 404.333,417.5 404.667,421.5 405,425.5C 406.695,419.054 407.528,419.054 407.5,425.5C 403.638,459.735 402.138,494.069 403,528.5C 403.406,532.272 404.239,535.939 405.5,539.5C 403.5,542.833 401.5,546.167 399.5,549.5C 397.341,546.023 395.674,542.356 394.5,538.5C 397.281,500.935 396.281,463.435 391.5,426C 391.316,418.918 392.149,418.751 394,425.5C 394.333,421.5 394.667,417.5 395,413.5C 396.376,412.295 397.542,410.962 398.5,409.5 Z"/></g>
<g><path style="opacity:1" fill="#db1938" d="M 389.5,472.5 C 389.672,473.492 389.338,474.158 388.5,474.5C 385.111,456.826 381.944,439.16 379,421.5C 382.227,421.323 384.56,422.99 386,426.5C 387.688,441.794 388.854,457.127 389.5,472.5 Z"/></g>
<g><path style="opacity:1" fill="#dc1938" d="M 418.5,420.5 C 419.693,420.97 420.36,421.97 420.5,423.5C 416.682,441.437 413.182,459.437 410,477.5C 410.5,460.492 411.5,443.492 413,426.5C 414.626,424.195 416.46,422.195 418.5,420.5 Z"/></g>
<g><path style="opacity:1" fill="#b2955a" d="M 315.5,434.5 C 317.017,434.511 318.184,435.177 319,436.5C 321.092,439.681 323.425,442.681 326,445.5C 326.688,446.332 326.521,446.998 325.5,447.5C 308.176,455.219 290.509,462.053 272.5,468C 264.555,469.488 256.555,469.822 248.5,469C 244.319,467.487 240.652,465.154 237.5,462C 263.485,452.507 289.485,443.34 315.5,434.5 Z"/></g>
<g><path style="opacity:1" fill="#b2955a" d="M 481.5,434.5 C 508.402,443.245 535.069,452.578 561.5,462.5C 558.091,465.738 554.091,467.905 549.5,469C 538.928,470.234 528.595,469.234 518.5,466C 503.46,459.931 488.46,453.764 473.5,447.5C 472.479,446.998 472.312,446.332 473,445.5C 476.326,442.164 479.159,438.498 481.5,434.5 Z"/></g>
<g><path style="opacity:1" fill="#5e635b" d="M 137.5,451.5 C 141.182,451.335 144.848,451.501 148.5,452C 147.956,452.717 147.289,453.217 146.5,453.5C 143.5,452.833 140.5,452.167 137.5,451.5 Z"/></g>
<g><path style="opacity:1" fill="#f7f7f8" d="M 382.5,470.5 C 376.015,473.307 370.015,476.973 364.5,481.5C 361.958,471.465 363.958,462.465 370.5,454.5C 373.163,452.379 375.996,451.713 379,452.5C 380.277,458.501 381.444,464.501 382.5,470.5 Z"/></g>
<g><path style="opacity:1" fill="#5d625b" d="M 660.5,451.5 C 658.167,452.167 655.833,452.833 653.5,453.5C 652.244,453.539 651.244,453.039 650.5,452C 653.817,451.502 657.15,451.335 660.5,451.5 Z"/></g>
<g><path style="opacity:1" fill="#f5f6f7" d="M 434.5,481.5 C 429.22,476.891 423.22,473.558 416.5,471.5C 417.725,465.153 419.058,458.82 420.5,452.5C 423.307,451.863 425.973,452.529 428.5,454.5C 435.241,462.416 437.241,471.416 434.5,481.5 Z"/></g>
<g><path style="opacity:1" fill="#b1955a" d="M 332.5,454.5 C 337.339,455.926 341.672,458.426 345.5,462C 335.419,470.711 324.085,477.377 311.5,482C 299.347,485.631 287.347,485.298 275.5,481C 294.44,471.862 313.44,463.029 332.5,454.5 Z"/></g>
<g><path style="opacity:1" fill="#b1955a" d="M 463.5,454.5 C 483.851,462.508 503.851,471.341 523.5,481C 508.573,486.183 493.906,485.516 479.5,479C 470.492,473.831 461.825,468.164 453.5,462C 457.08,459.723 460.414,457.223 463.5,454.5 Z"/></g>
<g><path style="opacity:1" fill="#f4f5f7" d="M 448.5,510.5 C 447.873,503.243 445.539,496.577 441.5,490.5C 442.973,482.924 443.806,475.257 444,467.5C 451.121,475.538 455.121,484.871 456,495.5C 454.524,501.119 452.024,506.119 448.5,510.5 Z"/></g>
<g><path style="opacity:1" fill="#f8f8f9" d="M 357.5,490.5 C 353.578,496.599 351.245,503.266 350.5,510.5C 343.292,502.155 341.792,492.822 346,482.5C 348.501,477.494 351.501,472.827 355,468.5C 355.394,475.895 356.227,483.228 357.5,490.5 Z"/></g>
<g><path style="opacity:1" fill="#b1955a" d="M 382.5,470.5 C 385.629,483.638 388.463,496.971 391,510.5C 391.673,519.237 391.173,527.903 389.5,536.5C 387.08,536.708 384.747,536.374 382.5,535.5C 381.799,527.894 379.965,520.56 377,513.5C 371.938,503.141 367.771,492.475 364.5,481.5C 370.015,476.973 376.015,473.307 382.5,470.5 Z"/></g>
<g><path style="opacity:1" fill="#b1955a" d="M 416.5,471.5 C 423.22,473.558 429.22,476.891 434.5,481.5C 430.52,494.466 425.686,507.133 420,519.5C 418.038,524.656 417.205,529.989 417.5,535.5C 414.873,536.092 412.206,536.425 409.5,536.5C 407.896,529.247 407.396,521.914 408,514.5C 410.393,500.036 413.226,485.703 416.5,471.5 Z"/></g>
<g><path style="opacity:1" fill="#792148" d="M 389.5,472.5 C 390.634,474.966 390.801,477.633 390,480.5C 389.495,478.482 388.995,476.482 388.5,474.5C 389.338,474.158 389.672,473.492 389.5,472.5 Z"/></g>
<g><path style="opacity:1" fill="#ad925a" d="M 335.5,478.5 C 336.376,478.369 337.043,478.702 337.5,479.5C 334.726,484.485 333.393,489.818 333.5,495.5C 329.847,495.888 326.18,496.221 322.5,496.5C 319.283,496.653 316.283,495.986 313.5,494.5C 320.901,489.145 328.234,483.812 335.5,478.5 Z"/></g>
<g><path style="opacity:1" fill="#ad925a" d="M 462.5,478.5 C 470.312,483.577 477.979,488.91 485.5,494.5C 479.634,496.4 473.634,496.9 467.5,496C 466.146,490.1 464.479,484.267 462.5,478.5 Z"/></g>
<g><path style="opacity:1" fill="#b1955a" d="M 357.5,490.5 C 364.081,503.057 369.414,516.224 373.5,530C 373.167,530.5 372.833,531 372.5,531.5C 363.148,526.479 355.815,519.479 350.5,510.5C 351.245,503.266 353.578,496.599 357.5,490.5 Z"/></g>
<g><path style="opacity:1" fill="#b2965b" d="M 441.5,490.5 C 445.539,496.577 447.873,503.243 448.5,510.5C 443.185,519.315 436.018,526.315 427,531.5C 426.964,526.345 427.964,521.345 430,516.5C 434.148,507.857 437.982,499.19 441.5,490.5 Z"/></g>
<g><path style="opacity:1" fill="#e21a37" d="M 226.5,514.5 C 238.588,517.757 250.921,519.257 263.5,519C 260.5,521.333 257.5,523.667 254.5,526C 275.251,531.877 296.251,532.877 317.5,529C 323.009,527.664 328.343,525.83 333.5,523.5C 351.55,565.524 382.55,580.024 426.5,567C 446.006,558.328 459.006,543.828 465.5,523.5C 480.818,530.185 496.818,532.685 513.5,531C 523.998,530.317 534.332,528.651 544.5,526C 541.5,523.667 538.5,521.333 535.5,519C 547.569,519.243 559.402,517.743 571,514.5C 571.5,514.833 572,515.167 572.5,515.5C 544.014,577.803 496.014,615.303 428.5,628C 345.414,637.035 281.581,606.535 237,536.5C 233.216,529.266 229.716,521.933 226.5,514.5 Z"/></g>
<g><path style="opacity:1" fill="#e5e7e9" d="M 350.5,525.5 C 351.767,530.966 353.433,536.299 355.5,541.5C 348.911,533.99 344.745,525.323 343,515.5C 345.266,519.042 347.766,522.375 350.5,525.5 Z"/></g>
<g><path style="opacity:1" fill="#e5e7e9" d="M 442.5,543.5 C 444.894,537.984 446.894,532.318 448.5,526.5C 451.144,523.006 453.644,519.34 456,515.5C 454.445,526.277 449.945,535.61 442.5,543.5 Z"/></g>
<g><path style="opacity:1" fill="#b1955a" d="M 350.5,525.5 C 357.327,532.331 364.994,537.998 373.5,542.5C 372.338,546.53 370.004,549.53 366.5,551.5C 362.217,548.885 358.55,545.552 355.5,541.5C 353.433,536.299 351.767,530.966 350.5,525.5 Z"/></g>
<g><path style="opacity:1" fill="#b1955a" d="M 448.5,526.5 C 446.894,532.318 444.894,537.984 442.5,543.5C 439.834,546.999 436.667,549.999 433,552.5C 429.603,550.115 427.437,546.949 426.5,543C 426.833,542.167 427.167,541.333 427.5,540.5C 435.062,536.592 442.062,531.925 448.5,526.5 Z"/></g>
<g><path style="opacity:1" fill="#fef0f1" d="M 289.5,542.5 C 293.499,546.33 297.665,549.997 302,553.5C 303.643,558.428 302.143,561.928 297.5,564C 295.711,564.52 294.044,564.187 292.5,563C 290,560.5 287.5,558 285,555.5C 283,557.5 281,559.5 279,561.5C 277.647,560.315 276.48,558.981 275.5,557.5C 280.188,552.48 284.855,547.48 289.5,542.5 Z"/></g>
<g><path style="opacity:1" fill="#fef2f3" d="M 508.5,542.5 C 510.604,542.201 512.604,542.534 514.5,543.5C 513.833,544.5 513.167,545.5 512.5,546.5C 509.128,547.269 506.295,548.935 504,551.5C 503.316,552.784 503.483,553.951 504.5,555C 509.069,553.301 513.569,551.135 518,548.5C 523.138,549.976 524.805,553.31 523,558.5C 519.699,564.733 514.533,567.733 507.5,567.5C 507.33,566.178 507.663,565.011 508.5,564C 513.575,563.257 517.242,560.59 519.5,556C 519.333,554.5 518.5,553.667 517,553.5C 513.6,555.786 510.1,557.952 506.5,560C 500.437,560.422 498.27,557.589 500,551.5C 502.362,547.973 505.196,544.973 508.5,542.5 Z"/></g>
<g><path style="opacity:1" fill="#af945a" d="M 381.5,544.5 C 385.072,544.938 388.572,545.604 392,546.5C 394.938,551.434 396.105,556.767 395.5,562.5C 388.032,562.009 381.032,560.009 374.5,556.5C 377.868,553.096 380.201,549.096 381.5,544.5 Z"/></g>
<g><path style="opacity:1" fill="#af935a" d="M 412.5,544.5 C 414.199,544.34 415.866,544.506 417.5,545C 418.941,549.384 421.275,553.217 424.5,556.5C 417.99,560.113 410.99,562.113 403.5,562.5C 402.986,556.708 404.319,551.374 407.5,546.5C 409.291,545.83 410.958,545.163 412.5,544.5 Z"/></g>
<g><path style="opacity:1" fill="#e31d38" d="M 290.5,549.5 C 294.733,551.062 297.067,554.062 297.5,558.5C 293.153,558.68 289.819,556.847 287.5,553C 288.71,551.961 289.71,550.794 290.5,549.5 Z"/></g>
<g><path style="opacity:1" fill="#fef3f4" d="M 484.5,563.5 C 488.715,568.904 492.381,574.737 495.5,581C 494.714,582.988 493.214,584.154 491,584.5C 484.854,582.225 478.687,580.392 472.5,579C 475.415,582.828 478.081,586.828 480.5,591C 479.601,592.236 478.434,593.07 477,593.5C 472.682,588.209 468.849,582.542 465.5,576.5C 466.337,574.495 467.837,573.495 470,573.5C 476.109,575.569 482.275,577.069 488.5,578C 485.539,574.583 483.206,570.75 481.5,566.5C 482.34,565.265 483.34,564.265 484.5,563.5 Z"/></g>
<g><path style="opacity:1" fill="#fef1f2" d="M 315.5,564.5 C 321.282,567.775 326.948,571.275 332.5,575C 332.002,576.158 331.169,576.991 330,577.5C 326.768,575.8 323.601,573.966 320.5,572C 316.833,571.333 315.833,572.667 317.5,576C 320.833,578 324.167,580 327.5,582C 327.002,583.158 326.169,583.991 325,584.5C 321.435,582.633 317.935,580.633 314.5,578.5C 311.177,579.938 310.844,581.771 313.5,584C 316.667,585.833 319.833,587.667 323,589.5C 323.612,591.237 322.946,592.237 321,592.5C 315.433,589.299 309.933,585.966 304.5,582.5C 308.194,576.483 311.86,570.483 315.5,564.5 Z"/></g>
<g><path style="opacity:1" fill="#feeff1" d="M 345.5,580.5 C 347.312,580.771 348.978,581.438 350.5,582.5C 347.857,587.586 346.357,592.919 346,598.5C 348.761,599.796 351.595,600.963 354.5,602C 355.337,603.011 355.67,604.178 355.5,605.5C 349.839,604.169 344.173,602.836 338.5,601.5C 340.633,594.433 342.967,587.433 345.5,580.5 Z"/></g>
<g><path style="opacity:1" fill="#fef1f3" d="M 442.5,583.5 C 443.675,583.281 444.675,583.614 445.5,584.5C 450.685,589.85 455.685,595.35 460.5,601C 458.782,601.346 457.115,601.846 455.5,602.5C 454.126,601.289 452.626,600.289 451,599.5C 448.129,600.401 445.296,601.401 442.5,602.5C 441.05,603.85 440.383,605.516 440.5,607.5C 438.856,607.286 437.356,607.62 436,608.5C 436.015,600.739 437.015,593.072 439,585.5C 440.302,584.915 441.469,584.249 442.5,583.5 Z"/></g>
<g><path style="opacity:1" fill="#feedef" d="M 374.5,588.5 C 376.167,588.5 377.833,588.5 379.5,588.5C 378.996,595.531 378.162,602.531 377,609.5C 374.462,610.931 372.628,610.264 371.5,607.5C 372.61,601.176 373.61,594.843 374.5,588.5 Z"/></g>
<g><path style="opacity:1" fill="#fef1f2" d="M 402.5,589.5 C 408.324,588.588 413.49,589.922 418,593.5C 418.483,594.448 418.649,595.448 418.5,596.5C 415.436,596.856 412.769,596.023 410.5,594C 404.371,592.561 400.704,594.894 399.5,601C 401.088,606.626 404.755,608.96 410.5,608C 412.167,607 413.5,605.667 414.5,604C 416.134,603.506 417.801,603.34 419.5,603.5C 418.452,607.719 415.785,610.553 411.5,612C 399.113,613.943 393.613,608.777 395,596.5C 396.742,593.254 399.242,590.921 402.5,589.5 Z"/></g>
<g><path style="opacity:1" fill="#e63142" d="M 442.5,589.5 C 445.002,591.17 447.002,593.336 448.5,596C 446.655,597.128 444.655,597.628 442.5,597.5C 442.5,594.833 442.5,592.167 442.5,589.5 Z"/></g>
</svg>
