<?xml version="1.0" encoding="UTF-8"?>
<!DOCTYPE svg PUBLIC "-//W3C//DTD SVG 1.1//EN" "http://www.w3.org/Graphics/SVG/1.1/DTD/svg11.dtd">
<svg xmlns="http://www.w3.org/2000/svg" version="1.1" width="1200px" height="1200px" style="shape-rendering:geometricPrecision; text-rendering:geometricPrecision; image-rendering:optimizeQuality; fill-rule:evenodd; clip-rule:evenodd" xmlns:xlink="http://www.w3.org/1999/xlink">
<g><path style="opacity:0.95" fill="#fbfbfb" d="M 555.5,109.5 C 597.833,109.5 640.167,109.5 682.5,109.5C 682.667,178.167 682.5,246.834 682,315.5C 651.767,369.63 621.267,423.63 590.5,477.5C 626.167,478.833 661.833,478.833 697.5,477.5C 730.333,419.167 763.167,360.833 796,302.5C 799.404,274.456 803.071,246.456 807,218.5C 827.333,182.5 847.667,146.5 868,110.5C 908.428,109.503 948.928,109.17 989.5,109.5C 989.667,179.501 989.5,249.501 989,319.5C 928.4,427.756 867.4,535.756 806,643.5C 751.237,644.331 696.404,644.831 641.5,645C 608.128,682.036 575.128,719.37 542.5,757C 581.677,755.244 621.011,752.744 660.5,749.5C 661.167,749.833 661.833,750.167 662.5,750.5C 619.858,786.137 577.192,821.804 534.5,857.5C 569.146,897.981 603.98,938.314 639,978.5C 639.667,979.5 639.667,980.5 639,981.5C 589.033,968.029 539.366,955.363 490,943.5C 485.323,941.493 480.49,940.326 475.5,940C 460.252,991.24 444.919,1042.41 429.5,1093.5C 425.733,1086.4 422.233,1079.07 419,1071.5C 402.529,1031.09 385.862,990.753 369,950.5C 320.151,966.171 271.318,982.171 222.5,998.5C 221.479,997.998 221.312,997.332 222,996.5C 251.878,952.575 281.378,908.408 310.5,864C 269.706,834.764 228.706,805.764 187.5,777C 185.745,776.28 184.911,775.113 185,773.5C 237.279,771.101 289.779,768.768 342.5,766.5C 339.55,719.31 336.216,672.143 332.5,625C 332.833,623.5 333.167,622 333.5,620.5C 362.467,652.135 391.8,683.468 421.5,714.5C 430.927,691.39 440.26,668.224 449.5,645C 421.827,644.833 394.161,644.333 366.5,643.5C 356.902,619.873 347.402,596.207 338,572.5C 337.333,570.833 337.333,569.167 338,567.5C 387.319,479.532 436.653,391.532 486,303.5C 489.667,274.834 493.333,246.168 497,217.5C 516.779,181.606 536.279,145.606 555.5,109.5 Z"/></g>
<g><path style="opacity:1" fill="#060a0f" d="M 569.5,489.5 C 568.957,489.56 568.624,489.893 568.5,490.5C 613.998,491.831 659.332,491.831 704.5,490.5C 739.226,429.391 773.726,368.058 808,306.5C 811.504,278.469 815.17,250.469 819,222.5C 838.253,188.995 857.253,155.329 876,121.5C 909.76,120.504 943.594,120.171 977.5,120.5C 977.667,185.501 977.5,250.501 977,315.5C 917.247,420.671 857.747,526.005 798.5,631.5C 744.17,632.333 689.836,632.833 635.5,633C 594.716,678.739 554.049,724.573 513.5,770.5C 515,770.833 516.5,771.167 518,771.5C 553.852,769.215 589.685,767.048 625.5,765C 589.147,795.357 552.813,825.691 516.5,856C 545.689,890.688 575.356,925.022 605.5,959C 558.885,947.513 512.218,936.013 465.5,924.5C 453.862,968.859 441.029,1012.86 427,1056.5C 410.296,1016.26 393.462,976.094 376.5,936C 374.833,935.333 373.167,935.333 371.5,936C 331.452,949.239 291.452,962.239 251.5,975C 277.538,937.092 303.205,898.925 328.5,860.5C 292.979,835.244 257.313,810.244 221.5,785.5C 225.167,784.833 228.833,784.167 232.5,783.5C 273.849,782.18 315.182,780.514 356.5,778.5C 353.537,737.146 350.703,695.813 348,654.5C 374.017,682.35 399.851,710.35 425.5,738.5C 439.772,703.621 453.772,668.621 467.5,633.5C 436.833,632.833 406.167,632.167 375.5,631.5C 367.22,611.274 359.22,590.94 351.5,570.5C 400.397,482.376 449.563,394.376 499,306.5C 501.839,278.087 505.173,249.754 509,221.5C 527.421,188.327 545.587,154.993 563.5,121.5C 598.827,120.5 634.16,120.167 669.5,120.5C 669.667,184.834 669.5,249.168 669,313.5C 635.556,372.059 602.39,430.726 569.5,489.5 Z"/></g>
<g><path style="opacity:1" fill="#bdc8c9" d="M 597.5,211.5 C 580.658,211.83 563.992,211.497 547.5,210.5C 558.654,190.194 569.821,169.86 581,149.5C 597.436,148.176 613.936,148.176 630.5,149.5C 619.98,170.545 608.98,191.212 597.5,211.5 Z"/></g>
<g><path style="opacity:1" fill="#bdc8c9" d="M 891.5,148.5 C 906.5,148.5 921.5,148.5 936.5,148.5C 926.39,169.384 915.724,190.051 904.5,210.5C 888.51,211.666 872.51,211.833 856.5,211C 868.052,190.059 879.719,169.225 891.5,148.5 Z"/></g>
<g><path style="opacity:1" fill="#383d41" d="M 547.5,210.5 C 563.992,211.497 580.658,211.83 597.5,211.5C 580.662,212.827 563.662,212.827 546.5,211.5C 546.624,210.893 546.957,210.56 547.5,210.5 Z"/></g>
<g><path style="opacity:1" fill="#444a4d" d="M 539.5,239.5 C 554.324,238.504 569.324,238.171 584.5,238.5C 584.813,242.042 584.479,245.375 583.5,248.5C 583.5,245.5 583.5,242.5 583.5,239.5C 568.833,239.5 554.167,239.5 539.5,239.5 Z"/></g>
<g><path style="opacity:1" fill="#bec9ca" d="M 539.5,239.5 C 554.167,239.5 568.833,239.5 583.5,239.5C 583.5,242.5 583.5,245.5 583.5,248.5C 582.215,263.297 580.882,277.964 579.5,292.5C 564.5,292.5 549.5,292.5 534.5,292.5C 534.5,290.167 534.5,287.833 534.5,285.5C 535.858,269.989 537.524,254.656 539.5,239.5 Z"/></g>
<g><path style="opacity:1" fill="#bec9ca" d="M 847.5,239.5 C 862.5,239.5 877.5,239.5 892.5,239.5C 891.065,257.156 889.732,274.823 888.5,292.5C 873.167,292.5 857.833,292.5 842.5,292.5C 844.222,274.838 845.888,257.172 847.5,239.5 Z"/></g>
<g><path style="opacity:1" fill="#555a5d" d="M 534.5,285.5 C 534.5,287.833 534.5,290.167 534.5,292.5C 549.5,292.5 564.5,292.5 579.5,292.5C 564.342,293.496 549.009,293.83 533.5,293.5C 533.194,290.615 533.527,287.948 534.5,285.5 Z"/></g>
<g><path style="opacity:1" fill="#292e32" d="M 522.5,327.5 C 538.672,326.173 555.005,326.173 571.5,327.5C 571.376,328.107 571.043,328.44 570.5,328.5C 554.675,327.504 538.675,327.17 522.5,327.5 Z"/></g>
<g><path style="opacity:1" fill="#bec9ca" d="M 522.5,327.5 C 538.675,327.17 554.675,327.504 570.5,328.5C 534.914,390.671 499.58,453.004 464.5,515.5C 463.957,515.56 463.624,515.893 463.5,516.5C 550.332,517.832 636.999,517.832 723.5,516.5C 759.599,453.811 795.599,390.977 831.5,328C 847.5,327.333 863.5,327.333 879.5,328C 837.3,403.373 795.3,478.873 753.5,554.5C 704.833,555.167 656.167,555.833 607.5,556.5C 551.029,640.137 494.362,723.637 437.5,807C 467.492,806.096 497.492,805.429 527.5,805C 508.329,820.675 489.329,836.508 470.5,852.5C 485.606,871.109 501.273,889.276 517.5,907C 493.039,901.635 468.706,895.468 444.5,888.5C 436.844,911.638 429.677,934.971 423,958.5C 414.075,938.313 405.409,917.979 397,897.5C 396.632,896.09 395.799,895.09 394.5,894.5C 373.463,901.344 352.463,908.344 331.5,915.5C 331.167,915.167 330.833,914.833 330.5,914.5C 344.029,894.803 357.363,874.97 370.5,855C 351.954,841.614 333.287,828.447 314.5,815.5C 317.5,814.833 320.5,814.167 323.5,813.5C 343.827,812.383 364.16,811.383 384.5,810.5C 383.794,791.493 383.294,772.493 383,753.5C 397.713,769.376 412.213,785.376 426.5,801.5C 463.451,719.934 500.117,638.268 536.5,556.5C 537.043,556.44 537.376,556.107 537.5,555.5C 489.668,554.833 442.002,554.167 394.5,553.5C 436.664,477.834 479.33,402.501 522.5,327.5 Z"/></g>
<g><path style="opacity:1" fill="#bec1c2" d="M 569.5,489.5 C 614.33,490.499 659.33,490.832 704.5,490.5C 659.332,491.831 613.998,491.831 568.5,490.5C 568.624,489.893 568.957,489.56 569.5,489.5 Z"/></g>
<g><path style="opacity:1" fill="#646a6d" d="M 464.5,515.5 C 550.665,516.499 636.998,516.833 723.5,516.5C 636.999,517.832 550.332,517.832 463.5,516.5C 463.624,515.893 463.957,515.56 464.5,515.5 Z"/></g>
<g><path style="opacity:1" fill="#a8b2b3" d="M 394.5,553.5 C 442.002,554.167 489.668,554.833 537.5,555.5C 537.376,556.107 537.043,556.44 536.5,556.5C 488.998,555.833 441.332,555.167 393.5,554.5C 393.624,553.893 393.957,553.56 394.5,553.5 Z"/></g>
<g><path style="opacity:1" fill="#797e80" d="M 232.5,783.5 C 228.833,784.167 225.167,784.833 221.5,785.5C 220.957,785.44 220.624,785.107 220.5,784.5C 224.445,783.509 228.445,783.176 232.5,783.5 Z"/></g>
<g><path style="opacity:1" fill="#5e6366" d="M 323.5,813.5 C 320.5,814.167 317.5,814.833 314.5,815.5C 313.957,815.44 313.624,815.107 313.5,814.5C 316.768,813.513 320.102,813.18 323.5,813.5 Z"/></g>
<g><path style="opacity:1" fill="#070c10" d="M 400.5,825.5 C 420.71,823.481 430.544,832.481 430,852.5C 425.613,865.78 416.447,871.613 402.5,870C 387.188,863.404 382.355,852.237 388,836.5C 391.127,831.54 395.294,827.873 400.5,825.5 Z"/></g>
</svg>
