<?xml version="1.0" encoding="UTF-8"?>
<!DOCTYPE svg PUBLIC "-//W3C//DTD SVG 1.1//EN" "http://www.w3.org/Graphics/SVG/1.1/DTD/svg11.dtd">
<svg xmlns="http://www.w3.org/2000/svg" version="1.1" width="800px" height="800px" style="shape-rendering:geometricPrecision; text-rendering:geometricPrecision; image-rendering:optimizeQuality; fill-rule:evenodd; clip-rule:evenodd" xmlns:xlink="http://www.w3.org/1999/xlink">
<g><path style="opacity:0.999" fill="#e03a3e" d="M 374.5,79.5 C 476.568,75.3415 563.068,109.675 634,182.5C 705.646,264.07 731.646,358.404 712,465.5C 689.988,561.428 636.155,633.262 550.5,681C 430.882,740.354 316.548,731.687 207.5,655C 132.641,596.481 90.1414,519.647 80,424.5C 75.6713,321.373 110.505,234.206 184.5,163C 239.048,115.526 302.381,87.6932 374.5,79.5 Z"/></g>
<g><path style="opacity:1" fill="#fefafa" d="M 696.5,466.5 C 695.076,468.515 694.41,470.848 694.5,473.5C 665.158,577.676 599.825,648.843 498.5,687C 387.602,721.262 287.602,701.596 198.5,628C 123.653,557.83 89.8192,471.33 97,368.5C 110.633,265.957 161.466,188.124 249.5,135C 338.781,87.1728 430.114,82.8395 523.5,122C 608.964,162.468 665.464,227.968 693,318.5C 705.625,367.556 706.792,416.889 696.5,466.5 Z"/></g>
<g><path style="opacity:1" fill="#e03b3e" d="M 380.5,110.5 C 489.884,107.777 576.384,150.444 640,238.5C 694.09,324.21 703.09,414.543 667,509.5C 626.114,602.707 555.948,660.541 456.5,683C 344.98,701.459 251.814,668.625 177,584.5C 122.135,514.716 101.468,435.716 115,347.5C 133.462,258.41 181.962,191.243 260.5,146C 298.223,126.033 338.223,114.2 380.5,110.5 Z"/></g>
<g><path style="opacity:1" fill="#fef8f8" d="M 410.5,155.5 C 411.167,156.167 411.833,156.833 412.5,157.5C 412.013,158.473 411.513,159.473 411,160.5C 410.501,166.491 410.334,172.491 410.5,178.5C 407.5,178.5 404.5,178.5 401.5,178.5C 401.5,173.833 401.5,169.167 401.5,164.5C 397.5,164.5 393.5,164.5 389.5,164.5C 389.5,169.167 389.5,173.833 389.5,178.5C 386.5,178.5 383.5,178.5 380.5,178.5C 380.333,167.828 380.5,157.161 381,146.5C 381.809,142.24 383.309,138.24 385.5,134.5C 391.807,133.336 398.141,133.169 404.5,134C 408.427,140.616 410.427,147.782 410.5,155.5 Z"/></g>
<g><path style="opacity:1" fill="#fef5f5" d="M 353.5,183.5 C 351.708,183.634 350.042,183.301 348.5,182.5C 346.038,171.522 343.704,160.522 341.5,149.5C 337.865,150.114 334.198,150.448 330.5,150.5C 330.167,147.833 329.833,145.167 329.5,142.5C 339.435,140.183 349.435,138.183 359.5,136.5C 360.263,139.141 360.43,141.808 360,144.5C 356.951,145.61 353.784,146.277 350.5,146.5C 353.55,158.418 356.217,170.418 358.5,182.5C 356.784,182.629 355.117,182.962 353.5,183.5 Z"/></g>
<g><path style="opacity:1" fill="#fef7f6" d="M 465.5,142.5 C 468.426,143.461 471.426,144.127 474.5,144.5C 472.503,151.492 470.503,158.492 468.5,165.5C 471.757,167.879 475.424,168.879 479.5,168.5C 480.646,161.394 482.979,154.728 486.5,148.5C 489.289,149.648 491.956,150.981 494.5,152.5C 489.551,166.011 485.218,179.678 481.5,193.5C 477.44,193.778 474.44,192.278 472.5,189C 474.183,185.3 475.017,181.467 475,177.5C 471.79,175.524 468.457,174.858 465,175.5C 464.066,179.637 462.732,183.637 461,187.5C 458.262,186.518 455.428,185.852 452.5,185.5C 453.754,179.403 455.42,173.403 457.5,167.5C 456.954,165.865 456.62,164.199 456.5,162.5C 458.124,162.64 459.29,161.973 460,160.5C 462.143,154.573 463.976,148.573 465.5,142.5 Z"/></g>
<g><path style="opacity:1" fill="#e03e40" d="M 400.5,155.5 C 397.167,155.5 393.833,155.5 390.5,155.5C 390.5,152.833 390.5,150.167 390.5,147.5C 391.038,145.883 391.371,144.216 391.5,142.5C 394.119,142.232 396.619,142.565 399,143.5C 400.156,147.418 400.656,151.418 400.5,155.5 Z"/></g>
<g><path style="opacity:1" fill="#fef8f8" d="M 303.5,151.5 C 306.027,153.51 307.861,156.177 309,159.5C 313.643,170.434 318.477,181.267 323.5,192C 320.439,194.035 317.105,195.201 313.5,195.5C 312.502,191.342 311.002,187.342 309,183.5C 303.887,180.525 298.721,178.025 293.5,176C 296.973,184.084 300.64,192.084 304.5,200C 301.702,201.914 298.702,202.914 295.5,203C 288.849,189.87 283.182,176.37 278.5,162.5C 281.354,162.076 284.021,161.076 286.5,159.5C 291.397,162.792 296.397,165.125 301.5,166.5C 300.116,162.836 298.449,159.336 296.5,156C 298.563,153.975 300.896,152.475 303.5,151.5 Z"/></g>
<g><path style="opacity:1" fill="#ef9395" d="M 390.5,147.5 C 390.5,150.167 390.5,152.833 390.5,155.5C 393.833,155.5 397.167,155.5 400.5,155.5C 397.038,156.482 393.371,156.815 389.5,156.5C 389.19,153.287 389.523,150.287 390.5,147.5 Z"/></g>
<g><path style="opacity:1" fill="#f1a1a2" d="M 410.5,155.5 C 411.675,155.281 412.675,155.614 413.5,156.5C 413.376,157.107 413.043,157.44 412.5,157.5C 411.833,156.833 411.167,156.167 410.5,155.5 Z"/></g>
<g><path style="opacity:1" fill="#ee8e8f" d="M 401.5,178.5 C 400.515,174.366 400.182,170.032 400.5,165.5C 397.167,165.5 393.833,165.5 390.5,165.5C 390.818,170.032 390.485,174.366 389.5,178.5C 389.5,173.833 389.5,169.167 389.5,164.5C 393.5,164.5 397.5,164.5 401.5,164.5C 401.5,169.167 401.5,173.833 401.5,178.5 Z"/></g>
<g><path style="opacity:1" fill="#fef7f7" d="M 523.5,165.5 C 528.938,168.053 534.271,170.887 539.5,174C 540.097,175.062 540.43,176.228 540.5,177.5C 537.692,191.778 531.692,204.444 522.5,215.5C 519.6,214.557 517.267,212.89 515.5,210.5C 517.754,206.993 519.754,203.327 521.5,199.5C 519.062,197.196 516.229,195.53 513,194.5C 510.089,197.99 507.422,201.656 505,205.5C 502.222,204.198 499.722,202.532 497.5,200.5C 501.314,193.468 504.814,187.135 508,181.5C 512.698,175.637 517.865,170.303 523.5,165.5 Z"/></g>
<g><path style="opacity:1" fill="#e03b3e" d="M 524.5,176.5 C 527.588,176.367 529.588,177.7 530.5,180.5C 529.677,184.477 528.177,188.143 526,191.5C 522.69,190.102 519.857,188.102 517.5,185.5C 519.475,182.195 521.809,179.195 524.5,176.5 Z"/></g>
<g><path style="opacity:1" fill="#fef7f7" d="M 246.5,181.5 C 251.566,183.539 256.233,186.373 260.5,190C 266.896,197.391 272.896,205.058 278.5,213C 276.692,215.169 274.525,217.002 272,218.5C 268.691,215.356 265.524,212.023 262.5,208.5C 259.65,210.427 256.983,212.594 254.5,215C 257.358,218.358 260.025,221.858 262.5,225.5C 260.393,227.727 258.06,229.727 255.5,231.5C 252.194,228.233 249.361,224.567 247,220.5C 244.802,218.379 242.302,216.712 239.5,215.5C 239.931,214.707 240.265,213.873 240.5,213C 237.254,206.934 234.587,200.6 232.5,194C 236.951,189.605 241.617,185.439 246.5,181.5 Z"/></g>
<g><path style="opacity:1" fill="#ef9394" d="M 348.5,182.5 C 350.042,183.301 351.708,183.634 353.5,183.5C 352.903,184.139 352.07,184.472 351,184.5C 349.624,184.316 348.791,183.649 348.5,182.5 Z"/></g>
<g><path style="opacity:1" fill="#fef8f8" d="M 566.5,194.5 C 569.97,195.288 572.637,197.288 574.5,200.5C 567.483,207.683 560.65,215.016 554,222.5C 551.543,225.092 551.376,227.592 553.5,230C 564.337,224.361 573.671,216.527 581.5,206.5C 584.037,208.202 586.037,210.369 587.5,213C 581.68,219.488 575.846,225.988 570,232.5C 568.247,235.005 566.747,237.671 565.5,240.5C 565.977,241.478 566.643,242.311 567.5,243C 570.542,242.673 573.209,241.34 575.5,239C 582.015,232.652 588.348,226.152 594.5,219.5C 596.984,221.483 599.317,223.65 601.5,226C 594.5,233 587.5,240 580.5,247C 575.992,249.754 571.326,252.254 566.5,254.5C 562.996,250.496 559.163,246.83 555,243.5C 555,242.167 555,240.833 555,239.5C 553.951,240.517 552.784,240.684 551.5,240C 547.361,236.541 544.028,232.541 541.5,228C 543.532,222.956 546.032,218.123 549,213.5C 554.671,206.996 560.505,200.663 566.5,194.5 Z"/></g>
<g><path style="opacity:1" fill="#e03b3e" d="M 246.5,192.5 C 251.024,194.348 254.69,197.348 257.5,201.5C 254.833,203.5 252.167,205.5 249.5,207.5C 246.737,204.312 244.737,200.645 243.5,196.5C 244.286,194.959 245.286,193.626 246.5,192.5 Z"/></g>
<g><path style="opacity:1" fill="#fefcfc" d="M 377.5,595.5 C 373.081,594.028 368.414,593.362 363.5,593.5C 281.187,575.022 229.021,525.022 207,443.5C 191.461,358.749 217.628,290.249 285.5,238C 342.016,200.119 402.683,192.119 467.5,214C 541.211,244.064 584.045,298.564 596,377.5C 601.219,449.532 576.385,508.699 521.5,555C 478.622,586.906 430.622,600.406 377.5,595.5 Z"/></g>
<g><path style="opacity:1" fill="#e03a3e" d="M 473.5,421.5 C 474.65,416.684 474.816,411.684 474,406.5C 473.434,404.277 472.6,402.277 471.5,400.5C 468.272,392.755 463.272,386.255 456.5,381C 440.369,370.547 425.703,358.213 412.5,344C 406.822,340.159 400.822,336.826 394.5,334C 383.5,330.333 372.5,326.667 361.5,323C 324.988,312.457 288.654,301.457 252.5,290C 297.56,233.299 356.226,209.632 428.5,219C 493.063,231.012 539.563,266.512 568,325.5C 596.391,397.741 586.058,463.741 537,523.5C 485.908,575.989 424.408,594.489 352.5,579C 296.408,562.568 256.075,527.902 231.5,475C 231.82,473.347 232.82,472.347 234.5,472C 267.851,456.994 302.018,444.161 337,433.5C 325.818,440.991 315.652,450.824 306.5,463C 334.302,449.065 363.635,439.065 394.5,433C 412.851,430.032 430.851,431.365 448.5,437C 453.69,439.882 456.023,444.382 455.5,450.5C 465.315,443.203 471.315,433.536 473.5,421.5 Z"/></g>
<g><path style="opacity:1" fill="#fef7f7" d="M 201.5,221.5 C 210.57,228.394 219.237,235.894 227.5,244C 228.5,244.667 229.5,244.667 230.5,244C 233.048,241.115 235.882,238.615 239,236.5C 241.296,237.628 243.129,239.295 244.5,241.5C 240.388,247.115 235.722,252.281 230.5,257C 229.5,257.667 228.5,257.667 227.5,257C 217.167,247.333 206.833,237.667 196.5,228C 198.79,226.223 200.457,224.056 201.5,221.5 Z"/></g>
<g><path style="opacity:1" fill="#fef7f7" d="M 180.5,248.5 C 183.502,248.998 185.835,250.498 187.5,253C 186.047,255.405 184.713,257.905 183.5,260.5C 193.042,267.194 202.875,273.527 213,279.5C 212.313,282.051 211.146,284.551 209.5,287C 208.092,287.315 206.759,286.982 205.5,286C 196.5,280.5 187.5,275 178.5,269.5C 176.15,272.017 173.983,274.684 172,277.5C 169.766,276.299 167.599,274.965 165.5,273.5C 170.26,264.973 175.26,256.64 180.5,248.5 Z"/></g>
<g><path style="opacity:1" fill="#fef7f7" d="M 616.5,247.5 C 618.945,249.672 620.945,252.338 622.5,255.5C 616.463,259.513 610.463,263.513 604.5,267.5C 605.198,270.198 606.864,271.864 609.5,272.5C 615.723,270.721 621.723,268.388 627.5,265.5C 630.168,267.109 632.168,269.442 633.5,272.5C 626.525,276.771 619.025,279.771 611,281.5C 606.707,286.961 601.873,291.961 596.5,296.5C 594.588,294.343 592.921,292.009 591.5,289.5C 594.484,286.015 597.651,282.682 601,279.5C 600.558,276.643 599.058,274.31 596.5,272.5C 592.664,274.584 588.997,276.917 585.5,279.5C 583.455,277.241 581.789,274.741 580.5,272C 584.448,268.354 588.781,265.187 593.5,262.5C 594.624,261.086 595.624,259.586 596.5,258C 598.126,258.195 599.793,258.195 601.5,258C 606.566,254.478 611.566,250.978 616.5,247.5 Z"/></g>
<g><path style="opacity:1" fill="#fefdfd" d="M 368.5,475.5 C 373.731,475.556 378.731,474.889 383.5,473.5C 390.508,473.334 397.508,473.5 404.5,474C 409.071,474.523 413.238,476.023 417,478.5C 417.652,481.594 417.318,484.594 416,487.5C 413.421,492.992 410.588,498.325 407.5,503.5C 442.103,500.782 470.936,486.449 494,460.5C 508.771,440.073 513.771,417.406 509,392.5C 502.863,373.7 492.03,358.2 476.5,346C 468.103,339.94 459.437,334.273 450.5,329C 439.277,313.205 424.277,302.538 405.5,297C 387.191,290.617 368.858,284.784 350.5,279.5C 348.485,278.076 346.152,277.41 343.5,277.5C 339.345,277.128 335.345,276.128 331.5,274.5C 363.005,257.085 396.338,252.585 431.5,261C 482.397,274.231 517.23,305.397 536,354.5C 552.159,411.986 539.659,462.153 498.5,505C 454.987,542.304 405.653,552.637 350.5,536C 330.609,528.416 313.109,517.249 298,502.5C 297.333,501.833 297.333,501.167 298,500.5C 320.185,488.488 343.685,480.155 368.5,475.5 Z"/></g>
<g><path style="opacity:1" fill="#f6b8b8" d="M 343.5,277.5 C 346.152,277.41 348.485,278.076 350.5,279.5C 347.848,279.59 345.515,278.924 343.5,277.5 Z"/></g>
<g><path style="opacity:1" fill="#fef7f7" d="M 153.5,298.5 C 160.563,298.212 167.563,298.712 174.5,300C 182.167,303 189.833,306 197.5,309C 196.453,311.979 195.119,314.812 193.5,317.5C 189.338,316.224 185.338,314.557 181.5,312.5C 179.214,315.858 178.047,319.524 178,323.5C 182.235,325.076 186.401,326.743 190.5,328.5C 189.457,331.501 187.957,334.168 186,336.5C 179.533,333.288 172.7,331.621 165.5,331.5C 165.719,330.325 165.386,329.325 164.5,328.5C 158.398,325.702 152.898,322.035 148,317.5C 149.353,311.099 151.186,304.766 153.5,298.5 Z"/></g>
<g><path style="opacity:1" fill="#fef7f7" d="M 635.5,299.5 C 639.226,299.177 642.893,299.511 646.5,300.5C 649.487,308.455 652.487,316.455 655.5,324.5C 651.934,326.3 648.267,327.466 644.5,328C 641.613,324.592 641.28,321.092 643.5,317.5C 642.986,314.789 641.986,312.289 640.5,310C 638.833,309.333 637.167,309.333 635.5,310C 634.288,317.758 633.288,325.591 632.5,333.5C 626.133,336.425 619.466,338.092 612.5,338.5C 609.341,329.857 606.507,321.19 604,312.5C 607.311,310.507 610.811,309.341 614.5,309C 615.496,311.316 616.496,313.65 617.5,316C 616.491,317.168 615.491,318.335 614.5,319.5C 615.943,322.728 617.61,325.728 619.5,328.5C 620.795,327.902 622.128,327.402 623.5,327C 624.254,319.143 625.421,311.309 627,303.5C 629.969,302.263 632.803,300.93 635.5,299.5 Z"/></g>
<g><path style="opacity:1" fill="#e03c3e" d="M 159.5,307.5 C 163.577,307.735 167.577,308.402 171.5,309.5C 171.833,310 172.167,310.5 172.5,311C 171.402,313.46 170.402,315.96 169.5,318.5C 165.073,318.715 161.239,317.049 158,313.5C 157.964,311.428 158.464,309.428 159.5,307.5 Z"/></g>
<g><path style="opacity:1" fill="#e03b3f" d="M 342.5,338.5 C 348.245,338.211 353.912,338.711 359.5,340C 367.319,343.41 374.986,347.077 382.5,351C 387.42,352.25 392.42,352.75 397.5,352.5C 397.471,360.089 394.804,366.589 389.5,372C 386.874,374.146 383.874,375.479 380.5,376C 356.191,378.838 344.524,368.005 345.5,343.5C 342.482,343.665 339.482,343.498 336.5,343C 338.684,341.637 340.684,340.137 342.5,338.5 Z"/></g>
<g><path style="opacity:1" fill="#f2a5a6" d="M 471.5,400.5 C 472.6,402.277 473.434,404.277 474,406.5C 474.816,411.684 474.65,416.684 473.5,421.5C 473.825,414.378 473.159,407.378 471.5,400.5 Z"/></g>
<g><path style="opacity:1" fill="#fef7f7" d="M 176.5,430.5 C 178.144,430.286 179.644,430.62 181,431.5C 183.051,441.14 184.884,450.807 186.5,460.5C 178.177,461.074 169.844,461.574 161.5,462C 155.531,465.267 149.197,467.434 142.5,468.5C 141.013,458.731 139.013,449.064 136.5,439.5C 142.498,438.401 148.498,437.234 154.5,436C 157.215,435.122 159.549,433.622 161.5,431.5C 162.623,432.544 163.956,433.21 165.5,433.5C 169.459,433.117 173.126,432.117 176.5,430.5 Z"/></g>
<g><path style="opacity:1" fill="#fef7f7" d="M 658.5,439.5 C 659.209,440.404 660.209,440.737 661.5,440.5C 661.5,441.833 661.5,443.167 661.5,444.5C 659.51,452.772 657.844,461.106 656.5,469.5C 650.041,468.007 643.541,466.673 637,465.5C 634.472,465.725 631.972,466.058 629.5,466.5C 629.64,464.876 628.973,463.71 627.5,463C 622.54,461.844 617.54,461.011 612.5,460.5C 613.751,450.653 615.751,440.987 618.5,431.5C 625.738,431.968 632.405,434.135 638.5,438C 645.215,438.243 651.881,438.743 658.5,439.5 Z"/></g>
<g><path style="opacity:1" fill="#ed8485" d="M 658.5,439.5 C 659.833,439.5 661.167,439.5 662.5,439.5C 662.784,441.415 662.451,443.081 661.5,444.5C 661.5,443.167 661.5,441.833 661.5,440.5C 660.209,440.737 659.209,440.404 658.5,439.5 Z"/></g>
<g><path style="opacity:1" fill="#e14041" d="M 175.5,449.5 C 173.012,451.388 170.012,452.055 166.5,451.5C 165.992,448.824 165.825,446.157 166,443.5C 168.687,442.287 171.52,441.62 174.5,441.5C 175.092,444.127 175.425,446.794 175.5,449.5 Z"/></g>
<g><path style="opacity:1" fill="#e14041" d="M 624.5,442.5 C 632.643,442.299 635.309,445.966 632.5,453.5C 629.421,453.74 626.421,453.407 623.5,452.5C 623.167,452 622.833,451.5 622.5,451C 623.687,448.276 624.353,445.443 624.5,442.5 Z"/></g>
<g><path style="opacity:1" fill="#e24344" d="M 151.5,445.5 C 153.467,445.261 155.301,445.594 157,446.5C 157.567,449.168 158.067,451.834 158.5,454.5C 155.123,454.959 151.789,455.626 148.5,456.5C 148.54,453.119 148.207,449.786 147.5,446.5C 149.099,446.768 150.432,446.434 151.5,445.5 Z"/></g>
<g><path style="opacity:1" fill="#e24444" d="M 642.5,447.5 C 645.5,447.5 648.5,447.5 651.5,447.5C 650.793,450.786 650.46,454.119 650.5,457.5C 647.14,457.384 643.807,457.051 640.5,456.5C 640.7,453.37 641.366,450.37 642.5,447.5 Z"/></g>
<g><path style="opacity:1" fill="#ec8688" d="M 175.5,449.5 C 176.404,450.209 176.737,451.209 176.5,452.5C 172.958,452.813 169.625,452.479 166.5,451.5C 170.012,452.055 173.012,451.388 175.5,449.5 Z"/></g>
<g><path style="opacity:1" fill="#ec7b7b" d="M 696.5,466.5 C 696.59,469.152 695.924,471.485 694.5,473.5C 694.41,470.848 695.076,468.515 696.5,466.5 Z"/></g>
<g><path style="opacity:1" fill="#f8c7c8" d="M 383.5,473.5 C 378.731,474.889 373.731,475.556 368.5,475.5C 373.269,474.111 378.269,473.444 383.5,473.5 Z"/></g>
<g><path style="opacity:1" fill="#fef8f8" d="M 627.5,519.5 C 624.495,517.723 621.162,516.723 617.5,516.5C 609.395,513.613 601.728,509.946 594.5,505.5C 595.214,503.189 596.214,501.022 597.5,499C 598.5,498.333 599.5,498.333 600.5,499C 609.616,503.809 619.116,507.642 629,510.5C 631.939,509.693 633.772,507.693 634.5,504.5C 632.334,502.507 630.001,500.673 627.5,499C 619.584,495.14 611.584,491.473 603.5,488C 603.043,487.586 602.709,487.086 602.5,486.5C 603.838,483.824 605.171,481.158 606.5,478.5C 614.125,482.097 621.791,485.597 629.5,489C 634.621,492.453 639.454,496.286 644,500.5C 644.667,501.833 644.667,503.167 644,504.5C 641.282,509.269 639.115,514.269 637.5,519.5C 634.167,519.5 630.833,519.5 627.5,519.5 Z"/></g>
<g><path style="opacity:1" fill="#fef7f7" d="M 185.5,480.5 C 188.572,480.183 191.572,480.516 194.5,481.5C 198.137,487.081 200.304,493.081 201,499.5C 190.453,510.187 177.953,517.353 163.5,521C 162.504,518.684 161.504,516.35 160.5,514C 163.473,511.509 166.806,509.509 170.5,508C 171.485,504.083 170.485,500.583 167.5,497.5C 163.791,499.458 159.957,501.125 156,502.5C 153.567,500.302 152.234,497.635 152,494.5C 156.755,491.872 161.588,489.372 166.5,487C 167.787,485.59 168.954,484.09 170,482.5C 170.739,483.574 171.739,484.241 173,484.5C 177.404,483.532 181.571,482.198 185.5,480.5 Z"/></g>
<g><path style="opacity:1" fill="#e13e41" d="M 183.5,490.5 C 187.727,489.787 190.394,491.454 191.5,495.5C 188.848,499.247 185.348,501.913 181,503.5C 178.154,500.363 176.987,496.863 177.5,493C 179.611,492.155 181.611,491.322 183.5,490.5 Z"/></g>
<g><path style="opacity:1" fill="#f6b8b8" d="M 617.5,516.5 C 621.162,516.723 624.495,517.723 627.5,519.5C 623.838,519.277 620.505,518.277 617.5,516.5 Z"/></g>
<g><path style="opacity:1" fill="#fef6f6" d="M 209.5,519.5 C 212.325,519.081 214.491,520.081 216,522.5C 220.257,528.679 224.757,534.679 229.5,540.5C 227.04,543.559 224.04,545.892 220.5,547.5C 218.171,546.002 216.337,544.002 215,541.5C 216.498,537.091 214.998,533.424 210.5,530.5C 208.77,531.026 207.436,532.026 206.5,533.5C 208.645,540.716 209.811,548.05 210,555.5C 204.917,560.948 198.75,564.115 191.5,565C 186.485,557.989 181.485,550.989 176.5,544C 179.032,540.41 182.366,538.41 186.5,538C 187.848,540.01 189.182,542.01 190.5,544C 189.978,544.95 189.311,545.784 188.5,546.5C 190.5,549.167 192.5,551.833 194.5,554.5C 197.064,553.901 198.731,552.401 199.5,550C 198.498,542.472 197.664,534.972 197,527.5C 201.073,524.576 205.239,521.909 209.5,519.5 Z"/></g>
<g><path style="opacity:1" fill="#fef6f6" d="M 576.5,531.5 C 586.736,537.723 596.736,544.389 606.5,551.5C 609.516,548.48 612.183,545.146 614.5,541.5C 616.657,543.412 618.991,545.079 621.5,546.5C 617.161,552.994 612.328,558.994 607,564.5C 595.506,556.416 584.173,548.083 573,539.5C 573.292,536.57 574.459,533.903 576.5,531.5 Z"/></g>
<g><path style="opacity:1" fill="#fef7f7" d="M 559.5,551.5 C 563.108,553.77 566.442,556.437 569.5,559.5C 568.018,561.483 566.351,563.316 564.5,565C 562.5,565 560.5,565 558.5,565C 556.983,566.685 555.316,568.185 553.5,569.5C 558.79,577.059 564.79,584.059 571.5,590.5C 576.234,588.018 578.4,584.352 578,579.5C 579.815,577.595 581.815,575.928 584,574.5C 586.885,577.048 589.385,579.882 591.5,583C 585.015,589.982 578.015,596.482 570.5,602.5C 560.161,592.161 550.161,581.494 540.5,570.5C 547.161,564.506 553.494,558.173 559.5,551.5 Z"/></g>
<g><path style="opacity:1" fill="#fef6f6" d="M 240.5,554.5 C 243.412,556.066 246.079,558.066 248.5,560.5C 244.021,566.147 239.354,571.647 234.5,577C 235.833,578.333 237.167,579.667 238.5,581C 241.098,580.874 243.431,579.874 245.5,578C 249.345,574.82 253.178,571.653 257,568.5C 259.631,569.963 261.798,571.963 263.5,574.5C 258.022,580.809 251.522,585.809 244,589.5C 241.695,596.113 238.362,602.113 234,607.5C 231.957,605.288 229.791,603.288 227.5,601.5C 229.518,597.464 231.518,593.464 233.5,589.5C 232.589,586.918 230.923,584.918 228.5,583.5C 225.5,587.167 222.167,590.5 218.5,593.5C 216.167,591.833 214.167,589.833 212.5,587.5C 215.106,583.391 218.273,579.724 222,576.5C 222.895,574.196 223.729,571.862 224.5,569.5C 225.451,570.326 226.451,570.492 227.5,570C 232.067,564.941 236.401,559.774 240.5,554.5 Z"/></g>
<g><path style="opacity:1" fill="#fef7f7" d="M 264.5,605.5 C 265.167,603.167 265.833,600.833 266.5,598.5C 268.017,598.489 269.184,597.823 270,596.5C 272.181,592.126 274.848,588.126 278,584.5C 286.427,588.961 294.593,593.794 302.5,599C 301.365,601.441 299.865,603.608 298,605.5C 292.436,602.634 286.936,599.634 281.5,596.5C 279.768,598.283 278.268,600.283 277,602.5C 276.383,603.449 276.549,604.282 277.5,605C 281.165,606.497 284.498,608.497 287.5,611C 285.943,613.296 284.276,615.462 282.5,617.5C 278.919,615.363 275.253,613.863 271.5,613C 270.292,615.25 268.959,617.417 267.5,619.5C 272.917,622.959 278.417,626.292 284,629.5C 283.705,632.434 282.539,635.101 280.5,637.5C 271.802,632.823 263.469,627.656 255.5,622C 258.378,616.409 261.378,610.909 264.5,605.5 Z"/></g>
<g><path style="opacity:1" fill="#f9cdcd" d="M 363.5,593.5 C 368.414,593.362 373.081,594.028 377.5,595.5C 372.586,595.638 367.919,594.972 363.5,593.5 Z"/></g>
<g><path style="opacity:1" fill="#fef6f6" d="M 495.5,597.5 C 496.496,597.414 497.329,597.748 498,598.5C 502.639,609.112 507.806,619.446 513.5,629.5C 516.939,627.697 520.439,626.03 524,624.5C 526.026,625.52 527.359,627.187 528,629.5C 528.749,630.635 528.583,631.635 527.5,632.5C 521.833,635.333 516.167,638.167 510.5,641C 509.365,641.749 508.365,641.583 507.5,640.5C 501.939,628.378 496.106,616.378 490,604.5C 489.219,603.056 489.386,601.723 490.5,600.5C 492.396,599.725 494.063,598.725 495.5,597.5 Z"/></g>
<g><path style="opacity:1" fill="#ec8385" d="M 266.5,598.5 C 265.833,600.833 265.167,603.167 264.5,605.5C 264.187,602.753 264.52,600.086 265.5,597.5C 266.107,597.624 266.44,597.957 266.5,598.5 Z"/></g>
<g><path style="opacity:1" fill="#fef4f4" d="M 314.5,604.5 C 324.287,607.429 333.953,610.762 343.5,614.5C 341.643,622.091 337.643,623.425 331.5,618.5C 327.306,629.749 323.306,641.082 319.5,652.5C 315.44,652.778 312.44,651.278 310.5,648C 313.867,637.401 317.533,626.901 321.5,616.5C 318.812,614.881 315.979,613.547 313,612.5C 312.554,609.667 313.054,607.001 314.5,604.5 Z"/></g>
<g><path style="opacity:1" fill="#fef6f6" d="M 458.5,611.5 C 459.497,611.47 460.164,611.97 460.5,613C 463.911,624.144 467.244,635.31 470.5,646.5C 474.192,645.628 477.859,644.628 481.5,643.5C 482.647,643.818 483.481,644.484 484,645.5C 484.495,647.473 484.662,649.473 484.5,651.5C 477.368,653.033 470.368,655.033 463.5,657.5C 459.095,643.283 455.095,628.95 451.5,614.5C 453.875,613.34 456.208,612.34 458.5,611.5 Z"/></g>
<g><path style="opacity:1" fill="#f3acad" d="M 361.5,617.5 C 359.833,617.5 358.167,617.5 356.5,617.5C 356.737,618.791 356.404,619.791 355.5,620.5C 355.5,619.167 355.5,617.833 355.5,616.5C 357.735,616.205 359.735,616.539 361.5,617.5 Z"/></g>
<g><path style="opacity:1" fill="#fef7f7" d="M 361.5,617.5 C 369.494,618.227 377.494,618.893 385.5,619.5C 384.908,627.536 382.908,635.203 379.5,642.5C 380.701,649.827 380.701,657.16 379.5,664.5C 377.194,664.007 374.861,663.674 372.5,663.5C 368.081,662.028 363.414,661.362 358.5,661.5C 356.444,660.784 354.277,660.117 352,659.5C 351.505,657.527 351.338,655.527 351.5,653.5C 351.597,649.651 351.931,645.817 352.5,642C 352.589,639.287 351.922,636.787 350.5,634.5C 351.934,633.77 353.1,632.77 354,631.5C 354.42,627.809 354.92,624.142 355.5,620.5C 356.404,619.791 356.737,618.791 356.5,617.5C 358.167,617.5 359.833,617.5 361.5,617.5 Z"/></g>
<g><path style="opacity:1" fill="#fef7f7" d="M 426.5,653.5 C 426.5,652.167 426.5,650.833 426.5,649.5C 422.629,649.185 418.962,649.518 415.5,650.5C 415.5,652.5 415.5,654.5 415.5,656.5C 415.5,659.167 415.5,661.833 415.5,664.5C 412.833,664.5 410.167,664.5 407.5,664.5C 407.737,663.209 407.404,662.209 406.5,661.5C 406.97,655.261 405.636,649.594 402.5,644.5C 403.167,643.833 403.833,643.167 404.5,642.5C 404.294,638.102 404.627,633.768 405.5,629.5C 406.924,627.485 407.59,625.152 407.5,622.5C 408.589,620.883 410.256,620.05 412.5,620C 417.507,618.745 422.507,618.578 427.5,619.5C 434.693,632.87 437.693,647.203 436.5,662.5C 433.5,662.5 430.5,662.5 427.5,662.5C 427.296,659.482 426.963,656.482 426.5,653.5 Z"/></g>
<g><path style="opacity:1" fill="#e03c3e" d="M 363.5,626.5 C 367.348,626.24 371.015,626.906 374.5,628.5C 373.518,631.096 372.851,633.762 372.5,636.5C 369.518,636.037 366.518,635.704 363.5,635.5C 363.5,632.5 363.5,629.5 363.5,626.5 Z"/></g>
<g><path style="opacity:1" fill="#f4abab" d="M 407.5,622.5 C 407.59,625.152 406.924,627.485 405.5,629.5C 405.41,626.848 406.076,624.515 407.5,622.5 Z"/></g>
<g><path style="opacity:1" fill="#e03d40" d="M 414.5,628.5 C 417.247,628.187 419.914,628.52 422.5,629.5C 424.003,633.356 424.67,637.356 424.5,641.5C 421.167,641.5 417.833,641.5 414.5,641.5C 414.5,637.167 414.5,632.833 414.5,628.5 Z"/></g>
<g><path style="opacity:1" fill="#ee9092" d="M 404.5,642.5 C 403.833,643.167 403.167,643.833 402.5,644.5C 401.957,644.44 401.624,644.107 401.5,643.5C 402.325,642.614 403.325,642.281 404.5,642.5 Z"/></g>
<g><path style="opacity:1" fill="#e03b3d" d="M 361.5,644.5 C 364.5,644.5 367.5,644.5 370.5,644.5C 370.5,647.833 370.5,651.167 370.5,654.5C 367.482,654.296 364.482,653.963 361.5,653.5C 361.5,650.5 361.5,647.5 361.5,644.5 Z"/></g>
<g><path style="opacity:1" fill="#ec7f80" d="M 415.5,650.5 C 418.962,649.518 422.629,649.185 426.5,649.5C 426.5,650.833 426.5,652.167 426.5,653.5C 425.596,652.791 425.263,651.791 425.5,650.5C 422.167,650.5 418.833,650.5 415.5,650.5 Z"/></g>
<g><path style="opacity:1" fill="#f8c4c4" d="M 351.5,653.5 C 351.338,655.527 351.505,657.527 352,659.5C 354.277,660.117 356.444,660.784 358.5,661.5C 355.833,661.5 353.167,661.5 350.5,661.5C 350.194,658.615 350.527,655.948 351.5,653.5 Z"/></g>
<g><path style="opacity:1" fill="#f6b8b9" d="M 358.5,661.5 C 363.414,661.362 368.081,662.028 372.5,663.5C 367.586,663.638 362.919,662.972 358.5,661.5 Z"/></g>
<g><path style="opacity:1" fill="#f3a5a5" d="M 415.5,656.5 C 416.477,659.287 416.81,662.287 416.5,665.5C 413.167,665.5 409.833,665.5 406.5,665.5C 406.5,664.167 406.5,662.833 406.5,661.5C 407.404,662.209 407.737,663.209 407.5,664.5C 410.167,664.5 412.833,664.5 415.5,664.5C 415.5,661.833 415.5,659.167 415.5,656.5 Z"/></g>
</svg>
