<?xml version="1.0" encoding="UTF-8"?>
<!DOCTYPE svg PUBLIC "-//W3C//DTD SVG 1.1//EN" "http://www.w3.org/Graphics/SVG/1.1/DTD/svg11.dtd">
<svg xmlns="http://www.w3.org/2000/svg" version="1.1" width="800px" height="800px" style="shape-rendering:geometricPrecision; text-rendering:geometricPrecision; image-rendering:optimizeQuality; fill-rule:evenodd; clip-rule:evenodd" xmlns:xlink="http://www.w3.org/1999/xlink">
<g><path style="opacity:0.573" fill="#ebebeb" d="M 223.5,80.5 C 253.634,78.5678 278.3,89.2345 297.5,112.5C 319.405,103.885 342.072,98.3854 365.5,96C 376.63,89.4568 388.63,85.6234 401.5,84.5C 406.676,84.3022 411.676,85.1356 416.5,87C 422.325,89.7453 427.992,92.7453 433.5,96C 536.995,111.202 612.161,165.368 659,258.5C 701.946,357.34 694.279,452.007 636,542.5C 615.667,570.833 591.333,595.167 563,615.5C 562.834,620.845 564.501,625.512 568,629.5C 568.167,631 568.333,632.5 568.5,634C 567.062,641.76 566.395,649.594 566.5,657.5C 567.969,674.516 567.802,691.516 566,708.5C 565.762,712.918 563.595,714.751 559.5,714C 553.689,703.234 549.856,691.734 548,679.5C 546.972,665.267 544.638,651.267 541,637.5C 540.163,635.156 538.829,633.156 537,631.5C 499.575,652.361 459.408,664.028 416.5,666.5C 418.253,673.845 415.919,679.679 409.5,684C 401.273,688.743 392.44,691.91 383,693.5C 378.084,690.406 372.751,689.739 367,691.5C 361.555,697.948 355.721,704.114 349.5,710C 345.127,713.186 340.46,715.853 335.5,718C 329.141,718.831 322.807,718.664 316.5,717.5C 301.834,711.995 290.334,702.661 282,689.5C 281.629,682.147 283.796,675.647 288.5,670C 285.619,661.45 284.953,652.783 286.5,644C 197.191,602.932 141.358,534.432 119,438.5C 102.478,350.926 121.312,271.926 175.5,201.5C 155.163,172.768 154.33,143.435 173,113.5C 186.073,96.5591 202.906,85.5591 223.5,80.5 Z"/></g>
<g><path style="opacity:1" fill="#060705" d="M 334.5,714.5 C 327.465,714.674 320.465,714.341 313.5,713.5C 301.772,708.209 292.272,700.209 285,689.5C 284.342,685.428 284.675,681.428 286,677.5C 288.222,675.615 290.056,673.449 291.5,671C 290.667,668.5 289.833,666 289,663.5C 288.5,656.174 288.334,648.841 288.5,641.5C 208.682,606.509 155.182,547.509 128,464.5C 101.039,368.146 117.873,280.479 178.5,201.5C 160.269,176.373 157.769,149.706 171,121.5C 194.119,86.2381 225.619,75.7381 265.5,90C 277.774,96.1043 288.107,104.604 296.5,115.5C 319.372,106.699 343.038,100.866 367.5,98C 377.96,91.6043 389.293,87.771 401.5,86.5C 412.102,87.032 421.435,90.6987 429.5,97.5C 532.677,112.131 608.177,165.464 656,257.5C 690.114,332.817 692.447,409.15 663,486.5C 640.856,539.479 606.356,582.479 559.5,615.5C 561.449,621.82 563.449,627.987 565.5,634C 564.941,659.512 564.107,685.012 563,710.5C 561.817,711.731 560.651,711.731 559.5,710.5C 556.355,701.283 553.521,691.949 551,682.5C 549.327,668.447 547.327,654.447 545,640.5C 543.75,635.655 541.25,631.655 537.5,628.5C 498.446,650.434 456.446,662.434 411.5,664.5C 416.315,672.243 414.648,678.41 406.5,683C 399.334,686.5 391.834,689 384,690.5C 377.622,688.375 371.122,688.042 364.5,689.5C 358.689,698.478 351.355,705.978 342.5,712C 339.904,713.136 337.237,713.969 334.5,714.5 Z"/></g>
<g><path style="opacity:1" fill="#a43631" d="M 226.5,86.5 C 228.288,86.2148 229.955,86.5481 231.5,87.5C 229.177,91.969 227.343,96.6356 226,101.5C 225.066,113.509 224.066,125.509 223,137.5C 222.258,140.657 220.758,143.323 218.5,145.5C 213.045,138.877 207.045,132.71 200.5,127C 193.789,122.644 186.789,118.811 179.5,115.5C 191.255,99.4574 206.922,89.7907 226.5,86.5 Z"/></g>
<g><path style="opacity:1" fill="#a43631" d="M 237.5,86.5 C 278.251,91.4171 300.585,114.25 304.5,155C 304.354,160.521 304.021,166.021 303.5,171.5C 288.544,167.125 274.878,169.625 262.5,179C 246.979,190.537 238.645,206.037 237.5,225.5C 218.635,225.935 202.301,219.768 188.5,207C 230.302,194.198 259.802,167.698 277,127.5C 277.837,125.179 278.17,122.845 278,120.5C 263.535,149.633 242.701,173.133 215.5,191C 206.133,196.216 196.466,200.716 186.5,204.5C 178.845,197.204 173.178,188.538 169.5,178.5C 183.682,177.968 197.015,174.468 209.5,168C 215.943,162.273 220.776,155.44 224,147.5C 226.661,132.554 228.995,117.554 231,102.5C 232.897,97.0419 235.064,91.7086 237.5,86.5 Z"/></g>
<g><path style="opacity:1" fill="#038148" d="M 574.5,523.5 C 581.96,516.195 588.127,507.861 593,498.5C 593.816,493.316 593.65,488.316 592.5,483.5C 592.075,479.059 590.742,474.892 588.5,471C 623.308,390.008 613.808,314.841 560,245.5C 533.424,214.455 500.591,192.788 461.5,180.5C 461.209,167.98 457.543,156.647 450.5,146.5C 450.977,145.522 451.643,144.689 452.5,144C 458.293,141.27 463.96,138.27 469.5,135C 476.09,129.818 476.09,124.818 469.5,120C 467.833,119.333 466.167,119.333 464.5,120C 459.155,127.43 451.988,132.264 443,134.5C 442.532,125.075 440.365,116.075 436.5,107.5C 535.255,122.321 606.755,174.654 651,264.5C 676.588,322.124 682.588,381.791 669,443.5C 652.111,510.698 615.778,564.698 560,605.5C 559.333,603.833 559.333,602.167 560,600.5C 561.988,594.378 564.155,588.378 566.5,582.5C 564.765,577.244 561.598,572.911 557,569.5C 556.501,566.482 556.668,563.482 557.5,560.5C 555.826,555.491 553.993,550.491 552,545.5C 551.333,542.5 551.333,539.5 552,536.5C 555.955,531.422 559.789,526.256 563.5,521C 566.688,522.847 570.355,523.681 574.5,523.5 Z"/></g>
<g><path style="opacity:1" fill="#008047" d="M 346.5,108.5 C 348.199,108.34 349.866,108.506 351.5,109C 341.421,117.164 336.421,127.83 336.5,141C 336.827,152.649 339.994,163.483 346,173.5C 346.123,177.063 344.29,179.23 340.5,180C 324.482,184.423 309.316,190.923 295,199.5C 296.983,194.523 299.316,189.523 302,184.5C 306.93,171.582 308.597,158.249 307,144.5C 305.269,136.662 303.103,128.995 300.5,121.5C 315.589,115.91 330.922,111.576 346.5,108.5 Z"/></g>
<g><path style="opacity:1" fill="#128449" d="M 434.5,136.5 C 434.82,133.102 434.487,129.768 433.5,126.5C 431.449,129.551 428.783,131.885 425.5,133.5C 423.971,133.471 422.804,132.804 422,131.5C 420.92,129.004 419.586,126.67 418,124.5C 417.647,118.672 420.481,115.339 426.5,114.5C 427.694,112.484 427.694,110.484 426.5,108.5C 427.601,107.402 428.934,107.235 430.5,108C 435.809,116.697 438.142,126.197 437.5,136.5C 436.5,136.5 435.5,136.5 434.5,136.5 Z"/></g>
<g><path style="opacity:1" fill="#b89452" d="M 426.5,108.5 C 427.694,110.484 427.694,112.484 426.5,114.5C 420.481,115.339 417.647,118.672 418,124.5C 419.586,126.67 420.92,129.004 422,131.5C 422.804,132.804 423.971,133.471 425.5,133.5C 428.783,131.885 431.449,129.551 433.5,126.5C 434.487,129.768 434.82,133.102 434.5,136.5C 424.742,137.753 415.409,140.42 406.5,144.5C 405.521,143.235 404.521,141.901 403.5,140.5C 406.366,139.792 409.2,139.125 412,138.5C 414.077,135.802 413.577,133.635 410.5,132C 412.278,129.775 412.778,127.275 412,124.5C 408.347,123.144 405.347,124.144 403,127.5C 402.741,124.413 402.241,121.413 401.5,118.5C 409.291,114.01 417.624,110.676 426.5,108.5 Z"/></g>
<g><path style="opacity:1" fill="#128549" d="M 401.5,118.5 C 402.241,121.413 402.741,124.413 403,127.5C 405.347,124.144 408.347,123.144 412,124.5C 412.778,127.275 412.278,129.775 410.5,132C 413.577,133.635 414.077,135.802 412,138.5C 409.2,139.125 406.366,139.792 403.5,140.5C 404.521,141.901 405.521,143.235 406.5,144.5C 404.151,146.341 401.485,147.674 398.5,148.5C 399.976,146.77 399.642,145.437 397.5,144.5C 395.639,145.528 394.305,147.028 393.5,149C 388.333,150.804 384.999,149.137 383.5,144C 378.277,143.433 377.277,141.099 380.5,137C 388.977,136.549 389.643,134.049 382.5,129.5C 385.291,127.265 388.291,125.265 391.5,123.5C 393.754,126.004 395.088,125.337 395.5,121.5C 397.181,119.992 399.181,118.992 401.5,118.5 Z"/></g>
<g><path style="opacity:1" fill="#a43631" d="M 175.5,120.5 C 193.605,125.091 207.271,135.591 216.5,152C 209.476,163.693 199.143,170.693 185.5,173C 179.509,173.499 173.509,173.666 167.5,173.5C 163.972,154.8 166.639,137.133 175.5,120.5 Z"/></g>
<g><path style="opacity:1" fill="#bd9351" d="M 395.5,121.5 C 395.088,125.337 393.754,126.004 391.5,123.5C 392.833,122.833 394.167,122.167 395.5,121.5 Z"/></g>
<g><path style="opacity:1" fill="#f0f0f0" d="M 464.5,122.5 C 472.987,124.64 473.653,128.473 466.5,134C 450.887,141.986 434.554,147.986 417.5,152C 408.485,155.008 400.152,159.341 392.5,165C 378.254,178.448 362.921,190.448 346.5,201C 342.974,202.337 339.308,202.837 335.5,202.5C 335.297,200.61 335.963,199.11 337.5,198C 342.167,195.333 346.833,192.667 351.5,190C 366.167,178.667 380.833,167.333 395.5,156C 402.554,151.806 409.888,148.139 417.5,145C 431.147,142.118 444.147,137.451 456.5,131C 459.371,128.297 462.038,125.464 464.5,122.5 Z"/></g>
<g><path style="opacity:1" fill="#b79552" d="M 382.5,129.5 C 389.643,134.049 388.977,136.549 380.5,137C 377.277,141.099 378.277,143.433 383.5,144C 384.999,149.137 388.333,150.804 393.5,149C 394.305,147.028 395.639,145.528 397.5,144.5C 399.642,145.437 399.976,146.77 398.5,148.5C 389.112,154.198 380.445,160.865 372.5,168.5C 370.243,167.438 369.077,165.772 369,163.5C 373.672,162.248 377.839,160.081 381.5,157C 380.392,154.888 378.892,153.054 377,151.5C 377.158,144.052 374.491,142.719 369,147.5C 368.798,149.256 368.298,150.922 367.5,152.5C 366.822,147.819 364.155,145.819 359.5,146.5C 366.317,139.683 373.983,134.017 382.5,129.5 Z"/></g>
<g><path style="opacity:1" fill="#0e8449" d="M 372.5,168.5 C 370.5,171.167 368.167,173.5 365.5,175.5C 365.838,172.843 365.171,170.51 363.5,168.5C 361.747,171.005 360.247,173.671 359,176.5C 357.122,177.053 355.622,178.053 354.5,179.5C 350.924,175.901 348.59,171.568 347.5,166.5C 350.38,166.967 352.713,166.134 354.5,164C 352.759,161.949 350.759,160.116 348.5,158.5C 351.486,153.848 355.153,149.848 359.5,146.5C 364.155,145.819 366.822,147.819 367.5,152.5C 368.298,150.922 368.798,149.256 369,147.5C 374.491,142.719 377.158,144.052 377,151.5C 378.892,153.054 380.392,154.888 381.5,157C 377.839,160.081 373.672,162.248 369,163.5C 369.077,165.772 370.243,167.438 372.5,168.5 Z"/></g>
<g><path style="opacity:1" fill="#b79552" d="M 348.5,158.5 C 350.759,160.116 352.759,161.949 354.5,164C 352.713,166.134 350.38,166.967 347.5,166.5C 346.027,163.548 346.36,160.881 348.5,158.5 Z"/></g>
<g><path style="opacity:1" fill="#b89452" d="M 365.5,175.5 C 362.854,177.479 360.521,179.812 358.5,182.5C 357.148,181.476 355.815,180.476 354.5,179.5C 355.622,178.053 357.122,177.053 359,176.5C 360.247,173.671 361.747,171.005 363.5,168.5C 365.171,170.51 365.838,172.843 365.5,175.5 Z"/></g>
<g><path style="opacity:1" fill="#f8fbf9" d="M 559.5,171.5 C 576.255,170.264 585.255,177.931 586.5,194.5C 583.167,194.833 579.833,195.167 576.5,195.5C 576.564,188.831 573.231,184.998 566.5,184C 560.342,182.328 555.509,184.162 552,189.5C 548.159,196.254 548.992,202.421 554.5,208C 557.072,210.287 560.072,211.453 563.5,211.5C 563.5,215.167 563.5,218.833 563.5,222.5C 543.217,220.395 535.051,209.395 539,189.5C 543.175,180.35 550.009,174.35 559.5,171.5 Z"/></g>
<g><path style="opacity:1" fill="#a23530" d="M 285.5,173.5 C 290.485,172.96 295.151,173.793 299.5,176C 300.059,176.725 300.392,177.558 300.5,178.5C 296.823,190.529 290.156,200.529 280.5,208.5C 275.779,200.217 270.446,192.383 264.5,185C 270.62,179.606 277.62,175.772 285.5,173.5 Z"/></g>
<g><path style="opacity:1" fill="#fdfdfd" d="M 601.5,344.5 C 603.259,362.107 603.926,379.774 603.5,397.5C 601.567,421.229 595.567,443.896 585.5,465.5C 582.552,461.72 578.719,459.387 574,458.5C 571.349,459.904 568.515,460.904 565.5,461.5C 560.83,460.332 556.33,458.665 552,456.5C 550.019,457.65 548.186,458.984 546.5,460.5C 546.573,458.973 545.906,457.973 544.5,457.5C 545.259,455.564 546.259,453.731 547.5,452C 542.854,442.062 539.354,431.562 537,420.5C 535.729,417.567 534.062,414.901 532,412.5C 527.452,394.428 524.452,376.094 523,357.5C 521.644,356.62 520.144,356.286 518.5,356.5C 518.194,353.055 518.194,349.389 518.5,345.5C 519.013,336.419 520.18,327.419 522,318.5C 522.667,313.833 522.667,309.167 522,304.5C 518.667,296.5 515.333,288.5 512,280.5C 508.911,274.416 504.744,269.249 499.5,265C 497.167,264.333 494.833,264.333 492.5,265C 485.661,270.06 479.494,269.56 474,263.5C 474.147,272.351 478.647,275.518 487.5,273C 489.949,272.275 492.283,271.275 494.5,270C 497.789,269.254 500.289,270.42 502,273.5C 507.607,285.047 512.941,296.714 518,308.5C 518.167,310.5 518.333,312.5 518.5,314.5C 516.366,331.543 514.2,348.543 512,365.5C 512.561,366.022 513.228,366.355 514,366.5C 515.86,364.799 518.027,363.799 520.5,363.5C 521.978,380.06 524.812,396.393 529,412.5C 529.667,414.5 529.667,416.5 529,418.5C 520.419,422.694 511.419,425.694 502,427.5C 500.289,427.561 498.956,426.894 498,425.5C 492.524,413.882 486.524,402.548 480,391.5C 479.333,388.167 479.333,384.833 480,381.5C 482.898,375.213 485.065,368.713 486.5,362C 485.624,352.449 483.291,343.283 479.5,334.5C 478.726,333.289 477.893,333.289 477,334.5C 474,342.167 471,349.833 468,357.5C 465.127,363.842 460.294,367.009 453.5,367C 449.698,364.913 447.198,361.746 446,357.5C 443.387,341.935 444.387,326.602 449,311.5C 454.575,293.522 462.408,276.689 472.5,261C 472.355,260.228 472.022,259.561 471.5,259C 466.055,257.112 461.055,254.445 456.5,251C 454.082,247.042 453.915,242.875 456,238.5C 462.982,231.223 468.315,222.89 472,213.5C 472.667,210.5 472.667,207.5 472,204.5C 471.576,201.975 470.41,199.975 468.5,198.5C 467.007,196.068 465.007,194.068 462.5,192.5C 461.526,190.257 461.192,187.924 461.5,185.5C 518.44,203.432 559.94,239.432 586,293.5C 593.692,309.742 598.859,326.742 601.5,344.5 Z"/></g>
<g><path style="opacity:1" fill="#fafafa" d="M 344.5,220.5 C 342.415,222.684 341.415,225.351 341.5,228.5C 337.989,228.899 334.656,229.566 331.5,230.5C 321.142,232.038 310.809,233.705 300.5,235.5C 302.089,229.58 302.923,223.58 303,217.5C 298.729,215.504 294.229,215.004 289.5,216C 286.528,217.988 283.361,219.488 280,220.5C 279.623,227.807 280.956,234.807 284,241.5C 284.833,242.333 285.667,243.167 286.5,244C 305.106,241.305 323.773,238.805 342.5,236.5C 345.567,251.728 354.9,260.228 370.5,262C 372.037,263.11 372.703,264.61 372.5,266.5C 365.651,265.596 358.984,263.93 352.5,261.5C 347.751,262.675 345.084,265.675 344.5,270.5C 342.961,273.865 342.294,277.531 342.5,281.5C 342.503,284.355 342.836,287.022 343.5,289.5C 343.5,290.5 343.5,291.5 343.5,292.5C 343.328,293.492 343.662,294.158 344.5,294.5C 344.178,298.747 345.011,302.747 347,306.5C 348.117,308.124 349.617,309.124 351.5,309.5C 361.613,305.277 371.613,300.777 381.5,296C 383.041,294.629 384.375,293.129 385.5,291.5C 385.833,291.5 386.167,291.5 386.5,291.5C 386.66,293.199 386.494,294.866 386,296.5C 377.832,306.157 371.165,316.824 366,328.5C 364.023,331.312 361.856,333.978 359.5,336.5C 350.864,332.592 341.864,330.092 332.5,329C 329.668,341.503 324.168,352.67 316,362.5C 312.549,367.13 308.883,367.463 305,363.5C 299.819,356.989 294.653,350.489 289.5,344C 293.934,337.229 298.767,330.729 304,324.5C 306.975,319.744 309.475,314.744 311.5,309.5C 316.252,315.757 321.585,321.59 327.5,327C 328.793,327.49 330.127,327.657 331.5,327.5C 328.65,323.136 325.15,319.136 321,315.5C 318.376,311.752 315.876,307.919 313.5,304C 311.248,304.05 309.582,305.216 308.5,307.5C 306.653,304.798 305.487,301.798 305,298.5C 304.35,287.771 303.35,277.105 302,266.5C 297.852,261.338 292.686,257.505 286.5,255C 276.456,245.383 271.79,233.549 272.5,219.5C 291.66,204.172 312.993,193.005 336.5,186C 332.705,189.793 329.705,194.126 327.5,199C 329.789,205.975 334.456,208.642 341.5,207C 345.896,205.13 350.229,203.297 354.5,201.5C 354.035,205.062 352.868,208.395 351,211.5C 348.334,214.176 346.167,217.176 344.5,220.5 Z"/></g>
<g><path style="opacity:1" fill="#a33631" d="M 259.5,188.5 C 261.39,188.297 262.89,188.963 264,190.5C 269.294,197.411 272.628,205.078 274,213.5C 263.812,220.174 252.646,224.174 240.5,225.5C 242.118,210.582 248.451,198.249 259.5,188.5 Z"/></g>
<g><path style="opacity:1" fill="#efefef" d="M 361.5,193.5 C 363.084,194.382 364.751,195.215 366.5,196C 367.574,196.739 368.241,197.739 368.5,199C 366.681,201.489 364.848,203.989 363,206.5C 362.502,209.482 362.335,212.482 362.5,215.5C 357.684,215.68 355.684,213.347 356.5,208.5C 356.783,202.985 358.449,197.985 361.5,193.5 Z"/></g>
<g><path style="opacity:1" fill="#f4b080" d="M 422.5,229.5 C 429.241,229.829 435.908,229.329 442.5,228C 442.167,227.667 441.833,227.333 441.5,227C 443.25,225.246 443.917,223.079 443.5,220.5C 444.99,211.687 448.99,204.187 455.5,198C 459.668,195.697 463.335,196.197 466.5,199.5C 469.738,207.377 468.572,214.71 463,221.5C 456.225,226.051 452.892,232.384 453,240.5C 449.602,251.227 442.769,258.727 432.5,263C 427.721,264.194 423.055,265.694 418.5,267.5C 417.833,265.833 417.167,264.167 416.5,262.5C 409.596,277.745 398.263,282.579 382.5,277C 378.729,273.624 376.396,269.458 375.5,264.5C 378.29,264.949 380.956,264.949 383.5,264.5C 374.875,260.57 366.208,256.736 357.5,253C 351.544,248.711 347.544,243.045 345.5,236C 345.57,235.235 345.903,234.735 346.5,234.5C 347.873,234.343 349.207,234.51 350.5,235C 361.618,242.226 373.285,248.392 385.5,253.5C 390.305,252.764 394.638,250.93 398.5,248C 402.887,243.613 407.221,239.279 411.5,235C 413.519,235.152 415.519,235.652 417.5,236.5C 417.733,231.552 415.399,228.385 410.5,227C 404.857,226.136 399.19,225.469 393.5,225C 389.552,221.579 385.719,218.079 382,214.5C 381.5,214.833 381,215.167 380.5,215.5C 383.225,217.722 384.891,220.555 385.5,224C 385.561,225.711 384.894,227.044 383.5,228C 378.833,228.333 374.167,228.667 369.5,229C 364.66,233.275 359.827,233.442 355,229.5C 354.506,227.866 354.34,226.199 354.5,224.5C 355.29,223.206 356.29,222.039 357.5,221C 363.474,219.685 368.474,216.852 372.5,212.5C 380.779,205.717 382.945,197.384 379,187.5C 378.107,186.289 377.274,186.289 376.5,187.5C 379.28,191.05 380.114,195.05 379,199.5C 377.363,204.279 374.529,207.946 370.5,210.5C 370.666,205.821 370.499,201.155 370,196.5C 369.07,194.448 367.57,192.948 365.5,192C 377.592,181.238 390.258,171.238 403.5,162C 406.449,160.239 409.616,159.072 413,158.5C 416.063,159.881 418.896,161.714 421.5,164C 424.486,163.872 427.486,163.872 430.5,164C 431.43,167.88 432.596,171.714 434,175.5C 435.154,176.743 436.488,177.743 438,178.5C 438.571,196.695 432.905,212.695 421,226.5C 420.275,228.157 420.775,229.157 422.5,229.5 Z"/></g>
<g><path style="opacity:1" fill="#140f0a" d="M 403.5,171.5 C 405.366,172.014 407.2,172.68 409,173.5C 410.301,172.107 411.801,171.607 413.5,172C 419.126,174.649 423.793,178.482 427.5,183.5C 426.316,185.046 425.316,186.713 424.5,188.5C 420.466,185.234 415.799,183.567 410.5,183.5C 407.032,184.652 403.698,185.986 400.5,187.5C 399.947,192.482 399.613,197.482 399.5,202.5C 411.116,202.184 421.782,198.85 431.5,192.5C 431.833,192.833 432.167,193.167 432.5,193.5C 430.056,195.895 427.39,198.062 424.5,200C 416.2,202.065 407.867,203.899 399.5,205.5C 402.809,206.687 405.809,208.52 408.5,211C 409.833,211.167 411.167,211.333 412.5,211.5C 417.35,209.9 422.017,208.066 426.5,206C 416.886,215.827 407.053,215.994 397,206.5C 396.612,201.489 396.778,196.489 397.5,191.5C 395.488,192.014 393.488,192.18 391.5,192C 389.295,189.46 386.795,187.293 384,185.5C 383.51,184.207 383.343,182.873 383.5,181.5C 384.833,181.5 386.167,181.5 387.5,181.5C 387.5,180.167 387.5,178.833 387.5,177.5C 392.343,175.873 397.343,174.707 402.5,174C 403.252,173.329 403.586,172.496 403.5,171.5 Z"/></g>
<g><path style="opacity:1" fill="#271e16" d="M 372.5,212.5 C 371.833,211.833 371.167,211.167 370.5,210.5C 374.529,207.946 377.363,204.279 379,199.5C 380.114,195.05 379.28,191.05 376.5,187.5C 377.274,186.289 378.107,186.289 379,187.5C 382.945,197.384 380.779,205.717 372.5,212.5 Z"/></g>
<g><path style="opacity:1" fill="#130e09" d="M 457.5,204.5 C 459.167,204.5 460.833,204.5 462.5,204.5C 461.736,207.787 459.903,210.454 457,212.5C 456.548,215.877 455.882,219.211 455,222.5C 451.831,222.087 449.331,220.587 447.5,218C 449.88,212.788 453.213,208.288 457.5,204.5 Z"/></g>
<g><path style="opacity:1" fill="#038148" d="M 183.5,207.5 C 189.326,211.811 195.326,215.978 201.5,220C 211.674,224.71 222.34,227.543 233.5,228.5C 241.559,227.765 249.559,226.932 257.5,226C 190.747,293.939 173.913,372.772 207,462.5C 223.519,499.857 248.353,530.524 281.5,554.5C 279.481,557.538 278.314,560.871 278,564.5C 277.333,570.833 277.333,577.167 278,583.5C 281.076,584.288 284.242,584.788 287.5,585C 292.034,589.589 294.868,595.089 296,601.5C 296.667,605.5 296.667,609.5 296,613.5C 293.849,620.114 292.016,626.781 290.5,633.5C 231.668,608.512 186.835,567.846 156,511.5C 121.49,443.769 114.49,373.102 135,299.5C 145.71,265.738 161.876,235.071 183.5,207.5 Z"/></g>
<g><path style="opacity:1" fill="#f8fbfa" d="M 611.5,211.5 C 612.496,211.414 613.329,211.748 614,212.5C 621.011,223.187 628.511,233.521 636.5,243.5C 634.015,246.399 631.015,248.232 627.5,249C 622.613,243.114 618.113,236.947 614,230.5C 613.163,228.993 611.996,228.493 610.5,229C 608.651,230.093 606.984,231.426 605.5,233C 610.122,239.078 614.622,245.245 619,251.5C 619.667,252.5 619.667,253.5 619,254.5C 616.667,256.167 614.333,257.833 612,259.5C 607,252.5 602,245.5 597,238.5C 594.667,240.006 592.5,241.673 590.5,243.5C 595.08,249.66 599.414,255.993 603.5,262.5C 601.23,264.975 598.563,266.975 595.5,268.5C 588.138,258.951 581.138,249.118 574.5,239C 586.87,229.822 599.204,220.655 611.5,211.5 Z"/></g>
<g><path style="opacity:1" fill="#efad7e" d="M 353.5,222.5 C 352.583,226.639 349.916,228.306 345.5,227.5C 345.5,226.167 345.5,224.833 345.5,223.5C 346.989,219.498 349.489,216.164 353,213.5C 354.353,214.685 355.52,216.019 356.5,217.5C 355.048,218.94 354.048,220.606 353.5,222.5 Z"/></g>
<g><path style="opacity:1" fill="#f3af80" d="M 270.5,226.5 C 270.336,234.778 272.503,242.445 277,249.5C 283.109,255.878 289.776,261.545 297,266.5C 298.248,275.78 299.248,285.114 300,294.5C 301.693,300.879 304.193,306.879 307.5,312.5C 303.308,321.525 296.642,328.025 287.5,332C 275.351,334.532 269.517,329.699 270,317.5C 273.5,312.333 272.667,311.5 267.5,315C 261.622,316.653 256.788,315.153 253,310.5C 246.002,303.737 245.836,296.903 252.5,290C 253.793,289.51 255.127,289.343 256.5,289.5C 252.972,296.332 253.972,302.332 259.5,307.5C 264.031,309.242 267.698,308.075 270.5,304C 271.5,303.333 272.5,303.333 273.5,304C 274.557,308.504 276.391,312.671 279,316.5C 285.811,323.469 291.977,322.969 297.5,315C 292.966,316.146 288.3,316.479 283.5,316C 280.131,313.635 277.964,310.468 277,306.5C 276.495,299.461 276.495,292.461 277,285.5C 274.716,293.24 270.55,299.74 264.5,305C 261.692,305.92 259.525,305.087 258,302.5C 259.372,293.011 261.705,283.678 265,274.5C 265.903,273.299 267.069,272.465 268.5,272C 275.438,270.445 282.438,269.279 289.5,268.5C 289.291,267.914 288.957,267.414 288.5,267C 283.833,266.667 279.167,266.333 274.5,266C 272.667,264.167 270.833,262.333 269,260.5C 265.976,254.434 262.476,248.768 258.5,243.5C 255.756,233.992 258.756,226.992 267.5,222.5C 269.468,223.1 270.468,224.433 270.5,226.5 Z"/></g>
<g><path style="opacity:1" fill="#1d1713" d="M 346.5,234.5 C 346.5,233.833 346.167,233.5 345.5,233.5C 347.694,232.234 350.028,232.234 352.5,233.5C 353.904,231.453 353.571,229.786 351.5,228.5C 346.656,230.252 341.656,231.252 336.5,231.5C 335.081,230.549 333.415,230.216 331.5,230.5C 334.656,229.566 337.989,228.899 341.5,228.5C 341.415,225.351 342.415,222.684 344.5,220.5C 344.263,221.791 344.596,222.791 345.5,223.5C 345.5,224.833 345.5,226.167 345.5,227.5C 349.916,228.306 352.583,226.639 353.5,222.5C 353.328,223.492 353.662,224.158 354.5,224.5C 354.34,226.199 354.506,227.866 355,229.5C 359.827,233.442 364.66,233.275 369.5,229C 374.167,228.667 378.833,228.333 383.5,228C 384.894,227.044 385.561,225.711 385.5,224C 384.891,220.555 383.225,217.722 380.5,215.5C 381,215.167 381.5,214.833 382,214.5C 385.719,218.079 389.552,221.579 393.5,225C 399.19,225.469 404.857,226.136 410.5,227C 415.399,228.385 417.733,231.552 417.5,236.5C 415.519,235.652 413.519,235.152 411.5,235C 407.221,239.279 402.887,243.613 398.5,248C 394.638,250.93 390.305,252.764 385.5,253.5C 373.285,248.392 361.618,242.226 350.5,235C 349.207,234.51 347.873,234.343 346.5,234.5 Z"/></g>
<g><path style="opacity:1" fill="#fafcfb" d="M 211.5,264.5 C 200.48,264.168 189.48,264.501 178.5,265.5C 178.624,266.107 178.957,266.44 179.5,266.5C 186.891,270.948 194.391,275.281 202,279.5C 201.79,283.921 199.956,287.588 196.5,290.5C 183.002,282.919 169.669,275.085 156.5,267C 158.307,263.885 159.973,260.719 161.5,257.5C 174.517,257.832 187.517,257.499 200.5,256.5C 200.376,255.893 200.043,255.56 199.5,255.5C 190.359,250.094 181.359,244.428 172.5,238.5C 173.725,234.782 175.891,231.782 179,229.5C 192.729,236.948 206.229,244.781 219.5,253C 216.97,257.013 214.304,260.846 211.5,264.5 Z"/></g>
<g><path style="opacity:1" fill="#151412" d="M 468.5,198.5 C 470.41,199.975 471.576,201.975 472,204.5C 472.667,207.5 472.667,210.5 472,213.5C 468.315,222.89 462.982,231.223 456,238.5C 453.915,242.875 454.082,247.042 456.5,251C 461.055,254.445 466.055,257.112 471.5,259C 472.022,259.561 472.355,260.228 472.5,261C 462.408,276.689 454.575,293.522 449,311.5C 444.387,326.602 443.387,341.935 446,357.5C 447.198,361.746 449.698,364.913 453.5,367C 460.294,367.009 465.127,363.842 468,357.5C 471,349.833 474,342.167 477,334.5C 477.893,333.289 478.726,333.289 479.5,334.5C 483.291,343.283 485.624,352.449 486.5,362C 485.065,368.713 482.898,375.213 480,381.5C 479.333,384.833 479.333,388.167 480,391.5C 486.524,402.548 492.524,413.882 498,425.5C 498.956,426.894 500.289,427.561 502,427.5C 511.419,425.694 520.419,422.694 529,418.5C 529.667,416.5 529.667,414.5 529,412.5C 524.812,396.393 521.978,380.06 520.5,363.5C 518.027,363.799 515.86,364.799 514,366.5C 513.228,366.355 512.561,366.022 512,365.5C 514.2,348.543 516.366,331.543 518.5,314.5C 518.333,312.5 518.167,310.5 518,308.5C 512.941,296.714 507.607,285.047 502,273.5C 500.289,270.42 497.789,269.254 494.5,270C 492.283,271.275 489.949,272.275 487.5,273C 478.647,275.518 474.147,272.351 474,263.5C 479.494,269.56 485.661,270.06 492.5,265C 494.833,264.333 497.167,264.333 499.5,265C 504.744,269.249 508.911,274.416 512,280.5C 515.333,288.5 518.667,296.5 522,304.5C 522.667,309.167 522.667,313.833 522,318.5C 520.18,327.419 519.013,336.419 518.5,345.5C 516.869,349.319 516.536,353.319 517.5,357.5C 518.107,357.376 518.44,357.043 518.5,356.5C 520.144,356.286 521.644,356.62 523,357.5C 524.452,376.094 527.452,394.428 532,412.5C 534.062,414.901 535.729,417.567 537,420.5C 539.354,431.562 542.854,442.062 547.5,452C 546.259,453.731 545.259,455.564 544.5,457.5C 537.73,463.469 529.897,467.469 521,469.5C 520.465,476.677 522.631,477.844 527.5,473C 528.448,472.517 529.448,472.351 530.5,472.5C 530.628,474.655 530.128,476.655 529,478.5C 525.179,481.743 521.179,484.743 517,487.5C 516.725,494.741 515.892,501.908 514.5,509C 514.589,513.005 515.922,516.505 518.5,519.5C 517.662,519.842 517.328,520.508 517.5,521.5C 514.134,517.954 511.801,513.787 510.5,509C 512.899,501.026 514.066,492.859 514,484.5C 515.643,482.023 517.476,479.69 519.5,477.5C 518.443,474.811 517.11,472.311 515.5,470C 511.375,469.296 507.875,467.463 505,464.5C 500.762,453.546 498.095,442.213 497,430.5C 490.318,417.802 483.652,405.135 477,392.5C 476.333,388.5 476.333,384.5 477,380.5C 479.772,373.851 481.939,367.018 483.5,360C 482.392,354.401 480.892,348.901 479,343.5C 478.586,343.043 478.086,342.709 477.5,342.5C 468.518,360.45 463.184,379.45 461.5,399.5C 461.573,405.606 462.407,411.606 464,417.5C 468.59,426.347 472.923,435.347 477,444.5C 477.667,447.167 477.667,449.833 477,452.5C 476.722,453.416 476.222,454.082 475.5,454.5C 475.672,453.508 475.338,452.842 474.5,452.5C 474.664,449.813 474.497,447.146 474,444.5C 468.476,435.453 463.476,426.12 459,416.5C 457.267,406.181 457.1,395.848 458.5,385.5C 458.522,381.389 459.189,377.389 460.5,373.5C 450.402,371.069 444.402,364.735 442.5,354.5C 439.418,339.984 440.251,325.65 445,311.5C 451.31,293.881 459.477,277.214 469.5,261.5C 464.719,257.776 459.386,255.11 453.5,253.5C 451.143,255.123 448.976,257.123 447,259.5C 446.517,260.448 446.351,261.448 446.5,262.5C 450.263,263.095 452.596,265.262 453.5,269C 450.505,281.306 447.005,293.473 443,305.5C 441.5,307 440,308.5 438.5,310C 434.35,310.498 430.35,310.164 426.5,309C 423.378,313.954 419.711,318.454 415.5,322.5C 409.337,328.495 403.004,334.329 396.5,340C 390.902,345.091 385.902,350.591 381.5,356.5C 376.52,368.734 371.686,381.067 367,393.5C 359.652,407.531 352.318,421.531 345,435.5C 340.983,446.473 339.483,457.806 340.5,469.5C 339.596,470.209 339.263,471.209 339.5,472.5C 335.807,458.092 337.307,444.092 344,430.5C 352.333,414.5 360.667,398.5 369,382.5C 372.132,373.603 374.966,364.603 377.5,355.5C 375.899,347.532 373.399,339.865 370,332.5C 369.311,331.643 368.478,330.977 367.5,330.5C 360.651,340.188 353.318,349.521 345.5,358.5C 336.303,367.865 326.636,376.698 316.5,385C 314.536,386.451 313.203,388.284 312.5,390.5C 305.121,395.545 299.121,401.878 294.5,409.5C 290.639,414.55 288.472,420.216 288,426.5C 290.831,426.958 293.164,428.292 295,430.5C 298.017,434.534 300.517,438.867 302.5,443.5C 301.833,443.833 301.167,444.167 300.5,444.5C 297.797,439.623 294.464,435.123 290.5,431C 288.236,430.764 286.069,430.264 284,429.5C 283.474,422.94 285.141,416.94 289,411.5C 298.456,397.043 310.29,384.877 324.5,375C 325.833,373.333 325.833,371.667 324.5,370C 322.656,368.818 320.823,367.651 319,366.5C 316.844,367.985 314.677,369.485 312.5,371C 311.5,371.667 310.5,371.667 309.5,371C 302.427,364.598 296.094,357.598 290.5,350C 287.672,347.752 284.672,345.752 281.5,344C 288.328,338.567 286.995,336.234 277.5,337C 270.891,333.398 267.058,327.898 266,320.5C 253.962,317.962 246.796,310.629 244.5,298.5C 244.889,294.387 246.389,290.72 249,287.5C 249.333,283.833 249.667,280.167 250,276.5C 254.693,270.306 260.193,264.973 266.5,260.5C 263.474,255.816 260.474,251.149 257.5,246.5C 258.404,245.791 258.737,244.791 258.5,243.5C 262.476,248.768 265.976,254.434 269,260.5C 270.833,262.333 272.667,264.167 274.5,266C 279.167,266.333 283.833,266.667 288.5,267C 288.957,267.414 289.291,267.914 289.5,268.5C 282.438,269.279 275.438,270.445 268.5,272C 267.069,272.465 265.903,273.299 265,274.5C 261.705,283.678 259.372,293.011 258,302.5C 259.525,305.087 261.692,305.92 264.5,305C 270.55,299.74 274.716,293.24 277,285.5C 276.495,292.461 276.495,299.461 277,306.5C 277.964,310.468 280.131,313.635 283.5,316C 288.3,316.479 292.966,316.146 297.5,315C 291.977,322.969 285.811,323.469 279,316.5C 276.391,312.671 274.557,308.504 273.5,304C 272.5,303.333 271.5,303.333 270.5,304C 267.698,308.075 264.031,309.242 259.5,307.5C 253.972,302.332 252.972,296.332 256.5,289.5C 255.127,289.343 253.793,289.51 252.5,290C 245.836,296.903 246.002,303.737 253,310.5C 256.788,315.153 261.622,316.653 267.5,315C 272.667,311.5 273.5,312.333 270,317.5C 269.517,329.699 275.351,334.532 287.5,332C 296.642,328.025 303.308,321.525 307.5,312.5C 304.193,306.879 301.693,300.879 300,294.5C 299.248,285.114 298.248,275.78 297,266.5C 289.776,261.545 283.109,255.878 277,249.5C 272.503,242.445 270.336,234.778 270.5,226.5C 271.167,224.167 271.833,221.833 272.5,219.5C 271.79,233.549 276.456,245.383 286.5,255C 292.686,257.505 297.852,261.338 302,266.5C 303.35,277.105 304.35,287.771 305,298.5C 305.487,301.798 306.653,304.798 308.5,307.5C 309.582,305.216 311.248,304.05 313.5,304C 315.876,307.919 318.376,311.752 321,315.5C 325.15,319.136 328.65,323.136 331.5,327.5C 330.127,327.657 328.793,327.49 327.5,327C 321.585,321.59 316.252,315.757 311.5,309.5C 309.475,314.744 306.975,319.744 304,324.5C 298.767,330.729 293.934,337.229 289.5,344C 294.653,350.489 299.819,356.989 305,363.5C 308.883,367.463 312.549,367.13 316,362.5C 324.168,352.67 329.668,341.503 332.5,329C 341.864,330.092 350.864,332.592 359.5,336.5C 361.856,333.978 364.023,331.312 366,328.5C 371.165,316.824 377.832,306.157 386,296.5C 386.494,294.866 386.66,293.199 386.5,291.5C 387.622,289.712 387.789,287.712 387,285.5C 381.261,281.596 376.761,276.596 373.5,270.5C 365.497,268.331 357.497,266.498 349.5,265C 346.548,268.968 345.214,273.468 345.5,278.5C 344.833,283.167 344.167,287.833 343.5,292.5C 343.5,291.5 343.5,290.5 343.5,289.5C 343.347,283.131 343.68,276.797 344.5,270.5C 345.084,265.675 347.751,262.675 352.5,261.5C 358.984,263.93 365.651,265.596 372.5,266.5C 372.703,264.61 372.037,263.11 370.5,262C 354.9,260.228 345.567,251.728 342.5,236.5C 323.773,238.805 305.106,241.305 286.5,244C 285.667,243.167 284.833,242.333 284,241.5C 280.956,234.807 279.623,227.807 280,220.5C 283.361,219.488 286.528,217.988 289.5,216C 294.229,215.004 298.729,215.504 303,217.5C 302.923,223.58 302.089,229.58 300.5,235.5C 310.809,233.705 321.142,232.038 331.5,230.5C 333.415,230.216 335.081,230.549 336.5,231.5C 328.039,232.892 319.706,234.725 311.5,237C 322.829,236.093 334.162,234.927 345.5,233.5C 346.167,233.5 346.5,233.833 346.5,234.5C 345.903,234.735 345.57,235.235 345.5,236C 347.544,243.045 351.544,248.711 357.5,253C 366.208,256.736 374.875,260.57 383.5,264.5C 380.956,264.949 378.29,264.949 375.5,264.5C 376.396,269.458 378.729,273.624 382.5,277C 398.263,282.579 409.596,277.745 416.5,262.5C 417.167,264.167 417.833,265.833 418.5,267.5C 423.055,265.694 427.721,264.194 432.5,263C 442.769,258.727 449.602,251.227 453,240.5C 452.892,232.384 456.225,226.051 463,221.5C 468.572,214.71 469.738,207.377 466.5,199.5C 467.167,199.167 467.833,198.833 468.5,198.5 Z"/></g>
<g><path style="opacity:1" fill="#f4af80" d="M 388.5,227.5 C 394.014,229.046 399.681,229.879 405.5,230C 407.619,230.098 409.286,230.931 410.5,232.5C 405.596,239.905 399.262,245.739 391.5,250C 387.833,250.667 384.167,250.667 380.5,250C 372.328,246.753 364.994,242.253 358.5,236.5C 361.447,235.679 364.447,235.179 367.5,235C 368.167,234 368.833,233 369.5,232C 374.5,231.667 379.5,231.333 384.5,231C 386.324,230.34 387.657,229.173 388.5,227.5 Z"/></g>
<g><path style="opacity:1" fill="#c38d67" d="M 443.5,220.5 C 443.917,223.079 443.25,225.246 441.5,227C 441.833,227.333 442.167,227.667 442.5,228C 435.908,229.329 429.241,229.829 422.5,229.5C 426.982,228.674 431.649,228.174 436.5,228C 438.158,226.337 440.158,225.504 442.5,225.5C 442.216,223.585 442.549,221.919 443.5,220.5 Z"/></g>
<g><path style="opacity:1" fill="#f1f1f1" d="M 287.5,219.5 C 291.167,219.5 294.833,219.5 298.5,219.5C 297.691,226.21 297.691,232.877 298.5,239.5C 289.84,244.031 285.007,241.364 284,231.5C 283.176,228.118 283.343,224.784 284.5,221.5C 285.739,221.058 286.739,220.391 287.5,219.5 Z"/></g>
<g><path style="opacity:1" fill="#d9dada" d="M 345.5,233.5 C 334.162,234.927 322.829,236.093 311.5,237C 319.706,234.725 328.039,232.892 336.5,231.5C 341.656,231.252 346.656,230.252 351.5,228.5C 353.571,229.786 353.904,231.453 352.5,233.5C 350.028,232.234 347.694,232.234 345.5,233.5 Z"/></g>
<g><path style="opacity:1" fill="#fdfdfd" d="M 257.5,246.5 C 260.474,251.149 263.474,255.816 266.5,260.5C 260.193,264.973 254.693,270.306 250,276.5C 249.667,280.167 249.333,283.833 249,287.5C 246.389,290.72 244.889,294.387 244.5,298.5C 246.796,310.629 253.962,317.962 266,320.5C 267.058,327.898 270.891,333.398 277.5,337C 286.995,336.234 288.328,338.567 281.5,344C 284.672,345.752 287.672,347.752 290.5,350C 296.094,357.598 302.427,364.598 309.5,371C 310.5,371.667 311.5,371.667 312.5,371C 314.677,369.485 316.844,367.985 319,366.5C 320.823,367.651 322.656,368.818 324.5,370C 325.833,371.667 325.833,373.333 324.5,375C 310.29,384.877 298.456,397.043 289,411.5C 285.141,416.94 283.474,422.94 284,429.5C 286.069,430.264 288.236,430.764 290.5,431C 294.464,435.123 297.797,439.623 300.5,444.5C 301.935,445.985 301.768,447.318 300,448.5C 300.231,459.882 302.565,470.882 307,481.5C 314.191,498.406 320.191,515.739 325,533.5C 328.712,541.922 333.212,549.922 338.5,557.5C 337.91,558.799 336.91,559.632 335.5,560C 329.661,562.691 324.494,561.858 320,557.5C 314.641,547.488 306.641,544.488 296,548.5C 291.559,545.623 287.392,545.957 283.5,549.5C 230.504,511.45 201.171,459.783 195.5,394.5C 195.129,378.111 195.796,361.778 197.5,345.5C 204.853,303.625 223.187,267.458 252.5,237C 253.332,236.312 253.998,236.479 254.5,237.5C 255.705,240.45 256.705,243.45 257.5,246.5 Z"/></g>
<g><path style="opacity:1" fill="#c8e4d8" d="M 199.5,255.5 C 200.043,255.56 200.376,255.893 200.5,256.5C 187.517,257.499 174.517,257.832 161.5,257.5C 174.167,256.833 186.833,256.167 199.5,255.5 Z"/></g>
<g><path style="opacity:1" fill="#b8dccc" d="M 211.5,264.5 C 200.833,265.167 190.167,265.833 179.5,266.5C 178.957,266.44 178.624,266.107 178.5,265.5C 189.48,264.501 200.48,264.168 211.5,264.5 Z"/></g>
<g><path style="opacity:1" fill="#b79451" d="M 386.5,291.5 C 386.167,291.5 385.833,291.5 385.5,291.5C 381.022,293.741 376.355,295.408 371.5,296.5C 369.677,295.507 368.344,294.007 367.5,292C 367.833,291.5 368.167,291 368.5,290.5C 371.451,292.968 374.284,292.968 377,290.5C 377.115,288.893 376.615,287.393 375.5,286C 376.46,277.761 373.96,276.594 368,282.5C 367.709,280.217 368.209,278.05 369.5,276C 369.241,274.739 368.574,273.739 367.5,273C 364.036,274.579 360.369,274.912 356.5,274C 356.232,276.476 355.898,278.976 355.5,281.5C 351.729,278.387 349.396,279.22 348.5,284C 349.849,288.069 351.016,292.236 352,296.5C 353.049,297.517 354.216,297.684 355.5,297C 360.751,291.171 362.751,292.671 361.5,301.5C 351.896,309.613 346.562,307.279 345.5,294.5C 345.5,289.167 345.5,283.833 345.5,278.5C 345.214,273.468 346.548,268.968 349.5,265C 357.497,266.498 365.497,268.331 373.5,270.5C 376.761,276.596 381.261,281.596 387,285.5C 387.789,287.712 387.622,289.712 386.5,291.5 Z"/></g>
<g><path style="opacity:1" fill="#eaab7d" d="M 265.5,263.5 C 267.948,263.01 269.615,263.843 270.5,266C 267.577,268.045 264.743,270.212 262,272.5C 259.812,271.941 259.146,270.607 260,268.5C 261.812,266.7 263.645,265.033 265.5,263.5 Z"/></g>
<g><path style="opacity:1" fill="#b79452" d="M 423.5,302.5 C 423.967,299.703 425.633,298.369 428.5,298.5C 428.336,295.813 428.503,293.146 429,290.5C 430.588,293.309 432.755,293.975 435.5,292.5C 436.615,288.374 438.282,284.54 440.5,281C 440.355,280.228 440.022,279.561 439.5,279C 437.231,278.242 435.064,278.409 433,279.5C 433.783,277.655 434.116,275.655 434,273.5C 431.26,272.718 428.426,272.218 425.5,272C 424.944,271.617 424.611,271.117 424.5,270.5C 432.113,267.09 440.113,265.757 448.5,266.5C 447.243,278.863 444.409,290.863 440,302.5C 434.648,307.632 429.148,307.632 423.5,302.5 Z"/></g>
<g><path style="opacity:1" fill="#f8fbfa" d="M 645.5,268.5 C 647.335,269.122 648.502,270.456 649,272.5C 650.314,275.089 650.981,277.756 651,280.5C 642.123,284.355 633.289,288.355 624.5,292.5C 624.167,293 623.833,293.5 623.5,294C 625.833,299.667 628.167,305.333 630.5,311C 626.97,314.099 622.97,316.099 618.5,317C 613.585,307.022 609.419,296.856 606,286.5C 619.293,280.578 632.46,274.578 645.5,268.5 Z"/></g>
<g><path style="opacity:1" fill="#14864a" d="M 424.5,270.5 C 424.611,271.117 424.944,271.617 425.5,272C 428.426,272.218 431.26,272.718 434,273.5C 434.116,275.655 433.783,277.655 433,279.5C 435.064,278.409 437.231,278.242 439.5,279C 440.022,279.561 440.355,280.228 440.5,281C 438.282,284.54 436.615,288.374 435.5,292.5C 432.755,293.975 430.588,293.309 429,290.5C 428.503,293.146 428.336,295.813 428.5,298.5C 425.633,298.369 423.967,299.703 423.5,302.5C 421.77,301.974 420.436,300.974 419.5,299.5C 420.027,296.091 420.527,292.758 421,289.5C 420.586,289.043 420.086,288.709 419.5,288.5C 417.368,290.117 415.035,290.617 412.5,290C 411.941,289.275 411.608,288.442 411.5,287.5C 412.967,284.734 413.8,281.734 414,278.5C 416.081,277.667 418.248,277.667 420.5,278.5C 420.5,276.167 420.5,273.833 420.5,271.5C 421.708,270.766 423.041,270.433 424.5,270.5 Z"/></g>
<g><path style="opacity:1" fill="#148549" d="M 371.5,296.5 C 368.48,298.677 365.147,300.343 361.5,301.5C 362.751,292.671 360.751,291.171 355.5,297C 354.216,297.684 353.049,297.517 352,296.5C 351.016,292.236 349.849,288.069 348.5,284C 349.396,279.22 351.729,278.387 355.5,281.5C 355.898,278.976 356.232,276.476 356.5,274C 360.369,274.912 364.036,274.579 367.5,273C 368.574,273.739 369.241,274.739 369.5,276C 368.209,278.05 367.709,280.217 368,282.5C 373.96,276.594 376.46,277.761 375.5,286C 376.615,287.393 377.115,288.893 377,290.5C 374.284,292.968 371.451,292.968 368.5,290.5C 368.167,291 367.833,291.5 367.5,292C 368.344,294.007 369.677,295.507 371.5,296.5 Z"/></g>
<g><path style="opacity:1" fill="#f3b080" d="M 255.5,274.5 C 257.971,274.233 259.638,275.233 260.5,277.5C 259.565,280.471 258.732,283.471 258,286.5C 256.667,287.833 255.333,287.833 254,286.5C 251.66,282.052 252.16,278.052 255.5,274.5 Z"/></g>
<g><path style="opacity:1" fill="#b69452" d="M 420.5,271.5 C 420.5,273.833 420.5,276.167 420.5,278.5C 418.248,277.667 416.081,277.667 414,278.5C 413.8,281.734 412.967,284.734 411.5,287.5C 411.608,288.442 411.941,289.275 412.5,290C 415.035,290.617 417.368,290.117 419.5,288.5C 420.086,288.709 420.586,289.043 421,289.5C 420.527,292.758 420.027,296.091 419.5,299.5C 414.697,296.724 409.697,294.224 404.5,292C 402.771,290.211 402.104,288.044 402.5,285.5C 407.021,278.985 413.021,274.318 420.5,271.5 Z"/></g>
<g><path style="opacity:1" fill="#959595" d="M 344.5,270.5 C 343.68,276.797 343.347,283.131 343.5,289.5C 342.836,287.022 342.503,284.355 342.5,281.5C 342.294,277.531 342.961,273.865 344.5,270.5 Z"/></g>
<g><path style="opacity:1" fill="#4f3f26" d="M 345.5,278.5 C 345.5,283.833 345.5,289.167 345.5,294.5C 345.167,294.5 344.833,294.5 344.5,294.5C 343.662,294.158 343.328,293.492 343.5,292.5C 344.167,287.833 344.833,283.167 345.5,278.5 Z"/></g>
<g><path style="opacity:1" fill="#b59251" d="M 402.5,285.5 C 400.943,288.624 399.277,291.791 397.5,295C 396.5,295.667 395.5,295.667 394.5,295C 393.636,293.303 392.303,292.137 390.5,291.5C 387.768,285.159 389.768,282.493 396.5,283.5C 398.952,283.539 400.952,284.206 402.5,285.5 Z"/></g>
<g><path style="opacity:1" fill="#f9fcfb" d="M 155.5,292.5 C 178.133,290.704 188.633,301.038 187,323.5C 181.644,338.266 171.144,344.432 155.5,342C 137.854,334.069 133.021,321.236 141,303.5C 144.886,298.429 149.72,294.763 155.5,292.5 Z"/></g>
<g><path style="opacity:1" fill="#141310" d="M 385.5,291.5 C 384.375,293.129 383.041,294.629 381.5,296C 371.613,300.777 361.613,305.277 351.5,309.5C 349.617,309.124 348.117,308.124 347,306.5C 345.011,302.747 344.178,298.747 344.5,294.5C 344.833,294.5 345.167,294.5 345.5,294.5C 346.562,307.279 351.896,309.613 361.5,301.5C 365.147,300.343 368.48,298.677 371.5,296.5C 376.355,295.408 381.022,293.741 385.5,291.5 Z"/></g>
<g><path style="opacity:1" fill="#fafafa" d="M 402.5,294.5 C 408.827,297.303 414.827,300.803 420.5,305C 422.211,306.133 422.711,307.633 422,309.5C 408.675,323.324 394.842,336.657 380.5,349.5C 377.747,342.723 374.914,336.056 372,329.5C 372.134,325.203 373.467,321.203 376,317.5C 380.241,310.841 385.075,304.674 390.5,299C 393.5,298.667 396.5,298.333 399.5,298C 400.71,296.961 401.71,295.794 402.5,294.5 Z"/></g>
<g><path style="opacity:1" fill="#098349" d="M 157.5,304.5 C 170.704,303.535 176.537,309.535 175,322.5C 171.024,329.236 165.191,331.736 157.5,330C 150.547,326.158 148.047,320.325 150,312.5C 152.028,309.308 154.528,306.641 157.5,304.5 Z"/></g>
<g><path style="opacity:1" fill="#f7fbf9" d="M 656.5,316.5 C 659.833,316.5 663.167,316.5 666.5,316.5C 667.453,330.171 668.453,343.838 669.5,357.5C 665.202,358.2 660.869,358.533 656.5,358.5C 656.5,354.5 656.5,350.5 656.5,346.5C 646.773,346.988 637.106,347.988 627.5,349.5C 626.979,345.519 626.646,341.519 626.5,337.5C 635.47,336.421 644.47,335.587 653.5,335C 653.892,328.633 654.892,322.466 656.5,316.5 Z"/></g>
<g><path style="opacity:1" fill="#0e8549" d="M 415.5,322.5 C 419.97,324.477 421.47,327.81 420,332.5C 417.022,334.311 414.522,336.644 412.5,339.5C 414.757,340.564 416.757,340.064 418.5,338C 422.85,337.355 425.017,339.188 425,343.5C 422,346.167 419,348.833 416,351.5C 415.566,354.179 415.732,356.846 416.5,359.5C 415.427,365.712 411.76,367.879 405.5,366C 403.981,364.649 402.648,363.149 401.5,361.5C 400.201,362.09 399.368,363.09 399,364.5C 398.503,367.146 398.336,369.813 398.5,372.5C 395.579,372.854 393.246,371.854 391.5,369.5C 386.536,372.711 384.703,371.378 386,365.5C 388.072,362.029 389.572,358.362 390.5,354.5C 387.246,354.207 384.246,354.874 381.5,356.5C 385.902,350.591 390.902,345.091 396.5,340C 403.004,334.329 409.337,328.495 415.5,322.5 Z"/></g>
<g><path style="opacity:1" fill="#b99552" d="M 339.5,472.5 C 340.008,475.176 340.175,477.843 340,480.5C 336.965,483.87 333.632,486.87 330,489.5C 328.208,484.465 326.208,479.465 324,474.5C 318.318,467.121 313.151,459.455 308.5,451.5C 308.022,448.722 309.022,446.722 311.5,445.5C 319.056,452.981 324.389,451.647 327.5,441.5C 324.764,436.691 324.93,432.024 328,427.5C 328.667,425.167 328.667,422.833 328,420.5C 326.867,418.789 325.367,418.289 323.5,419C 319.049,421.783 314.883,424.95 311,428.5C 310.333,427.167 310.333,425.833 311,424.5C 313.49,421.535 314.824,418.202 315,414.5C 314.167,413.667 313.333,412.833 312.5,412C 307.505,412.082 302.505,412.082 297.5,412C 296.627,410.955 295.627,410.122 294.5,409.5C 299.121,401.878 305.121,395.545 312.5,390.5C 316.114,391.359 319.781,391.359 323.5,390.5C 323.334,396.842 323.5,403.175 324,409.5C 326.719,410.444 329.552,410.777 332.5,410.5C 332.096,404.71 332.596,399.044 334,393.5C 334.718,392.549 335.551,392.383 336.5,393C 338.429,399.46 342.429,401.127 348.5,398C 354.595,392.477 358.928,385.81 361.5,378C 361.22,376.605 360.553,375.438 359.5,374.5C 350.597,374.512 349.597,372.179 356.5,367.5C 357.485,365.902 357.651,364.235 357,362.5C 353.41,360.477 349.576,359.144 345.5,358.5C 353.318,349.521 360.651,340.188 367.5,330.5C 368.478,330.977 369.311,331.643 370,332.5C 373.399,339.865 375.899,347.532 377.5,355.5C 374.966,364.603 372.132,373.603 369,382.5C 360.667,398.5 352.333,414.5 344,430.5C 337.307,444.092 335.807,458.092 339.5,472.5 Z"/></g>
<g><path style="opacity:1" fill="#f7f7f7" d="M 332.5,333.5 C 340.82,334.998 349.153,336.331 357.5,337.5C 356.141,341.882 353.974,345.882 351,349.5C 344.265,356.905 336.932,363.572 329,369.5C 326.265,367.268 324.098,364.601 322.5,361.5C 327.552,352.74 330.885,343.406 332.5,333.5 Z"/></g>
<g><path style="opacity:1" fill="#fbfbfb" d="M 517.5,521.5 C 517.859,526.38 519.025,531.047 521,535.5C 526.999,536.974 527.832,539.807 523.5,544C 498.092,563.035 469.758,575.535 438.5,581.5C 442.879,565.855 447.379,550.188 452,534.5C 457.53,522.097 462.53,509.431 467,496.5C 470.791,482.672 473.625,468.672 475.5,454.5C 476.222,454.082 476.722,453.416 477,452.5C 477.667,449.833 477.667,447.167 477,444.5C 472.923,435.347 468.59,426.347 464,417.5C 462.407,411.606 461.573,405.606 461.5,399.5C 463.184,379.45 468.518,360.45 477.5,342.5C 478.086,342.709 478.586,343.043 479,343.5C 480.892,348.901 482.392,354.401 483.5,360C 481.939,367.018 479.772,373.851 477,380.5C 476.333,384.5 476.333,388.5 477,392.5C 483.652,405.135 490.318,417.802 497,430.5C 498.095,442.213 500.762,453.546 505,464.5C 507.875,467.463 511.375,469.296 515.5,470C 517.11,472.311 518.443,474.811 519.5,477.5C 517.476,479.69 515.643,482.023 514,484.5C 514.066,492.859 512.899,501.026 510.5,509C 511.801,513.787 514.134,517.954 517.5,521.5 Z"/></g>
<g><path style="opacity:1" fill="#bababa" d="M 518.5,345.5 C 518.194,349.389 518.194,353.055 518.5,356.5C 518.44,357.043 518.107,357.376 517.5,357.5C 516.536,353.319 516.869,349.319 518.5,345.5 Z"/></g>
<g><path style="opacity:1" fill="#0e8449" d="M 442.5,354.5 C 444.402,364.735 450.402,371.069 460.5,373.5C 459.189,377.389 458.522,381.389 458.5,385.5C 457.178,385.33 456.011,385.663 455,386.5C 454.665,393.095 452.498,398.929 448.5,404C 445.854,404.497 443.187,404.664 440.5,404.5C 441.185,400.274 442.185,396.107 443.5,392C 443.167,391.167 442.833,390.333 442.5,389.5C 440.42,392.642 438.086,395.642 435.5,398.5C 431.876,402.301 428.376,402.301 425,398.5C 424.501,394.848 424.335,391.182 424.5,387.5C 420.881,387.532 418.547,385.865 417.5,382.5C 417.977,375.164 421.644,372.33 428.5,374C 426.359,372.692 424.359,371.192 422.5,369.5C 420.085,364.008 421.585,360.342 427,358.5C 433.062,360.52 438.228,359.186 442.5,354.5 Z"/></g>
<g><path style="opacity:1" fill="#fbfdfc" d="M 133.5,359.5 C 136.833,359.5 140.167,359.5 143.5,359.5C 143.182,364.032 143.515,368.366 144.5,372.5C 155.167,372.5 165.833,372.5 176.5,372.5C 176.5,375.833 176.5,379.167 176.5,382.5C 165.654,382.172 154.987,382.506 144.5,383.5C 143.514,387.97 143.181,392.637 143.5,397.5C 140.5,397.5 137.5,397.5 134.5,397.5C 134.828,385.655 134.495,373.988 133.5,362.5C 133.5,361.5 133.5,360.5 133.5,359.5 Z"/></g>
<g><path style="opacity:1" fill="#8ac5aa" d="M 133.5,359.5 C 136.962,358.518 140.629,358.185 144.5,358.5C 144.5,363.167 144.5,367.833 144.5,372.5C 143.515,368.366 143.182,364.032 143.5,359.5C 140.167,359.5 136.833,359.5 133.5,359.5 Z"/></g>
<g><path style="opacity:1" fill="#0e8449" d="M 345.5,358.5 C 349.576,359.144 353.41,360.477 357,362.5C 357.651,364.235 357.485,365.902 356.5,367.5C 349.597,372.179 350.597,374.512 359.5,374.5C 360.553,375.438 361.22,376.605 361.5,378C 358.928,385.81 354.595,392.477 348.5,398C 342.429,401.127 338.429,399.46 336.5,393C 335.551,392.383 334.718,392.549 334,393.5C 332.596,399.044 332.096,404.71 332.5,410.5C 329.552,410.777 326.719,410.444 324,409.5C 323.5,403.175 323.334,396.842 323.5,390.5C 319.781,391.359 316.114,391.359 312.5,390.5C 313.203,388.284 314.536,386.451 316.5,385C 326.636,376.698 336.303,367.865 345.5,358.5 Z"/></g>
<g><path style="opacity:1" fill="#c6c6c6" d="M 197.5,345.5 C 195.796,361.778 195.129,378.111 195.5,394.5C 194.34,382.674 194.174,370.674 195,358.5C 195.614,353.985 196.448,349.652 197.5,345.5 Z"/></g>
<g><path style="opacity:1" fill="#bfbfbe" d="M 601.5,344.5 C 602.738,348.619 603.571,352.953 604,357.5C 604.827,371.006 604.66,384.34 603.5,397.5C 603.926,379.774 603.259,362.107 601.5,344.5 Z"/></g>
<g><path style="opacity:1" fill="#fdfefd" d="M 627.5,378.5 C 641.167,378.5 654.833,378.5 668.5,378.5C 668.5,382.833 668.5,387.167 668.5,391.5C 654.833,391.5 641.167,391.5 627.5,391.5C 627.5,387.167 627.5,382.833 627.5,378.5 Z"/></g>
<g><path style="opacity:1" fill="#5cad87" d="M 176.5,372.5 C 177.482,375.962 177.815,379.629 177.5,383.5C 166.5,383.5 155.5,383.5 144.5,383.5C 154.987,382.506 165.654,382.172 176.5,382.5C 176.5,379.167 176.5,375.833 176.5,372.5 Z"/></g>
<g><path style="opacity:1" fill="#b99552" d="M 442.5,354.5 C 438.228,359.186 433.062,360.52 427,358.5C 421.585,360.342 420.085,364.008 422.5,369.5C 424.359,371.192 426.359,372.692 428.5,374C 421.644,372.33 417.977,375.164 417.5,382.5C 418.547,385.865 420.881,387.532 424.5,387.5C 424.335,391.182 424.501,394.848 425,398.5C 428.376,402.301 431.876,402.301 435.5,398.5C 438.086,395.642 440.42,392.642 442.5,389.5C 442.833,390.333 443.167,391.167 443.5,392C 442.185,396.107 441.185,400.274 440.5,404.5C 443.187,404.664 445.854,404.497 448.5,404C 452.498,398.929 454.665,393.095 455,386.5C 456.011,385.663 457.178,385.33 458.5,385.5C 457.1,395.848 457.267,406.181 459,416.5C 463.476,426.12 468.476,435.453 474,444.5C 474.497,447.146 474.664,449.813 474.5,452.5C 463.407,452.873 452.407,454.206 441.5,456.5C 441.761,452.658 441.094,448.991 439.5,445.5C 440,445.167 440.5,444.833 441,444.5C 444.7,447.433 448.866,449.433 453.5,450.5C 457.811,450.356 460.478,448.189 461.5,444C 460.026,440.886 458.693,437.719 457.5,434.5C 459.922,430.107 459.922,425.774 457.5,421.5C 455.926,420.369 454.259,420.202 452.5,421C 450.38,423.409 448.38,425.909 446.5,428.5C 445.5,429.833 444.5,429.833 443.5,428.5C 445.808,425.025 448.308,421.692 451,418.5C 451.913,415.648 451.08,413.481 448.5,412C 443.025,410.598 438.358,411.931 434.5,416C 430.484,416.186 426.484,416.186 422.5,416C 419.303,417.711 417.303,420.378 416.5,424C 419.964,426.922 423.297,430.089 426.5,433.5C 424.926,434.631 423.259,434.798 421.5,434C 417.703,428.897 413.536,428.397 409,432.5C 407.718,436.584 408.718,439.918 412,442.5C 410.38,447.735 411.546,452.235 415.5,456C 417.5,456.667 419.5,456.667 421.5,456C 424.938,452.975 428.271,449.808 431.5,446.5C 431.936,450.756 431.936,455.089 431.5,459.5C 406.766,467.616 383.933,479.283 363,494.5C 357.846,490.062 353.012,485.229 348.5,480C 346.324,479.837 344.491,479.004 343,477.5C 342.16,474.798 341.327,472.132 340.5,469.5C 339.483,457.806 340.983,446.473 345,435.5C 352.318,421.531 359.652,407.531 367,393.5C 371.686,381.067 376.52,368.734 381.5,356.5C 384.246,354.874 387.246,354.207 390.5,354.5C 389.572,358.362 388.072,362.029 386,365.5C 384.703,371.378 386.536,372.711 391.5,369.5C 393.246,371.854 395.579,372.854 398.5,372.5C 398.336,369.813 398.503,367.146 399,364.5C 399.368,363.09 400.201,362.09 401.5,361.5C 402.648,363.149 403.981,364.649 405.5,366C 411.76,367.879 415.427,365.712 416.5,359.5C 415.732,356.846 415.566,354.179 416,351.5C 419,348.833 422,346.167 425,343.5C 425.017,339.188 422.85,337.355 418.5,338C 416.757,340.064 414.757,340.564 412.5,339.5C 414.522,336.644 417.022,334.311 420,332.5C 421.47,327.81 419.97,324.477 415.5,322.5C 419.711,318.454 423.378,313.954 426.5,309C 430.35,310.164 434.35,310.498 438.5,310C 440,308.5 441.5,307 443,305.5C 447.005,293.473 450.505,281.306 453.5,269C 452.596,265.262 450.263,263.095 446.5,262.5C 446.351,261.448 446.517,260.448 447,259.5C 448.976,257.123 451.143,255.123 453.5,253.5C 459.386,255.11 464.719,257.776 469.5,261.5C 459.477,277.214 451.31,293.881 445,311.5C 440.251,325.65 439.418,339.984 442.5,354.5 Z"/></g>
<g><path style="opacity:1" fill="#128348" d="M 397.5,377.5 C 405.036,376.92 407.536,380.253 405,387.5C 403.5,389.833 402,392.167 400.5,394.5C 400.833,394.833 401.167,395.167 401.5,395.5C 403.803,391.73 406.469,388.23 409.5,385C 415.191,385.024 417.691,387.857 417,393.5C 415.743,395.513 414.909,397.679 414.5,400C 415.793,403.25 416.793,406.584 417.5,410C 417.833,412.667 416.833,414.667 414.5,416C 409.909,417.053 405.242,417.886 400.5,418.5C 398.38,424.435 395.047,429.435 390.5,433.5C 387.796,433.33 386.129,431.997 385.5,429.5C 387.495,426.656 389.328,423.656 391,420.5C 391.667,418.833 391.667,417.167 391,415.5C 389.951,414.483 388.784,414.316 387.5,415C 385.218,419.616 381.884,423.283 377.5,426C 367.872,426.029 365.205,421.696 369.5,413C 368.905,409.659 367.905,406.493 366.5,403.5C 367.155,400.003 369.155,397.503 372.5,396C 376.186,395.544 379.52,396.211 382.5,398C 379.333,396.167 376.833,393.667 375,390.5C 374.059,380.796 378.059,378.129 387,382.5C 391.085,381.881 394.585,380.214 397.5,377.5 Z"/></g>
<g><path style="opacity:1" fill="#8cc6ac" d="M 627.5,378.5 C 641.323,377.504 655.323,377.171 669.5,377.5C 669.5,382.5 669.5,387.5 669.5,392.5C 655.323,392.829 641.323,392.496 627.5,391.5C 641.167,391.5 654.833,391.5 668.5,391.5C 668.5,387.167 668.5,382.833 668.5,378.5C 654.833,378.5 641.167,378.5 627.5,378.5 Z"/></g>
<g><path style="opacity:1" fill="#a5d3be" d="M 133.5,362.5 C 134.495,373.988 134.828,385.655 134.5,397.5C 137.5,397.5 140.5,397.5 143.5,397.5C 143.181,392.637 143.514,387.97 144.5,383.5C 144.5,388.5 144.5,393.5 144.5,398.5C 140.833,398.5 137.167,398.5 133.5,398.5C 133.5,386.5 133.5,374.5 133.5,362.5 Z"/></g>
<g><path style="opacity:1" fill="#f6faf8" d="M 162.5,410.5 C 171.652,410.499 177.819,414.833 181,423.5C 182.384,429.109 182.717,434.775 182,440.5C 179.281,441.444 176.448,441.777 173.5,441.5C 173.622,436.768 173.122,432.102 172,427.5C 170.611,425.773 168.944,424.439 167,423.5C 165.739,423.759 164.739,424.426 164,425.5C 163.199,432.71 161.533,439.71 159,446.5C 149.528,453.332 142.528,451.332 138,440.5C 135.024,432.997 134.857,425.497 137.5,418C 140.146,417.503 142.813,417.336 145.5,417.5C 144.504,422.463 144.337,427.463 145,432.5C 145.973,434.64 147.473,436.307 149.5,437.5C 150.799,436.91 151.632,435.91 152,434.5C 151.012,424.354 154.512,416.354 162.5,410.5 Z"/></g>
<g><path style="opacity:1" fill="#0c8449" d="M 294.5,409.5 C 295.627,410.122 296.627,410.955 297.5,412C 302.505,412.082 307.505,412.082 312.5,412C 313.333,412.833 314.167,413.667 315,414.5C 314.824,418.202 313.49,421.535 311,424.5C 310.333,425.833 310.333,427.167 311,428.5C 314.883,424.95 319.049,421.783 323.5,419C 325.367,418.289 326.867,418.789 328,420.5C 328.667,422.833 328.667,425.167 328,427.5C 324.93,432.024 324.764,436.691 327.5,441.5C 324.389,451.647 319.056,452.981 311.5,445.5C 309.022,446.722 308.022,448.722 308.5,451.5C 306.147,449.14 304.147,446.473 302.5,443.5C 300.517,438.867 298.017,434.534 295,430.5C 293.164,428.292 290.831,426.958 288,426.5C 288.472,420.216 290.639,414.55 294.5,409.5 Z"/></g>
<g><path style="opacity:1" fill="#108449" d="M 441.5,456.5 C 438.059,457.193 434.725,458.193 431.5,459.5C 431.936,455.089 431.936,450.756 431.5,446.5C 428.271,449.808 424.938,452.975 421.5,456C 419.5,456.667 417.5,456.667 415.5,456C 411.546,452.235 410.38,447.735 412,442.5C 408.718,439.918 407.718,436.584 409,432.5C 413.536,428.397 417.703,428.897 421.5,434C 423.259,434.798 424.926,434.631 426.5,433.5C 423.297,430.089 419.964,426.922 416.5,424C 417.303,420.378 419.303,417.711 422.5,416C 426.484,416.186 430.484,416.186 434.5,416C 438.358,411.931 443.025,410.598 448.5,412C 451.08,413.481 451.913,415.648 451,418.5C 448.308,421.692 445.808,425.025 443.5,428.5C 444.5,429.833 445.5,429.833 446.5,428.5C 448.38,425.909 450.38,423.409 452.5,421C 454.259,420.202 455.926,420.369 457.5,421.5C 459.922,425.774 459.922,430.107 457.5,434.5C 458.693,437.719 460.026,440.886 461.5,444C 460.478,448.189 457.811,450.356 453.5,450.5C 448.866,449.433 444.7,447.433 441,444.5C 440.5,444.833 440,445.167 439.5,445.5C 441.094,448.991 441.761,452.658 441.5,456.5 Z"/></g>
<g><path style="opacity:1" fill="#f7fbf9" d="M 635.5,411.5 C 657.46,410.294 667.96,420.627 667,442.5C 665.645,447.38 663.145,451.547 659.5,455C 658.241,455.982 656.908,456.315 655.5,456C 653.954,453.743 652.288,451.576 650.5,449.5C 655.218,444.018 656.718,437.685 655,430.5C 649.729,422.605 642.896,420.771 634.5,425C 628.777,429.669 627.11,435.502 629.5,442.5C 626.259,443.956 622.926,445.289 619.5,446.5C 613.205,429.427 618.539,417.76 635.5,411.5 Z"/></g>
<g><path style="opacity:1" fill="#f9f9f9" d="M 529.5,420.5 C 531.39,420.297 532.89,420.963 534,422.5C 535.871,433.074 539.038,443.241 543.5,453C 534.109,461.531 523.109,465.197 510.5,464C 508.263,461.97 506.763,459.47 506,456.5C 504.8,450.031 503.133,443.697 501,437.5C 500.333,435.833 500.333,434.167 501,432.5C 511.02,429.554 520.52,425.554 529.5,420.5 Z"/></g>
<g><path style="opacity:1" fill="#0f8248" d="M 373.5,431.5 C 376.93,431.107 380.096,431.773 383,433.5C 382.715,437.647 382.049,441.647 381,445.5C 384.136,441.017 388.303,438.85 393.5,439C 394.574,439.739 395.241,440.739 395.5,442C 393.696,445.109 392.029,448.275 390.5,451.5C 391.389,453.898 392.889,455.898 395,457.5C 396.71,463.469 394.543,467.303 388.5,469C 383.688,469.648 379.022,469.148 374.5,467.5C 376.633,471.64 378.3,475.974 379.5,480.5C 376.254,480.135 373.588,481.135 371.5,483.5C 369.528,482.695 368.028,481.361 367,479.5C 366.244,475.312 365.078,471.312 363.5,467.5C 361.301,470.718 358.967,473.884 356.5,477C 349.508,477.927 346.342,474.76 347,467.5C 340.561,462.366 340.061,456.866 345.5,451C 347.677,450.655 349.677,451.155 351.5,452.5C 352.442,452.392 353.275,452.059 354,451.5C 352.372,448.874 351.205,445.874 350.5,442.5C 350.39,440.626 351.056,439.126 352.5,438C 357.78,436.87 363.113,435.87 368.5,435C 370.584,434.303 372.251,433.136 373.5,431.5 Z"/></g>
<g><path style="opacity:1" fill="#f9fcfa" d="M 171.5,459.5 C 193.52,457.694 204.353,467.694 204,489.5C 198.532,504.821 187.699,511.321 171.5,509C 156.244,502.257 150.744,490.757 155,474.5C 158.822,467.504 164.322,462.504 171.5,459.5 Z"/></g>
<g><path style="opacity:1" fill="#f4b080" d="M 544.5,457.5 C 545.906,457.973 546.573,458.973 546.5,460.5C 544.275,464.235 541.442,467.568 538,470.5C 537.409,471.483 537.743,472.15 539,472.5C 542.787,469.716 546.287,466.549 549.5,463C 555.601,462.256 560.768,464.089 565,468.5C 568.273,485.285 566.94,501.618 561,517.5C 558.159,519.504 554.993,520.004 551.5,519C 550.874,518.25 550.374,517.416 550,516.5C 549.231,510.06 549.731,503.727 551.5,497.5C 550.824,492.98 549.657,488.647 548,484.5C 539.535,489.305 533.535,496.305 530,505.5C 530.549,509.842 531.549,514.176 533,518.5C 533.667,522.167 533.667,525.833 533,529.5C 530.749,533.126 527.582,534.293 523.5,533C 522.2,528.366 520.533,523.866 518.5,519.5C 515.922,516.505 514.589,513.005 514.5,509C 515.892,501.908 516.725,494.741 517,487.5C 521.179,484.743 525.179,481.743 529,478.5C 530.128,476.655 530.628,474.655 530.5,472.5C 529.448,472.351 528.448,472.517 527.5,473C 522.631,477.844 520.465,476.677 521,469.5C 529.897,467.469 537.73,463.469 544.5,457.5 Z"/></g>
<g><path style="opacity:1" fill="#f7fbf9" d="M 607.5,464.5 C 610.016,464.755 612.35,465.589 614.5,467C 608.716,472.206 606.382,478.539 607.5,486C 609.971,486.706 612.305,486.373 614.5,485C 618.466,482.036 622.133,478.703 625.5,475C 639.077,465.873 646.744,469.54 648.5,486C 648.154,493.397 645.82,500.064 641.5,506C 640.092,506.315 638.759,505.982 637.5,505C 635.415,503.959 633.748,502.459 632.5,500.5C 635.503,495.521 637.003,490.187 637,484.5C 636.196,483.196 635.029,482.529 633.5,482.5C 626.326,487.494 618.993,492.328 611.5,497C 605.199,500.221 600.699,498.721 598,492.5C 596.346,481.487 599.512,472.153 607.5,464.5 Z"/></g>
<g><path style="opacity:1" fill="#f2ae7f" d="M 568.5,514.5 C 566.744,513.448 566.077,511.781 566.5,509.5C 568.412,494.866 569.245,480.199 569,465.5C 574.391,464.688 578.724,466.688 582,471.5C 582.667,474.833 582.667,478.167 582,481.5C 578.596,490.379 575.596,499.379 573,508.5C 571.723,510.747 570.223,512.747 568.5,514.5 Z"/></g>
<g><path style="opacity:1" fill="#0f844b" d="M 173.5,471.5 C 185.625,469.603 191.792,474.603 192,486.5C 189.207,494.982 183.374,498.482 174.5,497C 162.922,488.829 162.588,480.329 173.5,471.5 Z"/></g>
<g><path style="opacity:1" fill="#f0ad7e" d="M 591.5,488.5 C 591.867,492.967 591.367,497.3 590,501.5C 585.552,508.282 580.719,514.782 575.5,521C 574.552,521.483 573.552,521.649 572.5,521.5C 571.903,521.265 571.57,520.765 571.5,520C 577.906,505.954 583.239,491.454 587.5,476.5C 590.355,479.891 591.688,483.891 591.5,488.5 Z"/></g>
<g><path style="opacity:1" fill="#a33631" d="M 540.5,497.5 C 543.365,497.055 545.865,497.722 548,499.5C 547.802,505.155 547.802,510.821 548,516.5C 548.471,518.246 549.138,519.913 550,521.5C 552.178,522.647 553.678,524.313 554.5,526.5C 553.242,529.6 551.742,532.6 550,535.5C 549.333,540.167 549.333,544.833 550,549.5C 550.748,551.332 551.748,552.999 553,554.5C 551.471,564.055 554.137,572.055 561,578.5C 562.112,580.39 562.946,582.39 563.5,584.5C 560.505,589.011 557.672,593.678 555,598.5C 551.812,608.457 553.479,617.457 560,625.5C 562,629.5 562,633.5 560,637.5C 559.667,654.167 559.333,670.833 559,687.5C 558.692,688.308 558.192,688.975 557.5,689.5C 553.903,672.537 550.403,655.537 547,638.5C 545.333,631.845 541.666,626.511 536,622.5C 536.676,614.446 538.009,606.446 540,598.5C 542.236,585.402 540.236,573.069 534,561.5C 530.654,558.167 528.154,554.333 526.5,550C 528.497,545.375 529.997,540.542 531,535.5C 532,533.833 533,532.167 534,530.5C 535.374,523.496 535.707,516.496 535,509.5C 537.121,505.593 538.955,501.593 540.5,497.5 Z"/></g>
<g><path style="opacity:1" fill="#dcdcdc" d="M 370.5,518.5 C 370.167,519.167 369.833,519.833 369.5,520.5C 355.651,518.077 343.985,511.744 334.5,501.5C 335.723,500.386 337.056,500.219 338.5,501C 347.623,509.616 358.29,515.449 370.5,518.5 Z"/></g>
<g><path style="opacity:1" fill="#232619" d="M 592.5,483.5 C 593.65,488.316 593.816,493.316 593,498.5C 588.127,507.861 581.96,516.195 574.5,523.5C 573.833,522.833 573.167,522.167 572.5,521.5C 573.552,521.649 574.552,521.483 575.5,521C 580.719,514.782 585.552,508.282 590,501.5C 591.367,497.3 591.867,492.967 591.5,488.5C 592.451,487.081 592.784,485.415 592.5,483.5 Z"/></g>
<g><path style="opacity:1" fill="#f9fcfa" d="M 211.5,511.5 C 215.985,511.717 219.985,513.217 223.5,516C 232.018,525.017 240.351,534.184 248.5,543.5C 238.112,553.554 227.112,562.888 215.5,571.5C 205.404,562.908 196.571,553.241 189,542.5C 187.63,531.575 192.463,527.075 203.5,529C 204.416,529.374 205.25,529.874 206,530.5C 205.566,526.548 205.566,522.548 206,518.5C 206.967,515.379 208.8,513.046 211.5,511.5 Z"/></g>
<g><path style="opacity:1" fill="#77573e" d="M 566.5,509.5 C 566.077,511.781 566.744,513.448 568.5,514.5C 567.791,515.404 566.791,515.737 565.5,515.5C 565.205,513.265 565.539,511.265 566.5,509.5 Z"/></g>
<g><path style="opacity:1" fill="#eaeaea" d="M 370.5,518.5 C 376.1,519.686 381.767,520.353 387.5,520.5C 394.5,521.167 401.5,521.833 408.5,522.5C 400.259,523.954 391.926,524.954 383.5,525.5C 386.524,539.644 385.857,553.644 381.5,567.5C 382.091,569.266 382.924,570.933 384,572.5C 384.798,574.259 384.631,575.926 383.5,577.5C 378.389,570.123 373.389,562.623 368.5,555C 367.5,554.333 366.5,554.333 365.5,555C 364.283,556.648 363.45,558.481 363,560.5C 361.926,559.382 360.76,558.382 359.5,557.5C 361.616,553.174 364.95,551.341 369.5,552C 372.35,554.682 375.016,557.516 377.5,560.5C 378.666,550.183 378.832,539.849 378,529.5C 376.951,524.682 374.118,521.682 369.5,520.5C 369.833,519.833 370.167,519.167 370.5,518.5 Z"/></g>
<g><path style="opacity:1" fill="#808080" d="M 387.5,520.5 C 394.863,520.169 402.197,520.503 409.5,521.5C 409.376,522.107 409.043,522.44 408.5,522.5C 401.5,521.833 394.5,521.167 387.5,520.5 Z"/></g>
<g><path style="opacity:1" fill="#14854c" d="M 217.5,524.5 C 219.783,524.608 221.783,525.441 223.5,527C 227.203,530.367 230.536,534.034 233.5,538C 231.023,539.643 228.69,541.476 226.5,543.5C 222.123,538.966 218.789,533.799 216.5,528C 216.648,526.744 216.982,525.577 217.5,524.5 Z"/></g>
<g><path style="opacity:1" fill="#0d8349" d="M 201.5,541.5 C 203.989,541.298 206.323,541.798 208.5,543C 211.922,545.719 214.422,548.886 216,552.5C 214.316,554.351 212.483,556.018 210.5,557.5C 207.146,553.981 203.98,550.314 201,546.5C 200.36,544.735 200.527,543.068 201.5,541.5 Z"/></g>
<g><path style="opacity:1" fill="#efefef" d="M 285.5,551.5 C 289.733,550.742 292.399,552.409 293.5,556.5C 288.689,564.403 286.356,573.069 286.5,582.5C 284.591,581.652 282.591,581.318 280.5,581.5C 280.334,575.491 280.501,569.491 281,563.5C 281.43,559.038 282.93,555.038 285.5,551.5 Z"/></g>
<g><path style="opacity:1" fill="#008147" d="M 521.5,550.5 C 522.496,550.414 523.329,550.748 524,551.5C 525.882,556.044 528.549,560.044 532,563.5C 537.543,576.376 538.876,589.709 536,603.5C 534.396,611.16 531.896,618.326 528.5,625C 490.551,644.571 450.217,654.904 407.5,656C 403.701,651.199 399.534,646.699 395,642.5C 394.182,632.922 394.349,623.422 395.5,614C 412.148,609.52 425.482,600.354 435.5,586.5C 467.007,580.898 495.674,568.898 521.5,550.5 Z"/></g>
<g><path style="opacity:1" fill="#f9f9f9" d="M 343.5,561.5 C 350.877,560.689 357.877,561.856 364.5,565C 365.211,566.255 366.044,567.421 367,568.5C 369.593,577.719 368.76,586.553 364.5,595C 361.298,596.483 357.964,596.817 354.5,596C 341.702,589.434 328.369,584.267 314.5,580.5C 313.39,575.889 313.223,571.222 314,566.5C 314.583,564.998 315.416,563.665 316.5,562.5C 319.155,565.493 322.488,566.826 326.5,566.5C 332.551,565.813 338.218,564.146 343.5,561.5 Z"/></g>
<g><path style="opacity:1" fill="#008046" d="M 334.5,645.5 C 332.846,637.719 331.846,629.719 331.5,621.5C 331.5,619.5 331.5,617.5 331.5,615.5C 334.167,615.5 336.833,615.5 339.5,615.5C 339.001,608.51 338.668,601.51 338.5,594.5C 344.972,596.602 351.472,598.602 358,600.5C 364.82,613.447 368.32,627.114 368.5,641.5C 366.941,640.553 365.274,639.887 363.5,639.5C 354.141,642.88 344.475,644.88 334.5,645.5 Z"/></g>
<g><path style="opacity:1" fill="#f6f5f4" d="M 331.5,600.5 C 331.5,601.5 331.5,602.5 331.5,603.5C 325.833,603.5 320.167,603.5 314.5,603.5C 311.747,601.581 311.914,599.915 315,598.5C 320.645,599.102 326.145,599.769 331.5,600.5 Z"/></g>
<g><path style="opacity:1" fill="#fafafa" d="M 363.5,603.5 C 369.858,602.782 374.024,605.449 376,611.5C 380.773,614.198 385.939,615.198 391.5,614.5C 390.335,624.837 390.168,635.17 391,645.5C 386.559,648.331 381.726,649.164 376.5,648C 371.257,646.038 370.257,642.872 373.5,638.5C 371.558,626.392 368.224,614.725 363.5,603.5 Z"/></g>
<g><path style="opacity:1" fill="#af8e4f" d="M 314.5,603.5 C 320.167,603.5 325.833,603.5 331.5,603.5C 331.5,602.5 331.5,601.5 331.5,600.5C 332.434,601.568 332.768,602.901 332.5,604.5C 333.822,604.33 334.989,604.663 336,605.5C 336.758,607.769 336.591,609.936 335.5,612C 326.167,612.667 316.833,612.667 307.5,612C 306.52,604.921 306.187,597.755 306.5,590.5C 316.169,591.891 325.836,592.224 335.5,591.5C 335.5,592.833 335.5,594.167 335.5,595.5C 327.441,595.29 319.441,594.624 311.5,593.5C 308.153,605.987 312.819,610.82 325.5,608C 327.421,607.64 329.088,606.806 330.5,605.5C 325.015,604.833 319.681,604.167 314.5,603.5 Z"/></g>
<g><path style="opacity:1" fill="#d8d8d8" d="M 300.5,615.5 C 301.497,615.47 302.164,615.97 302.5,617C 298.138,628.852 297.305,641.019 300,653.5C 300.829,657.161 302.329,660.495 304.5,663.5C 302.735,665.053 300.902,665.386 299,664.5C 293.923,647.911 294.423,631.578 300.5,615.5 Z"/></g>
<g><path style="opacity:1" fill="#004626" d="M 331.5,621.5 C 331.846,629.719 332.846,637.719 334.5,645.5C 333.791,646.404 332.791,646.737 331.5,646.5C 331.5,638.167 331.5,629.833 331.5,621.5 Z"/></g>
<g><path style="opacity:1" fill="#b18f4f" d="M 338.5,647.5 C 341.518,647.335 344.518,647.502 347.5,648C 346.483,649.049 346.316,650.216 347,651.5C 351.522,656.207 356.689,659.874 362.5,662.5C 359.961,665.04 356.961,665.874 353.5,665C 348.032,660.533 342.865,655.7 338,650.5C 337.53,649.423 337.697,648.423 338.5,647.5 Z"/></g>
<g><path style="opacity:1" fill="#ebebeb" d="M 355.5,649.5 C 359.67,648.993 362.67,650.659 364.5,654.5C 359.673,657.701 355.673,656.868 352.5,652C 353.571,651.148 354.571,650.315 355.5,649.5 Z"/></g>
<g><path style="opacity:1" fill="#b89452" d="M 359.5,643.5 C 366.055,644.848 371.555,648.181 376,653.5C 375.873,656.141 374.373,657.808 371.5,658.5C 368.941,653.104 365.108,648.77 360,645.5C 359.536,644.906 359.369,644.239 359.5,643.5 Z"/></g>
<g><path style="opacity:1" fill="#eeeeee" d="M 404.5,669.5 C 408.829,670.982 409.496,673.482 406.5,677C 399.81,681.518 392.477,684.018 384.5,684.5C 384.192,682.076 384.526,679.743 385.5,677.5C 392.26,675.588 398.593,672.921 404.5,669.5 Z"/></g>
<g><path style="opacity:1" fill="#e4e5e5" d="M 288.5,684.5 C 295.247,691.372 302.58,697.539 310.5,703C 318.606,707.384 327.273,709.384 336.5,709C 326.824,711.682 317.49,710.682 308.5,706C 300.068,701.069 293.068,694.569 287.5,686.5C 287.863,685.817 288.196,685.15 288.5,684.5 Z"/></g>
<g><path style="opacity:1" fill="#747474" d="M 313.5,713.5 C 320.465,714.341 327.465,714.674 334.5,714.5C 331.686,715.165 328.686,715.498 325.5,715.5C 321.203,715.722 317.203,715.055 313.5,713.5 Z"/></g>
</svg>
