<?xml version="1.0" encoding="UTF-8"?>
<!DOCTYPE svg PUBLIC "-//W3C//DTD SVG 1.1//EN" "http://www.w3.org/Graphics/SVG/1.1/DTD/svg11.dtd">
<svg xmlns="http://www.w3.org/2000/svg" version="1.1" width="800px" height="800px" style="shape-rendering:geometricPrecision; text-rendering:geometricPrecision; image-rendering:optimizeQuality; fill-rule:evenodd; clip-rule:evenodd" xmlns:xlink="http://www.w3.org/1999/xlink">
<g><path style="opacity:0.945" fill="#000000" d="M 115.5,81.5 C 124.628,80.7285 132.628,83.3951 139.5,89.5C 141.64,88.5267 143.307,87.0267 144.5,85C 148.755,84.2039 152.921,84.3705 157,85.5C 157.822,98.742 157.655,111.909 156.5,125C 152.442,125.767 148.442,125.6 144.5,124.5C 143.072,118.372 140.405,112.872 136.5,108C 125.797,102.936 118.964,106.102 116,117.5C 113.524,130.356 114.19,143.022 118,155.5C 124.87,164.767 131.87,164.767 139,155.5C 140.504,152.316 142.004,149.149 143.5,146C 147.045,145.429 150.378,146.096 153.5,148C 156.076,148.782 158.076,150.282 159.5,152.5C 155.851,169.312 145.851,180.145 129.5,185C 108.546,185.403 94.7124,175.569 88,155.5C 83.0635,139.046 83.3968,122.713 89,106.5C 94.5677,94.6451 103.401,86.3118 115.5,81.5 Z"/></g>
<g><path style="opacity:0.94" fill="#000000" d="M 372.5,81.5 C 381.857,80.9523 390.19,83.619 397.5,89.5C 399.361,88.4717 400.695,86.9717 401.5,85C 405.89,84.2278 410.223,84.3945 414.5,85.5C 415.822,98.7294 415.822,111.896 414.5,125C 410.5,125.667 406.5,125.667 402.5,125C 400.883,120.498 399.049,115.998 397,111.5C 392.339,105.593 386.505,104.093 379.5,107C 376.769,109.626 374.936,112.793 374,116.5C 371.747,128.922 372.081,141.255 375,153.5C 380.496,164.313 387.496,165.313 396,156.5C 397.774,153.285 399.274,149.952 400.5,146.5C 406.063,145.846 411.229,147.18 416,150.5C 414.624,168.556 405.124,180.056 387.5,185C 368.914,186.29 355.747,178.457 348,161.5C 341.518,144.069 340.851,126.402 346,108.5C 351.045,95.6227 359.879,86.6227 372.5,81.5 Z"/></g>
<g><path style="opacity:0.942" fill="#000000" d="M 567.5,81.5 C 576.8,80.9324 585.133,83.599 592.5,89.5C 594.361,88.4717 595.695,86.9717 596.5,85C 600.89,84.2278 605.223,84.3945 609.5,85.5C 610.499,96.8138 610.832,108.147 610.5,119.5C 605.786,119.827 601.12,119.493 596.5,118.5C 593.787,108.811 587.454,104.645 577.5,106C 571.739,108.996 568.572,113.829 568,120.5C 567.333,128.833 567.333,137.167 568,145.5C 568.608,152.218 571.442,157.718 576.5,162C 587.085,164.23 593.085,160.063 594.5,149.5C 590.233,149.797 586.066,149.464 582,148.5C 581.196,143.249 581.363,138.082 582.5,133C 593.5,132.333 604.5,132.333 615.5,133C 618.064,149.975 613.397,164.641 601.5,177C 576.733,191.767 557.233,186.6 543,161.5C 536.967,145.143 535.967,128.477 540,111.5C 544.557,97.1163 553.723,87.1163 567.5,81.5 Z"/></g>
<g><path style="opacity:0.932" fill="#000000" d="M 178.5,84.5 C 191.55,84.1855 204.55,84.5189 217.5,85.5C 218.663,90.8023 218.829,96.1357 218,101.5C 215.72,102.086 213.553,102.92 211.5,104C 212.48,111.079 212.813,118.245 212.5,125.5C 220.196,125.831 227.862,125.497 235.5,124.5C 236.63,117.55 236.797,110.55 236,103.5C 233.959,102.577 231.792,102.244 229.5,102.5C 228.908,96.3691 229.575,90.5358 231.5,85C 244.167,84.3333 256.833,84.3333 269.5,85C 270.776,87.724 271.442,90.724 271.5,94C 273.612,101.558 270.946,104.724 263.5,103.5C 263.5,123.833 263.5,144.167 263.5,164.5C 266.119,164.232 268.619,164.565 271,165.5C 271.667,171.167 271.667,176.833 271,182.5C 264.077,183.158 257.077,183.491 250,183.5C 242.923,183.491 235.923,183.158 229,182.5C 228.17,176.804 228.337,171.137 229.5,165.5C 231.409,164.652 233.409,164.318 235.5,164.5C 235.5,156.833 235.5,149.167 235.5,141.5C 227.833,141.5 220.167,141.5 212.5,141.5C 212.5,149.167 212.5,156.833 212.5,164.5C 214.591,164.318 216.591,164.652 218.5,165.5C 219.663,171.137 219.83,176.804 219,182.5C 212.077,183.158 205.077,183.491 198,183.5C 190.923,183.491 183.923,183.158 177,182.5C 176.333,176.833 176.333,171.167 177,165.5C 179.381,164.565 181.881,164.232 184.5,164.5C 184.5,144.167 184.5,123.833 184.5,103.5C 177.054,104.724 174.388,101.558 176.5,94C 176.597,90.5666 177.263,87.4 178.5,84.5 Z"/></g>
<g><path style="opacity:0.933" fill="#000000" d="M 289.5,84.5 C 302.55,84.1855 315.55,84.5189 328.5,85.5C 329.663,91.1375 329.83,96.8041 329,102.5C 326.959,103.423 324.792,103.756 322.5,103.5C 322.5,123.833 322.5,144.167 322.5,164.5C 324.792,164.244 326.959,164.577 329,165.5C 329.499,171.491 329.666,177.491 329.5,183.5C 315.829,183.667 302.163,183.5 288.5,183C 287.359,177.25 287.193,171.416 288,165.5C 290.381,164.565 292.881,164.232 295.5,164.5C 295.5,144.167 295.5,123.833 295.5,103.5C 288.054,104.724 285.388,101.558 287.5,94C 287.597,90.5666 288.263,87.4 289.5,84.5 Z"/></g>
<g><path style="opacity:0.934" fill="#000000" d="M 452.5,84.5 C 470.17,84.3334 487.836,84.5001 505.5,85C 506,85.5 506.5,86 507,86.5C 507.667,91.8333 507.667,97.1667 507,102.5C 504.2,103.125 501.366,103.792 498.5,104.5C 504.967,123.736 511.134,143.069 517,162.5C 519.155,164.167 521.655,165.167 524.5,165.5C 525.663,171.137 525.83,176.804 525,182.5C 510.912,183.49 496.745,183.824 482.5,183.5C 482.334,177.491 482.501,171.491 483,165.5C 485.405,164.726 487.905,164.226 490.5,164C 489.367,160.268 488.034,156.601 486.5,153C 477.833,152.333 469.167,152.333 460.5,153C 459.073,156.444 457.74,159.944 456.5,163.5C 459.257,164.029 461.757,165.029 464,166.5C 464.806,172.084 464.639,177.584 463.5,183C 453.256,183.819 443.09,183.652 433,182.5C 432.333,177.167 432.333,171.833 433,166.5C 435.738,165.271 438.405,163.938 441,162.5C 447.168,143.161 453.334,123.828 459.5,104.5C 456.634,103.792 453.8,103.125 451,102.5C 450.333,97.1667 450.333,91.8333 451,86.5C 451.717,85.9558 452.217,85.2891 452.5,84.5 Z M 472.5,112.5 C 476.659,120.638 479.659,129.304 481.5,138.5C 476.167,138.5 470.833,138.5 465.5,138.5C 467.831,129.839 470.164,121.173 472.5,112.5 Z"/></g>
<g><path style="opacity:0.947" fill="#000000" d="M 663.5,84.5 C 682.692,82.6789 697.192,90.0122 707,106.5C 720.461,133.477 716.294,157.31 694.5,178C 668.896,191.64 648.396,186.14 633,161.5C 622.963,139.098 625.296,118.098 640,98.5C 646.601,91.622 654.434,86.9554 663.5,84.5 Z M 667.5,103.5 C 672.347,102.84 676.181,104.507 679,108.5C 682.127,113.419 684.127,118.752 685,124.5C 686.889,137.05 685.222,149.05 680,160.5C 673.746,168.423 667.413,168.423 661,160.5C 653.143,144.288 652.809,127.955 660,111.5C 662.028,108.308 664.528,105.641 667.5,103.5 Z"/></g>
<g><path style="opacity:0.941" fill="#000000" d="M 560.5,205.5 C 570.084,204.086 578.584,206.42 586,212.5C 588.428,211.74 590.261,210.24 591.5,208C 594.817,207.502 598.15,207.335 601.5,207.5C 601.821,219.081 601.488,230.581 600.5,242C 597.5,242.667 594.5,242.667 591.5,242C 588.41,234.576 583.077,229.576 575.5,227C 567.323,225.507 564.49,228.674 567,236.5C 574.39,243.115 582.556,248.615 591.5,253C 604.939,264.525 607.772,278.358 600,294.5C 587.348,310.404 572.515,312.737 555.5,301.5C 553.064,302.1 551.398,303.6 550.5,306C 547.183,306.498 543.85,306.665 540.5,306.5C 540.179,294.919 540.512,283.419 541.5,272C 544.882,271.176 548.216,271.343 551.5,272.5C 556.318,285.167 564.818,289.167 577,284.5C 578.295,277.727 575.795,272.894 569.5,270C 562.512,266.841 555.846,263.174 549.5,259C 534.559,242.695 534.893,226.695 550.5,211C 553.767,208.87 557.1,207.037 560.5,205.5 Z"/></g>
<g><path style="opacity:0.932" fill="#000000" d="M 264.5,207.5 C 277.837,207.333 291.171,207.5 304.5,208C 305.475,213.741 305.808,219.575 305.5,225.5C 302.833,225.5 300.167,225.5 297.5,225.5C 297.333,243.836 297.5,262.17 298,280.5C 305.235,291.096 313.568,292.096 323,283.5C 323.862,281.913 324.529,280.246 325,278.5C 325.5,260.836 325.667,243.17 325.5,225.5C 322.289,225.988 319.456,225.321 317,223.5C 316.219,218.446 316.386,213.446 317.5,208.5C 328.395,207.181 339.228,207.181 350,208.5C 350.667,214.167 350.667,219.833 350,225.5C 347.333,226.167 344.667,226.833 342,227.5C 341.667,246.833 341.333,266.167 341,285.5C 336.758,301.562 326.258,309.562 309.5,309.5C 289.785,308.932 277.285,299.265 272,280.5C 271.5,262.503 271.333,244.503 271.5,226.5C 268.606,226.958 266.106,226.291 264,224.5C 263.26,218.782 263.427,213.115 264.5,207.5 Z"/></g>
<g><path style="opacity:0.924" fill="#000000" d="M 368.5,207.5 C 381.217,207.186 393.883,207.519 406.5,208.5C 407.663,214.137 407.83,219.804 407,225.5C 404.619,226.435 402.119,226.768 399.5,226.5C 399.333,246.836 399.5,267.169 400,287.5C 406.111,288.809 412.278,288.809 418.5,287.5C 419.286,282.219 419.786,276.885 420,271.5C 424.748,270.365 429.581,270.198 434.5,271C 435.654,282.424 435.82,293.924 435,305.5C 412.242,306.494 389.408,306.827 366.5,306.5C 365.004,300.45 365.171,294.45 367,288.5C 369.041,287.577 371.208,287.244 373.5,287.5C 373.5,267.167 373.5,246.833 373.5,226.5C 370.606,226.958 368.106,226.291 366,224.5C 365.333,220.167 365.333,215.833 366,211.5C 366.48,209.867 367.313,208.534 368.5,207.5 Z"/></g>
<g><path style="opacity:0.93" fill="#000000" d="M 454.5,207.5 C 467.171,207.333 479.838,207.5 492.5,208C 493,208.5 493.5,209 494,209.5C 494.667,214.833 494.667,220.167 494,225.5C 491.281,226.444 488.448,226.777 485.5,226.5C 485.333,246.836 485.5,267.169 486,287.5C 492.41,288.478 498.91,288.811 505.5,288.5C 505.334,283.156 505.501,277.823 506,272.5C 506.5,272 507,271.5 507.5,271C 511.833,270.333 516.167,270.333 520.5,271C 521,271.5 521.5,272 522,272.5C 522.667,283.167 522.667,293.833 522,304.5C 521.5,305 521,305.5 520.5,306C 498.167,306.667 475.833,306.667 453.5,306C 452.361,300.584 452.194,295.084 453,289.5C 455.106,287.709 457.606,287.042 460.5,287.5C 460.5,267.167 460.5,246.833 460.5,226.5C 457.833,226.5 455.167,226.5 452.5,226.5C 451.94,219.879 452.607,213.545 454.5,207.5 Z"/></g>
<g><path style="opacity:0.949" fill="#000000" d="M 171.5,208.5 C 190.836,208.333 210.17,208.5 229.5,209C 248.467,216.765 253.633,229.932 245,248.5C 242.318,251.35 239.484,254.016 236.5,256.5C 254.25,269.843 255.916,285.01 241.5,302C 239.112,303.861 236.446,305.194 233.5,306C 213.167,306.667 192.833,306.667 172.5,306C 172,305.5 171.5,305 171,304.5C 170.333,299.5 170.333,294.5 171,289.5C 173.481,287.686 176.315,287.02 179.5,287.5C 179.667,267.164 179.5,246.831 179,226.5C 176.084,228.013 173.418,227.68 171,225.5C 170.26,219.782 170.427,214.115 171.5,208.5 Z M 206.5,225.5 C 213.026,224.922 218.859,226.588 224,230.5C 227.867,242.491 223.367,248.491 210.5,248.5C 209.228,248.43 208.062,248.097 207,247.5C 206.5,240.174 206.334,232.841 206.5,225.5 Z M 206.5,264.5 C 211.705,264.134 216.705,264.967 221.5,267C 225.305,271.091 226.472,275.924 225,281.5C 219.86,286.827 213.693,288.494 206.5,286.5C 206.5,279.167 206.5,271.833 206.5,264.5 Z"/></g>
<g><path style="opacity:0.939" fill="#070202" d="M 622.5,221.5 C 637.985,246.502 649.152,273.502 656,302.5C 668.06,356.885 648.56,394.718 597.5,416C 582.17,421.555 566.503,425.888 550.5,429C 577.995,433.873 604.662,441.54 630.5,452C 606.587,481.903 576.254,490.903 539.5,479C 535.901,477.691 532.401,476.191 529,474.5C 509.783,523.268 488.116,570.935 464,617.5C 464.292,624.751 467.292,630.751 473,635.5C 471.35,661.798 462.183,685.131 445.5,705.5C 425.469,713.533 404.636,717.2 383,716.5C 362.384,717.37 342.551,713.87 323.5,706C 304.203,684.109 295.703,658.609 298,629.5C 301.818,626.525 304.652,622.858 306.5,618.5C 280.242,572.649 257.742,524.983 239,475.5C 216.199,486.462 192.699,488.295 168.5,481C 154.994,475.987 144.328,467.487 136.5,455.5C 146.496,449.676 157.163,445.176 168.5,442C 186.526,436.595 204.86,432.595 223.5,430C 197.002,429.459 172.002,423.125 148.5,411C 120.954,393.639 107.621,368.472 108.5,335.5C 111.192,296.758 122.526,260.758 142.5,227.5C 143.222,247.507 144.056,267.507 145,287.5C 148.907,332.898 173.74,354.898 219.5,353.5C 259.182,351.281 298.849,348.781 338.5,346C 407.39,344.31 476.223,345.81 545,350.5C 559.587,350.319 573.754,347.819 587.5,343C 604.911,334.908 615.745,321.408 620,302.5C 624.958,275.628 625.792,248.628 622.5,221.5 Z M 206.5,264.5 C 206.5,271.833 206.5,279.167 206.5,286.5C 213.693,288.494 219.86,286.827 225,281.5C 226.472,275.924 225.305,271.091 221.5,267C 216.705,264.967 211.705,264.134 206.5,264.5 Z"/></g>
<g><path style="opacity:1" fill="#c7103e" d="M 630.5,244.5 C 640.415,263.909 647.082,284.242 650.5,305.5C 647.167,303.167 643.833,300.833 640.5,298.5C 635.557,301.141 630.557,303.474 625.5,305.5C 627.028,294.216 628.028,282.883 628.5,271.5C 629.167,262.5 629.833,253.5 630.5,244.5 Z"/></g>
<g><path style="opacity:1" fill="#c8103f" d="M 138.5,244.5 C 139.331,256.326 139.831,268.326 140,280.5C 141.499,289.819 142.499,299.152 143,308.5C 138.985,304.318 134.818,300.318 130.5,296.5C 126.342,300.791 122.176,305.125 118,309.5C 118.731,299.953 120.731,290.62 124,281.5C 128.292,268.922 133.125,256.589 138.5,244.5 Z"/></g>
<g><path style="opacity:1" fill="#440516" d="M 630.5,244.5 C 629.833,253.5 629.167,262.5 628.5,271.5C 628.334,261.828 628.5,252.161 629,242.5C 629.717,243.044 630.217,243.711 630.5,244.5 Z"/></g>
<g><path style="opacity:1" fill="#fcfcfc" d="M 129.5,302.5 C 134.107,305.931 138.607,309.597 143,313.5C 146.798,321.087 151.131,328.421 156,335.5C 166.609,347.224 179.776,354.39 195.5,357C 216.033,357.833 236.533,357.333 257,355.5C 259.5,355.833 262,356.167 264.5,356.5C 256.389,378.493 251.055,401.16 248.5,424.5C 232.481,424.634 216.481,424.134 200.5,423C 172.594,420.129 149.094,408.629 130,388.5C 115.942,367.215 110.942,343.882 115,318.5C 119.671,312.997 124.504,307.664 129.5,302.5 Z"/></g>
<g><path style="opacity:1" fill="#fdfdfd" d="M 638.5,304.5 C 643.82,306.584 648.653,309.584 653,313.5C 659.277,362.202 639.443,395.035 593.5,412C 568.916,420.537 543.583,425.037 517.5,425.5C 515.068,401.117 510.735,377.117 504.5,353.5C 528.222,355.279 551.889,354.779 575.5,352C 590.728,348.972 603.228,341.472 613,329.5C 616.303,324.031 619.803,318.698 623.5,313.5C 628.729,310.726 633.729,307.726 638.5,304.5 Z"/></g>
<g><path style="opacity:1" fill="#cc1040" d="M 341.5,431.5 C 336.731,430.111 331.731,429.444 326.5,429.5C 322.5,429.167 318.5,428.833 314.5,428.5C 314.297,430.39 314.963,431.89 316.5,433C 338.371,436.64 360.371,438.806 382.5,439.5C 382.5,444.5 382.5,449.5 382.5,454.5C 360.406,454.048 338.406,452.381 316.5,449.5C 316.286,451.144 316.62,452.644 317.5,454C 338.733,457.023 360.066,458.523 381.5,458.5C 379.34,476.156 370.34,488.989 354.5,497C 343.244,498.85 332.577,497.183 322.5,492C 308.947,482.12 296.28,471.12 284.5,459C 275.198,451.232 264.532,447.899 252.5,449C 245.169,452.99 242.502,458.99 244.5,467C 246.808,469.816 249.808,470.983 253.5,470.5C 255.709,495.372 269.375,508.372 294.5,509.5C 282.009,522.798 269.509,522.798 257,509.5C 251.199,496.588 245.699,483.588 240.5,470.5C 217.933,481.464 194.6,483.631 170.5,477C 159.3,472.409 149.967,465.409 142.5,456C 150.82,451.891 159.486,448.558 168.5,446C 195.593,437.873 223.259,432.873 251.5,431C 254.033,404.533 260.033,378.866 269.5,354C 307.793,351.237 346.127,349.404 384.5,348.5C 422.908,348.648 461.241,350.315 499.5,353.5C 507.721,378.159 512.054,403.493 512.5,429.5C 550.838,429.867 587.504,437.7 622.5,453C 617.028,460.07 610.362,465.736 602.5,470C 586.742,478.478 570.075,480.811 552.5,477C 543.564,474.854 534.897,472.021 526.5,468.5C 521.493,482.183 515.659,495.516 509,508.5C 501.331,516.044 492.164,518.878 481.5,517C 478.084,515.75 475.417,513.583 473.5,510.5C 485.749,509.591 496.249,504.924 505,496.5C 510.308,487.911 513.642,478.577 515,468.5C 517.166,466.879 519.666,466.045 522.5,466C 526.756,460.178 526.089,454.845 520.5,450C 512.967,447.098 505.3,446.765 497.5,449C 491.34,451.577 485.673,454.91 480.5,459C 470.436,469.733 459.77,479.733 448.5,489C 415.896,504.698 396.229,494.865 389.5,459.5C 411.945,458.468 434.278,456.302 456.5,453C 458.118,450.2 457.285,448.7 454,448.5C 432.011,452.436 409.844,454.436 387.5,454.5C 387.5,449.5 387.5,444.5 387.5,439.5C 408.957,438.588 430.29,436.421 451.5,433C 455.588,430.661 455.254,429.161 450.5,428.5C 429.703,432.551 408.703,434.551 387.5,434.5C 387.5,428.5 387.5,422.5 387.5,416.5C 409.029,415.793 430.363,413.293 451.5,409C 452.708,406.355 451.708,405.188 448.5,405.5C 428.31,408.966 407.977,410.966 387.5,411.5C 387.666,405.824 387.499,400.157 387,394.5C 386,393.167 385,393.167 384,394.5C 383.501,400.157 383.334,405.824 383.5,411.5C 361.084,411.494 338.75,410.16 316.5,407.5C 316.33,408.822 316.663,409.989 317.5,411C 339.313,414.998 361.313,416.832 383.5,416.5C 383.5,422.5 383.5,428.5 383.5,434.5C 369.437,434.199 355.437,433.199 341.5,431.5 Z"/></g>
<g><path style="opacity:1" fill="#8b0c2c" d="M 326.5,429.5 C 331.731,429.444 336.731,430.111 341.5,431.5C 336.269,431.556 331.269,430.889 326.5,429.5 Z"/></g>
<g><path style="opacity:1" fill="#e9e9e9" d="M 505.5,470.5 C 508.499,491.879 498.832,503.212 476.5,504.5C 476.5,503.167 476.5,501.833 476.5,500.5C 494.307,499.856 503.14,490.523 503,472.5C 503.995,471.934 504.828,471.267 505.5,470.5 Z"/></g>
<g><path style="opacity:1" fill="#ececec" d="M 258.5,472.5 C 260.5,472.5 262.5,472.5 264.5,472.5C 265.147,489.979 274.313,498.979 292,499.5C 292.684,500.784 292.517,501.951 291.5,503C 277.592,504.426 267.425,498.926 261,486.5C 259.22,481.997 258.387,477.33 258.5,472.5 Z"/></g>
<g><path style="opacity:1" fill="#cc1040" d="M 383.5,500.5 C 387.584,504.081 391.584,507.914 395.5,512C 406.15,519.061 417.817,521.394 430.5,519C 439.298,517.512 447.798,515.012 456,511.5C 456.5,511.833 457,512.167 457.5,512.5C 445.869,549.37 445.535,586.37 456.5,623.5C 415.096,602.866 372.429,600.033 328.5,615C 324.013,616.603 319.846,618.77 316,621.5C 317.02,614.755 318.686,608.088 321,601.5C 324.211,582.152 324.211,562.818 321,543.5C 318.701,533.29 316.034,523.29 313,513.5C 332.553,522.911 352.053,522.745 371.5,513C 376.377,509.624 380.377,505.457 383.5,500.5 Z"/></g>
<g><path style="opacity:1" fill="#ca103f" d="M 296.5,514.5 C 297.649,514.791 298.316,515.624 298.5,517C 297.494,525.37 293.494,531.703 286.5,536C 275.082,537.258 267.082,532.592 262.5,522C 262.833,521.5 263.167,521 263.5,520.5C 275.688,525.219 286.688,523.219 296.5,514.5 Z"/></g>
<g><path style="opacity:1" fill="#c7103f" d="M 471.5,516.5 C 482.73,523.002 494.064,523.002 505.5,516.5C 503.541,526.279 497.374,531.946 487,533.5C 480.422,532.875 475.755,529.541 473,523.5C 472.023,521.26 471.523,518.927 471.5,516.5 Z"/></g>
<g><path style="opacity:1" fill="#170405" d="M 444.5,524.5 C 445.5,524.5 446.5,524.5 447.5,524.5C 443.949,545.439 434.283,562.939 418.5,577C 401.787,587.792 383.787,590.459 364.5,585C 348.602,578.769 337.769,567.602 332,551.5C 328.237,543.14 326.737,534.473 327.5,525.5C 329.637,542.417 336.137,557.417 347,570.5C 365.04,586.687 385.207,589.854 407.5,580C 421.442,572.386 431.609,561.22 438,546.5C 441.083,539.42 443.249,532.087 444.5,524.5 Z"/></g>
<g><path style="opacity:1" fill="#ca103f" d="M 300.5,522.5 C 304.899,529.162 308.066,536.495 310,544.5C 316.447,568.681 317.114,593.014 312,617.5C 295.478,592.12 281.978,565.453 271.5,537.5C 286.709,543.681 296.375,538.681 300.5,522.5 Z"/></g>
<g><path style="opacity:1" fill="#ca103f" d="M 467.5,523.5 C 471.358,529.187 476.358,533.687 482.5,537C 487.327,537.884 491.994,537.384 496.5,535.5C 496.833,536 497.167,536.5 497.5,537C 485.788,563.925 473.121,590.425 459.5,616.5C 457.717,612.703 456.55,608.703 456,604.5C 453.976,576.648 457.809,549.648 467.5,523.5 Z"/></g>
<g><path style="opacity:1" fill="#cb1040" d="M 370.5,608.5 C 405.855,606.668 437.855,616.002 466.5,636.5C 465.957,660.952 457.624,682.452 441.5,701C 411.579,711.79 380.912,714.456 349.5,709C 341.591,707.44 333.924,705.106 326.5,702C 315.553,690.61 308.386,677.11 305,661.5C 303.173,652.225 302.173,642.892 302,633.5C 322.757,619.305 345.59,610.972 370.5,608.5 Z"/></g>
<g><path style="opacity:1" fill="#050001" d="M 416.5,630.5 C 429.133,628.732 438.3,633.398 444,644.5C 443.796,656.717 437.629,663.884 425.5,666C 416.291,666.563 408.958,663.063 403.5,655.5C 403.5,659.5 403.5,663.5 403.5,667.5C 394.779,656.151 395.779,645.651 406.5,636C 409.767,633.87 413.1,632.037 416.5,630.5 Z"/></g>
<g><path style="opacity:1" fill="#060001" d="M 336.5,633.5 C 350.362,631.021 360.862,635.688 368,647.5C 369.232,654.839 368.232,661.839 365,668.5C 363.989,669.337 362.822,669.67 361.5,669.5C 363.251,666.071 363.751,662.405 363,658.5C 350.828,671.226 338.494,671.559 326,659.5C 320.989,652.262 321.489,645.429 327.5,639C 330.564,637.141 333.564,635.308 336.5,633.5 Z"/></g>
<g><path style="opacity:1" fill="#120204" d="M 367.5,681.5 C 386.384,680.506 405.051,682.006 423.5,686C 429.737,688.021 435.737,690.521 441.5,693.5C 441.113,694.72 440.28,695.387 439,695.5C 402.148,680.845 365.314,680.845 328.5,695.5C 326.729,694.965 326.396,694.131 327.5,693C 340.563,687.83 353.897,683.997 367.5,681.5 Z"/></g>
</svg>
