<?xml version="1.0" encoding="UTF-8"?>
<!DOCTYPE svg PUBLIC "-//W3C//DTD SVG 1.1//EN" "http://www.w3.org/Graphics/SVG/1.1/DTD/svg11.dtd">
<svg xmlns="http://www.w3.org/2000/svg" version="1.1" width="1200px" height="1200px" style="shape-rendering:geometricPrecision; text-rendering:geometricPrecision; image-rendering:optimizeQuality; fill-rule:evenodd; clip-rule:evenodd" xmlns:xlink="http://www.w3.org/1999/xlink">
<g><path style="opacity:0.931" fill="#fafafa" d="M 551.5,159.5 C 565.516,159.167 579.516,159.501 593.5,160.5C 587.288,169.089 580.955,177.589 574.5,186C 640.639,182.433 704.639,192.433 766.5,216C 775.922,219.769 784.588,224.769 792.5,231C 798.765,231.733 804.765,233.399 810.5,236C 914.534,292.324 985.034,376.491 1022,488.5C 1057.31,612.589 1040.98,729.256 973,838.5C 912.865,928.225 830.698,988.725 726.5,1020C 610.169,1050.96 498.502,1038.29 391.5,982C 296.492,928.32 230.326,850.153 193,747.5C 175.611,718.997 165.611,687.997 163,654.5C 160.394,604.538 168.727,556.538 188,510.5C 189.72,501.672 192.054,493.005 195,484.5C 199.308,441.406 215.475,403.572 243.5,371C 248.731,366.469 254.231,362.302 260,358.5C 270.249,344.913 281.249,331.913 293,319.5C 306.974,291.193 328.807,271.693 358.5,261C 376.858,248.482 396.191,237.482 416.5,228C 453.892,190.303 498.892,167.47 551.5,159.5 Z"/></g>
<g><path style="opacity:1" fill="#010102" d="M 552.5,168.5 C 560.174,168.334 567.841,168.5 575.5,169C 568.167,178.667 560.833,188.333 553.5,198C 628.393,189.649 700.726,199.649 770.5,228C 776.062,230.894 781.062,234.561 785.5,239C 795.787,240.54 805.453,243.873 814.5,249C 900.374,297.786 962.541,367.286 1001,457.5C 1040.54,560.61 1040.21,663.61 1000,766.5C 955.227,870.608 880.727,945.775 776.5,992C 680.896,1031.4 583.229,1037.4 483.5,1010C 364.546,973.035 276.713,899.202 220,788.5C 213.447,774.061 207.447,759.394 202,744.5C 185.33,716.821 175.663,686.821 173,654.5C 170.114,621.937 173.114,589.937 182,558.5C 190.102,534.198 197.769,509.865 205,485.5C 208.606,442.467 225.106,405.3 254.5,374C 259.621,370.547 264.454,366.714 269,362.5C 278.926,349.073 289.76,336.406 301.5,324.5C 314.01,297.578 334.343,279.412 362.5,270C 381.023,256.898 400.69,245.565 421.5,236C 458.019,199.652 501.686,177.152 552.5,168.5 Z"/></g>
<g><path style="opacity:1" fill="#fdfdfd" d="M 506.5,271.5 C 509.79,299.181 513.29,326.848 517,354.5C 517.667,359.5 517.667,364.5 517,369.5C 514.455,370.797 511.955,370.631 509.5,369C 503.622,363.91 497.622,359.077 491.5,354.5C 491.539,353.244 491.039,352.244 490,351.5C 487.409,391.802 496.742,429.135 518,463.5C 532.806,487.656 550.64,509.489 571.5,529C 564.872,526.516 558.538,523.183 552.5,519C 538.46,509.3 525.294,498.467 513,486.5C 528.249,565.58 544.083,644.58 560.5,723.5C 565.5,711.5 570.5,699.5 575.5,687.5C 580.936,725.38 585.102,763.38 588,801.5C 552.545,833.989 511.378,844.822 464.5,834C 475.742,852.576 490.408,867.909 508.5,880C 539.395,900.19 573.062,913.524 609.5,920C 648.571,926.775 687.904,929.108 727.5,927C 603.871,963.021 494.204,938.355 398.5,853C 362.359,819.718 333.359,781.218 311.5,737.5C 312.002,736.479 312.668,736.312 313.5,737C 326.879,747.859 341.879,755.859 358.5,761C 376.85,766.623 395.516,769.789 414.5,770.5C 379.761,732.358 349.927,690.691 325,645.5C 320.299,634.399 316.632,623.066 314,611.5C 324.269,629.103 338.436,642.603 356.5,652C 357.5,652.667 358.5,652.667 359.5,652C 344.105,624.145 333.272,594.645 327,563.5C 345.827,587 370.327,600.167 400.5,603C 340.91,540.968 328.743,470.468 364,391.5C 380.883,355.141 403.383,322.808 431.5,294.5C 431.793,281.279 433.627,268.279 437,255.5C 464.135,219.705 499.635,196.872 543.5,187C 526.339,205.482 514.506,226.982 508,251.5C 506.79,258.112 506.29,264.778 506.5,271.5 Z"/></g>
<g><path style="opacity:1" fill="#070707" d="M 513.5,206.5 C 514.239,206.369 514.906,206.536 515.5,207C 501.601,222.632 492.935,240.799 489.5,261.5C 483.974,260.711 478.974,261.878 474.5,265C 468.923,269.673 464.423,275.173 461,281.5C 464.38,256.241 475.546,235.074 494.5,218C 500.499,213.477 506.832,209.644 513.5,206.5 Z"/></g>
<g><path style="opacity:1" fill="#0063b4" d="M 608.5,229.5 C 728.237,230.131 827.07,275.464 905,365.5C 905.667,367.5 905.667,369.5 905,371.5C 902.374,374.231 899.207,376.064 895.5,377C 854.355,383.648 813.355,382.981 772.5,375C 742.353,368.914 715.353,356.414 691.5,337.5C 697.08,326.409 704.747,316.909 714.5,309C 727.991,298.749 742.324,289.749 757.5,282C 723.793,263.079 688.959,260.579 653,274.5C 639.558,258.721 624.558,244.721 608,232.5C 607.53,231.423 607.697,230.423 608.5,229.5 Z"/></g>
<g><path style="opacity:1" fill="#b6c1c8" d="M 728.5,278.5 C 726.5,279.167 724.5,279.833 722.5,280.5C 701.692,282.568 685.026,291.901 672.5,308.5C 669.859,300.382 666.525,292.549 662.5,285C 665.029,282.592 668.029,280.925 671.5,280C 690.376,274.633 709.376,274.133 728.5,278.5 Z"/></g>
<g><path style="opacity:1" fill="#5e6365" d="M 728.5,278.5 C 729.675,278.281 730.675,278.614 731.5,279.5C 728.572,280.484 725.572,280.817 722.5,280.5C 724.5,279.833 726.5,279.167 728.5,278.5 Z"/></g>
<g><path style="opacity:1" fill="#b5c1c8" d="M 603.5,482.5 C 603.824,489.354 603.491,496.021 602.5,502.5C 588.821,426.461 565.488,353.461 532.5,283.5C 542.946,288.951 552.946,295.784 562.5,304C 588.559,326.37 610.225,352.203 627.5,381.5C 635.092,371.65 640.592,360.65 644,348.5C 646.207,339.131 648.54,329.798 651,320.5C 663.812,387.78 657.145,453.113 631,516.5C 637.09,488.046 642.423,459.379 647,430.5C 649.463,409.226 650.463,387.892 650,366.5C 644.813,379.722 639.813,393.056 635,406.5C 632.174,412.822 628.841,418.822 625,424.5C 617.731,399.3 606.731,375.967 592,354.5C 588.833,351.333 585.667,348.167 582.5,345C 581.668,344.312 581.002,344.479 580.5,345.5C 592.723,390.393 600.39,436.06 603.5,482.5 Z"/></g>
<g><path style="opacity:1" fill="#b5c1c8" d="M 506.5,271.5 C 519.603,316.896 532.269,362.562 544.5,408.5C 544.167,409.167 543.833,409.833 543.5,410.5C 520.264,397.266 502.931,378.599 491.5,354.5C 497.622,359.077 503.622,363.91 509.5,369C 511.955,370.631 514.455,370.797 517,369.5C 517.667,364.5 517.667,359.5 517,354.5C 513.29,326.848 509.79,299.181 506.5,271.5 Z"/></g>
<g><path style="opacity:1" fill="#b7c3ca" d="M 400.5,285.5 C 401.239,285.369 401.906,285.536 402.5,286C 327.015,366.448 294.515,461.948 305,572.5C 293.622,542.894 288.955,512.228 291,480.5C 291.604,466.003 293.437,451.669 296.5,437.5C 296.167,436.833 295.833,436.167 295.5,435.5C 279.02,458.487 269.186,484.153 266,512.5C 262.675,556.198 270.342,597.865 289,637.5C 303.246,667.687 320.746,695.687 341.5,721.5C 336.595,720.425 331.595,718.592 326.5,716C 310.54,706.381 296.707,694.215 285,679.5C 277.168,668.507 269.835,657.174 263,645.5C 266.384,693.694 279.718,739.027 303,781.5C 348.314,860.478 412.814,917.978 496.5,954C 577.898,983.783 660.232,986.449 743.5,962C 782.245,950.459 818.912,934.292 853.5,913.5C 854.293,914.355 853.96,915.189 852.5,916C 750.115,990.876 637.115,1013.21 513.5,983C 437.88,961.63 373.046,922.796 319,866.5C 309.287,855.122 299.953,843.455 291,831.5C 276.829,808.495 263.162,785.162 250,761.5C 228.76,723.447 215.76,682.781 211,639.5C 209.879,626.18 209.546,612.846 210,599.5C 216.063,637.194 228.563,672.527 247.5,705.5C 247.833,705.833 248.167,706.167 248.5,706.5C 248.833,705.5 249.167,704.5 249.5,703.5C 238.915,666.24 232.748,628.24 231,589.5C 225.109,562.475 223.109,535.142 225,507.5C 227.438,472.656 239.771,441.989 262,415.5C 256.697,430.427 252.364,445.761 249,461.5C 247.569,470.459 247.235,479.459 248,488.5C 259.883,448.053 279.55,412.053 307,380.5C 314.782,355.923 326.949,333.923 343.5,314.5C 343.833,314.667 344.167,314.833 344.5,315C 338.943,324.055 335.609,333.888 334.5,344.5C 334.733,345.932 335.4,346.432 336.5,346C 354.852,322.476 376.185,302.309 400.5,285.5 Z"/></g>
<g><path style="opacity:1" fill="#b8c4ca" d="M 466.5,385.5 C 465.732,384.737 465.232,383.737 465,382.5C 449.102,397.819 445.268,415.819 453.5,436.5C 448.322,430.164 445.155,422.83 444,414.5C 442.493,394.342 447.16,375.675 458,358.5C 459.944,354.89 462.277,351.557 465,348.5C 465.248,360.858 465.748,373.192 466.5,385.5 Z"/></g>
<g><path style="opacity:1" fill="#050505" d="M 426.5,368.5 C 427.124,368.917 427.457,369.584 427.5,370.5C 426.936,372.819 426.436,375.153 426,377.5C 425.333,390.5 425.333,403.5 426,416.5C 429.397,454.537 448.73,480.537 484,494.5C 486.994,507.293 489.827,520.127 492.5,533C 492.167,533.833 491.833,534.667 491.5,535.5C 420.466,499.093 398.8,443.426 426.5,368.5 Z"/></g>
<g><path style="opacity:1" fill="#050505" d="M 466.5,385.5 C 469.189,411.765 477.189,436.265 490.5,459C 473.775,458.641 461.441,451.141 453.5,436.5C 445.268,415.819 449.102,397.819 465,382.5C 465.232,383.737 465.732,384.737 466.5,385.5 Z"/></g>
<g><path style="opacity:1" fill="#0063b4" d="M 677.5,389.5 C 697.672,387.954 714.838,394.621 729,409.5C 729.669,402.514 728.502,395.848 725.5,389.5C 726,389.167 726.5,388.833 727,388.5C 749.509,396.1 772.675,399.767 796.5,399.5C 832.106,399.306 867.439,396.139 902.5,390C 908.585,389.139 914.585,389.473 920.5,391C 937.033,409.207 950.2,429.707 960,452.5C 988.346,519.604 997.013,589.271 986,661.5C 983.325,683.199 977.992,704.199 970,724.5C 967.88,729.242 965.38,733.742 962.5,738C 958.417,740.521 955.917,739.354 955,734.5C 954.453,688.646 943.12,645.646 921,605.5C 897.733,564.209 868.567,527.376 833.5,495C 786.521,452.541 734.521,417.374 677.5,389.5 Z"/></g>
<g><path style="opacity:1" fill="#5b5f61" d="M 680.5,433.5 C 679.833,435.5 679.167,437.5 678.5,439.5C 678.192,437.076 678.526,434.743 679.5,432.5C 680.107,432.624 680.44,432.957 680.5,433.5 Z"/></g>
<g><path style="opacity:1" fill="#b2bec4" d="M 680.5,433.5 C 685.786,451.126 687.619,469.126 686,487.5C 682.547,507.584 673.047,524.084 657.5,537C 654.966,538.934 652.299,540.268 649.5,541C 652.372,538.463 654.872,535.63 657,532.5C 666.408,513.538 672.408,493.538 675,472.5C 676.557,461.535 677.724,450.535 678.5,439.5C 679.167,437.5 679.833,435.5 680.5,433.5 Z"/></g>
<g><path style="opacity:1" fill="#0063b4" d="M 722.5,469.5 C 785.784,501.937 838.951,546.603 882,603.5C 911.687,644.895 930.354,690.895 938,741.5C 939.38,754.809 939.713,768.142 939,781.5C 936.411,787.016 933.078,792.016 929,796.5C 902.715,826.138 871.882,849.638 836.5,867C 828.719,870.556 820.719,873.556 812.5,876C 809.331,876.978 806.497,876.478 804,874.5C 803.333,871.167 803.333,867.833 804,864.5C 820.855,784.775 815.189,706.775 787,630.5C 770.268,589.673 746.101,554.007 714.5,523.5C 713.614,522.675 713.281,521.675 713.5,520.5C 729.276,524.098 742.776,531.765 754,543.5C 751.591,516.351 741.258,492.684 723,472.5C 722.517,471.552 722.351,470.552 722.5,469.5 Z"/></g>
<g><path style="opacity:1" fill="#889094" d="M 603.5,482.5 C 604.658,491.991 604.825,501.658 604,511.5C 603.304,508.522 602.804,505.522 602.5,502.5C 603.491,496.021 603.824,489.354 603.5,482.5 Z"/></g>
<g><path style="opacity:1" fill="#0063b4" d="M 699.5,553.5 C 700.239,553.369 700.906,553.536 701.5,554C 749.568,602.642 778.068,661.142 787,729.5C 793.708,778.01 792.708,826.343 784,874.5C 782.5,878.667 779.667,881.5 775.5,883C 729.727,893.564 683.727,894.897 637.5,887C 633.905,886.439 630.572,885.272 627.5,883.5C 648.682,866.145 669.682,848.645 690.5,831C 679.749,790.495 669.082,749.995 658.5,709.5C 661.741,683.515 664.741,657.515 667.5,631.5C 675.998,634.493 682.164,640.159 686,648.5C 693.092,666.47 696.759,685.136 697,704.5C 713.207,671.675 720.207,637.009 718,600.5C 715.834,583.154 709.668,567.487 699.5,553.5 Z"/></g>
<g><path style="opacity:1" fill="#bac5cc" d="M 495.5,555.5 C 510.775,603.576 525.609,651.909 540,700.5C 541.652,705.099 542.652,709.765 543,714.5C 538.573,705.738 531.906,699.404 523,695.5C 515.648,693.996 509.315,695.996 504,701.5C 500.702,652.858 497.868,604.191 495.5,555.5 Z"/></g>
<g><path style="opacity:1" fill="#b2bec4" d="M 653.5,580.5 C 654.156,581.622 654.489,582.955 654.5,584.5C 649.174,627.415 645.007,670.415 642,713.5C 652.248,750.07 662.748,786.57 673.5,823C 673.415,824.107 673.081,825.107 672.5,826C 653.024,840.642 633.691,855.475 614.5,870.5C 614.167,870.333 613.833,870.167 613.5,870C 629,853.833 644.5,837.667 660,821.5C 660.638,820.391 661.138,819.225 661.5,818C 650.699,779.916 640.365,741.75 630.5,703.5C 638.04,662.468 645.706,621.468 653.5,580.5 Z"/></g>
<g><path style="opacity:1" fill="#040404" d="M 377.5,625.5 C 377.56,624.957 377.893,624.624 378.5,624.5C 390.657,632.873 403.991,636.206 418.5,634.5C 440.669,682.493 462.502,730.493 484,778.5C 450.406,744.256 421.406,706.589 397,665.5C 390.181,652.198 383.681,638.864 377.5,625.5 Z"/></g>
<g><path style="opacity:1" fill="#b8c3ca" d="M 556.5,804.5 C 556.275,786.858 553.109,769.524 547,752.5C 545.042,747.41 542.208,742.91 538.5,739C 535.783,736.924 532.783,736.257 529.5,737C 519.552,744.443 513.552,754.277 511.5,766.5C 509.536,752.949 511.703,739.949 518,727.5C 528.493,717.845 538.493,718.512 548,729.5C 553.944,738.258 557.611,747.925 559,758.5C 559.891,774.549 559.391,790.549 557.5,806.5C 556.702,806.043 556.369,805.376 556.5,804.5 Z"/></g>
<g><path style="opacity:1" fill="#050505" d="M 556.5,804.5 C 553.325,792.149 548.491,780.482 542,769.5C 537.941,763.343 533.607,763.01 529,768.5C 525.617,775.786 523.617,783.453 523,791.5C 519.153,783.141 515.319,774.807 511.5,766.5C 513.552,754.277 519.552,744.443 529.5,737C 532.783,736.257 535.783,736.924 538.5,739C 542.208,742.91 545.042,747.41 547,752.5C 553.109,769.524 556.275,786.858 556.5,804.5 Z"/></g>
</svg>
