<?xml version="1.0" encoding="UTF-8"?>
<!DOCTYPE svg PUBLIC "-//W3C//DTD SVG 1.1//EN" "http://www.w3.org/Graphics/SVG/1.1/DTD/svg11.dtd">
<svg xmlns="http://www.w3.org/2000/svg" version="1.1" width="800px" height="800px" style="shape-rendering:geometricPrecision; text-rendering:geometricPrecision; image-rendering:optimizeQuality; fill-rule:evenodd; clip-rule:evenodd" xmlns:xlink="http://www.w3.org/1999/xlink">
<g><path style="opacity:0.933" fill="#b1b0b1" d="M 376.5,84.5 C 483.96,80.6778 572.46,119.344 642,200.5C 703.563,280.101 724.229,369.434 704,468.5C 682.011,557.128 631.844,624.628 553.5,671C 473.468,714.549 389.801,723.215 302.5,697C 197.649,660.15 128.816,588.65 96,482.5C 69.335,374.182 91.335,277.182 162,191.5C 219.542,128.313 291.042,92.6459 376.5,84.5 Z"/></g>
<g><path style="opacity:1" fill="#033da6" d="M 370.5,94.5 C 478.828,88.7718 567.661,127.105 637,209.5C 702.026,296.654 718.359,392.321 686,496.5C 648.465,598.036 577.631,663.536 473.5,693C 360.649,717.837 262.816,690.337 180,610.5C 115.152,540.292 87.1515,457.292 96,361.5C 111.488,258.413 164.322,181.246 254.5,130C 291.08,110.971 329.746,99.1372 370.5,94.5 Z"/></g>
<g><path style="opacity:1" fill="#fdfbfc" d="M 370.5,139.5 C 457.07,133.401 530.237,161.401 590,223.5C 656.026,301.311 673.359,388.977 642,486.5C 614.47,559.364 564.637,610.53 492.5,640C 388.645,675.764 296.312,656.764 215.5,583C 147.331,510.564 124.831,425.731 148,328.5C 176.327,238.173 235.494,178.339 325.5,149C 340.48,145.105 355.48,141.939 370.5,139.5 Z"/></g>
<g><path style="opacity:1" fill="#dd0532" d="M 372.5,154.5 C 458.026,149.046 529.192,178.046 586,241.5C 602.877,261.59 615.877,283.923 625,308.5C 599.701,277.089 568.534,253.255 531.5,237C 443.266,200.703 354.932,200.369 266.5,236C 228.969,251.864 197.469,275.697 172,307.5C 197.564,243.934 242.064,198.767 305.5,172C 327.261,163.478 349.594,157.644 372.5,154.5 Z"/></g>
<g><path style="opacity:1" fill="#dd0431" d="M 642.5,390.5 C 626.5,390.5 610.5,390.5 594.5,390.5C 594.5,395.5 594.5,400.5 594.5,405.5C 609.991,406.496 625.658,406.83 641.5,406.5C 641.5,408.5 641.5,410.5 641.5,412.5C 641.716,419.625 640.883,426.625 639,433.5C 627.983,467.04 608.483,494.54 580.5,516C 525.566,555.619 464.066,574.785 396,573.5C 334.862,574.178 278.695,558.011 227.5,525C 206.667,510.833 189.167,493.333 175,472.5C 162.452,453.69 155.619,433.023 154.5,410.5C 154.5,409.167 154.5,407.833 154.5,406.5C 170.342,406.83 186.009,406.496 201.5,405.5C 201.5,400.833 201.5,396.167 201.5,391.5C 186.009,390.504 170.342,390.17 154.5,390.5C 154.5,387.167 154.5,383.833 154.5,380.5C 157.376,357.747 165.543,337.08 179,318.5C 203.783,286.392 234.949,262.559 272.5,247C 351.159,216.073 430.492,214.406 510.5,242C 547.757,255.538 579.923,276.704 607,305.5C 624.731,325.294 636.398,348.294 642,374.5C 642.499,379.823 642.666,385.156 642.5,390.5 Z"/></g>
<g><path style="opacity:1" fill="#ef869e" d="M 271.5,308.5 C 255.5,308.5 239.5,308.5 223.5,308.5C 223.5,309.833 223.5,311.167 223.5,312.5C 222.549,311.081 222.216,309.415 222.5,307.5C 239.009,307.17 255.342,307.504 271.5,308.5 Z"/></g>
<g><path style="opacity:1" fill="#ee829a" d="M 291.5,308.5 C 303.989,307.505 316.656,307.171 329.5,307.5C 329.818,312.032 329.485,316.366 328.5,320.5C 328.5,316.5 328.5,312.5 328.5,308.5C 316.5,308.5 304.5,308.5 292.5,308.5C 292.167,308.5 291.833,308.5 291.5,308.5 Z"/></g>
<g><path style="opacity:1" fill="#f08da3" d="M 380.5,308.5 C 366.833,308.5 353.167,308.5 339.5,308.5C 339.5,312.5 339.5,316.5 339.5,320.5C 338.515,316.366 338.182,312.032 338.5,307.5C 352.677,307.171 366.677,307.504 380.5,308.5 Z"/></g>
<g><path style="opacity:1" fill="#f08ea3" d="M 573.5,308.5 C 559.833,308.5 546.167,308.5 532.5,308.5C 532.5,312.5 532.5,316.5 532.5,320.5C 531.515,316.366 531.182,312.032 531.5,307.5C 545.677,307.171 559.677,307.504 573.5,308.5 Z"/></g>
<g><path style="opacity:1" fill="#fefcfc" d="M 271.5,308.5 C 275.987,308.82 278.82,311.153 280,315.5C 280.955,337.217 280.622,358.884 279,380.5C 277.01,384.49 273.843,386.99 269.5,388C 257.505,388.5 245.505,388.667 233.5,388.5C 233.5,365.833 233.5,343.167 233.5,320.5C 228.188,320.191 224.854,317.524 223.5,312.5C 223.5,311.167 223.5,309.833 223.5,308.5C 239.5,308.5 255.5,308.5 271.5,308.5 Z"/></g>
<g><path style="opacity:1" fill="#fefefe" d="M 292.5,308.5 C 304.5,308.5 316.5,308.5 328.5,308.5C 328.5,312.5 328.5,316.5 328.5,320.5C 322.5,320.5 316.5,320.5 310.5,320.5C 309.51,326.31 309.177,332.31 309.5,338.5C 313.833,338.5 318.167,338.5 322.5,338.5C 322.5,344.167 322.5,349.833 322.5,355.5C 318.167,355.5 313.833,355.5 309.5,355.5C 309.176,362.354 309.509,369.021 310.5,375.5C 316.5,375.5 322.5,375.5 328.5,375.5C 328.5,379.5 328.5,383.5 328.5,387.5C 316.5,387.5 304.5,387.5 292.5,387.5C 292.5,361.167 292.5,334.833 292.5,308.5 Z"/></g>
<g><path style="opacity:1" fill="#fef7f9" d="M 380.5,308.5 C 380.935,316.313 377.268,320.313 369.5,320.5C 369.5,343.167 369.5,365.833 369.5,388.5C 363.167,388.5 356.833,388.5 350.5,388.5C 350.5,365.833 350.5,343.167 350.5,320.5C 346.833,320.5 343.167,320.5 339.5,320.5C 339.5,316.5 339.5,312.5 339.5,308.5C 353.167,308.5 366.833,308.5 380.5,308.5 Z"/></g>
<g><path style="opacity:1" fill="#fefcfc" d="M 390.5,308.5 C 403.171,308.333 415.838,308.5 428.5,309C 433.793,310.38 436.626,313.88 437,319.5C 437.667,327.5 437.667,335.5 437,343.5C 436.108,346.284 434.942,348.95 433.5,351.5C 434.531,352.7 435.365,354.034 436,355.5C 436.5,366.828 436.667,378.162 436.5,389.5C 429.735,390.531 424.568,388.198 421,382.5C 420.667,374.5 420.333,366.5 420,358.5C 417.056,354.886 413.223,353.553 408.5,354.5C 408.5,365.833 408.5,377.167 408.5,388.5C 402.5,388.5 396.5,388.5 390.5,388.5C 390.5,361.833 390.5,335.167 390.5,308.5 Z"/></g>
<g><path style="opacity:1" fill="#fefcfc" d="M 458.5,308.5 C 467.506,308.334 476.506,308.5 485.5,309C 489.667,310.5 492.5,313.333 494,317.5C 494.667,337.5 494.667,357.5 494,377.5C 491.986,383.441 487.819,386.941 481.5,388C 473.564,389.53 465.564,389.863 457.5,389C 452.402,387.567 448.902,384.4 447,379.5C 446.333,360.167 446.333,340.833 447,321.5C 447.806,318.554 449.139,315.888 451,313.5C 453.479,311.686 455.979,310.019 458.5,308.5 Z"/></g>
<g><path style="opacity:1" fill="#fffefe" d="M 504.5,308.5 C 510.167,308.5 515.833,308.5 521.5,308.5C 521.5,334.833 521.5,361.167 521.5,387.5C 515.833,387.5 510.167,387.5 504.5,387.5C 504.5,361.167 504.5,334.833 504.5,308.5 Z"/></g>
<g><path style="opacity:1" fill="#fef8f9" d="M 573.5,308.5 C 573.935,316.313 570.268,320.313 562.5,320.5C 562.5,343.167 562.5,365.833 562.5,388.5C 556.167,388.5 549.833,388.5 543.5,388.5C 543.5,365.833 543.5,343.167 543.5,320.5C 539.833,320.5 536.167,320.5 532.5,320.5C 532.5,316.5 532.5,312.5 532.5,308.5C 546.167,308.5 559.833,308.5 573.5,308.5 Z"/></g>
<g><path style="opacity:1" fill="#f3a8b8" d="M 504.5,308.5 C 510.31,307.51 516.31,307.177 522.5,307.5C 522.5,334.5 522.5,361.5 522.5,388.5C 516.31,388.823 510.31,388.49 504.5,387.5C 510.167,387.5 515.833,387.5 521.5,387.5C 521.5,361.167 521.5,334.833 521.5,308.5C 515.833,308.5 510.167,308.5 504.5,308.5 Z"/></g>
<g><path style="opacity:1" fill="#e43358" d="M 310.5,320.5 C 310.5,326.167 310.5,331.833 310.5,337.5C 314.702,337.183 318.702,337.517 322.5,338.5C 318.167,338.5 313.833,338.5 309.5,338.5C 309.177,332.31 309.51,326.31 310.5,320.5 Z"/></g>
<g><path style="opacity:1" fill="#df213a" d="M 251.5,320.5 C 254.187,320.336 256.854,320.503 259.5,321C 260.667,321.5 261.5,322.333 262,323.5C 262.5,340.83 262.667,358.163 262.5,375.5C 258.833,375.5 255.167,375.5 251.5,375.5C 251.5,357.167 251.5,338.833 251.5,320.5 Z"/></g>
<g><path style="opacity:1" fill="#dd0933" d="M 408.5,320.5 C 417.586,319.094 420.92,322.927 418.5,332C 421.015,341.19 417.681,345.024 408.5,343.5C 408.5,335.833 408.5,328.167 408.5,320.5 Z"/></g>
<g><path style="opacity:1" fill="#df213b" d="M 466.5,320.5 C 468.857,320.337 471.19,320.503 473.5,321C 474.701,321.903 475.535,323.069 476,324.5C 476.667,340.5 476.667,356.5 476,372.5C 471.659,374.51 468.325,373.51 466,369.5C 465.183,353.093 465.349,336.759 466.5,320.5 Z"/></g>
<g><path style="opacity:1" fill="#e64566" d="M 322.5,355.5 C 318.702,356.483 314.702,356.817 310.5,356.5C 310.5,362.833 310.5,369.167 310.5,375.5C 309.509,369.021 309.176,362.354 309.5,355.5C 313.833,355.5 318.167,355.5 322.5,355.5 Z"/></g>
<g><path style="opacity:1" fill="#f4b1bf" d="M 291.5,308.5 C 291.833,308.5 292.167,308.5 292.5,308.5C 292.5,334.833 292.5,361.167 292.5,387.5C 304.5,387.5 316.5,387.5 328.5,387.5C 328.5,383.5 328.5,379.5 328.5,375.5C 329.485,379.634 329.818,383.968 329.5,388.5C 316.833,388.5 304.167,388.5 291.5,388.5C 291.5,361.833 291.5,335.167 291.5,308.5 Z"/></g>
<g><path style="opacity:1" fill="#f9cad4" d="M 154.5,380.5 C 154.5,383.833 154.5,387.167 154.5,390.5C 170.342,390.17 186.009,390.504 201.5,391.5C 185.5,391.5 169.5,391.5 153.5,391.5C 153.185,387.629 153.518,383.962 154.5,380.5 Z"/></g>
<g><path style="opacity:1" fill="#fad8e0" d="M 642.5,390.5 C 627.009,391.496 611.342,391.83 595.5,391.5C 595.5,396.167 595.5,400.833 595.5,405.5C 595.167,405.5 594.833,405.5 594.5,405.5C 594.5,400.5 594.5,395.5 594.5,390.5C 610.5,390.5 626.5,390.5 642.5,390.5 Z"/></g>
<g><path style="opacity:1" fill="#ef8399" d="M 544.5,405.5 C 555.321,404.505 566.321,404.172 577.5,404.5C 577.784,406.415 577.451,408.081 576.5,409.5C 576.5,408.167 576.5,406.833 576.5,405.5C 565.833,405.5 555.167,405.5 544.5,405.5 Z"/></g>
<g><path style="opacity:1" fill="#e95979" d="M 201.5,405.5 C 186.009,406.496 170.342,406.83 154.5,406.5C 154.5,407.833 154.5,409.167 154.5,410.5C 153.549,409.081 153.216,407.415 153.5,405.5C 169.5,405.5 185.5,405.5 201.5,405.5 Z"/></g>
<g><path style="opacity:1" fill="#fefafb" d="M 219.5,405.5 C 236.503,405.333 253.503,405.5 270.5,406C 272.624,407.122 274.457,408.622 276,410.5C 278.375,420.365 279.042,430.365 278,440.5C 277.524,446.648 274.357,450.482 268.5,452C 261.842,452.5 255.175,452.666 248.5,452.5C 248.5,464.167 248.5,475.833 248.5,487.5C 242.167,487.5 235.833,487.5 229.5,487.5C 229.5,464.167 229.5,440.833 229.5,417.5C 222.965,416.289 219.631,412.289 219.5,405.5 Z"/></g>
<g><path style="opacity:1" fill="#fefdfd" d="M 288.5,405.5 C 294.5,405.5 300.5,405.5 306.5,405.5C 306.5,432.833 306.5,460.167 306.5,487.5C 300.5,487.5 294.5,487.5 288.5,487.5C 288.5,460.167 288.5,432.833 288.5,405.5 Z"/></g>
<g><path style="opacity:1" fill="#fefbfc" d="M 344.5,486.5 C 336.833,486.5 329.167,486.5 321.5,486.5C 321.5,483.167 321.5,479.833 321.5,476.5C 326.5,476.5 331.5,476.5 336.5,476.5C 336.827,466.319 336.494,456.319 335.5,446.5C 331.925,444.713 328.259,442.879 324.5,441C 323.213,439.59 322.046,438.09 321,436.5C 319.424,427.911 319.09,419.244 320,410.5C 321.251,407.619 323.417,405.786 326.5,405C 337.161,404.5 347.828,404.333 358.5,404.5C 359.043,409.039 357.71,412.873 354.5,416C 348.285,417.416 341.952,417.916 335.5,417.5C 335.211,420.649 335.711,423.649 337,426.5C 342.667,430.5 348.333,434.5 354,438.5C 354.667,452.167 354.667,465.833 354,479.5C 352.007,483.414 348.84,485.748 344.5,486.5 Z"/></g>
<g><path style="opacity:1" fill="#fefefe" d="M 369.5,405.5 C 383.5,405.5 397.5,405.5 411.5,405.5C 411.797,413.202 408.131,417.535 400.5,418.5C 399.502,441.327 399.169,464.327 399.5,487.5C 393.5,487.5 387.5,487.5 381.5,487.5C 381.5,464.5 381.5,441.5 381.5,418.5C 377.702,417.517 373.702,417.183 369.5,417.5C 369.5,413.5 369.5,409.5 369.5,405.5 Z"/></g>
<g><path style="opacity:1" fill="#fefbfc" d="M 430.5,405.5 C 439.9,405.114 449.234,405.614 458.5,407C 461.728,408.563 463.895,411.063 465,414.5C 465.667,435.167 465.667,455.833 465,476.5C 462.692,482.136 458.525,485.636 452.5,487C 443.494,488.959 434.494,488.959 425.5,487C 421.942,485.108 419.442,482.275 418,478.5C 417.333,458.167 417.333,437.833 418,417.5C 420.208,411.337 424.375,407.337 430.5,405.5 Z"/></g>
<g><path style="opacity:1" fill="#fefdfd" d="M 506.5,435.5 C 506.461,436.756 506.961,437.756 508,438.5C 508.5,427.505 508.667,416.505 508.5,405.5C 514.5,405.5 520.5,405.5 526.5,405.5C 526.5,432.833 526.5,460.167 526.5,487.5C 520.167,487.5 513.833,487.5 507.5,487.5C 504.034,477.103 500.367,466.769 496.5,456.5C 496.44,455.957 496.107,455.624 495.5,455.5C 494.501,466.146 494.168,476.813 494.5,487.5C 488.5,487.5 482.5,487.5 476.5,487.5C 476.5,459.833 476.5,432.167 476.5,404.5C 487.062,405.229 494.895,410.229 500,419.5C 503.015,424.525 505.182,429.858 506.5,435.5 Z"/></g>
<g><path style="opacity:1" fill="#ed8198" d="M 508.5,405.5 C 508.667,416.505 508.5,427.505 508,438.5C 506.961,437.756 506.461,436.756 506.5,435.5C 507.167,425.5 507.833,415.5 508.5,405.5 Z"/></g>
<g><path style="opacity:1" fill="#fefcfd" d="M 544.5,405.5 C 555.167,405.5 565.833,405.5 576.5,405.5C 576.5,406.833 576.5,408.167 576.5,409.5C 575.998,413.874 573.664,416.541 569.5,417.5C 564.167,417.5 558.833,417.5 553.5,417.5C 553.198,420.059 553.532,422.393 554.5,424.5C 554.859,426.371 555.859,427.871 557.5,429C 562.761,431.545 567.594,434.712 572,438.5C 572.667,452.167 572.667,465.833 572,479.5C 570.01,483.49 566.843,485.99 562.5,487C 554.841,487.5 547.174,487.666 539.5,487.5C 539.5,483.833 539.5,480.167 539.5,476.5C 544.5,476.5 549.5,476.5 554.5,476.5C 554.827,466.319 554.494,456.319 553.5,446.5C 546.401,444.575 541.234,440.242 538,433.5C 537.333,426.167 537.333,418.833 538,411.5C 539.406,408.591 541.572,406.591 544.5,405.5 Z"/></g>
<g><path style="opacity:1" fill="#e95878" d="M 594.5,405.5 C 594.833,405.5 595.167,405.5 595.5,405.5C 611.167,405.5 626.833,405.5 642.5,405.5C 642.802,408.059 642.468,410.393 641.5,412.5C 641.5,410.5 641.5,408.5 641.5,406.5C 625.658,406.83 609.991,406.496 594.5,405.5 Z"/></g>
<g><path style="opacity:1" fill="#f3a3b4" d="M 369.5,405.5 C 369.5,409.5 369.5,413.5 369.5,417.5C 373.702,417.183 377.702,417.517 381.5,418.5C 377.167,418.5 372.833,418.5 368.5,418.5C 368.182,413.968 368.515,409.634 369.5,405.5 Z"/></g>
<g><path style="opacity:1" fill="#e84b67" d="M 569.5,417.5 C 564.695,418.487 559.695,418.821 554.5,418.5C 554.5,420.5 554.5,422.5 554.5,424.5C 553.532,422.393 553.198,420.059 553.5,417.5C 558.833,417.5 564.167,417.5 569.5,417.5 Z"/></g>
<g><path style="opacity:1" fill="#dd0c33" d="M 436.5,418.5 C 440.007,417.994 443.174,418.66 446,420.5C 446.5,437.83 446.667,455.163 446.5,472.5C 442.316,473.296 439.15,471.963 437,468.5C 436.5,451.837 436.333,435.17 436.5,418.5 Z"/></g>
<g><path style="opacity:1" fill="#dd0531" d="M 248.5,417.5 C 252.007,416.994 255.174,417.66 258,419.5C 258.5,426.826 258.666,434.159 258.5,441.5C 255.167,441.5 251.833,441.5 248.5,441.5C 248.5,433.5 248.5,425.5 248.5,417.5 Z"/></g>
<g><path style="opacity:1" fill="#ec6f8a" d="M 335.5,446.5 C 336.494,456.319 336.827,466.319 336.5,476.5C 331.5,476.5 326.5,476.5 321.5,476.5C 325.97,475.514 330.637,475.181 335.5,475.5C 335.5,465.833 335.5,456.167 335.5,446.5 Z"/></g>
<g><path style="opacity:1" fill="#e4395c" d="M 553.5,446.5 C 554.494,456.319 554.827,466.319 554.5,476.5C 549.5,476.5 544.5,476.5 539.5,476.5C 543.97,475.514 548.637,475.181 553.5,475.5C 553.5,465.833 553.5,456.167 553.5,446.5 Z"/></g>
<g><path style="opacity:1" fill="#f2a4b6" d="M 496.5,456.5 C 495.833,466.833 495.167,477.167 494.5,487.5C 494.168,476.813 494.501,466.146 495.5,455.5C 496.107,455.624 496.44,455.957 496.5,456.5 Z"/></g>
<g><path style="opacity:1" fill="#f192a6" d="M 321.5,476.5 C 321.5,479.833 321.5,483.167 321.5,486.5C 329.167,486.5 336.833,486.5 344.5,486.5C 336.684,487.492 328.684,487.826 320.5,487.5C 320.185,483.629 320.518,479.962 321.5,476.5 Z"/></g>
<g><path style="opacity:1" fill="#eb6983" d="M 400.5,418.5 C 400.5,441.833 400.5,465.167 400.5,488.5C 393.978,488.823 387.645,488.49 381.5,487.5C 387.5,487.5 393.5,487.5 399.5,487.5C 399.169,464.327 399.502,441.327 400.5,418.5 Z"/></g>
<g><path style="opacity:1" fill="#dd0532" d="M 170.5,487.5 C 197.184,520.532 230.184,545.365 269.5,562C 331.581,586.952 395.581,593.286 461.5,581C 527.89,569.682 582.557,539.182 625.5,489.5C 593.68,562.484 539.68,610.651 463.5,634C 362.448,657.535 277.615,630.701 209,553.5C 192.849,533.546 180.016,511.546 170.5,487.5 Z"/></g>
</svg>
