<?xml version="1.0" encoding="UTF-8"?>
<!DOCTYPE svg PUBLIC "-//W3C//DTD SVG 1.1//EN" "http://www.w3.org/Graphics/SVG/1.1/DTD/svg11.dtd">
<svg xmlns="http://www.w3.org/2000/svg" version="1.1" width="800px" height="800px" style="shape-rendering:geometricPrecision; text-rendering:geometricPrecision; image-rendering:optimizeQuality; fill-rule:evenodd; clip-rule:evenodd" xmlns:xlink="http://www.w3.org/1999/xlink">
<g><path style="opacity:0.986" fill="#bdbfc1" d="M 377.5,84.5 C 493.447,80.9003 586.28,124.9 656,216.5C 713.953,301.825 728.62,394.159 700,493.5C 664.672,597.495 594.838,666.662 490.5,701C 380.5,730.603 281.5,709.603 193.5,638C 107.952,559.379 73.1189,462.212 89,346.5C 108.185,247.378 161.352,172.878 248.5,123C 289.062,101.615 332.062,88.7812 377.5,84.5 Z"/></g>
<g><path style="opacity:1" fill="#062e62" d="M 378.5,103.5 C 479.124,99.5085 562.29,135.175 628,210.5C 694.863,295.805 712.197,390.472 680,494.5C 642.328,596.505 570.828,661.005 465.5,688C 363.411,708.399 273.744,684.066 196.5,615C 124.058,542.345 94.2242,454.845 107,352.5C 126.956,248.232 184.789,173.398 280.5,128C 311.943,114.473 344.61,106.306 378.5,103.5 Z"/></g>
<g><path style="opacity:1" fill="#fbba30" d="M 678.5,357.5 C 678.444,362.731 679.111,367.731 680.5,372.5C 687.038,481.903 646.371,568.737 558.5,633C 486.257,679.752 408.257,692.752 324.5,672C 220.784,639.618 154.284,571.118 125,466.5C 102.678,359.154 130.512,267.321 208.5,191C 269.448,137.015 340.782,112.682 422.5,118C 531.936,130.764 610.436,186.598 658,285.5C 668.257,308.526 675.09,332.526 678.5,357.5 Z"/></g>
<g><path style="opacity:1" fill="#153060" d="M 381.5,130.5 C 384.167,130.5 386.833,130.5 389.5,130.5C 390.416,150.157 391.083,169.824 391.5,189.5C 389.167,189.5 386.833,189.5 384.5,189.5C 383.349,169.841 382.349,150.174 381.5,130.5 Z"/></g>
<g><path style="opacity:1" fill="#0e2e61" d="M 489.5,146.5 C 491.564,146.687 493.564,147.187 495.5,148C 496.108,149.231 496.441,150.564 496.5,152C 492.764,170.441 489.431,188.941 486.5,207.5C 483.525,207.287 480.858,206.287 478.5,204.5C 479.248,201.095 480.248,197.762 481.5,194.5C 478.515,192.758 475.348,191.425 472,190.5C 469.488,193.548 466.988,196.548 464.5,199.5C 462.269,199.147 460.269,198.314 458.5,197C 469.221,180.389 479.554,163.556 489.5,146.5 Z"/></g>
<g><path style="opacity:1" fill="#0e2e61" d="M 284.5,156.5 C 289.347,155.84 293.181,157.507 296,161.5C 302.078,173.99 308.411,186.323 315,198.5C 315.841,202.12 315.174,205.454 313,208.5C 307.912,211.294 302.745,213.961 297.5,216.5C 287.99,199.481 278.99,182.148 270.5,164.5C 275.229,161.806 279.896,159.14 284.5,156.5 Z"/></g>
<g><path style="opacity:1" fill="#f5b731" d="M 283.5,163.5 C 286.325,163.081 288.491,164.081 290,166.5C 295.667,177.5 301.333,188.5 307,199.5C 307.466,203.564 305.633,206.231 301.5,207.5C 293.855,194.377 286.855,180.877 280.5,167C 281.544,165.826 282.544,164.659 283.5,163.5 Z"/></g>
<g><path style="opacity:1" fill="#f0b633" d="M 485.5,165.5 C 486.097,165.735 486.43,166.235 486.5,167C 485.223,173.942 483.556,180.775 481.5,187.5C 478.912,186.806 476.579,185.64 474.5,184C 478.567,178.026 482.234,171.859 485.5,165.5 Z"/></g>
<g><path style="opacity:1" fill="#072e62" d="M 379.5,202.5 C 461.511,198.748 524.011,231.415 567,300.5C 595.35,352.986 600.35,407.652 582,464.5C 554.203,538.326 501.369,581.826 423.5,595C 341.468,601.566 278.301,570.399 234,501.5C 202.624,444.153 198.291,384.82 221,323.5C 252.022,254.65 304.855,214.317 379.5,202.5 Z"/></g>
<g><path style="opacity:1" fill="#0d2e61" d="M 581.5,204.5 C 584.244,205.072 585.077,206.738 584,209.5C 579.382,219.049 575.382,228.716 572,238.5C 579.47,232.032 586.636,225.198 593.5,218C 595.92,218.372 597.92,219.705 599.5,222C 585.318,235.683 570.984,249.183 556.5,262.5C 555.167,261.833 554.167,260.833 553.5,259.5C 558.008,249.504 562.175,239.504 566,229.5C 558.864,235.635 552.031,242.135 545.5,249C 543.08,248.628 541.08,247.295 539.5,245C 553.699,231.633 567.699,218.133 581.5,204.5 Z"/></g>
<g><path style="opacity:1" fill="#fefefe" d="M 385.5,214.5 C 462.676,212.988 520.509,245.321 559,311.5C 588.394,372.294 587.394,432.627 556,492.5C 515.228,557.972 456.061,588.139 378.5,583C 318.229,573.639 272.729,542.805 242,490.5C 205.299,417 211.299,347.333 260,281.5C 293.017,242.74 334.85,220.407 385.5,214.5 Z"/></g>
<g><path style="opacity:1" fill="#0e2e61" d="M 212.5,256.5 C 211.749,255.427 210.749,255.26 209.5,256C 210.044,256.717 210.711,257.217 211.5,257.5C 218.507,263.002 225.674,268.335 233,273.5C 233.162,276.166 231.995,278.166 229.5,279.5C 214.191,268.025 199.024,256.358 184,244.5C 183.462,242.527 184.296,241.527 186.5,241.5C 197.175,244.337 207.841,246.837 218.5,249C 210.167,242.667 201.833,236.333 193.5,230C 194.88,228.075 196.38,226.241 198,224.5C 213.154,236.409 228.487,248.076 244,259.5C 244.492,261.825 243.492,263.158 241,263.5C 231.463,261.241 221.963,258.907 212.5,256.5 Z"/></g>
<g><path style="opacity:1" fill="#766e4b" d="M 212.5,256.5 C 211.833,256.5 211.5,256.833 211.5,257.5C 210.711,257.217 210.044,256.717 209.5,256C 210.749,255.26 211.749,255.427 212.5,256.5 Z"/></g>
<g><path style="opacity:1" fill="#babdbf" d="M 341.5,285.5 C 382.835,285.333 424.168,285.5 465.5,286C 495.9,291.395 518.067,307.895 532,335.5C 547.832,376.335 539.665,411.502 507.5,441C 491.306,453.307 472.972,459.974 452.5,461C 435.5,461.333 418.5,461.667 401.5,462C 397.322,477.704 393.655,493.537 390.5,509.5C 358.167,509.5 325.833,509.5 293.5,509.5C 309.292,434.791 325.292,360.124 341.5,285.5 Z"/></g>
<g><path style="opacity:1" fill="#062d61" d="M 321.5,419.5 C 349.502,419.333 377.502,419.5 405.5,420C 413.676,424.588 422.009,428.922 430.5,433C 439.618,436.563 448.285,435.563 456.5,430C 470.985,420.352 480.651,407.185 485.5,390.5C 475.446,391.693 466.78,395.86 459.5,403C 445.656,409.961 430.989,413.794 415.5,414.5C 384.493,414.833 353.493,414.5 322.5,413.5C 325.156,403.89 327.489,394.223 329.5,384.5C 330.404,383.791 330.737,382.791 330.5,381.5C 347.833,381.5 365.167,381.5 382.5,381.5C 384.679,381.84 386.512,382.84 388,384.5C 389.998,389.822 391.998,395.155 394,400.5C 399.409,407.868 406.743,411.202 416,410.5C 426.435,409.684 436.602,407.517 446.5,404C 456.331,398.586 465.998,392.919 475.5,387C 479.152,386.501 482.818,386.335 486.5,386.5C 487.114,382.865 487.448,379.198 487.5,375.5C 435.5,375.5 383.5,375.5 331.5,375.5C 334.048,364.215 336.381,352.882 338.5,341.5C 353.833,341.5 369.167,341.5 384.5,341.5C 387.643,342.134 390.143,343.8 392,346.5C 391.081,352.292 389.914,358.125 388.5,364C 388.185,366.704 389.185,368.704 391.5,370C 423.498,370.5 455.498,370.667 487.5,370.5C 487.777,367.552 487.444,364.719 486.5,362C 482.75,361.74 479.084,361.073 475.5,360C 466.665,354.415 457.665,349.081 448.5,344C 442.028,341.382 435.362,339.382 428.5,338C 399.196,336.567 369.863,336.067 340.5,336.5C 343.486,322.557 346.153,308.557 348.5,294.5C 386.501,294.333 424.501,294.5 462.5,295C 499.017,301.33 521.517,322.497 530,358.5C 534.404,395.856 520.571,424.022 488.5,443C 480.497,446.668 472.163,449.334 463.5,451C 440.536,452.27 417.536,452.936 394.5,453C 389.809,468.596 386.143,484.429 383.5,500.5C 357.167,500.5 330.833,500.5 304.5,500.5C 309.951,473.473 315.618,446.473 321.5,419.5 Z"/></g>
<g><path style="opacity:1" fill="#f8b831" d="M 439.5,310.5 C 448.295,310.896 455.962,314.063 462.5,320C 473.795,329.589 481.295,341.422 485,355.5C 482.936,356.591 480.769,356.758 478.5,356C 471.9,352.395 465.566,348.395 459.5,344C 442.667,334.95 424.667,330.45 405.5,330.5C 414.73,320.22 426.063,313.553 439.5,310.5 Z"/></g>
<g><path style="opacity:1" fill="#112e61" d="M 643.5,310.5 C 645.833,310.5 648.167,310.5 650.5,310.5C 652.463,314.326 651.796,317.493 648.5,320C 632.253,328.706 616.087,337.54 600,346.5C 597.803,343.895 597.303,341.061 598.5,338C 602.016,336.932 604.683,334.932 606.5,332C 605.725,329.178 605.058,326.344 604.5,323.5C 600.147,324.059 595.814,324.725 591.5,325.5C 591.167,322.833 590.833,320.167 590.5,317.5C 608.397,315.889 626.063,313.556 643.5,310.5 Z"/></g>
<g><path style="opacity:1" fill="#f7b831" d="M 458.5,311.5 C 474.349,312.84 487.849,319.506 499,331.5C 504.492,341.529 501.992,349.196 491.5,354.5C 486.18,340.66 478.18,328.493 467.5,318C 464.621,315.615 461.621,313.448 458.5,311.5 Z"/></g>
<g><path style="opacity:1" fill="#ebb234" d="M 628.5,319.5 C 630.199,319.34 631.866,319.506 633.5,320C 627.023,323.74 620.356,327.24 613.5,330.5C 611.713,328.142 610.713,325.475 610.5,322.5C 616.69,321.857 622.69,320.857 628.5,319.5 Z"/></g>
<g><path style="opacity:1" fill="#152f61" d="M 142.5,330.5 C 161.65,334.204 180.65,338.704 199.5,344C 200.333,346.081 200.333,348.248 199.5,350.5C 179.845,346.971 160.512,342.304 141.5,336.5C 142.348,334.591 142.682,332.591 142.5,330.5 Z"/></g>
<g><path style="opacity:1" fill="#fcba30" d="M 340.5,336.5 C 369.863,336.067 399.196,336.567 428.5,338C 435.362,339.382 442.028,341.382 448.5,344C 457.665,349.081 466.665,354.415 475.5,360C 479.084,361.073 482.75,361.74 486.5,362C 487.444,364.719 487.777,367.552 487.5,370.5C 455.498,370.667 423.498,370.5 391.5,370C 389.185,368.704 388.185,366.704 388.5,364C 389.914,358.125 391.081,352.292 392,346.5C 390.143,343.8 387.643,342.134 384.5,341.5C 369.305,341.161 354.305,340.161 339.5,338.5C 339.328,337.508 339.662,336.842 340.5,336.5 Z"/></g>
<g><path style="opacity:1" fill="#ca9f3d" d="M 339.5,338.5 C 354.305,340.161 369.305,341.161 384.5,341.5C 369.167,341.5 353.833,341.5 338.5,341.5C 338.263,340.209 338.596,339.209 339.5,338.5 Z"/></g>
<g><path style="opacity:1" fill="#f7b931" d="M 506.5,345.5 C 509.937,348.701 512.104,352.701 513,357.5C 514.075,361.77 514.575,366.103 514.5,370.5C 507.167,370.5 499.833,370.5 492.5,370.5C 492.335,366.818 492.501,363.152 493,359.5C 499.049,356.285 503.549,351.618 506.5,345.5 Z"/></g>
<g><path style="opacity:1" fill="#b08f43" d="M 678.5,357.5 C 679.889,362.269 680.556,367.269 680.5,372.5C 679.111,367.731 678.444,362.731 678.5,357.5 Z"/></g>
<g><path style="opacity:1" fill="#faba30" d="M 331.5,375.5 C 383.5,375.5 435.5,375.5 487.5,375.5C 487.448,379.198 487.114,382.865 486.5,386.5C 482.818,386.335 479.152,386.501 475.5,387C 465.998,392.919 456.331,398.586 446.5,404C 436.602,407.517 426.435,409.684 416,410.5C 406.743,411.202 399.409,407.868 394,400.5C 391.998,395.155 389.998,389.822 388,384.5C 386.512,382.84 384.679,381.84 382.5,381.5C 365.341,380.503 348.008,380.17 330.5,380.5C 330.629,378.784 330.962,377.117 331.5,375.5 Z"/></g>
<g><path style="opacity:1" fill="#f7b831" d="M 493.5,375.5 C 500.5,375.5 507.5,375.5 514.5,375.5C 514.205,384.718 511.872,393.384 507.5,401.5C 503.504,395.338 498.337,390.338 492,386.5C 491.657,382.715 492.157,379.048 493.5,375.5 Z"/></g>
<g><path style="opacity:1" fill="#28425e" d="M 330.5,380.5 C 348.008,380.17 365.341,380.503 382.5,381.5C 365.167,381.5 347.833,381.5 330.5,381.5C 330.737,382.791 330.404,383.791 329.5,384.5C 329.232,382.901 329.566,381.568 330.5,380.5 Z"/></g>
<g><path style="opacity:1" fill="#f9b931" d="M 321.5,419.5 C 321.33,418.178 321.663,417.011 322.5,416C 353.669,415.832 384.669,415.332 415.5,414.5C 430.989,413.794 445.656,409.961 459.5,403C 466.78,395.86 475.446,391.693 485.5,390.5C 480.651,407.185 470.985,420.352 456.5,430C 448.285,435.563 439.618,436.563 430.5,433C 422.009,428.922 413.676,424.588 405.5,420C 377.502,419.5 349.502,419.333 321.5,419.5 Z"/></g>
<g><path style="opacity:1" fill="#f6b831" d="M 489.5,392.5 C 499.057,395.233 503.223,401.566 502,411.5C 490.598,425.917 475.765,433.751 457.5,435C 473.698,424.973 484.364,410.806 489.5,392.5 Z"/></g>
<g><path style="opacity:1" fill="#0f2e61" d="M 210.5,489.5 C 211.376,489.369 212.043,489.702 212.5,490.5C 215.535,495.708 218.368,501.041 221,506.5C 221.896,509.025 221.396,511.192 219.5,513C 210.573,517.38 201.74,521.88 193,526.5C 191.527,526.097 190.194,525.43 189,524.5C 187.322,520.468 185.156,516.801 182.5,513.5C 176.833,516.333 171.167,519.167 165.5,522C 164.216,522.684 163.049,522.517 162,521.5C 161.293,519.919 160.46,518.419 159.5,517C 176.562,507.805 193.562,498.638 210.5,489.5 Z"/></g>
<g><path style="opacity:1" fill="#f5b831" d="M 207.5,499.5 C 208.822,499.33 209.989,499.663 211,500.5C 212.59,502.65 213.257,504.983 213,507.5C 207.087,510.54 201.253,513.706 195.5,517C 194.365,517.749 193.365,517.583 192.5,516.5C 190.793,514.358 189.959,512.025 190,509.5C 195.815,506.013 201.648,502.68 207.5,499.5 Z"/></g>
<g><path style="opacity:1" fill="#102e61" d="M 578.5,506.5 C 584.148,507.826 589.148,510.492 593.5,514.5C 592.444,516.646 590.944,518.312 589,519.5C 586.333,518.167 583.667,516.833 581,515.5C 576.279,518.963 576.779,521.796 582.5,524C 584.87,525.036 587.37,525.536 590,525.5C 596.821,524.578 603.654,524.412 610.5,525C 616.423,527.876 621.923,531.376 627,535.5C 626.242,542.186 623.409,548.02 618.5,553C 617.167,553.667 615.833,553.667 614.5,553C 609.774,550.31 605.44,547.144 601.5,543.5C 602.185,541.453 603.351,539.786 605,538.5C 608.656,540.818 612.323,543.151 616,545.5C 617.602,543.631 618.602,541.631 619,539.5C 615.747,537.457 612.58,535.29 609.5,533C 600.505,533.133 591.505,533.133 582.5,533C 578.247,530.29 574.08,527.457 570,524.5C 570.894,517.706 573.728,511.706 578.5,506.5 Z"/></g>
<g><path style="opacity:1" fill="#0e2e61" d="M 268.5,564.5 C 270.764,565.581 272.931,566.915 275,568.5C 266.702,586.76 257.536,604.76 247.5,622.5C 245.46,620.823 243.46,619.156 241.5,617.5C 243.375,614.249 245.375,611.082 247.5,608C 244.656,605.819 241.822,603.653 239,601.5C 236.011,603.819 233.011,606.153 230,608.5C 227.876,607.378 226.043,605.878 224.5,604C 239.66,591.338 254.326,578.171 268.5,564.5 Z"/></g>
<g><path style="opacity:1" fill="#0f2e61" d="M 520.5,570.5 C 523.652,569.959 526.152,570.959 528,573.5C 533.021,579.845 537.188,586.678 540.5,594C 539.844,595.909 539.344,597.742 539,599.5C 545.5,605.333 552,611.167 558.5,617C 556.679,618.743 554.679,620.243 552.5,621.5C 543.357,614.855 535.024,607.355 527.5,599C 528.868,597.127 530.534,595.46 532.5,594C 529.209,589.252 526.042,584.419 523,579.5C 522.282,578.549 521.449,578.383 520.5,579C 518.269,580.61 516.269,582.443 514.5,584.5C 524.414,598.661 534.081,612.994 543.5,627.5C 541.772,629.226 539.772,630.559 537.5,631.5C 526.252,615.339 515.252,599.006 504.5,582.5C 510.159,578.829 515.492,574.829 520.5,570.5 Z"/></g>
<g><path style="opacity:1" fill="#f2b732" d="M 260.5,581.5 C 261.043,581.56 261.376,581.893 261.5,582.5C 258.086,588.997 254.419,595.33 250.5,601.5C 249.3,600.469 247.966,599.635 246.5,599C 244.993,598.163 244.493,596.996 245,595.5C 250.362,590.968 255.528,586.301 260.5,581.5 Z"/></g>
<g><path style="opacity:1" fill="#132f61" d="M 341.5,603.5 C 347.761,605.148 354.094,606.648 360.5,608C 361,608.5 361.5,609 362,609.5C 361.835,614.518 361.168,619.518 360,624.5C 357.646,624.892 355.146,624.892 352.5,624.5C 352.848,620.443 353.514,616.443 354.5,612.5C 351.934,612.656 349.434,612.322 347,611.5C 346.055,611.905 345.388,612.572 345,613.5C 341.841,625.804 338.841,638.137 336,650.5C 335.242,652.769 335.409,654.936 336.5,657C 339.117,657.822 341.784,658.322 344.5,658.5C 344.779,653.773 345.446,649.107 346.5,644.5C 349.363,644.929 352.029,645.929 354.5,647.5C 352.872,653.536 350.872,659.37 348.5,665C 341.617,664.948 334.95,663.614 328.5,661C 327.427,659.687 326.76,658.187 326.5,656.5C 330.493,640.863 334.326,625.196 338,609.5C 338.564,607.113 339.73,605.113 341.5,603.5 Z"/></g>
<g><path style="opacity:1" fill="#0f2e61" d="M 444.5,606.5 C 446.344,608.279 447.01,610.612 446.5,613.5C 442.802,613.552 439.135,613.886 435.5,614.5C 436.608,620.814 437.608,627.147 438.5,633.5C 442.238,632.921 445.904,632.921 449.5,633.5C 450.309,635.071 450.643,636.738 450.5,638.5C 447.167,638.833 443.833,639.167 440.5,639.5C 441.592,646.479 442.592,653.479 443.5,660.5C 447.452,659.728 451.452,659.395 455.5,659.5C 455.357,661.262 455.691,662.929 456.5,664.5C 450.522,665.962 444.522,667.296 438.5,668.5C 434.006,649.067 430.34,629.401 427.5,609.5C 433.358,608.859 439.025,607.859 444.5,606.5 Z"/></g>
</svg>
