<?xml version="1.0" encoding="UTF-8"?>
<!DOCTYPE svg PUBLIC "-//W3C//DTD SVG 1.1//EN" "http://www.w3.org/Graphics/SVG/1.1/DTD/svg11.dtd">
<svg xmlns="http://www.w3.org/2000/svg" version="1.1" width="1200px" height="1200px" style="shape-rendering:geometricPrecision; text-rendering:geometricPrecision; image-rendering:optimizeQuality; fill-rule:evenodd; clip-rule:evenodd" xmlns:xlink="http://www.w3.org/1999/xlink">
<g><path style="opacity:0.978" fill="#6f7170" d="M 354.5,87.5 C 386.31,84.0529 414.644,92.2195 439.5,112C 445.613,117.736 451.613,123.569 457.5,129.5C 506.587,123.154 554.087,129.154 600,147.5C 645.559,129.047 692.725,123.047 741.5,129.5C 785.06,82.8253 835.06,74.6587 891.5,105C 937.228,135.641 955.062,178.141 945,232.5C 942.386,241.059 939.219,249.392 935.5,257.5C 960.876,293.93 978.376,333.93 988,377.5C 998.481,428.441 992.148,477.108 969,523.5C 963.239,533.357 956.739,542.69 949.5,551.5C 946.484,548.651 943.65,545.651 941,542.5C 919.62,593.423 887.453,636.256 844.5,671C 825.356,685.409 805.356,698.576 784.5,710.5C 783.492,705.469 782.326,700.469 781,695.5C 768.306,706.761 754.806,716.927 740.5,726C 718.296,738.601 695.962,750.935 673.5,763C 645.651,780.671 620.985,802.171 599.5,827.5C 578.727,803.218 555.061,782.385 528.5,765C 503.338,751.253 478.338,737.253 453.5,723C 441.095,714.598 429.262,705.431 418,695.5C 416.368,700.03 415.368,704.696 415,709.5C 379.248,690.838 346.915,666.838 318,637.5C 292.213,609.618 272.213,577.951 258,542.5C 255,545.5 252,548.5 249,551.5C 215.827,508.955 201.827,460.621 207,406.5C 212.995,351.503 232.161,301.67 264.5,257C 244.052,216.656 246.219,177.489 271,139.5C 292.117,111.359 319.95,94.026 354.5,87.5 Z"/></g>
<g><path style="opacity:1" fill="#12173f" d="M 358.5,105.5 C 384.025,103.401 407.025,109.901 427.5,125C 435.74,132.352 443.406,140.185 450.5,148.5C 501.635,141.163 551.135,147.163 599,166.5C 646.643,147.001 695.977,141.001 747,148.5C 753.196,143.474 759.03,137.808 764.5,131.5C 794.468,104.236 828.468,98.0694 866.5,113C 912.24,133.991 933.073,169.491 929,219.5C 926.087,233.409 920.92,246.409 913.5,258.5C 947.275,303.641 967.442,354.308 974,410.5C 976.992,447.556 969.992,482.556 953,515.5C 951.5,517.667 950,519.833 948.5,522C 947.5,522.667 946.5,522.667 945.5,522C 940.985,517.652 936.651,513.152 932.5,508.5C 909.389,582.767 864.722,640.101 798.5,680.5C 796.358,673.639 794.524,666.639 793,659.5C 771.754,681.762 747.921,700.595 721.5,716C 694.181,730.322 667.514,745.656 641.5,762C 626.407,773.259 612.407,785.759 599.5,799.5C 580.622,779.235 559.289,762.068 535.5,748C 505.85,732.848 477.184,716.181 449.5,698C 434.093,686.098 419.426,673.265 405.5,659.5C 404.11,666.56 402.443,673.56 400.5,680.5C 334.528,640.695 290.028,584.028 267,510.5C 266.282,509.549 265.449,509.383 264.5,510C 260.5,514 256.5,518 252.5,522C 251.833,522.667 251.167,522.667 250.5,522C 237.795,502.735 229.962,481.568 227,458.5C 221.328,408.861 229.328,361.528 251,316.5C 260.737,296.01 272.237,276.677 285.5,258.5C 257.986,210.586 264.319,167.752 304.5,130C 320.47,117.179 338.47,109.012 358.5,105.5 Z"/></g>
<g><path style="opacity:1" fill="#5c75a8" d="M 357.5,138.5 C 378.356,136.62 396.69,142.453 412.5,156C 422.404,165.358 431.237,175.525 439,186.5C 446.978,183.971 455.145,182.471 463.5,182C 509.703,179.479 554.703,185.645 598.5,200.5C 624.232,189.854 650.899,182.687 678.5,179C 706.904,176.137 734.571,179.304 761.5,188.5C 766.311,182.244 771.144,175.91 776,169.5C 803.49,139.677 835.323,134.177 871.5,153C 823.244,146.706 790.411,166.206 773,211.5C 769.917,216.588 766.083,221.088 761.5,225C 747.167,234.502 732.501,243.502 717.5,252C 705.926,262.967 697.759,276.134 693,291.5C 689.969,300.66 687.969,309.993 687,319.5C 708.676,309.165 731.509,304.665 755.5,306C 776.575,309.58 796.242,316.914 814.5,328C 803.934,326.129 793.267,324.462 782.5,323C 746.485,318.256 713.485,325.922 683.5,346C 669.792,358.043 655.792,369.71 641.5,381C 631.008,387.065 620.675,386.899 610.5,380.5C 610.167,378.167 609.833,375.833 609.5,373.5C 606.713,328.391 603.213,283.391 599,238.5C 595.613,285.473 592.613,332.473 590,379.5C 578.914,387.176 567.748,387.343 556.5,380C 542.459,367.624 528.126,355.624 513.5,344C 488.392,328.642 461.059,321.475 431.5,322.5C 416.552,322.047 401.885,323.88 387.5,328C 405.138,328.494 422.138,331.994 438.5,338.5C 440.148,353.124 444.648,366.791 452,379.5C 458.13,389.146 466.63,395.479 477.5,398.5C 471.052,426.468 468.219,454.802 469,483.5C 472.895,548.515 490.561,609.515 522,666.5C 527.823,676.656 536.323,683.489 547.5,687C 564.478,691.961 581.811,693.794 599.5,692.5C 599.667,712.503 599.5,732.503 599,752.5C 594.075,745.573 587.908,740.073 580.5,736C 559.275,723.887 537.608,712.553 515.5,702C 466.311,671.835 422.811,634.668 385,590.5C 383.412,600.873 381.578,611.206 379.5,621.5C 362.896,610.397 348.73,596.73 337,580.5C 319.895,554.622 306.228,526.955 296,497.5C 291.2,482.266 286.7,466.933 282.5,451.5C 276.523,459.311 270.356,466.978 264,474.5C 253.097,438.291 252.764,401.958 263,365.5C 275.068,325.351 294.901,289.684 322.5,258.5C 316.381,245.975 311.547,232.975 308,219.5C 300.517,177.543 317.017,150.543 357.5,138.5 Z"/></g>
<g><path style="opacity:1" fill="#121840" d="M 358.5,164.5 C 375.198,163.233 389.865,168.066 402.5,179C 408.167,183.333 413.167,188.333 417.5,194C 393.542,202.81 371.876,215.477 352.5,232C 347.017,236.649 341.684,241.482 336.5,246.5C 335.304,239.614 336.804,233.281 341,227.5C 345.758,220.738 351.258,214.571 357.5,209C 353.649,205.123 348.983,203.623 343.5,204.5C 338.932,204.038 334.765,205.038 331,207.5C 332.83,201.309 336.663,196.476 342.5,193C 349.862,188.211 357.862,186.545 366.5,188C 371.627,188.87 376.627,189.87 381.5,191C 376.316,185.238 369.982,181.238 362.5,179C 355.263,177.301 347.929,176.135 340.5,175.5C 345.604,170.285 351.604,166.619 358.5,164.5 Z"/></g>
<g><path style="opacity:1" fill="#5c75a8" d="M 485.5,351.5 C 485.103,363.588 488.27,374.588 495,384.5C 498.606,388.052 502.773,390.719 507.5,392.5C 511.881,384.761 518.214,379.761 526.5,377.5C 538.086,388.302 551.086,397.135 565.5,404C 576.289,408.949 587.623,410.782 599.5,409.5C 599.5,450.5 599.5,491.5 599.5,532.5C 580.73,530.072 563.063,533.238 546.5,542C 540.617,545.772 537.617,551.105 537.5,558C 539.021,570.854 544.188,582.021 553,591.5C 555,587.5 557,583.5 559,579.5C 561.094,576.897 563.594,574.897 566.5,573.5C 567.938,573.719 569.271,574.219 570.5,575C 581.125,585.285 590.625,596.452 599,608.5C 599.5,619.161 599.667,629.828 599.5,640.5C 576.714,640.258 554.38,643.258 532.5,649.5C 527.226,638.597 522.726,627.264 519,615.5C 503.621,565.169 498.954,513.835 505,461.5C 508.41,438.939 513.91,416.939 521.5,395.5C 498.751,399.542 482.251,391.209 472,370.5C 468.67,362.678 465.837,354.678 463.5,346.5C 471.56,345.174 478.893,346.841 485.5,351.5 Z"/></g>
<g><path style="opacity:1" fill="#5b74a7" d="M 675.5,377.5 C 684.349,379.319 691.015,384.319 695.5,392.5C 705.63,388.87 712.13,381.87 715,371.5C 715.828,367.534 716.328,363.534 716.5,359.5C 717.473,357.052 717.806,354.385 717.5,351.5C 724.12,348.705 731.12,347.039 738.5,346.5C 736.362,364.28 728.362,378.78 714.5,390C 706.793,394.625 698.459,397.125 689.5,397.5C 699.958,427.668 706.791,458.668 710,490.5C 713.325,538.222 705.325,583.889 686,627.5C 682.508,635.153 678.508,642.487 674,649.5C 677.827,635.875 681.827,622.208 686,608.5C 700.88,549.186 699.88,490.186 683,431.5C 679.518,420.862 675.185,410.529 670,400.5C 662.579,399.684 655.079,399.184 647.5,399C 657.481,392.528 666.815,385.362 675.5,377.5 Z"/></g>
<g><path style="opacity:1" fill="#b89a55" d="M 715.5,352.5 C 715.842,351.662 716.508,351.328 717.5,351.5C 717.806,354.385 717.473,357.052 716.5,359.5C 716.802,356.941 716.468,354.607 715.5,352.5 Z"/></g>
<g><path style="opacity:1" fill="#fab926" d="M 715.5,352.5 C 716.468,354.607 716.802,356.941 716.5,359.5C 716.328,363.534 715.828,367.534 715,371.5C 712.13,381.87 705.63,388.87 695.5,392.5C 691.015,384.319 684.349,379.319 675.5,377.5C 687.296,366.703 700.63,358.37 715.5,352.5 Z"/></g>
<g><path style="opacity:1" fill="#fab926" d="M 485.5,351.5 C 500.241,358.594 513.908,367.261 526.5,377.5C 518.214,379.761 511.881,384.761 507.5,392.5C 502.773,390.719 498.606,388.052 495,384.5C 488.27,374.588 485.103,363.588 485.5,351.5 Z"/></g>
<g><path style="opacity:1" fill="#5971a4" d="M 607.5,533.5 C 624.409,531.397 640.742,533.897 656.5,541C 666.498,546.956 669.331,555.456 665,566.5C 661.203,574.635 656.203,581.968 650,588.5C 652.578,583.343 655.245,578.01 658,572.5C 662.654,558.997 658.821,548.83 646.5,542C 634.079,536.549 621.079,533.716 607.5,533.5 Z"/></g>
<g><path style="opacity:1" fill="#5b74a7" d="M 571.5,655.5 C 601.211,653.727 630.544,656.06 659.5,662.5C 659.66,664.199 659.494,665.866 659,667.5C 656.204,669.886 653.037,671.719 649.5,673C 619.262,678.071 588.929,678.738 558.5,675C 553.833,673.667 549.167,672.333 544.5,671C 539.576,669.125 537.576,665.792 538.5,661C 540.5,660.333 542.5,659.667 544.5,659C 553.664,657.951 562.664,656.784 571.5,655.5 Z"/></g>
<g><path style="opacity:0.993" fill="#12173f" d="M 309.5,1007.5 C 309.667,972.165 309.5,936.832 309,901.5C 305.833,893 300,887.167 291.5,884C 257.835,883.5 224.168,883.333 190.5,883.5C 190.5,924.5 190.5,965.5 190.5,1006.5C 190.5,1006.83 190.5,1007.17 190.5,1007.5C 185.5,1007.5 180.5,1007.5 175.5,1007.5C 175.5,961.167 175.5,914.833 175.5,868.5C 214.835,868.333 254.168,868.5 293.5,869C 309.667,873.167 319.833,883.333 324,899.5C 324.5,935.498 324.667,971.498 324.5,1007.5C 319.5,1007.5 314.5,1007.5 309.5,1007.5 Z"/></g>
<g><path style="opacity:0.977" fill="#12173f" d="M 446.5,883.5 C 416.167,883.5 385.833,883.5 355.5,883.5C 355.5,919.833 355.5,956.167 355.5,992.5C 385.671,992.831 415.671,992.498 445.5,991.5C 445.833,991.5 446.167,991.5 446.5,991.5C 446.5,996.833 446.5,1002.17 446.5,1007.5C 411.167,1007.5 375.833,1007.5 340.5,1007.5C 340.5,960.833 340.5,914.167 340.5,867.5C 375.502,867.333 410.502,867.5 445.5,868C 446.471,873.072 446.805,878.238 446.5,883.5 Z"/></g>
<g><path style="opacity:0.985" fill="#12173f" d="M 595.5,1007.5 C 595.667,972.165 595.5,936.832 595,901.5C 592.167,892.667 586.333,886.833 577.5,884C 543.835,883.5 510.168,883.333 476.5,883.5C 476.5,924.5 476.5,965.5 476.5,1006.5C 476.5,1006.83 476.5,1007.17 476.5,1007.5C 471.5,1007.5 466.5,1007.5 461.5,1007.5C 461.5,961.167 461.5,914.833 461.5,868.5C 500.835,868.333 540.168,868.5 579.5,869C 596.116,873.282 606.282,883.782 610,900.5C 610.5,936.165 610.667,971.832 610.5,1007.5C 605.5,1007.5 600.5,1007.5 595.5,1007.5 Z"/></g>
<g><path style="opacity:0.982" fill="#12173f" d="M 644.5,1007.5 C 644.5,987.5 644.5,967.5 644.5,947.5C 661.503,947.667 678.503,947.5 695.5,947C 704.372,945.134 710.538,939.967 714,931.5C 715.526,921.885 715.859,912.219 715,902.5C 712.715,894.549 707.881,888.715 700.5,885C 680.888,883.549 661.221,883.049 641.5,883.5C 641.5,924.5 641.5,965.5 641.5,1006.5C 641.5,1006.83 641.5,1007.17 641.5,1007.5C 636.5,1007.5 631.5,1007.5 626.5,1007.5C 626.5,960.833 626.5,914.167 626.5,867.5C 651.205,867.059 675.871,867.559 700.5,869C 722.405,876.611 732.405,892.111 730.5,915.5C 732.267,934.801 724.934,949.301 708.5,959C 705.595,960.286 702.595,961.286 699.5,962C 686.171,962.5 672.837,962.667 659.5,962.5C 659.5,977.5 659.5,992.5 659.5,1007.5C 654.5,1007.5 649.5,1007.5 644.5,1007.5 Z M 659.5,900.5 C 671.091,901.312 682.758,901.812 694.5,902C 695.701,902.903 696.535,904.069 697,905.5C 697.667,912.167 697.667,918.833 697,925.5C 696.5,927.333 695.333,928.5 693.5,929C 682.172,929.5 670.838,929.667 659.5,929.5C 659.5,919.833 659.5,910.167 659.5,900.5 Z"/></g>
<g><path style="opacity:0.98" fill="#131840" d="M 759.5,867.5 C 759.5,914.167 759.5,960.833 759.5,1007.5C 754.167,1007.5 748.833,1007.5 743.5,1007.5C 743.333,961.165 743.5,914.832 744,868.5C 749.072,867.529 754.238,867.195 759.5,867.5 Z"/></g>
<g><path style="opacity:0.975" fill="#131840" d="M 832.5,867.5 C 837.5,867.5 842.5,867.5 847.5,867.5C 847.5,914.167 847.5,960.833 847.5,1007.5C 842.5,1007.5 837.5,1007.5 832.5,1007.5C 832.5,960.833 832.5,914.167 832.5,867.5 Z"/></g>
<g><path style="opacity:0.971" fill="#121740" d="M 882.5,867.5 C 882.5,914.167 882.5,960.833 882.5,1007.5C 877.5,1007.5 872.5,1007.5 867.5,1007.5C 867.5,960.833 867.5,914.167 867.5,867.5C 872.5,867.5 877.5,867.5 882.5,867.5 Z"/></g>
<g><path style="opacity:0.991" fill="#11173e" d="M 884.5,867.5 C 889.762,867.195 894.928,867.529 900,868.5C 900.5,914.832 900.667,961.165 900.5,1007.5C 895.5,1007.5 890.5,1007.5 885.5,1007.5C 885.828,960.761 885.495,914.095 884.5,867.5 Z"/></g>
<g><path style="opacity:0.979" fill="#12173f" d="M 1008.5,914.5 C 1008.5,903.833 1008.5,893.167 1008.5,882.5C 990.326,882.17 972.326,882.503 954.5,883.5C 944.655,884.832 937.821,890.166 934,899.5C 933.333,906.833 933.333,914.167 934,921.5C 935.068,926.235 937.901,929.402 942.5,931C 960.701,937.067 979.035,942.734 997.5,948C 1003.85,951.027 1006.51,956.027 1005.5,963C 1006.28,976.969 999.952,985.469 986.5,988.5C 969.833,988.5 953.167,988.5 936.5,988.5C 936.826,979.651 936.493,970.984 935.5,962.5C 935.5,962.167 935.5,961.833 935.5,961.5C 940.5,961.5 945.5,961.5 950.5,961.5C 950.5,965.833 950.5,970.167 950.5,974.5C 962.372,974.803 974.205,974.469 986,973.5C 987.987,972.846 989.32,971.513 990,969.5C 990.818,966.773 990.652,964.106 989.5,961.5C 971.585,955.695 953.585,950.195 935.5,945C 923.023,938.053 917.023,927.386 917.5,913C 917.281,888.22 929.281,873.22 953.5,868C 976.831,867.5 1000.16,867.333 1023.5,867.5C 1023.5,883.167 1023.5,898.833 1023.5,914.5C 1018.5,914.5 1013.5,914.5 1008.5,914.5 Z"/></g>
<g><path style="opacity:1" fill="#546b9c" d="M 882.5,867.5 C 883.167,867.5 883.833,867.5 884.5,867.5C 885.495,914.095 885.828,960.761 885.5,1007.5C 884.5,1007.5 883.5,1007.5 882.5,1007.5C 882.5,960.833 882.5,914.167 882.5,867.5 Z"/></g>
<g><path style="opacity:1" fill="#556d9e" d="M 309.5,1007.5 C 308.5,1007.5 307.5,1007.5 306.5,1007.5C 306.974,971.118 306.474,934.785 305,898.5C 302.438,892.939 298.272,889.106 292.5,887C 278.837,886.5 265.171,886.333 251.5,886.5C 251.5,926.833 251.5,967.167 251.5,1007.5C 250.5,1007.5 249.5,1007.5 248.5,1007.5C 248.5,967.167 248.5,926.833 248.5,886.5C 230.167,886.5 211.833,886.5 193.5,886.5C 193.165,926.677 192.165,966.677 190.5,1006.5C 190.5,965.5 190.5,924.5 190.5,883.5C 224.168,883.333 257.835,883.5 291.5,884C 300,887.167 305.833,893 309,901.5C 309.5,936.832 309.667,972.165 309.5,1007.5 Z"/></g>
<g><path style="opacity:0.978" fill="#3a4a78" d="M 954.5,883.5 C 972.326,882.503 990.326,882.17 1008.5,882.5C 1008.5,893.167 1008.5,903.833 1008.5,914.5C 1007.5,914.5 1006.5,914.5 1005.5,914.5C 1005.5,914.167 1005.5,913.833 1005.5,913.5C 1007.47,903.889 1008.14,893.889 1007.5,883.5C 989.833,883.5 972.167,883.5 954.5,883.5 Z"/></g>
<g><path style="opacity:1" fill="#415381" d="M 193.5,886.5 C 193.5,926.833 193.5,967.167 193.5,1007.5C 192.5,1007.5 191.5,1007.5 190.5,1007.5C 190.5,1007.17 190.5,1006.83 190.5,1006.5C 192.165,966.677 193.165,926.677 193.5,886.5 Z"/></g>
<g><path style="opacity:0.982" fill="#11163e" d="M 193.5,886.5 C 211.833,886.5 230.167,886.5 248.5,886.5C 248.5,926.833 248.5,967.167 248.5,1007.5C 243.5,1007.5 238.5,1007.5 233.5,1007.5C 233.5,972.167 233.5,936.833 233.5,901.5C 225.167,901.5 216.833,901.5 208.5,901.5C 208.5,936.833 208.5,972.167 208.5,1007.5C 203.5,1007.5 198.5,1007.5 193.5,1007.5C 193.5,967.167 193.5,926.833 193.5,886.5 Z"/></g>
<g><path style="opacity:0.98" fill="#11163e" d="M 306.5,1007.5 C 301.5,1007.5 296.5,1007.5 291.5,1007.5C 291.667,973.165 291.5,938.832 291,904.5C 290.167,903.667 289.333,902.833 288.5,902C 281.174,901.5 273.841,901.334 266.5,901.5C 266.5,936.833 266.5,972.167 266.5,1007.5C 261.5,1007.5 256.5,1007.5 251.5,1007.5C 251.5,967.167 251.5,926.833 251.5,886.5C 265.171,886.333 278.837,886.5 292.5,887C 298.272,889.106 302.438,892.939 305,898.5C 306.474,934.785 306.974,971.118 306.5,1007.5 Z"/></g>
<g><path style="opacity:0.992" fill="#131840" d="M 446.5,885.5 C 446.805,890.762 446.471,895.928 445.5,901C 421.594,901.827 397.761,901.66 374,900.5C 373.5,907.492 373.334,914.492 373.5,921.5C 393.833,921.5 414.167,921.5 434.5,921.5C 434.5,926.5 434.5,931.5 434.5,936.5C 409.167,936.5 383.833,936.5 358.5,936.5C 358.5,919.5 358.5,902.5 358.5,885.5C 387.833,885.5 417.167,885.5 446.5,885.5 Z"/></g>
<g><path style="opacity:1" fill="#415381" d="M 479.5,886.5 C 479.5,926.833 479.5,967.167 479.5,1007.5C 478.5,1007.5 477.5,1007.5 476.5,1007.5C 476.5,1007.17 476.5,1006.83 476.5,1006.5C 478.165,966.677 479.165,926.677 479.5,886.5 Z"/></g>
<g><path style="opacity:0.982" fill="#11163e" d="M 479.5,886.5 C 497.833,886.5 516.167,886.5 534.5,886.5C 534.5,926.833 534.5,967.167 534.5,1007.5C 529.5,1007.5 524.5,1007.5 519.5,1007.5C 519.5,972.167 519.5,936.833 519.5,901.5C 511.167,901.5 502.833,901.5 494.5,901.5C 494.5,936.833 494.5,972.167 494.5,1007.5C 489.5,1007.5 484.5,1007.5 479.5,1007.5C 479.5,967.167 479.5,926.833 479.5,886.5 Z"/></g>
<g><path style="opacity:1" fill="#4b5e8e" d="M 479.5,886.5 C 497.993,885.503 516.659,885.17 535.5,885.5C 535.833,1046.83 536.167,1046.83 536.5,885.5C 549.011,885.171 561.345,885.505 573.5,886.5C 561.5,886.5 549.5,886.5 537.5,886.5C 537.5,926.833 537.5,967.167 537.5,1007.5C 536.5,1007.5 535.5,1007.5 534.5,1007.5C 534.5,967.167 534.5,926.833 534.5,886.5C 516.167,886.5 497.833,886.5 479.5,886.5 Z"/></g>
<g><path style="opacity:0.98" fill="#11173e" d="M 573.5,886.5 C 583.197,887.764 589.364,893.097 592,902.5C 592.5,937.498 592.667,972.498 592.5,1007.5C 587.5,1007.5 582.5,1007.5 577.5,1007.5C 577.667,973.165 577.5,938.832 577,904.5C 576.167,903.667 575.333,902.833 574.5,902C 567.174,901.5 559.841,901.334 552.5,901.5C 552.5,936.833 552.5,972.167 552.5,1007.5C 547.5,1007.5 542.5,1007.5 537.5,1007.5C 537.5,967.167 537.5,926.833 537.5,886.5C 549.5,886.5 561.5,886.5 573.5,886.5 Z"/></g>
<g><path style="opacity:0.986" fill="#121840" d="M 1005.5,913.5 C 1005.5,913.833 1005.5,914.167 1005.5,914.5C 1000.5,914.5 995.5,914.5 990.5,914.5C 990.5,910.167 990.5,905.833 990.5,901.5C 978.495,901.333 966.495,901.5 954.5,902C 952.741,903.008 951.574,904.508 951,906.5C 950.502,909.482 950.335,912.482 950.5,915.5C 968.186,920.506 985.853,925.673 1003.5,931C 1013.49,934.993 1019.99,942.16 1023,952.5C 1026.62,971.658 1021.12,987.491 1006.5,1000C 1002.18,1002.77 997.518,1004.77 992.5,1006C 967.869,1007.61 943.203,1007.94 918.5,1007C 917.343,992.241 917.177,977.408 918,962.5C 923.072,961.529 928.238,961.195 933.5,961.5C 933.5,971.5 933.5,981.5 933.5,991.5C 952.17,991.667 970.836,991.5 989.5,991C 999.084,988.415 1004.92,982.248 1007,972.5C 1007.67,966.5 1007.67,960.5 1007,954.5C 1005.5,950.333 1002.67,947.5 998.5,946C 979.612,939.623 960.612,933.623 941.5,928C 936.642,923.597 934.642,918.097 935.5,911.5C 934.619,899.094 939.952,890.594 951.5,886C 969.497,885.5 987.497,885.333 1005.5,885.5C 1005.5,894.833 1005.5,904.167 1005.5,913.5 Z"/></g>
<g><path style="opacity:1" fill="#5971a4" d="M 595.5,1007.5 C 594.5,1007.5 593.5,1007.5 592.5,1007.5C 592.667,972.498 592.5,937.498 592,902.5C 589.364,893.097 583.197,887.764 573.5,886.5C 561.345,885.505 549.011,885.171 536.5,885.5C 536.167,1046.83 535.833,1046.83 535.5,885.5C 516.659,885.17 497.993,885.503 479.5,886.5C 479.165,926.677 478.165,966.677 476.5,1006.5C 476.5,965.5 476.5,924.5 476.5,883.5C 510.168,883.333 543.835,883.5 577.5,884C 586.333,886.833 592.167,892.667 595,901.5C 595.5,936.832 595.667,972.165 595.5,1007.5 Z"/></g>
<g><path style="opacity:1" fill="#5a73a5" d="M 954.5,883.5 C 972.167,883.5 989.833,883.5 1007.5,883.5C 1008.14,893.889 1007.47,903.889 1005.5,913.5C 1005.5,904.167 1005.5,894.833 1005.5,885.5C 987.497,885.333 969.497,885.5 951.5,886C 939.952,890.594 934.619,899.094 935.5,911.5C 934.642,918.097 936.642,923.597 941.5,928C 960.612,933.623 979.612,939.623 998.5,946C 1002.67,947.5 1005.5,950.333 1007,954.5C 1007.67,960.5 1007.67,966.5 1007,972.5C 1004.92,982.248 999.084,988.415 989.5,991C 970.836,991.5 952.17,991.667 933.5,991.5C 933.5,981.5 933.5,971.5 933.5,961.5C 934.167,961.5 934.833,961.5 935.5,961.5C 935.5,961.833 935.5,962.167 935.5,962.5C 935.5,971.5 935.5,980.5 935.5,989.5C 952.675,989.83 969.675,989.497 986.5,988.5C 999.952,985.469 1006.28,976.969 1005.5,963C 1006.51,956.027 1003.85,951.027 997.5,948C 979.035,942.734 960.701,937.067 942.5,931C 937.901,929.402 935.068,926.235 934,921.5C 933.333,914.167 933.333,906.833 934,899.5C 937.821,890.166 944.655,884.832 954.5,883.5 Z"/></g>
<g><path style="opacity:1" fill="#5971a4" d="M 446.5,883.5 C 446.5,884.167 446.5,884.833 446.5,885.5C 417.167,885.5 387.833,885.5 358.5,885.5C 358.5,902.5 358.5,919.5 358.5,936.5C 383.833,936.5 409.167,936.5 434.5,936.5C 434.5,937.167 434.5,937.833 434.5,938.5C 408.833,938.5 383.167,938.5 357.5,938.5C 357.5,955.833 357.5,973.167 357.5,990.5C 387.005,990.169 416.338,990.502 445.5,991.5C 415.671,992.498 385.671,992.831 355.5,992.5C 355.5,956.167 355.5,919.833 355.5,883.5C 385.833,883.5 416.167,883.5 446.5,883.5 Z"/></g>
<g><path style="opacity:0.995" fill="#11163f" d="M 434.5,939.5 C 434.5,944.5 434.5,949.5 434.5,954.5C 414.167,954.5 393.833,954.5 373.5,954.5C 373.5,961.167 373.5,967.833 373.5,974.5C 397.833,974.5 422.167,974.5 446.5,974.5C 446.5,979.5 446.5,984.5 446.5,989.5C 417.167,989.5 387.833,989.5 358.5,989.5C 358.5,972.833 358.5,956.167 358.5,939.5C 383.833,939.5 409.167,939.5 434.5,939.5 Z"/></g>
<g><path style="opacity:1" fill="#5d76a9" d="M 759.5,867.5 C 760.167,867.5 760.833,867.5 761.5,867.5C 761.5,868.167 761.5,868.833 761.5,869.5C 761.5,891.833 761.5,914.167 761.5,936.5C 784.5,936.5 807.5,936.5 830.5,936.5C 830.5,913.833 830.5,891.167 830.5,868.5C 830.5,868.167 830.5,867.833 830.5,867.5C 831.167,867.5 831.833,867.5 832.5,867.5C 832.5,914.167 832.5,960.833 832.5,1007.5C 831.833,1007.5 831.167,1007.5 830.5,1007.5C 830.5,984.5 830.5,961.5 830.5,938.5C 807.327,938.169 784.327,938.502 761.5,939.5C 761.5,962.167 761.5,984.833 761.5,1007.5C 760.833,1007.5 760.167,1007.5 759.5,1007.5C 759.5,960.833 759.5,914.167 759.5,867.5 Z"/></g>
<g><path style="opacity:1" fill="#26305b" d="M 830.5,868.5 C 830.5,891.167 830.5,913.833 830.5,936.5C 807.5,936.5 784.5,936.5 761.5,936.5C 761.5,914.167 761.5,891.833 761.5,869.5C 762.497,891.327 762.831,913.327 762.5,935.5C 784.833,935.5 807.167,935.5 829.5,935.5C 829.169,912.994 829.503,890.66 830.5,868.5 Z"/></g>
<g><path style="opacity:0.985" fill="#12163e" d="M 761.5,867.5 C 766.5,867.5 771.5,867.5 776.5,867.5C 776.5,885.5 776.5,903.5 776.5,921.5C 789.167,921.5 801.833,921.5 814.5,921.5C 814.333,903.83 814.5,886.164 815,868.5C 820.072,867.529 825.238,867.195 830.5,867.5C 830.5,867.833 830.5,868.167 830.5,868.5C 829.503,890.66 829.169,912.994 829.5,935.5C 807.167,935.5 784.833,935.5 762.5,935.5C 762.831,913.327 762.497,891.327 761.5,869.5C 761.5,868.833 761.5,868.167 761.5,867.5 Z"/></g>
<g><path style="opacity:0.975" fill="#12173f" d="M 761.5,939.5 C 784.167,939.5 806.833,939.5 829.5,939.5C 829.5,962.167 829.5,984.833 829.5,1007.5C 824.57,1007.8 819.737,1007.47 815,1006.5C 814.5,989.17 814.333,971.837 814.5,954.5C 801.833,954.5 789.167,954.5 776.5,954.5C 776.5,972.167 776.5,989.833 776.5,1007.5C 771.5,1007.5 766.5,1007.5 761.5,1007.5C 761.5,984.833 761.5,962.167 761.5,939.5 Z"/></g>
<g><path style="opacity:1" fill="#354371" d="M 761.5,939.5 C 784.327,938.502 807.327,938.169 830.5,938.5C 830.5,961.5 830.5,984.5 830.5,1007.5C 830.167,1007.5 829.833,1007.5 829.5,1007.5C 829.5,984.833 829.5,962.167 829.5,939.5C 806.833,939.5 784.167,939.5 761.5,939.5 Z"/></g>
<g><path style="opacity:1" fill="#5c75a8" d="M 644.5,947.5 C 644.163,967.355 643.163,987.021 641.5,1006.5C 641.5,965.5 641.5,924.5 641.5,883.5C 661.221,883.049 680.888,883.549 700.5,885C 707.881,888.715 712.715,894.549 715,902.5C 715.859,912.219 715.526,921.885 714,931.5C 710.538,939.967 704.372,945.134 695.5,947C 678.503,947.5 661.503,947.667 644.5,947.5 Z M 659.5,900.5 C 659.5,910.167 659.5,919.833 659.5,929.5C 670.838,929.667 682.172,929.5 693.5,929C 695.333,928.5 696.5,927.333 697,925.5C 697.667,918.833 697.667,912.167 697,905.5C 696.535,904.069 695.701,902.903 694.5,902C 682.758,901.812 671.091,901.312 659.5,900.5 Z"/></g>
<g><path style="opacity:0.996" fill="#11163e" d="M 695.5,886.5 C 709.056,891.25 714.723,900.917 712.5,915.5C 714.882,931.105 708.549,940.772 693.5,944.5C 677.167,944.5 660.833,944.5 644.5,944.5C 644.5,925.167 644.5,905.833 644.5,886.5C 661.5,886.5 678.5,886.5 695.5,886.5 Z M 659.5,900.5 C 659.5,910.167 659.5,919.833 659.5,929.5C 670.838,929.667 682.172,929.5 693.5,929C 695.333,928.5 696.5,927.333 697,925.5C 697.667,918.833 697.667,912.167 697,905.5C 696.535,904.069 695.701,902.903 694.5,902C 682.758,901.812 671.091,901.312 659.5,900.5 Z"/></g>
<g><path style="opacity:1" fill="#344371" d="M 695.5,886.5 C 678.5,886.5 661.5,886.5 644.5,886.5C 644.5,905.833 644.5,925.167 644.5,944.5C 660.833,944.5 677.167,944.5 693.5,944.5C 677.008,945.497 660.342,945.83 643.5,945.5C 643.5,925.5 643.5,905.5 643.5,885.5C 661.008,885.17 678.341,885.503 695.5,886.5 Z"/></g>
<g><path style="opacity:1" fill="#3a4976" d="M 644.5,947.5 C 644.5,967.5 644.5,987.5 644.5,1007.5C 643.5,1007.5 642.5,1007.5 641.5,1007.5C 641.5,1007.17 641.5,1006.83 641.5,1006.5C 643.163,987.021 644.163,967.355 644.5,947.5 Z"/></g>
<g><path style="opacity:1" fill="#29335f" d="M 935.5,962.5 C 936.493,970.984 936.826,979.651 936.5,988.5C 953.167,988.5 969.833,988.5 986.5,988.5C 969.675,989.497 952.675,989.83 935.5,989.5C 935.5,980.5 935.5,971.5 935.5,962.5 Z"/></g>
<g><path style="opacity:1" fill="#485b8b" d="M 434.5,938.5 C 434.5,938.833 434.5,939.167 434.5,939.5C 409.167,939.5 383.833,939.5 358.5,939.5C 358.5,956.167 358.5,972.833 358.5,989.5C 387.833,989.5 417.167,989.5 446.5,989.5C 446.5,990.167 446.5,990.833 446.5,991.5C 446.167,991.5 445.833,991.5 445.5,991.5C 416.338,990.502 387.005,990.169 357.5,990.5C 357.5,973.167 357.5,955.833 357.5,938.5C 383.167,938.5 408.833,938.5 434.5,938.5 Z"/></g>
<g><path style="opacity:0.984" fill="#12163e" d="M 190.5,1033.5 C 201.505,1033.33 212.505,1033.5 223.5,1034C 234.257,1039 239.257,1047.5 238.5,1059.5C 232.167,1059.5 225.833,1059.5 219.5,1059.5C 220.039,1056.31 219.039,1053.81 216.5,1052C 210.167,1051.33 203.833,1051.33 197.5,1052C 196.584,1052.37 195.75,1052.87 195,1053.5C 194.179,1065.74 194.346,1077.91 195.5,1090C 203.412,1090.18 211.246,1090.68 219,1091.5C 219.495,1089.53 219.662,1087.53 219.5,1085.5C 215.833,1085.5 212.167,1085.5 208.5,1085.5C 208.5,1079.17 208.5,1072.83 208.5,1066.5C 218.5,1066.5 228.5,1066.5 238.5,1066.5C 238.5,1080.83 238.5,1095.17 238.5,1109.5C 222.497,1109.67 206.497,1109.5 190.5,1109C 183.667,1106.17 178.833,1101.33 176,1094.5C 175.333,1079.17 175.333,1063.83 176,1048.5C 179.021,1041.65 183.855,1036.65 190.5,1033.5 Z"/></g>
<g><path style="opacity:0.979" fill="#11173e" d="M 284.5,1033.5 C 300.17,1033.33 315.837,1033.5 331.5,1034C 338.758,1036.92 343.592,1042.09 346,1049.5C 346.667,1056.17 346.667,1062.83 346,1069.5C 345.064,1073.21 343.231,1076.37 340.5,1079C 342.377,1081.25 343.877,1083.75 345,1086.5C 346.205,1094.12 346.705,1101.79 346.5,1109.5C 340.167,1109.5 333.833,1109.5 327.5,1109.5C 331.124,1089.13 322.79,1081.46 302.5,1086.5C 302.5,1094.17 302.5,1101.83 302.5,1109.5C 296.5,1109.5 290.5,1109.5 284.5,1109.5C 284.5,1084.17 284.5,1058.83 284.5,1033.5 Z M 324.5,1051.5 C 325.15,1051.8 325.817,1052.14 326.5,1052.5C 327.802,1057.38 327.802,1062.22 326.5,1067C 318.507,1067.5 310.507,1067.67 302.5,1067.5C 302.5,1062.5 302.5,1057.5 302.5,1052.5C 310.019,1052.82 317.352,1052.49 324.5,1051.5 Z"/></g>
<g><path style="opacity:0.978" fill="#11163e" d="M 392.5,1033.5 C 398.833,1033.5 405.167,1033.5 411.5,1033.5C 411.5,1058.83 411.5,1084.17 411.5,1109.5C 405.167,1109.5 398.833,1109.5 392.5,1109.5C 392.5,1084.17 392.5,1058.83 392.5,1033.5 Z"/></g>
<g><path style="opacity:0.985" fill="#11173e" d="M 565.5,1033.5 C 588.176,1033.17 610.843,1033.5 633.5,1034.5C 620.919,1052.66 608.586,1070.99 596.5,1089.5C 607.48,1090.5 618.48,1090.83 629.5,1090.5C 629.5,1096.83 629.5,1103.17 629.5,1109.5C 606.498,1109.67 583.498,1109.5 560.5,1109C 573.5,1090 586.5,1071 599.5,1052C 588.172,1051.5 576.838,1051.33 565.5,1051.5C 565.5,1045.5 565.5,1039.5 565.5,1033.5 Z"/></g>
<g><path style="opacity:0.972" fill="#11163e" d="M 678.5,1033.5 C 684.833,1033.5 691.167,1033.5 697.5,1033.5C 697.5,1052.5 697.5,1071.5 697.5,1090.5C 712.167,1090.5 726.833,1090.5 741.5,1090.5C 741.5,1096.83 741.5,1103.17 741.5,1109.5C 720.5,1109.5 699.5,1109.5 678.5,1109.5C 678.5,1084.17 678.5,1058.83 678.5,1033.5 Z"/></g>
<g><path style="opacity:0.99" fill="#11163e" d="M 784.5,1033.5 C 790.833,1033.5 797.167,1033.5 803.5,1033.5C 803.5,1058.83 803.5,1084.17 803.5,1109.5C 797.167,1109.5 790.833,1109.5 784.5,1109.5C 784.5,1084.17 784.5,1058.83 784.5,1033.5 Z"/></g>
<g><path style="opacity:0.985" fill="#12173e" d="M 851.5,1033.5 C 872.833,1033.5 894.167,1033.5 915.5,1033.5C 915.5,1039.5 915.5,1045.5 915.5,1051.5C 900.5,1051.5 885.5,1051.5 870.5,1051.5C 870.5,1054.83 870.5,1058.17 870.5,1061.5C 883.5,1061.5 896.5,1061.5 909.5,1061.5C 909.81,1067.76 909.476,1073.92 908.5,1080C 896.121,1080.81 883.787,1080.65 871.5,1079.5C 870.511,1083.11 870.177,1086.77 870.5,1090.5C 885.5,1090.5 900.5,1090.5 915.5,1090.5C 915.5,1096.83 915.5,1103.17 915.5,1109.5C 894.167,1109.5 872.833,1109.5 851.5,1109.5C 851.5,1084.17 851.5,1058.83 851.5,1033.5 Z"/></g>
<g><path style="opacity:0.983" fill="#11163e" d="M 975.5,1033.5 C 986.172,1033.33 996.839,1033.5 1007.5,1034C 1018.53,1038.89 1023.86,1047.39 1023.5,1059.5C 1017.17,1059.5 1010.83,1059.5 1004.5,1059.5C 1005.04,1056.31 1004.04,1053.81 1001.5,1052C 994.833,1051.33 988.167,1051.33 981.5,1052C 978.649,1053.74 977.982,1056.08 979.5,1059C 990.61,1061.59 1001.61,1064.59 1012.5,1068C 1018.26,1070.66 1021.76,1075.16 1023,1081.5C 1024.45,1094.44 1019.28,1103.61 1007.5,1109C 996.5,1109.67 985.5,1109.67 974.5,1109C 964.013,1104.19 959.013,1096.03 959.5,1084.5C 965.833,1084.5 972.167,1084.5 978.5,1084.5C 978.357,1086.26 978.691,1087.93 979.5,1089.5C 987.145,1090.66 994.812,1090.83 1002.5,1090C 1003.41,1088.3 1003.74,1086.47 1003.5,1084.5C 990.941,1081.78 978.608,1078.28 966.5,1074C 958.173,1064.21 957.339,1053.71 964,1042.5C 967.161,1038.49 970.994,1035.49 975.5,1033.5 Z"/></g>
<g><path style="opacity:0.985" fill="#12173e" d="M 456.5,1033.5 C 479.176,1033.17 501.843,1033.5 524.5,1034.5C 512.291,1053.09 499.957,1071.59 487.5,1090C 498.495,1090.5 509.495,1090.67 520.5,1090.5C 520.5,1096.83 520.5,1103.17 520.5,1109.5C 497.824,1109.83 475.157,1109.5 452.5,1108.5C 464.795,1089.41 477.462,1070.57 490.5,1052C 479.172,1051.5 467.838,1051.33 456.5,1051.5C 456.5,1045.5 456.5,1039.5 456.5,1033.5 Z"/></g>
</svg>
